<?xml version="1.0" encoding="UTF-8" standalone="no"?><svg xmlns="http://www.w3.org/2000/svg" xmlns:xlink="http://www.w3.org/1999/xlink" clip-rule="evenodd" stroke-miterlimit="10" viewBox="0 0 95 86"><desc>SVG generated by Keynote</desc><defs></defs><g transform="matrix(1.00, 0.00, -0.00, -1.00, 0.0, 86.0)"><path d="M 92.2 41.6 L 51.0 82.8 C 48.9 85.0 45.5 85.0 43.4 82.8 L 2.2 41.6 C 0.1 39.4 0.9 38.0 4.0 38.0 L 13.0 38.0 L 13.0 6.0 C 13.0 3.7 12.7 2.0 16.8 2.0 L 37.0 2.0 L 37.0 34.0 L 58.0 34.0 L 58.0 2.0 L 78.6 2.0 C 81.7 2.0 82.0 3.7 82.0 6.0 L 82.0 38.0 L 90.4 38.0 C 93.5 38.0 94.3 39.4 92.2 41.6 Z M 92.2 41.6 " fill="#FEFFFE"></path></g></svg>