<?xml version="1.0" encoding="UTF-8" standalone="no"?><svg xmlns="http://www.w3.org/2000/svg" xmlns:xlink="http://www.w3.org/1999/xlink" clip-rule="evenodd" stroke-miterlimit="10" viewBox="0 0 42 100"><desc>SVG generated by Keynote</desc><defs></defs><g transform="matrix(1.00, 0.00, -0.00, -1.00, 0.0, 100.0)"><g><clipPath id="clip0x608000ebbc00"><path d="M 0.7 0.3 L 41.5 0.3 L 41.5 82.9 L 0.7 82.9 Z M 0.7 0.3 "></path></clipPath><g clip-path="url(#clip0x608000ebbc00)"><path d="M 11.1 81.9 C 30.6 81.9 30.6 81.9 30.6 81.9 C 37.5 81.9 40.5 76.0 40.5 74.0 C 40.5 45.5 40.5 45.5 40.5 45.5 C 40.5 44.0 39.0 42.5 37.1 42.5 C 35.1 42.5 34.1 44.0 34.1 45.5 C 34.1 69.1 34.1 69.1 34.1 69.1 C 31.1 69.1 31.1 69.1 31.1 69.1 C 31.1 46.5 31.1 46.5 31.1 46.5 C 31.1 46.5 31.1 46.0 31.1 45.5 C 31.1 6.2 31.1 6.2 31.1 6.2 C 31.1 3.2 29.1 1.3 26.6 1.3 C 24.1 1.3 22.1 3.2 22.1 6.2 C 22.1 41.1 22.1 41.1 22.1 41.1 C 20.1 41.1 20.1 41.1 20.1 41.1 C 20.1 6.2 20.1 6.2 20.1 6.2 C 20.1 3.2 18.1 1.3 15.6 1.3 C 13.1 1.3 11.1 3.2 11.1 6.2 C 11.1 69.1 11.1 69.1 11.1 69.1 C 8.6 69.1 8.6 69.1 8.6 69.1 C 8.6 45.5 8.6 45.5 8.6 45.5 C 8.6 44.0 7.2 42.5 5.2 42.5 C 3.2 42.5 1.7 44.0 1.7 45.5 C 1.7 74.5 1.7 74.5 1.7 74.5 C 1.7 76.9 4.7 81.9 11.1 81.9 " fill="#7FC7EA"></path></g></g><g><clipPath id="clip0x608000ebba20"><path d="M 12.0 82.3 L 29.6 82.3 L 29.6 99.5 L 12.0 99.5 Z M 12.0 82.3 "></path></clipPath><g clip-path="url(#clip0x608000ebba20)"><path d="M 15.3 96.3 C 12.3 93.3 12.3 88.5 15.3 85.5 C 18.3 82.6 23.3 82.6 26.3 85.5 C 29.3 88.5 29.3 93.3 26.3 96.3 C 23.3 99.3 18.3 99.3 15.3 96.3 " fill="#7FC7EA"></path></g></g></g></svg>