<?xml version="1.0" encoding="UTF-8" standalone="no"?><svg xmlns="http://www.w3.org/2000/svg" xmlns:xlink="http://www.w3.org/1999/xlink" clip-rule="evenodd" stroke-miterlimit="10" viewBox="0 0 158 10"><desc>SVG generated by Keynote</desc><defs></defs><g transform="matrix(1.00, 0.00, -0.00, -1.00, 0.0, 10.0)"><path d="M 149.7 1.3 L 149.5 1.3 C 116.1 0.0 68.0 -0.0 5.0 0.3 L 4.7 0.3 " fill="none" stroke="#52575F" stroke-width="1.00" transform="matrix(1.00, 0.00, 0.00, -1.00, 1.3, 5.8)"></path><path d="M 4.0 3.0 C 2.6 3.0 1.5 4.1 1.5 5.5 C 1.5 6.9 2.6 8.0 4.0 8.0 C 5.4 8.0 6.5 6.9 6.5 5.5 C 6.5 4.1 5.4 3.0 4.0 3.0 Z M 4.0 3.0 " fill="#52575F"></path><path d="M 150.4 1.5 L 156.5 4.3 L 150.6 7.5 Z M 150.4 1.5 " fill="#52575F"></path></g></svg>