<?xml version="1.0" encoding="UTF-8" standalone="no"?><svg xmlns="http://www.w3.org/2000/svg" xmlns:xlink="http://www.w3.org/1999/xlink" clip-rule="evenodd" stroke-miterlimit="10" viewBox="0 0 99 15"><desc>SVG generated by Keynote</desc><defs></defs><g transform="matrix(1.00, 0.00, -0.00, -1.00, 0.0, 15.0)"><text xml:space="preserve" font-family="KontrapunktBob-Bold,Kontrapunkt Bob" font-weight="bold" font-size="16.0" fill="#7FC7EA" transform="matrix(1.00, 0.00, -0.00, -1.00, 0.2, 2.1)">I</text><text xml:space="preserve" font-family="KontrapunktBob-Bold,Kontrapunkt Bob" font-weight="bold" font-size="16.0" fill="#7FC7EA" transform="matrix(1.00, 0.00, -0.00, -1.00, 6.3, 2.1)">n</text><text xml:space="preserve" font-family="KontrapunktBob-Bold,Kontrapunkt Bob" font-weight="bold" font-size="16.0" fill="#7FC7EA" transform="matrix(1.00, 0.00, -0.00, -1.00, 17.4, 2.1)">t</text><text xml:space="preserve" font-family="KontrapunktBob-Bold,Kontrapunkt Bob" font-weight="bold" font-size="16.0" fill="#7FC7EA" transform="matrix(1.00, 0.00, -0.00, -1.00, 24.2, 2.1)">e</text><text xml:space="preserve" font-family="KontrapunktBob-Bold,Kontrapunkt Bob" font-weight="bold" font-size="16.0" fill="#7FC7EA" transform="matrix(1.00, 0.00, -0.00, -1.00, 33.7, 2.1)">r</text><text xml:space="preserve" font-family="KontrapunktBob-Bold,Kontrapunkt Bob" font-weight="bold" font-size="16.0" fill="#7FC7EA" transform="matrix(1.00, 0.00, -0.00, -1.00, 41.1, 2.1)">e</text><text xml:space="preserve" font-family="KontrapunktBob-Bold,Kontrapunkt Bob" font-weight="bold" font-size="16.0" fill="#7FC7EA" transform="matrix(1.00, 0.00, -0.00, -1.00, 50.7, 2.1)">s</text><text xml:space="preserve" font-family="KontrapunktBob-Bold,Kontrapunkt Bob" font-weight="bold" font-size="16.0" fill="#7FC7EA" transform="matrix(1.00, 0.00, -0.00, -1.00, 58.3, 2.1)">a</text><text xml:space="preserve" font-family="KontrapunktBob-Bold,Kontrapunkt Bob" font-weight="bold" font-size="16.0" fill="#7FC7EA" transform="matrix(1.00, 0.00, -0.00, -1.00, 67.9, 2.1)">d</text><text xml:space="preserve" font-family="KontrapunktBob-Bold,Kontrapunkt Bob" font-weight="bold" font-size="16.0" fill="#7FC7EA" transform="matrix(1.00, 0.00, -0.00, -1.00, 79.1, 2.1)">o</text><text xml:space="preserve" font-family="KontrapunktBob-Bold,Kontrapunkt Bob" font-weight="bold" font-size="16.0" fill="#7FC7EA" transform="matrix(1.00, 0.00, -0.00, -1.00, 89.5, 2.1)">s</text></g></svg>