<?xml version="1.0" encoding="UTF-8" standalone="no"?><svg xmlns="http://www.w3.org/2000/svg" xmlns:xlink="http://www.w3.org/1999/xlink" clip-rule="evenodd" stroke-miterlimit="10" viewBox="0 0 158 10"><desc>SVG generated by Keynote</desc><defs></defs><g transform="matrix(1.00, 0.00, -0.00, -1.00, 0.0, 10.0)"><path d="M 5.8 0.3 L 6.0 0.3 C 39.3 1.7 87.5 2.6 150.5 2.3 L 150.8 2.3 " fill="none" stroke="#52575F" stroke-width="1.00" transform="matrix(1.00, 0.00, 0.00, -1.00, 1.2, 5.8)"></path><path d="M 154.0 6.0 C 155.4 6.0 156.5 4.9 156.5 3.5 C 156.5 2.1 155.4 1.0 154.0 1.0 C 152.6 1.0 151.5 2.1 151.5 3.5 C 151.5 4.9 152.6 6.0 154.0 6.0 Z M 154.0 6.0 " fill="#52575F"></path><path d="M 7.6 8.5 L 1.5 5.7 L 7.4 2.5 Z M 7.6 8.5 " fill="#52575F"></path></g></svg>