<?xml version="1.0" encoding="UTF-8" standalone="no"?><svg xmlns="http://www.w3.org/2000/svg" xmlns:xlink="http://www.w3.org/1999/xlink" clip-rule="evenodd" stroke-miterlimit="10" viewBox="0 0 180 30"><desc>SVG generated by Keynote</desc><defs></defs><g transform="matrix(1.00, 0.00, -0.00, -1.00, 0.0, 30.0)"><g><clipPath id="clip0x610000aac000"><path d="M -1.0 0.6 L 180.6 0.6 L 180.6 29.0 L -1.0 29.0 Z M -1.0 0.6 "></path></clipPath><g clip-path="url(#clip0x610000aac000)"><text xml:space="preserve" font-family="KontrapunktBob-Bold,Kontrapunkt Bob" font-weight="bold" font-size="16.0" fill="#7FC7EA" transform="matrix(1.00, 0.00, -0.00, -1.00, 3.7, 9.7)">A</text><text xml:space="preserve" font-family="KontrapunktBob-Bold,Kontrapunkt Bob" font-weight="bold" font-size="16.0" fill="#7FC7EA" transform="matrix(1.00, 0.00, -0.00, -1.00, 16.3, 9.7)">d</text><text xml:space="preserve" font-family="KontrapunktBob-Bold,Kontrapunkt Bob" font-weight="bold" font-size="16.0" fill="#7FC7EA" transform="matrix(1.00, 0.00, -0.00, -1.00, 27.5, 9.7)">m</text><text xml:space="preserve" font-family="KontrapunktBob-Bold,Kontrapunkt Bob" font-weight="bold" font-size="16.0" fill="#7FC7EA" transform="matrix(1.00, 0.00, -0.00, -1.00, 43.9, 9.7)">i</text><text xml:space="preserve" font-family="KontrapunktBob-Bold,Kontrapunkt Bob" font-weight="bold" font-size="16.0" fill="#7FC7EA" transform="matrix(1.00, 0.00, -0.00, -1.00, 49.4, 9.7)">n</text><text xml:space="preserve" font-family="KontrapunktBob-Bold,Kontrapunkt Bob" font-weight="bold" font-size="16.0" fill="#7FC7EA" transform="matrix(1.00, 0.00, -0.00, -1.00, 60.5, 9.7)">i</text><text xml:space="preserve" font-family="KontrapunktBob-Bold,Kontrapunkt Bob" font-weight="bold" font-size="16.0" fill="#7FC7EA" transform="matrix(1.00, 0.00, -0.00, -1.00, 66.0, 9.7)">s</text><text xml:space="preserve" font-family="KontrapunktBob-Bold,Kontrapunkt Bob" font-weight="bold" font-size="16.0" fill="#7FC7EA" transform="matrix(1.00, 0.00, -0.00, -1.00, 73.7, 9.7)">t</text><text xml:space="preserve" font-family="KontrapunktBob-Bold,Kontrapunkt Bob" font-weight="bold" font-size="16.0" fill="#7FC7EA" transform="matrix(1.00, 0.00, -0.00, -1.00, 80.7, 9.7)">r</text><text xml:space="preserve" font-family="KontrapunktBob-Bold,Kontrapunkt Bob" font-weight="bold" font-size="16.0" fill="#7FC7EA" transform="matrix(1.00, 0.00, -0.00, -1.00, 88.3, 9.7)">a</text><text xml:space="preserve" font-family="KontrapunktBob-Bold,Kontrapunkt Bob" font-weight="bold" font-size="16.0" fill="#7FC7EA" transform="matrix(1.00, 0.00, -0.00, -1.00, 97.8, 9.7)">c</text><text xml:space="preserve" font-family="KontrapunktBob-Bold,Kontrapunkt Bob" font-weight="bold" font-size="16.0" fill="#7FC7EA" transform="matrix(1.00, 0.00, -0.00, -1.00, 106.7, 9.7)">i</text><text xml:space="preserve" font-family="KontrapunktBob-Bold,Kontrapunkt Bob" font-weight="bold" font-size="16.0" fill="#7FC7EA" transform="matrix(1.00, 0.00, -0.00, -1.00, 112.2, 9.7)">รณ</text><text xml:space="preserve" font-family="KontrapunktBob-Bold,Kontrapunkt Bob" font-weight="bold" font-size="16.0" fill="#7FC7EA" transform="matrix(1.00, 0.00, -0.00, -1.00, 122.6, 9.7)">n</text></g></g></g></svg>