<?xml version="1.0" encoding="UTF-8" standalone="no"?><svg xmlns="http://www.w3.org/2000/svg" xmlns:xlink="http://www.w3.org/1999/xlink" clip-rule="evenodd" stroke-miterlimit="10" viewBox="0 0 126 120"><desc>SVG generated by Keynote</desc><defs></defs><g transform="matrix(1.00, 0.00, -0.00, -1.00, 0.0, 120.0)"><path d="M 5.4 0.5 L 6.0 0.5 C 70.5 5.5 108.2 41.8 119.9 109.9 L 119.9 110.0 " fill="none" stroke="#52575F" stroke-width="1.00" transform="matrix(1.00, 0.00, 0.00, -1.00, 1.6, 116.0)"></path><path d="M 124.3 4.4 C 124.5 3.1 123.6 1.8 122.2 1.6 C 120.9 1.3 119.6 2.3 119.3 3.6 C 119.1 5.0 120.1 6.3 121.4 6.5 C 122.8 6.7 124.1 5.8 124.3 4.4 Z M 124.3 4.4 " fill="#52575F"></path><path d="M 7.7 118.5 L 1.5 115.8 L 7.3 112.5 Z M 7.7 118.5 " fill="#52575F"></path></g></svg>