<?xml version="1.0" encoding="UTF-8" standalone="no"?><svg xmlns="http://www.w3.org/2000/svg" xmlns:xlink="http://www.w3.org/1999/xlink" clip-rule="evenodd" stroke-miterlimit="10" viewBox="0 0 9 40"><desc>SVG generated by Keynote</desc><defs></defs><g transform="matrix(1.00, 0.00, -0.00, -1.00, 0.0, 40.0)"><path d="M 5.6 0.6 L 5.9 0.6 C 12.7 1.3 21.4 1.7 32.0 1.6 L 32.6 1.6 " fill="none" stroke="#52575F" stroke-width="1.00" transform="matrix(0.00, 1.00, 1.00, 0.00, 3.9, 1.4)"></path><path d="M 3.0 36.0 C 2.9 37.3 4.0 38.5 5.4 38.5 C 6.8 38.5 7.9 37.4 8.0 36.0 C 8.0 34.7 6.9 33.5 5.5 33.5 C 4.1 33.5 3.0 34.6 3.0 36.0 Z M 3.0 36.0 " fill="#52575F"></path><path d="M 1.6 7.9 L 3.8 1.5 L 7.5 7.1 Z M 1.6 7.9 " fill="#52575F"></path></g></svg>