<?xml version="1.0" encoding="UTF-8" standalone="no"?><svg xmlns="http://www.w3.org/2000/svg" xmlns:xlink="http://www.w3.org/1999/xlink" clip-rule="evenodd" stroke-miterlimit="10" viewBox="0 0 41 100"><desc>SVG generated by Keynote</desc><defs></defs><g transform="matrix(1.00, 0.00, -0.00, -1.00, 0.0, 100.0)"><g><clipPath id="clip0x6000018a0540"><path d="M 0.1 0.1 L 41.0 0.1 L 41.0 82.7 L 0.1 82.7 Z M 0.1 0.1 "></path></clipPath><g clip-path="url(#clip0x6000018a0540)"><path d="M 10.6 81.7 C 30.0 81.7 30.0 81.7 30.0 81.7 C 37.0 81.7 40.0 75.8 40.0 73.8 C 40.0 45.3 40.0 45.3 40.0 45.3 C 40.0 43.9 38.5 42.4 36.5 42.4 C 34.5 42.4 33.5 43.9 33.5 45.3 C 33.5 68.9 33.5 68.9 33.5 68.9 C 30.5 68.9 30.5 68.9 30.5 68.9 C 30.5 46.3 30.5 46.3 30.5 46.3 C 30.5 46.3 30.5 45.8 30.5 45.3 C 30.5 6.0 30.5 6.0 30.5 6.0 C 30.5 3.1 28.5 1.1 26.0 1.1 C 23.5 1.1 21.5 3.1 21.5 6.0 C 21.5 40.9 21.5 40.9 21.5 40.9 C 19.5 40.9 19.5 40.9 19.5 40.9 C 19.5 6.0 19.5 6.0 19.5 6.0 C 19.5 3.1 17.5 1.1 15.1 1.1 C 12.6 1.1 10.6 3.1 10.6 6.0 C 10.6 68.9 10.6 68.9 10.6 68.9 C 8.1 68.9 8.1 68.9 8.1 68.9 C 8.1 45.3 8.1 45.3 8.1 45.3 C 8.1 43.9 6.6 42.4 4.6 42.4 C 2.6 42.4 1.1 43.9 1.1 45.3 C 1.1 74.3 1.1 74.3 1.1 74.3 C 1.1 76.8 4.1 81.7 10.6 81.7 " fill="#7FC7EA"></path></g></g><g><clipPath id="clip0x6000018a0300"><path d="M 11.4 82.2 L 29.0 82.2 L 29.0 99.4 L 11.4 99.4 Z M 11.4 82.2 "></path></clipPath><g clip-path="url(#clip0x6000018a0300)"><path d="M 14.7 96.1 C 11.7 93.2 11.7 88.4 14.7 85.4 C 17.8 82.4 22.7 82.4 25.7 85.4 C 28.8 88.4 28.8 93.2 25.7 96.1 C 22.7 99.1 17.8 99.1 14.7 96.1 " fill="#7FC7EA"></path></g></g></g></svg>