<?xml version="1.0" encoding="UTF-8" standalone="no"?><svg xmlns="http://www.w3.org/2000/svg" xmlns:xlink="http://www.w3.org/1999/xlink" clip-rule="evenodd" stroke-miterlimit="10" viewBox="0 0 180 30"><desc>SVG generated by Keynote</desc><defs></defs><g transform="matrix(1.00, 0.00, -0.00, -1.00, 0.0, 30.0)"><g><clipPath id="clip0x610000aa8dc0"><path d="M -0.7 0.3 L 181.0 0.3 L 181.0 28.6 L -0.7 28.6 Z M -0.7 0.3 "></path></clipPath><g clip-path="url(#clip0x610000aa8dc0)"><text xml:space="preserve" font-family="KontrapunktBob-Bold,Kontrapunkt Bob" font-weight="bold" font-size="16.0" fill="#7FC7EA" transform="matrix(1.00, 0.00, -0.00, -1.00, 4.0, 9.4)">U</text><text xml:space="preserve" font-family="KontrapunktBob-Bold,Kontrapunkt Bob" font-weight="bold" font-size="16.0" fill="#7FC7EA" transform="matrix(1.00, 0.00, -0.00, -1.00, 17.0, 9.4)">s</text><text xml:space="preserve" font-family="KontrapunktBob-Bold,Kontrapunkt Bob" font-weight="bold" font-size="16.0" fill="#7FC7EA" transform="matrix(1.00, 0.00, -0.00, -1.00, 24.7, 9.4)">u</text><text xml:space="preserve" font-family="KontrapunktBob-Bold,Kontrapunkt Bob" font-weight="bold" font-size="16.0" fill="#7FC7EA" transform="matrix(1.00, 0.00, -0.00, -1.00, 35.5, 9.4)">a</text><text xml:space="preserve" font-family="KontrapunktBob-Bold,Kontrapunkt Bob" font-weight="bold" font-size="16.0" fill="#7FC7EA" transform="matrix(1.00, 0.00, -0.00, -1.00, 45.1, 9.4)">r</text><text xml:space="preserve" font-family="KontrapunktBob-Bold,Kontrapunkt Bob" font-weight="bold" font-size="16.0" fill="#7FC7EA" transform="matrix(1.00, 0.00, -0.00, -1.00, 52.6, 9.4)">i</text><text xml:space="preserve" font-family="KontrapunktBob-Bold,Kontrapunkt Bob" font-weight="bold" font-size="16.0" fill="#7FC7EA" transform="matrix(1.00, 0.00, -0.00, -1.00, 58.1, 9.4)">o</text><text xml:space="preserve" font-family="KontrapunktBob-Bold,Kontrapunkt Bob" font-weight="bold" font-size="16.0" fill="#7FC7EA" transform="matrix(1.00, 0.00, -0.00, -1.00, 68.5, 9.4)">s</text><text xml:space="preserve" font-family="KontrapunktBob-Bold,Kontrapunkt Bob" font-weight="bold" font-size="16.0" fill="#7FC7EA" transform="matrix(1.00, 0.00, -0.00, -1.00, 76.2, 9.4)"> </text><text xml:space="preserve" font-family="KontrapunktBob-Bold,Kontrapunkt Bob" font-weight="bold" font-size="16.0" fill="#7FC7EA" transform="matrix(1.00, 0.00, -0.00, -1.00, 80.4, 9.4)">d</text><text xml:space="preserve" font-family="KontrapunktBob-Bold,Kontrapunkt Bob" font-weight="bold" font-size="16.0" fill="#7FC7EA" transform="matrix(1.00, 0.00, -0.00, -1.00, 91.6, 9.4)">e</text><text xml:space="preserve" font-family="KontrapunktBob-Bold,Kontrapunkt Bob" font-weight="bold" font-size="16.0" fill="#7FC7EA" transform="matrix(1.00, 0.00, -0.00, -1.00, 101.1, 9.4)"> </text><text xml:space="preserve" font-family="KontrapunktBob-Bold,Kontrapunkt Bob" font-weight="bold" font-size="16.0" fill="#7FC7EA" transform="matrix(1.00, 0.00, -0.00, -1.00, 105.3, 9.4)">d</text><text xml:space="preserve" font-family="KontrapunktBob-Bold,Kontrapunkt Bob" font-weight="bold" font-size="16.0" fill="#7FC7EA" transform="matrix(1.00, 0.00, -0.00, -1.00, 116.5, 9.4)">r</text><text xml:space="preserve" font-family="KontrapunktBob-Bold,Kontrapunkt Bob" font-weight="bold" font-size="16.0" fill="#7FC7EA" transform="matrix(1.00, 0.00, -0.00, -1.00, 123.9, 9.4)">o</text><text xml:space="preserve" font-family="KontrapunktBob-Bold,Kontrapunkt Bob" font-weight="bold" font-size="16.0" fill="#7FC7EA" transform="matrix(1.00, 0.00, -0.00, -1.00, 134.3, 9.4)">n</text><text xml:space="preserve" font-family="KontrapunktBob-Bold,Kontrapunkt Bob" font-weight="bold" font-size="16.0" fill="#7FC7EA" transform="matrix(1.00, 0.00, -0.00, -1.00, 145.4, 9.4)">e</text><text xml:space="preserve" font-family="KontrapunktBob-Bold,Kontrapunkt Bob" font-weight="bold" font-size="16.0" fill="#7FC7EA" transform="matrix(1.00, 0.00, -0.00, -1.00, 155.0, 9.4)">s</text></g></g></g></svg>