<?xml version="1.0" encoding="UTF-8" standalone="no"?><svg xmlns="http://www.w3.org/2000/svg" xmlns:xlink="http://www.w3.org/1999/xlink" clip-rule="evenodd" stroke-miterlimit="10" viewBox="0 0 126 120"><desc>SVG generated by Keynote</desc><defs></defs><g transform="matrix(1.00, 0.00, -0.00, -1.00, 0.0, 120.0)"><path d="M 115.9 0.5 L 115.2 0.5 C 50.6 5.5 12.1 41.8 0.4 109.9 L 0.4 110.0 " fill="none" stroke="#52575F" stroke-width="1.00" transform="matrix(1.00, 0.00, 0.00, -1.00, 3.1, 116.0)"></path><path d="M 5.7 3.6 C 5.4 2.3 4.1 1.3 2.8 1.6 C 1.4 1.8 0.5 3.1 0.7 4.4 C 0.9 5.8 2.2 6.7 3.6 6.5 C 4.9 6.3 5.9 5.0 5.7 3.6 Z M 5.7 3.6 " fill="#52575F"></path><path d="M 118.7 112.5 L 124.5 115.8 L 118.3 118.5 Z M 118.7 112.5 " fill="#52575F"></path></g></svg>