<?xml version="1.0" encoding="UTF-8" standalone="no"?><svg xmlns="http://www.w3.org/2000/svg" xmlns:xlink="http://www.w3.org/1999/xlink" clip-rule="evenodd" stroke-miterlimit="10" viewBox="0 0 127 83"><desc>SVG generated by Keynote</desc><defs></defs><g transform="matrix(1.00, 0.00, -0.00, -1.00, 0.0, 83.0)"><path d="M 2.5 73.7 L 2.5 73.4 C 28.8 13.6 67.3 -10.0 118.3 3.2 L 119.0 4.2 " fill="none" stroke="#52575F" stroke-width="1.00" transform="matrix(-1.00, 0.00, 0.00, -1.00, 125.0, 80.7)"></path><path d="M 3.4 78.4 C 2.1 78.0 1.3 76.6 1.7 75.3 C 2.0 74.0 3.4 73.2 4.7 73.6 C 6.1 73.9 6.9 75.3 6.5 76.6 C 6.1 78.0 4.7 78.7 3.4 78.4 Z M 3.4 78.4 " fill="#52575F"></path><path d="M 125.1 8.6 L 124.7 1.9 L 119.5 6.3 Z M 125.1 8.6 " fill="#52575F"></path></g></svg>