<?xml version="1.0" encoding="UTF-8" standalone="no"?><svg xmlns="http://www.w3.org/2000/svg" xmlns:xlink="http://www.w3.org/1999/xlink" clip-rule="evenodd" stroke-miterlimit="10" viewBox="0 0 67 162"><desc>SVG generated by Keynote</desc><defs></defs><g transform="matrix(1.00, 0.00, -0.00, -1.00, 0.0, 162.0)"><g><clipPath id="clip0x610000aa7bc0"><path d="M 0.8 0.2 L 66.6 0.2 L 66.6 134.5 L 0.8 134.5 Z M 0.8 0.2 "></path></clipPath><g clip-path="url(#clip0x610000aa7bc0)"><path d="M 17.4 133.5 C 49.2 133.5 49.2 133.5 49.2 133.5 C 60.7 133.5 65.6 123.8 65.6 120.6 C 65.6 73.8 65.6 73.8 65.6 73.8 C 65.6 71.4 63.1 69.0 59.9 69.0 C 56.6 69.0 55.0 71.4 55.0 73.8 C 55.0 112.5 55.0 112.5 55.0 112.5 C 50.0 112.5 50.0 112.5 50.0 112.5 C 50.0 75.4 50.0 75.4 50.0 75.4 C 50.0 75.4 50.0 74.6 50.0 73.8 C 50.0 9.3 50.0 9.3 50.0 9.3 C 50.0 4.5 46.8 1.2 42.7 1.2 C 38.6 1.2 35.3 4.5 35.3 9.3 C 35.3 66.5 35.3 66.5 35.3 66.5 C 32.1 66.5 32.1 66.5 32.1 66.5 C 32.1 9.3 32.1 9.3 32.1 9.3 C 32.1 4.5 28.8 1.2 24.7 1.2 C 20.6 1.2 17.4 4.5 17.4 9.3 C 17.4 112.5 17.4 112.5 17.4 112.5 C 13.3 112.5 13.3 112.5 13.3 112.5 C 13.3 73.8 13.3 73.8 13.3 73.8 C 13.3 71.4 10.8 69.0 7.5 69.0 C 4.3 69.0 1.8 71.4 1.8 73.8 C 1.8 121.4 1.8 121.4 1.8 121.4 C 1.8 125.4 6.7 133.5 17.4 133.5 " fill="#7FC7EA"></path></g></g><g><clipPath id="clip0x610000aa7c20"><path d="M 19.4 134.8 L 46.9 134.8 L 46.9 161.8 L 19.4 161.8 Z M 19.4 134.8 "></path></clipPath><g clip-path="url(#clip0x610000aa7c20)"><path d="M 24.2 157.1 C 19.2 152.3 19.2 144.4 24.2 139.5 C 29.1 134.6 37.2 134.6 42.2 139.5 C 47.2 144.4 47.2 152.3 42.2 157.1 C 37.2 162.0 29.1 162.0 24.2 157.1 " fill="#7FC7EA"></path></g></g></g></svg>