<?xml version="1.0" encoding="UTF-8" standalone="no"?><svg xmlns="http://www.w3.org/2000/svg" xmlns:xlink="http://www.w3.org/1999/xlink" clip-rule="evenodd" stroke-miterlimit="10" viewBox="0 0 41 101"><desc>SVG generated by Keynote</desc><defs></defs><g transform="matrix(1.00, 0.00, -0.00, -1.00, 0.0, 101.0)"><g><clipPath id="clip0x6000016bf0e0"><path d="M 0.1 1.0 L 41.0 1.0 L 41.0 83.6 L 0.1 83.6 Z M 0.1 1.0 "></path></clipPath><g clip-path="url(#clip0x6000016bf0e0)"><path d="M 10.6 82.6 C 30.0 82.6 30.0 82.6 30.0 82.6 C 37.0 82.6 40.0 76.7 40.0 74.7 C 40.0 46.2 40.0 46.2 40.0 46.2 C 40.0 44.7 38.5 43.3 36.5 43.3 C 34.5 43.3 33.5 44.7 33.5 46.2 C 33.5 69.8 33.5 69.8 33.5 69.8 C 30.5 69.8 30.5 69.8 30.5 69.8 C 30.5 47.2 30.5 47.2 30.5 47.2 C 30.5 47.2 30.5 46.7 30.5 46.2 C 30.5 6.9 30.5 6.9 30.5 6.9 C 30.5 3.9 28.5 2.0 26.0 2.0 C 23.6 2.0 21.6 3.9 21.6 6.9 C 21.6 41.8 21.6 41.8 21.6 41.8 C 19.6 41.8 19.6 41.8 19.6 41.8 C 19.6 6.9 19.6 6.9 19.6 6.9 C 19.6 3.9 17.6 2.0 15.1 2.0 C 12.6 2.0 10.6 3.9 10.6 6.9 C 10.6 69.8 10.6 69.8 10.6 69.8 C 8.1 69.8 8.1 69.8 8.1 69.8 C 8.1 46.2 8.1 46.2 8.1 46.2 C 8.1 44.7 6.6 43.3 4.6 43.3 C 2.6 43.3 1.1 44.7 1.1 46.2 C 1.1 75.2 1.1 75.2 1.1 75.2 C 1.1 77.7 4.1 82.6 10.6 82.6 " fill="#7FC7EA"></path></g></g><g><clipPath id="clip0x6000016bf380"><path d="M 11.5 83.0 L 29.0 83.0 L 29.0 100.2 L 11.5 100.2 Z M 11.5 83.0 "></path></clipPath><g clip-path="url(#clip0x6000016bf380)"><path d="M 14.8 97.0 C 11.7 94.0 11.7 89.2 14.8 86.3 C 17.8 83.3 22.7 83.3 25.7 86.3 C 28.8 89.2 28.8 94.0 25.7 97.0 C 22.7 100.0 17.8 100.0 14.8 97.0 " fill="#7FC7EA"></path></g></g></g></svg>