<?xml version="1.0" encoding="UTF-8" standalone="no"?><svg xmlns="http://www.w3.org/2000/svg" xmlns:xlink="http://www.w3.org/1999/xlink" clip-rule="evenodd" stroke-miterlimit="10" viewBox="0 0 126 83"><desc>SVG generated by Keynote</desc><defs></defs><g transform="matrix(1.00, 0.00, -0.00, -1.00, 0.0, 83.0)"><path d="M 1.8 73.8 L 2.8 73.4 C 29.1 13.6 67.3 -10.0 118.3 3.3 L 118.3 3.3 " fill="none" stroke="#52575F" stroke-width="1.00" transform="matrix(1.00, 0.00, 0.00, -1.00, 1.7, 80.8)"></path><path d="M 122.6 79.4 C 123.9 79.0 124.7 77.6 124.3 76.3 C 124.0 75.0 122.6 74.2 121.3 74.6 C 119.9 74.9 119.1 76.3 119.5 77.6 C 119.9 79.0 121.3 79.7 122.6 79.4 Z M 122.6 79.4 " fill="#52575F"></path><path d="M 0.9 8.6 L 1.3 1.9 L 6.5 6.3 Z M 0.9 8.6 " fill="#52575F"></path></g></svg>