<?xml version="1.0" encoding="UTF-8" standalone="no"?><svg xmlns="http://www.w3.org/2000/svg" xmlns:xlink="http://www.w3.org/1999/xlink" clip-rule="evenodd" stroke-miterlimit="10" viewBox="0 0 121 67"><desc>SVG generated by Keynote</desc><defs></defs><g transform="matrix(1.00, 0.00, -0.00, -1.00, 0.0, 67.0)"><text xml:space="preserve" font-family="KontrapunktBob-Bold,Kontrapunkt Bob" font-weight="bold" font-size="16.0" fill="#7FC7EA" transform="matrix(0.91, 0.40, 0.40, -0.91, 6.5, 5.0)">B</text><text xml:space="preserve" font-family="KontrapunktBob-Bold,Kontrapunkt Bob" font-weight="bold" font-size="16.0" fill="#7FC7EA" transform="matrix(0.91, 0.40, 0.40, -0.91, 17.4, 9.8)">r</text><text xml:space="preserve" font-family="KontrapunktBob-Bold,Kontrapunkt Bob" font-weight="bold" font-size="16.0" fill="#7FC7EA" transform="matrix(0.91, 0.40, 0.40, -0.91, 24.3, 12.8)">a</text><text xml:space="preserve" font-family="KontrapunktBob-Bold,Kontrapunkt Bob" font-weight="bold" font-size="16.0" fill="#7FC7EA" transform="matrix(0.91, 0.40, 0.40, -0.91, 33.0, 16.7)">i</text><text xml:space="preserve" font-family="KontrapunktBob-Bold,Kontrapunkt Bob" font-weight="bold" font-size="16.0" fill="#7FC7EA" transform="matrix(0.91, 0.40, 0.40, -0.91, 38.1, 18.9)">n</text><text xml:space="preserve" font-family="KontrapunktBob-Bold,Kontrapunkt Bob" font-weight="bold" font-size="16.0" fill="#7FC7EA" transform="matrix(0.91, 0.40, 0.40, -0.91, 48.2, 23.4)">s</text><text xml:space="preserve" font-family="KontrapunktBob-Bold,Kontrapunkt Bob" font-weight="bold" font-size="16.0" fill="#7FC7EA" transform="matrix(0.91, 0.40, 0.40, -0.91, 55.2, 26.5)">t</text><text xml:space="preserve" font-family="KontrapunktBob-Bold,Kontrapunkt Bob" font-weight="bold" font-size="16.0" fill="#7FC7EA" transform="matrix(0.91, 0.40, 0.40, -0.91, 61.5, 29.2)">o</text><text xml:space="preserve" font-family="KontrapunktBob-Bold,Kontrapunkt Bob" font-weight="bold" font-size="16.0" fill="#7FC7EA" transform="matrix(0.91, 0.40, 0.40, -0.91, 71.0, 33.4)">r</text><text xml:space="preserve" font-family="KontrapunktBob-Bold,Kontrapunkt Bob" font-weight="bold" font-size="16.0" fill="#7FC7EA" transform="matrix(0.91, 0.40, 0.40, -0.91, 77.9, 36.5)">m</text><text xml:space="preserve" font-family="KontrapunktBob-Bold,Kontrapunkt Bob" font-weight="bold" font-size="16.0" fill="#7FC7EA" transform="matrix(0.91, 0.40, 0.40, -0.91, 92.9, 43.1)">i</text><text xml:space="preserve" font-family="KontrapunktBob-Bold,Kontrapunkt Bob" font-weight="bold" font-size="16.0" fill="#7FC7EA" transform="matrix(0.91, 0.40, 0.40, -0.91, 98.0, 45.4)">n</text><text xml:space="preserve" font-family="KontrapunktBob-Bold,Kontrapunkt Bob" font-weight="bold" font-size="16.0" fill="#7FC7EA" transform="matrix(0.91, 0.40, 0.40, -0.91, 108.1, 49.8)">g</text></g></svg>