<?xml version="1.0" encoding="UTF-8" standalone="no"?><svg xmlns="http://www.w3.org/2000/svg" xmlns:xlink="http://www.w3.org/1999/xlink" clip-rule="evenodd" stroke-miterlimit="10" viewBox="0 0 67 54"><desc>SVG generated by Keynote</desc><defs></defs><g transform="matrix(1.00, 0.00, -0.00, -1.00, 0.0, 54.0)"><g><clipPath id="clip0x600001aab760"><path d="M 0.9 41.1 L 66.4 41.1 L 66.4 54.0 L 0.9 54.0 Z M 0.9 41.1 "></path></clipPath><g clip-path="url(#clip0x600001aab760)"><path d="M 65.4 47.6 C 65.4 44.6 62.3 42.0 58.5 42.0 L 8.9 42.0 C 5.0 42.0 1.9 44.6 1.9 47.6 L 1.9 47.6 C 1.9 50.6 5.0 53.0 8.9 53.0 L 58.5 53.0 C 62.3 53.0 65.4 50.6 65.4 47.6 Z M 65.4 47.6 " fill="#7FC7EA"></path></g></g><g><clipPath id="clip0x6000020b6ce0"><path d="M 0.9 27.6 L 66.4 27.6 L 66.4 40.5 L 0.9 40.5 Z M 0.9 27.6 "></path></clipPath><g clip-path="url(#clip0x6000020b6ce0)"><path d="M 65.4 34.1 C 65.4 31.1 62.3 29.0 58.5 29.0 L 8.9 29.0 C 5.0 29.0 1.9 31.1 1.9 34.1 L 1.9 34.1 C 1.9 37.1 5.0 39.0 8.9 39.0 L 58.5 39.0 C 62.3 39.0 65.4 37.1 65.4 34.1 Z M 65.4 34.1 " fill="#7FC7EA"></path></g></g><g><clipPath id="clip0x6000020b8120"><path d="M 0.9 14.1 L 66.4 14.1 L 66.4 27.0 L 0.9 27.0 Z M 0.9 14.1 "></path></clipPath><g clip-path="url(#clip0x6000020b8120)"><path d="M 65.4 20.6 C 65.4 17.6 62.3 15.0 58.5 15.0 L 8.9 15.0 C 5.0 15.0 1.9 17.6 1.9 20.6 L 1.9 20.6 C 1.9 23.6 5.0 26.0 8.9 26.0 L 58.5 26.0 C 62.3 26.0 65.4 23.6 65.4 20.6 Z M 65.4 20.6 " fill="#7FC7EA"></path></g></g><g><clipPath id="clip0x600001aab160"><path d="M 14.4 0.7 L 52.5 0.7 L 52.5 13.5 L 14.4 13.5 Z M 14.4 0.7 "></path></clipPath><g clip-path="url(#clip0x600001aab160)"><path d="M 51.5 12.5 C 51.5 6.5 43.4 1.7 33.4 1.7 C 23.5 1.7 15.4 6.5 15.4 12.5 C 15.4 12.5 51.5 12.5 51.5 12.5 Z M 51.5 12.5 " fill="#7FC7EA"></path></g></g></g></svg>