<?xml version="1.0" encoding="UTF-8" standalone="no"?><svg xmlns="http://www.w3.org/2000/svg" xmlns:xlink="http://www.w3.org/1999/xlink" clip-rule="evenodd" stroke-miterlimit="10" viewBox="0 0 193 31"><desc>SVG generated by Keynote</desc><defs></defs><g transform="matrix(1.00, 0.00, -0.00, -1.00, 0.0, 31.0)"><text xml:space="preserve" font-family="KontrapunktBob-Light,Kontrapunkt Bob" font-size="28.0" fill="#7FC7EA" transform="matrix(1.00, 0.00, -0.00, -1.00, -0.9, 7.7)">I</text><text xml:space="preserve" font-family="KontrapunktBob-Light,Kontrapunkt Bob" font-size="28.0" fill="#7FC7EA" transform="matrix(1.00, 0.00, -0.00, -1.00, 8.7, 7.7)">m</text><text xml:space="preserve" font-family="KontrapunktBob-Light,Kontrapunkt Bob" font-size="28.0" fill="#7FC7EA" transform="matrix(1.00, 0.00, -0.00, -1.00, 37.4, 7.7)">p</text><text xml:space="preserve" font-family="KontrapunktBob-Light,Kontrapunkt Bob" font-size="28.0" fill="#7FC7EA" transform="matrix(1.00, 0.00, -0.00, -1.00, 56.6, 7.7)">r</text><text xml:space="preserve" font-family="KontrapunktBob-Light,Kontrapunkt Bob" font-size="28.0" fill="#7FC7EA" transform="matrix(1.00, 0.00, -0.00, -1.00, 69.2, 7.7)">e</text><text xml:space="preserve" font-family="KontrapunktBob-Light,Kontrapunkt Bob" font-size="28.0" fill="#7FC7EA" transform="matrix(1.00, 0.00, -0.00, -1.00, 85.8, 7.7)">s</text><text xml:space="preserve" font-family="KontrapunktBob-Light,Kontrapunkt Bob" font-size="28.0" fill="#7FC7EA" transform="matrix(1.00, 0.00, -0.00, -1.00, 99.3, 7.7)">i</text><text xml:space="preserve" font-family="KontrapunktBob-Light,Kontrapunkt Bob" font-size="28.0" fill="#7FC7EA" transform="matrix(1.00, 0.00, -0.00, -1.00, 108.0, 7.7)">รณ</text><text xml:space="preserve" font-family="KontrapunktBob-Light,Kontrapunkt Bob" font-size="28.0" fill="#7FC7EA" transform="matrix(1.00, 0.00, -0.00, -1.00, 126.1, 7.7)">n</text><text xml:space="preserve" font-family="KontrapunktBob-Light,Kontrapunkt Bob" font-size="28.0" fill="#7FC7EA" transform="matrix(1.00, 0.00, -0.00, -1.00, 145.5, 7.7)"> </text><text xml:space="preserve" font-family="KontrapunktBob-Light,Kontrapunkt Bob" font-size="28.0" fill="#7FC7EA" transform="matrix(1.00, 0.00, -0.00, -1.00, 152.8, 7.7)">3</text><text xml:space="preserve" font-family="KontrapunktBob-Light,Kontrapunkt Bob" font-size="28.0" fill="#7FC7EA" transform="matrix(1.00, 0.00, -0.00, -1.00, 168.8, 7.7)">D</text></g></svg>