<?xml version="1.0" encoding="UTF-8" standalone="no"?><svg xmlns="http://www.w3.org/2000/svg" xmlns:xlink="http://www.w3.org/1999/xlink" clip-rule="evenodd" stroke-miterlimit="10" viewBox="0 0 271 66"><desc>SVG generated by Keynote</desc><defs></defs><g transform="matrix(1.00, 0.00, -0.00, -1.00, 0.0, 66.0)"><text xml:space="preserve" font-family="KontrapunktBob-Light,Kontrapunkt Bob" font-size="28.0" fill="#7FC7EA" transform="matrix(1.00, 0.00, -0.00, -1.00, 8.4, 43.0)">A</text><text xml:space="preserve" font-family="KontrapunktBob-Light,Kontrapunkt Bob" font-size="28.0" fill="#7FC7EA" transform="matrix(1.00, 0.00, -0.00, -1.00, 30.2, 43.0)">p</text><text xml:space="preserve" font-family="KontrapunktBob-Light,Kontrapunkt Bob" font-size="28.0" fill="#7FC7EA" transform="matrix(1.00, 0.00, -0.00, -1.00, 49.3, 43.0)">p</text><text xml:space="preserve" font-family="KontrapunktBob-Light,Kontrapunkt Bob" font-size="28.0" fill="#7FC7EA" transform="matrix(1.00, 0.00, -0.00, -1.00, 68.5, 43.0)"> </text><text xml:space="preserve" font-family="KontrapunktBob-Light,Kontrapunkt Bob" font-size="28.0" fill="#7FC7EA" transform="matrix(1.00, 0.00, -0.00, -1.00, 75.8, 43.0)">m</text><text xml:space="preserve" font-family="KontrapunktBob-Light,Kontrapunkt Bob" font-size="28.0" fill="#7FC7EA" transform="matrix(1.00, 0.00, -0.00, -1.00, 104.5, 43.0)">รณ</text><text xml:space="preserve" font-family="KontrapunktBob-Light,Kontrapunkt Bob" font-size="28.0" fill="#7FC7EA" transform="matrix(1.00, 0.00, -0.00, -1.00, 122.1, 43.0)">v</text><text xml:space="preserve" font-family="KontrapunktBob-Light,Kontrapunkt Bob" font-size="28.0" fill="#7FC7EA" transform="matrix(1.00, 0.00, -0.00, -1.00, 139.9, 43.0)">i</text><text xml:space="preserve" font-family="KontrapunktBob-Light,Kontrapunkt Bob" font-size="28.0" fill="#7FC7EA" transform="matrix(1.00, 0.00, -0.00, -1.00, 148.7, 43.0)">l</text><text xml:space="preserve" font-family="KontrapunktBob-Light,Kontrapunkt Bob" font-size="28.0" fill="#7FC7EA" transform="matrix(1.00, 0.00, -0.00, -1.00, 157.8, 43.0)"> </text><text xml:space="preserve" font-family="KontrapunktBob-Light,Kontrapunkt Bob" font-size="28.0" fill="#7FC7EA" transform="matrix(1.00, 0.00, -0.00, -1.00, 165.1, 43.0)">p</text><text xml:space="preserve" font-family="KontrapunktBob-Light,Kontrapunkt Bob" font-size="28.0" fill="#7FC7EA" transform="matrix(1.00, 0.00, -0.00, -1.00, 184.3, 43.0)">a</text><text xml:space="preserve" font-family="KontrapunktBob-Light,Kontrapunkt Bob" font-size="28.0" fill="#7FC7EA" transform="matrix(1.00, 0.00, -0.00, -1.00, 201.0, 43.0)">r</text><text xml:space="preserve" font-family="KontrapunktBob-Light,Kontrapunkt Bob" font-size="28.0" fill="#7FC7EA" transform="matrix(1.00, 0.00, -0.00, -1.00, 213.8, 43.0)">a</text><text xml:space="preserve" font-family="KontrapunktBob-Light,Kontrapunkt Bob" font-size="28.0" fill="#7FC7EA" transform="matrix(1.00, 0.00, -0.00, -1.00, 230.5, 43.0)"> </text><text xml:space="preserve" font-family="KontrapunktBob-Light,Kontrapunkt Bob" font-size="28.0" fill="#7FC7EA" transform="matrix(1.00, 0.00, -0.00, -1.00, 237.8, 43.0)">l</text><text xml:space="preserve" font-family="KontrapunktBob-Light,Kontrapunkt Bob" font-size="28.0" fill="#7FC7EA" transform="matrix(1.00, 0.00, -0.00, -1.00, 247.0, 43.0)">a</text><text xml:space="preserve" font-family="KontrapunktBob-Light,Kontrapunkt Bob" font-size="28.0" fill="#7FC7EA" transform="matrix(1.00, 0.00, -0.00, -1.00, 263.7, 43.0)"> </text><text xml:space="preserve" font-family="KontrapunktBob-Light,Kontrapunkt Bob" font-size="28.0" fill="#7FC7EA" transform="matrix(1.00, 0.00, -0.00, -1.00, 0.8, 9.0)">g</text><text xml:space="preserve" font-family="KontrapunktBob-Light,Kontrapunkt Bob" font-size="28.0" fill="#7FC7EA" transform="matrix(1.00, 0.00, -0.00, -1.00, 16.3, 9.0)">e</text><text xml:space="preserve" font-family="KontrapunktBob-Light,Kontrapunkt Bob" font-size="28.0" fill="#7FC7EA" transform="matrix(1.00, 0.00, -0.00, -1.00, 33.0, 9.0)">s</text><text xml:space="preserve" font-family="KontrapunktBob-Light,Kontrapunkt Bob" font-size="28.0" fill="#7FC7EA" transform="matrix(1.00, 0.00, -0.00, -1.00, 46.4, 9.0)">t</text><text xml:space="preserve" font-family="KontrapunktBob-Light,Kontrapunkt Bob" font-size="28.0" fill="#7FC7EA" transform="matrix(1.00, 0.00, -0.00, -1.00, 58.4, 9.0)">i</text><text xml:space="preserve" font-family="KontrapunktBob-Light,Kontrapunkt Bob" font-size="28.0" fill="#7FC7EA" transform="matrix(1.00, 0.00, -0.00, -1.00, 67.2, 9.0)">รณ</text><text xml:space="preserve" font-family="KontrapunktBob-Light,Kontrapunkt Bob" font-size="28.0" fill="#7FC7EA" transform="matrix(1.00, 0.00, -0.00, -1.00, 85.3, 9.0)">n</text><text xml:space="preserve" font-family="KontrapunktBob-Light,Kontrapunkt Bob" font-size="28.0" fill="#7FC7EA" transform="matrix(1.00, 0.00, -0.00, -1.00, 104.7, 9.0)"> </text><text xml:space="preserve" font-family="KontrapunktBob-Light,Kontrapunkt Bob" font-size="28.0" fill="#7FC7EA" transform="matrix(1.00, 0.00, -0.00, -1.00, 112.0, 9.0)">d</text><text xml:space="preserve" font-family="KontrapunktBob-Light,Kontrapunkt Bob" font-size="28.0" fill="#7FC7EA" transform="matrix(1.00, 0.00, -0.00, -1.00, 131.1, 9.0)">e</text><text xml:space="preserve" font-family="KontrapunktBob-Light,Kontrapunkt Bob" font-size="28.0" fill="#7FC7EA" transform="matrix(1.00, 0.00, -0.00, -1.00, 147.7, 9.0)"> </text><text xml:space="preserve" font-family="KontrapunktBob-Light,Kontrapunkt Bob" font-size="28.0" fill="#7FC7EA" transform="matrix(1.00, 0.00, -0.00, -1.00, 155.0, 9.0)">c</text><text xml:space="preserve" font-family="KontrapunktBob-Light,Kontrapunkt Bob" font-size="28.0" fill="#7FC7EA" transform="matrix(1.00, 0.00, -0.00, -1.00, 170.5, 9.0)">a</text><text xml:space="preserve" font-family="KontrapunktBob-Light,Kontrapunkt Bob" font-size="28.0" fill="#7FC7EA" transform="matrix(1.00, 0.00, -0.00, -1.00, 187.2, 9.0)">r</text><text xml:space="preserve" font-family="KontrapunktBob-Light,Kontrapunkt Bob" font-size="28.0" fill="#7FC7EA" transform="matrix(1.00, 0.00, -0.00, -1.00, 200.0, 9.0)">t</text><text xml:space="preserve" font-family="KontrapunktBob-Light,Kontrapunkt Bob" font-size="28.0" fill="#7FC7EA" transform="matrix(1.00, 0.00, -0.00, -1.00, 211.6, 9.0)">e</text><text xml:space="preserve" font-family="KontrapunktBob-Light,Kontrapunkt Bob" font-size="28.0" fill="#7FC7EA" transform="matrix(1.00, 0.00, -0.00, -1.00, 228.3, 9.0)">r</text><text xml:space="preserve" font-family="KontrapunktBob-Light,Kontrapunkt Bob" font-size="28.0" fill="#7FC7EA" transform="matrix(1.00, 0.00, -0.00, -1.00, 241.1, 9.0)">a</text><text xml:space="preserve" font-family="KontrapunktBob-Light,Kontrapunkt Bob" font-size="28.0" fill="#7FC7EA" transform="matrix(1.00, 0.00, -0.00, -1.00, 257.8, 9.0)">s</text></g></svg>