<?xml version="1.0" encoding="UTF-8" standalone="no"?><svg xmlns="http://www.w3.org/2000/svg" xmlns:xlink="http://www.w3.org/1999/xlink" clip-rule="evenodd" stroke-miterlimit="10" viewBox="0 0 251 17"><desc>SVG generated by Keynote</desc><defs></defs><g transform="matrix(1.00, 0.00, -0.00, -1.00, 0.0, 17.0)"><text xml:space="preserve" font-family="Aller-Light,Aller Light" font-size="14.0" fill="#52575F" transform="matrix(1.00, 0.00, -0.00, -1.00, 0.8, 3.9)">I</text><text xml:space="preserve" font-family="Aller-Light,Aller Light" font-size="14.0" fill="#52575F" transform="matrix(1.00, 0.00, -0.00, -1.00, 4.6, 3.9)">r</text><text xml:space="preserve" font-family="Aller-Light,Aller Light" font-size="14.0" fill="#52575F" transform="matrix(1.00, 0.00, -0.00, -1.00, 9.5, 3.9)">l</text><text xml:space="preserve" font-family="Aller-Light,Aller Light" font-size="14.0" fill="#52575F" transform="matrix(1.00, 0.00, -0.00, -1.00, 13.4, 3.9)">a</text><text xml:space="preserve" font-family="Aller-Light,Aller Light" font-size="14.0" fill="#52575F" transform="matrix(1.00, 0.00, -0.00, -1.00, 20.6, 3.9)">n</text><text xml:space="preserve" font-family="Aller-Light,Aller Light" font-size="14.0" fill="#52575F" transform="matrix(1.00, 0.00, -0.00, -1.00, 28.6, 3.9)">d</text><text xml:space="preserve" font-family="Aller-Light,Aller Light" font-size="14.0" fill="#52575F" transform="matrix(1.00, 0.00, -0.00, -1.00, 36.8, 3.9)">a</text><text xml:space="preserve" font-family="Aller-Light,Aller Light" font-size="14.0" fill="#52575F" transform="matrix(1.00, 0.00, -0.00, -1.00, 43.9, 3.9)">,</text><text xml:space="preserve" font-family="Aller-Light,Aller Light" font-size="14.0" fill="#52575F" transform="matrix(1.00, 0.00, -0.00, -1.00, 46.8, 3.9)"> </text><text xml:space="preserve" font-family="Aller-Light,Aller Light" font-size="14.0" fill="#52575F" transform="matrix(1.00, 0.00, -0.00, -1.00, 50.3, 3.9)">M</text><text xml:space="preserve" font-family="Aller-Light,Aller Light" font-size="14.0" fill="#52575F" transform="matrix(1.00, 0.00, -0.00, -1.00, 61.7, 3.9)">a</text><text xml:space="preserve" font-family="Aller-Light,Aller Light" font-size="14.0" fill="#52575F" transform="matrix(1.00, 0.00, -0.00, -1.00, 68.9, 3.9)">l</text><text xml:space="preserve" font-family="Aller-Light,Aller Light" font-size="14.0" fill="#52575F" transform="matrix(1.00, 0.00, -0.00, -1.00, 72.8, 3.9)">t</text><text xml:space="preserve" font-family="Aller-Light,Aller Light" font-size="14.0" fill="#52575F" transform="matrix(1.00, 0.00, -0.00, -1.00, 77.6, 3.9)">a</text><text xml:space="preserve" font-family="Aller-Light,Aller Light" font-size="14.0" fill="#52575F" transform="matrix(1.00, 0.00, -0.00, -1.00, 84.7, 3.9)">,</text><text xml:space="preserve" font-family="Aller-Light,Aller Light" font-size="14.0" fill="#52575F" transform="matrix(1.00, 0.00, -0.00, -1.00, 87.6, 3.9)"> </text><text xml:space="preserve" font-family="Aller-Light,Aller Light" font-size="14.0" fill="#52575F" transform="matrix(1.00, 0.00, -0.00, -1.00, 91.1, 3.9)">P</text><text xml:space="preserve" font-family="Aller-Light,Aller Light" font-size="14.0" fill="#52575F" transform="matrix(1.00, 0.00, -0.00, -1.00, 98.6, 3.9)">a</text><text xml:space="preserve" font-family="Aller-Light,Aller Light" font-size="14.0" fill="#52575F" transform="matrix(1.00, 0.00, -0.00, -1.00, 105.8, 3.9)">í</text><text xml:space="preserve" font-family="Aller-Light,Aller Light" font-size="14.0" fill="#52575F" transform="matrix(1.00, 0.00, -0.00, -1.00, 109.6, 3.9)">s</text><text xml:space="preserve" font-family="Aller-Light,Aller Light" font-size="14.0" fill="#52575F" transform="matrix(1.00, 0.00, -0.00, -1.00, 115.9, 3.9)">e</text><text xml:space="preserve" font-family="Aller-Light,Aller Light" font-size="14.0" fill="#52575F" transform="matrix(1.00, 0.00, -0.00, -1.00, 123.7, 3.9)">s</text><text xml:space="preserve" font-family="Aller-Light,Aller Light" font-size="14.0" fill="#52575F" transform="matrix(1.00, 0.00, -0.00, -1.00, 130.0, 3.9)"> </text><text xml:space="preserve" font-family="Aller-Light,Aller Light" font-size="14.0" fill="#52575F" transform="matrix(1.00, 0.00, -0.00, -1.00, 133.5, 3.9)">B</text><text xml:space="preserve" font-family="Aller-Light,Aller Light" font-size="14.0" fill="#52575F" transform="matrix(1.00, 0.00, -0.00, -1.00, 141.7, 3.9)">a</text><text xml:space="preserve" font-family="Aller-Light,Aller Light" font-size="14.0" fill="#52575F" transform="matrix(1.00, 0.00, -0.00, -1.00, 148.9, 3.9)">j</text><text xml:space="preserve" font-family="Aller-Light,Aller Light" font-size="14.0" fill="#52575F" transform="matrix(1.00, 0.00, -0.00, -1.00, 152.8, 3.9)">o</text><text xml:space="preserve" font-family="Aller-Light,Aller Light" font-size="14.0" fill="#52575F" transform="matrix(1.00, 0.00, -0.00, -1.00, 160.8, 3.9)">s</text><text xml:space="preserve" font-family="Aller-Light,Aller Light" font-size="14.0" fill="#52575F" transform="matrix(1.00, 0.00, -0.00, -1.00, 167.1, 3.9)">,</text><text xml:space="preserve" font-family="Aller-Light,Aller Light" font-size="14.0" fill="#52575F" transform="matrix(1.00, 0.00, -0.00, -1.00, 170.0, 3.9)"> </text><text xml:space="preserve" font-family="Aller-Light,Aller Light" font-size="14.0" fill="#52575F" transform="matrix(1.00, 0.00, -0.00, -1.00, 173.5, 3.9)">R</text><text xml:space="preserve" font-family="Aller-Light,Aller Light" font-size="14.0" fill="#52575F" transform="matrix(1.00, 0.00, -0.00, -1.00, 181.4, 3.9)">e</text><text xml:space="preserve" font-family="Aller-Light,Aller Light" font-size="14.0" fill="#52575F" transform="matrix(1.00, 0.00, -0.00, -1.00, 189.2, 3.9)">i</text><text xml:space="preserve" font-family="Aller-Light,Aller Light" font-size="14.0" fill="#52575F" transform="matrix(1.00, 0.00, -0.00, -1.00, 193.0, 3.9)">n</text><text xml:space="preserve" font-family="Aller-Light,Aller Light" font-size="14.0" fill="#52575F" transform="matrix(1.00, 0.00, -0.00, -1.00, 201.0, 3.9)">o</text><text xml:space="preserve" font-family="Aller-Light,Aller Light" font-size="14.0" fill="#52575F" transform="matrix(1.00, 0.00, -0.00, -1.00, 209.1, 3.9)"> </text><text xml:space="preserve" font-family="Aller-Light,Aller Light" font-size="14.0" fill="#52575F" transform="matrix(1.00, 0.00, -0.00, -1.00, 212.6, 3.9)">U</text><text xml:space="preserve" font-family="Aller-Light,Aller Light" font-size="14.0" fill="#52575F" transform="matrix(1.00, 0.00, -0.00, -1.00, 222.0, 3.9)">n</text><text xml:space="preserve" font-family="Aller-Light,Aller Light" font-size="14.0" fill="#52575F" transform="matrix(1.00, 0.00, -0.00, -1.00, 230.0, 3.9)">i</text><text xml:space="preserve" font-family="Aller-Light,Aller Light" font-size="14.0" fill="#52575F" transform="matrix(1.00, 0.00, -0.00, -1.00, 233.8, 3.9)">d</text><text xml:space="preserve" font-family="Aller-Light,Aller Light" font-size="14.0" fill="#52575F" transform="matrix(1.00, 0.00, -0.00, -1.00, 242.0, 3.9)">o</text></g></svg>