<?xml version="1.0" encoding="UTF-8" standalone="no"?><svg xmlns="http://www.w3.org/2000/svg" xmlns:xlink="http://www.w3.org/1999/xlink" clip-rule="evenodd" stroke-miterlimit="10" viewBox="0 0 725 48"><desc>SVG generated by Keynote</desc><defs></defs><g transform="matrix(1.00, 0.00, -0.00, -1.00, 0.0, 48.0)"><text xml:space="preserve" font-family="KontrapunktBob-Bold,Kontrapunkt Bob" font-weight="bold" font-size="48.0" fill="#7FC7EA" transform="matrix(1.00, 0.00, -0.00, -1.00, -1.2, 2.8)">E</text><text xml:space="preserve" font-family="KontrapunktBob-Bold,Kontrapunkt Bob" font-weight="bold" font-size="48.0" fill="#7FC7EA" transform="matrix(1.00, 0.00, -0.00, -1.00, 31.7, 2.8)">S</text><text xml:space="preserve" font-family="KontrapunktBob-Bold,Kontrapunkt Bob" font-weight="bold" font-size="48.0" fill="#7FC7EA" transform="matrix(1.00, 0.00, -0.00, -1.00, 60.2, 2.8)">T</text><text xml:space="preserve" font-family="KontrapunktBob-Bold,Kontrapunkt Bob" font-weight="bold" font-size="48.0" fill="#7FC7EA" transform="matrix(1.00, 0.00, -0.00, -1.00, 87.0, 2.8)">A</text><text xml:space="preserve" font-family="KontrapunktBob-Bold,Kontrapunkt Bob" font-weight="bold" font-size="48.0" fill="#7FC7EA" transform="matrix(1.00, 0.00, -0.00, -1.00, 124.8, 2.8)">D</text><text xml:space="preserve" font-family="KontrapunktBob-Bold,Kontrapunkt Bob" font-weight="bold" font-size="48.0" fill="#7FC7EA" transform="matrix(1.00, 0.00, -0.00, -1.00, 163.2, 2.8)">O</text><text xml:space="preserve" font-family="KontrapunktBob-Bold,Kontrapunkt Bob" font-weight="bold" font-size="48.0" fill="#7FC7EA" transform="matrix(1.00, 0.00, -0.00, -1.00, 201.7, 2.8)"> </text><text xml:space="preserve" font-family="KontrapunktBob-Bold,Kontrapunkt Bob" font-weight="bold" font-size="48.0" fill="#7FC7EA" transform="matrix(1.00, 0.00, -0.00, -1.00, 214.1, 2.8)">D</text><text xml:space="preserve" font-family="KontrapunktBob-Bold,Kontrapunkt Bob" font-weight="bold" font-size="48.0" fill="#7FC7EA" transform="matrix(1.00, 0.00, -0.00, -1.00, 252.5, 2.8)">E</text><text xml:space="preserve" font-family="KontrapunktBob-Bold,Kontrapunkt Bob" font-weight="bold" font-size="48.0" fill="#7FC7EA" transform="matrix(1.00, 0.00, -0.00, -1.00, 285.4, 2.8)"> </text><text xml:space="preserve" font-family="KontrapunktBob-Bold,Kontrapunkt Bob" font-weight="bold" font-size="48.0" fill="#7FC7EA" transform="matrix(1.00, 0.00, -0.00, -1.00, 297.9, 2.8)">L</text><text xml:space="preserve" font-family="KontrapunktBob-Bold,Kontrapunkt Bob" font-weight="bold" font-size="48.0" fill="#7FC7EA" transform="matrix(1.00, 0.00, -0.00, -1.00, 328.2, 2.8)">A</text><text xml:space="preserve" font-family="KontrapunktBob-Bold,Kontrapunkt Bob" font-weight="bold" font-size="48.0" fill="#7FC7EA" transform="matrix(1.00, 0.00, -0.00, -1.00, 366.1, 2.8)"> </text><text xml:space="preserve" font-family="KontrapunktBob-Bold,Kontrapunkt Bob" font-weight="bold" font-size="48.0" fill="#7FC7EA" transform="matrix(1.00, 0.00, -0.00, -1.00, 378.5, 2.8)">L</text><text xml:space="preserve" font-family="KontrapunktBob-Bold,Kontrapunkt Bob" font-weight="bold" font-size="48.0" fill="#7FC7EA" transform="matrix(1.00, 0.00, -0.00, -1.00, 408.9, 2.8)">E</text><text xml:space="preserve" font-family="KontrapunktBob-Bold,Kontrapunkt Bob" font-weight="bold" font-size="48.0" fill="#7FC7EA" transform="matrix(1.00, 0.00, -0.00, -1.00, 441.8, 2.8)">G</text><text xml:space="preserve" font-family="KontrapunktBob-Bold,Kontrapunkt Bob" font-weight="bold" font-size="48.0" fill="#7FC7EA" transform="matrix(1.00, 0.00, -0.00, -1.00, 479.2, 2.8)">I</text><text xml:space="preserve" font-family="KontrapunktBob-Bold,Kontrapunkt Bob" font-weight="bold" font-size="48.0" fill="#7FC7EA" transform="matrix(1.00, 0.00, -0.00, -1.00, 497.3, 2.8)">S</text><text xml:space="preserve" font-family="KontrapunktBob-Bold,Kontrapunkt Bob" font-weight="bold" font-size="48.0" fill="#7FC7EA" transform="matrix(1.00, 0.00, -0.00, -1.00, 526.2, 2.8)">L</text><text xml:space="preserve" font-family="KontrapunktBob-Bold,Kontrapunkt Bob" font-weight="bold" font-size="48.0" fill="#7FC7EA" transform="matrix(1.00, 0.00, -0.00, -1.00, 556.6, 2.8)">A</text><text xml:space="preserve" font-family="KontrapunktBob-Bold,Kontrapunkt Bob" font-weight="bold" font-size="48.0" fill="#7FC7EA" transform="matrix(1.00, 0.00, -0.00, -1.00, 593.4, 2.8)">C</text><text xml:space="preserve" font-family="KontrapunktBob-Bold,Kontrapunkt Bob" font-weight="bold" font-size="48.0" fill="#7FC7EA" transform="matrix(1.00, 0.00, -0.00, -1.00, 627.2, 2.8)">I</text><text xml:space="preserve" font-family="KontrapunktBob-Bold,Kontrapunkt Bob" font-weight="bold" font-size="48.0" fill="#7FC7EA" transform="matrix(1.00, 0.00, -0.00, -1.00, 645.3, 2.8)">Ó</text><text xml:space="preserve" font-family="KontrapunktBob-Bold,Kontrapunkt Bob" font-weight="bold" font-size="48.0" fill="#7FC7EA" transform="matrix(1.00, 0.00, -0.00, -1.00, 683.8, 2.8)">N</text></g></svg>