<?xml version="1.0" encoding="UTF-8" standalone="no"?><svg xmlns="http://www.w3.org/2000/svg" xmlns:xlink="http://www.w3.org/1999/xlink" clip-rule="evenodd" stroke-miterlimit="10" viewBox="0 0 1024 768"><desc>SVG generated by Keynote</desc><defs></defs><g transform="matrix(1.00, 0.00, -0.00, -1.00, 0.0, 768.0)"><path d="M 0.0 768.0 L 1024.0 768.0 L 1024.0 0.0 L 0.0 0.0 Z M 0.0 768.0 " fill="#FEFFFF"></path><g><clipPath id="clip0x610000ebd7c0"><path d="M -170.0 768.0 L 1194.0 768.0 L 1194.0 0.0 L -170.0 0.0 Z M -170.4 767.6 "></path></clipPath><g clip-path="url(#clip0x610000ebd7c0)"><image xlink:href="../../28FBD472-99FE-4520-9E74-D747DFDA19FA/assets/5CFA9C379C87CE47A7D8B0572AF1DAF7.png" width="2290.00" height="1526.00" transform="matrix(0.60, 0.00, -0.00, -0.60, -170.0, 839.0)"></image></g></g><g opacity="0.75"><g><clipPath id="clip0x608000eaa5c0"><path d="M 339.0 216.0 L 675.0 216.0 L 675.0 552.0 L 339.0 552.0 Z M 339.0 216.0 "></path></clipPath><g clip-path="url(#clip0x608000eaa5c0)"><path d="M 624.9 502.0 C 690.1 436.8 690.1 331.2 624.9 266.0 C 559.8 200.9 454.1 200.9 389.0 266.0 C 323.8 331.2 323.8 436.8 389.0 502.0 C 454.1 567.1 559.8 567.1 624.9 502.0 Z M 624.9 502.0 " fill="#7FC7EA"></path></g></g></g><text xml:space="preserve" font-family="KontrapunktBob-Light,Kontrapunkt Bob" font-size="42.0" fill="#FEFFFE" transform="matrix(1.00, 0.00, -0.00, -1.00, 366.2, 362.2)">R</text><text xml:space="preserve" font-family="KontrapunktBob-Light,Kontrapunkt Bob" font-size="42.0" fill="#FEFFFE" transform="matrix(1.00, 0.00, -0.00, -1.00, 398.8, 362.2)">E</text><text xml:space="preserve" font-family="KontrapunktBob-Light,Kontrapunkt Bob" font-size="42.0" fill="#FEFFFE" transform="matrix(1.00, 0.00, -0.00, -1.00, 428.0, 362.2)">S</text><text xml:space="preserve" font-family="KontrapunktBob-Light,Kontrapunkt Bob" font-size="42.0" fill="#FEFFFE" transform="matrix(1.00, 0.00, -0.00, -1.00, 453.1, 362.2)">U</text><text xml:space="preserve" font-family="KontrapunktBob-Light,Kontrapunkt Bob" font-size="42.0" fill="#FEFFFE" transform="matrix(1.00, 0.00, -0.00, -1.00, 488.6, 362.2)">L</text><text xml:space="preserve" font-family="KontrapunktBob-Light,Kontrapunkt Bob" font-size="42.0" fill="#FEFFFE" transform="matrix(1.00, 0.00, -0.00, -1.00, 510.9, 362.2)">T</text><text xml:space="preserve" font-family="KontrapunktBob-Light,Kontrapunkt Bob" font-size="42.0" fill="#FEFFFE" transform="matrix(1.00, 0.00, -0.00, -1.00, 534.0, 362.2)">A</text><text xml:space="preserve" font-family="KontrapunktBob-Light,Kontrapunkt Bob" font-size="42.0" fill="#FEFFFE" transform="matrix(1.00, 0.00, -0.00, -1.00, 566.7, 362.2)">D</text><text xml:space="preserve" font-family="KontrapunktBob-Light,Kontrapunkt Bob" font-size="42.0" fill="#FEFFFE" transform="matrix(1.00, 0.00, -0.00, -1.00, 601.1, 362.2)">O</text><text xml:space="preserve" font-family="KontrapunktBob-Light,Kontrapunkt Bob" font-size="42.0" fill="#FEFFFE" transform="matrix(1.00, 0.00, -0.00, -1.00, 635.7, 362.2)">:</text><text xml:space="preserve" font-family="KontrapunktBob-Light,Kontrapunkt Bob" font-size="42.0" fill="#FEFFFE" transform="matrix(1.00, 0.00, -0.00, -1.00, 647.7, 362.2)"> </text><text xml:space="preserve" font-family="KontrapunktBob-Light,Kontrapunkt Bob" font-size="42.0" fill="#FEFFFE" transform="matrix(1.00, 0.00, -0.00, -1.00, 407.4, 311.2)">P</text><text xml:space="preserve" font-family="KontrapunktBob-Light,Kontrapunkt Bob" font-size="42.0" fill="#FEFFFE" transform="matrix(1.00, 0.00, -0.00, -1.00, 436.6, 311.2)">L</text><text xml:space="preserve" font-family="KontrapunktBob-Light,Kontrapunkt Bob" font-size="42.0" fill="#FEFFFE" transform="matrix(1.00, 0.00, -0.00, -1.00, 463.2, 311.2)">A</text><text xml:space="preserve" font-family="KontrapunktBob-Light,Kontrapunkt Bob" font-size="42.0" fill="#FEFFFE" transform="matrix(1.00, 0.00, -0.00, -1.00, 495.8, 311.2)">N</text><text xml:space="preserve" font-family="KontrapunktBob-Light,Kontrapunkt Bob" font-size="42.0" fill="#FEFFFE" transform="matrix(1.00, 0.00, -0.00, -1.00, 532.0, 311.2)"> </text><text xml:space="preserve" font-family="KontrapunktBob-Light,Kontrapunkt Bob" font-size="42.0" fill="#FEFFFE" transform="matrix(1.00, 0.00, -0.00, -1.00, 542.9, 311.2)">D</text><text xml:space="preserve" font-family="KontrapunktBob-Light,Kontrapunkt Bob" font-size="42.0" fill="#FEFFFE" transform="matrix(1.00, 0.00, -0.00, -1.00, 577.3, 311.2)">E</text><text xml:space="preserve" font-family="KontrapunktBob-Light,Kontrapunkt Bob" font-size="42.0" fill="#FEFFFE" transform="matrix(1.00, 0.00, -0.00, -1.00, 606.5, 311.2)"> </text><text xml:space="preserve" font-family="KontrapunktBob-Light,Kontrapunkt Bob" font-size="42.0" fill="#FEFFFE" transform="matrix(1.00, 0.00, -0.00, -1.00, 400.5, 260.2)">N</text><text xml:space="preserve" font-family="KontrapunktBob-Light,Kontrapunkt Bob" font-size="42.0" fill="#FEFFFE" transform="matrix(1.00, 0.00, -0.00, -1.00, 436.6, 260.2)">E</text><text xml:space="preserve" font-family="KontrapunktBob-Light,Kontrapunkt Bob" font-size="42.0" fill="#FEFFFE" transform="matrix(1.00, 0.00, -0.00, -1.00, 465.9, 260.2)">G</text><text xml:space="preserve" font-family="KontrapunktBob-Light,Kontrapunkt Bob" font-size="42.0" fill="#FEFFFE" transform="matrix(1.00, 0.00, -0.00, -1.00, 499.5, 260.2)">O</text><text xml:space="preserve" font-family="KontrapunktBob-Light,Kontrapunkt Bob" font-size="42.0" fill="#FEFFFE" transform="matrix(1.00, 0.00, -0.00, -1.00, 534.1, 260.2)">C</text><text xml:space="preserve" font-family="KontrapunktBob-Light,Kontrapunkt Bob" font-size="42.0" fill="#FEFFFE" transform="matrix(1.00, 0.00, -0.00, -1.00, 564.5, 260.2)">I</text><text xml:space="preserve" font-family="KontrapunktBob-Light,Kontrapunkt Bob" font-size="42.0" fill="#FEFFFE" transform="matrix(1.00, 0.00, -0.00, -1.00, 578.8, 260.2)">O</text><g><clipPath id="clip0x608000ea9ba0"><path d="M 474.5 467.4 L 536.3 467.4 L 536.3 486.5 L 474.5 486.5 Z M 474.5 467.4 "></path></clipPath><g clip-path="url(#clip0x608000ea9ba0)"><path d="M 522.5 485.5 L 488.3 486.0 C 488.3 486.0 484.0 485.3 484.0 481.0 L 526.7 481.0 C 526.7 485.3 522.5 485.5 522.5 485.5 Z M 535.3 472.7 C 535.3 477.0 531.0 477.0 531.0 477.0 L 479.8 477.0 C 479.8 477.0 476.0 477.0 476.0 472.7 L 476.0 468.0 L 535.3 468.0 C 535.3 468.0 535.3 472.7 535.3 472.7 Z M 535.3 472.7 " fill="#FEFFFE"></path></g></g><g><clipPath id="clip0x608000ea9840"><path d="M 463.9 414.7 L 550.0 414.7 L 550.0 470.7 L 463.9 470.7 Z M 463.9 414.7 "></path></clipPath><g clip-path="url(#clip0x608000ea9840)"><path d="M 545.4 467.1 C 542.8 469.7 543.0 469.7 543.0 469.7 L 543.0 463.0 L 471.0 463.0 L 471.0 469.7 C 471.0 469.7 471.1 469.7 468.5 467.1 C 466.0 464.6 464.2 463.9 465.2 458.6 C 466.2 453.2 471.1 423.9 471.8 420.0 C 472.6 415.6 477.1 416.0 477.1 416.0 L 536.8 416.0 C 536.8 416.0 541.3 415.6 542.0 420.0 C 542.8 423.9 547.7 453.2 548.7 458.6 C 549.7 463.9 547.9 464.6 545.4 467.1 Z M 545.4 467.1 " fill="#FEFFFE"></path></g></g></g></svg>