<?xml version="1.0" encoding="UTF-8" standalone="no"?><svg xmlns="http://www.w3.org/2000/svg" xmlns:xlink="http://www.w3.org/1999/xlink" clip-rule="evenodd" stroke-miterlimit="10" viewBox="0 0 328 71"><desc>SVG generated by Keynote</desc><defs></defs><g transform="matrix(1.00, 0.00, -0.00, -1.00, 0.0, 71.0)"><g><clipPath id="clip0x6000010a2b80"><path d="M 0.2 40.3 L 34.2 40.3 L 34.2 70.4 L 0.2 70.4 Z M 0.2 40.3 "></path></clipPath><g clip-path="url(#clip0x6000010a2b80)"><path d="M 17.6 49.6 C 14.4 51.0 13.4 52.1 13.4 54.5 C 13.4 55.9 14.4 55.4 14.8 58.1 C 15.0 59.1 15.8 58.1 16.0 60.6 C 16.0 61.6 15.5 61.8 15.5 61.8 C 15.5 61.8 15.8 63.3 15.9 64.4 C 16.0 65.8 15.1 69.4 10.8 69.4 C 6.4 69.4 5.5 65.8 5.7 64.4 C 5.7 63.3 6.0 61.8 6.0 61.8 C 6.0 61.8 5.5 61.6 5.5 60.6 C 5.7 58.1 6.5 59.1 6.7 58.1 C 7.1 55.4 8.1 55.9 8.1 54.5 C 8.1 52.1 7.1 51.0 3.9 49.6 C 3.0 49.2 1.0 48.6 1.0 47.1 L 1.0 41.0 L 23.5 41.0 C 23.5 41.0 23.5 44.7 23.5 45.6 C 23.5 47.0 20.8 48.3 17.6 49.6 Z M 33.2 41.3 C 33.2 41.3 33.2 47.3 32.8 48.0 C 32.2 48.9 31.0 49.5 28.6 50.5 C 26.2 51.5 25.4 52.4 25.4 54.2 C 25.4 55.2 26.2 54.9 26.5 56.9 C 26.6 57.7 27.3 56.9 27.4 58.7 C 27.4 59.5 27.0 59.7 27.0 59.7 C 27.0 59.7 27.2 60.8 27.3 61.6 C 27.4 62.7 26.7 65.4 23.5 65.4 C 20.2 65.4 19.5 62.7 19.6 61.6 C 19.7 60.8 19.9 59.7 19.9 59.7 C 19.9 59.7 19.5 59.5 19.5 58.7 C 19.7 56.9 20.3 57.7 20.4 56.9 C 20.7 54.9 21.5 55.2 21.5 54.2 C 21.5 52.9 21.1 52.2 20.1 51.5 C 25.3 48.9 26.0 48.4 26.0 46.0 L 26.0 41.3 C 26.0 41.3 33.2 41.3 33.2 41.3 Z M 33.2 41.3 " fill="#FEFFFE"></path></g></g><g><clipPath id="clip0x6000010a30c0"><path d="M 146.1 1.9 L 328.5 1.9 L 328.5 30.1 L 146.1 30.1 Z M 146.1 1.9 "></path></clipPath><g clip-path="url(#clip0x6000010a30c0)"><text xml:space="preserve" font-family="KontrapunktBob-Bold,Kontrapunkt Bob" font-weight="bold" font-size="15.0" fill="#FEFFFE" transform="matrix(1.00, 0.00, -0.00, -1.00, 150.5, 11.1)">G</text><text xml:space="preserve" font-family="KontrapunktBob-Bold,Kontrapunkt Bob" font-weight="bold" font-size="15.0" fill="#FEFFFE" transform="matrix(1.00, 0.00, -0.00, -1.00, 162.6, 11.1)">e</text><text xml:space="preserve" font-family="KontrapunktBob-Bold,Kontrapunkt Bob" font-weight="bold" font-size="15.0" fill="#FEFFFE" transform="matrix(1.00, 0.00, -0.00, -1.00, 171.5, 11.1)">s</text><text xml:space="preserve" font-family="KontrapunktBob-Bold,Kontrapunkt Bob" font-weight="bold" font-size="15.0" fill="#FEFFFE" transform="matrix(1.00, 0.00, -0.00, -1.00, 178.7, 11.1)">t</text><text xml:space="preserve" font-family="KontrapunktBob-Bold,Kontrapunkt Bob" font-weight="bold" font-size="15.0" fill="#FEFFFE" transform="matrix(1.00, 0.00, -0.00, -1.00, 185.3, 11.1)">i</text><text xml:space="preserve" font-family="KontrapunktBob-Bold,Kontrapunkt Bob" font-weight="bold" font-size="15.0" fill="#FEFFFE" transform="matrix(1.00, 0.00, -0.00, -1.00, 190.4, 11.1)">รณ</text><text xml:space="preserve" font-family="KontrapunktBob-Bold,Kontrapunkt Bob" font-weight="bold" font-size="15.0" fill="#FEFFFE" transform="matrix(1.00, 0.00, -0.00, -1.00, 200.2, 11.1)">n</text><text xml:space="preserve" font-family="KontrapunktBob-Bold,Kontrapunkt Bob" font-weight="bold" font-size="15.0" fill="#FEFFFE" transform="matrix(1.00, 0.00, -0.00, -1.00, 210.6, 11.1)"> </text><text xml:space="preserve" font-family="KontrapunktBob-Bold,Kontrapunkt Bob" font-weight="bold" font-size="15.0" fill="#FEFFFE" transform="matrix(1.00, 0.00, -0.00, -1.00, 214.5, 11.1)">d</text><text xml:space="preserve" font-family="KontrapunktBob-Bold,Kontrapunkt Bob" font-weight="bold" font-size="15.0" fill="#FEFFFE" transform="matrix(1.00, 0.00, -0.00, -1.00, 225.0, 11.1)">e</text><text xml:space="preserve" font-family="KontrapunktBob-Bold,Kontrapunkt Bob" font-weight="bold" font-size="15.0" fill="#FEFFFE" transform="matrix(1.00, 0.00, -0.00, -1.00, 234.0, 11.1)">l</text><text xml:space="preserve" font-family="KontrapunktBob-Bold,Kontrapunkt Bob" font-weight="bold" font-size="15.0" fill="#FEFFFE" transform="matrix(1.00, 0.00, -0.00, -1.00, 238.9, 11.1)"> </text><text xml:space="preserve" font-family="KontrapunktBob-Bold,Kontrapunkt Bob" font-weight="bold" font-size="15.0" fill="#FEFFFE" transform="matrix(1.00, 0.00, -0.00, -1.00, 242.8, 11.1)"> </text><text xml:space="preserve" font-family="KontrapunktBob-Bold,Kontrapunkt Bob" font-weight="bold" font-size="15.0" fill="#FEFFFE" transform="matrix(1.00, 0.00, -0.00, -1.00, 246.7, 11.1)">P</text><text xml:space="preserve" font-family="KontrapunktBob-Bold,Kontrapunkt Bob" font-weight="bold" font-size="15.0" fill="#FEFFFE" transform="matrix(1.00, 0.00, -0.00, -1.00, 256.8, 11.1)">r</text><text xml:space="preserve" font-family="KontrapunktBob-Bold,Kontrapunkt Bob" font-weight="bold" font-size="15.0" fill="#FEFFFE" transform="matrix(1.00, 0.00, -0.00, -1.00, 263.8, 11.1)">o</text><text xml:space="preserve" font-family="KontrapunktBob-Bold,Kontrapunkt Bob" font-weight="bold" font-size="15.0" fill="#FEFFFE" transform="matrix(1.00, 0.00, -0.00, -1.00, 273.4, 11.1)">y</text><text xml:space="preserve" font-family="KontrapunktBob-Bold,Kontrapunkt Bob" font-weight="bold" font-size="15.0" fill="#FEFFFE" transform="matrix(1.00, 0.00, -0.00, -1.00, 282.8, 11.1)">e</text><text xml:space="preserve" font-family="KontrapunktBob-Bold,Kontrapunkt Bob" font-weight="bold" font-size="15.0" fill="#FEFFFE" transform="matrix(1.00, 0.00, -0.00, -1.00, 291.7, 11.1)">c</text><text xml:space="preserve" font-family="KontrapunktBob-Bold,Kontrapunkt Bob" font-weight="bold" font-size="15.0" fill="#FEFFFE" transform="matrix(1.00, 0.00, -0.00, -1.00, 300.1, 11.1)">t</text><text xml:space="preserve" font-family="KontrapunktBob-Bold,Kontrapunkt Bob" font-weight="bold" font-size="15.0" fill="#FEFFFE" transform="matrix(1.00, 0.00, -0.00, -1.00, 306.4, 11.1)">o</text></g></g></g></svg>