<?xml version="1.0" encoding="UTF-8" standalone="no"?><svg xmlns="http://www.w3.org/2000/svg" xmlns:xlink="http://www.w3.org/1999/xlink" clip-rule="evenodd" stroke-miterlimit="10" viewBox="0 0 528 69"><desc>SVG generated by Keynote</desc><defs></defs><g transform="matrix(1.00, 0.00, -0.00, -1.00, 0.0, 69.0)"><g><clipPath id="clip0x6080008aa1a0"><path d="M 527.6 68.7 L 527.6 0.7 L 62.5 0.7 L 62.5 68.7 Z M 527.6 68.7 "></path></clipPath><g clip-path="url(#clip0x6080008aa1a0)"><path d="M 197.2 2.0 L 231.8 2.0 L 526.6 2.0 L 487.5 42.0 L 231.8 42.0 L 231.8 42.0 L 197.0 67.4 L 197.0 68.0 L 196.9 68.0 L 197.0 68.0 L 197.0 68.0 L 64.0 68.0 L 64.0 2.0 L 197.2 2.0 Z M 197.2 1.7 " fill="#7FC7EA"></path></g></g><g><clipPath id="clip0x6080008abb20"><path d="M 0.0 0.8 L 70.7 0.8 L 70.7 68.8 L 0.0 68.8 Z M 0.0 0.8 "></path></clipPath><g clip-path="url(#clip0x6080008abb20)"><path d="M 1.0 68.0 L 70.0 68.0 L 70.0 2.0 L 1.0 2.0 Z M 1.0 67.8 " fill="#F1F1F1"></path></g></g><g><clipPath id="clip0x6080008ab8e0"><path d="M 0.0 12.9 L 71.9 12.9 L 71.9 61.6 L 0.0 61.6 Z M 0.0 12.9 "></path></clipPath><g clip-path="url(#clip0x6080008ab8e0)"><text xml:space="preserve" font-family="KontrapunktBob-Light,Kontrapunkt Bob" font-size="48.0" fill="#7FC7EA" transform="matrix(1.00, 0.00, -0.00, -1.00, 20.6, 17.8)">2</text></g></g></g></svg>