<?xml version="1.0" encoding="UTF-8" standalone="no"?><svg xmlns="http://www.w3.org/2000/svg" xmlns:xlink="http://www.w3.org/1999/xlink" clip-rule="evenodd" stroke-miterlimit="10" viewBox="0 0 375 39"><desc>SVG generated by Keynote</desc><defs></defs><g transform="matrix(1.00, 0.00, -0.00, -1.00, 0.0, 39.0)"><text xml:space="preserve" font-family="KontrapunktBob-Light,Kontrapunkt Bob" font-size="48.0" fill="#7FC7EA" transform="matrix(1.00, 0.00, -0.00, -1.00, 0.0, 2.8)">C</text><text xml:space="preserve" font-family="KontrapunktBob-Light,Kontrapunkt Bob" font-size="48.0" fill="#7FC7EA" transform="matrix(1.00, 0.00, -0.00, -1.00, 34.8, 2.8)">A</text><text xml:space="preserve" font-family="KontrapunktBob-Light,Kontrapunkt Bob" font-size="48.0" fill="#7FC7EA" transform="matrix(1.00, 0.00, -0.00, -1.00, 72.1, 2.8)">S</text><text xml:space="preserve" font-family="KontrapunktBob-Light,Kontrapunkt Bob" font-size="48.0" fill="#7FC7EA" transform="matrix(1.00, 0.00, -0.00, -1.00, 101.3, 2.8)">O</text><text xml:space="preserve" font-family="KontrapunktBob-Light,Kontrapunkt Bob" font-size="48.0" fill="#7FC7EA" transform="matrix(1.00, 0.00, -0.00, -1.00, 141.1, 2.8)">S</text><text xml:space="preserve" font-family="KontrapunktBob-Light,Kontrapunkt Bob" font-size="48.0" fill="#7FC7EA" transform="matrix(1.00, 0.00, -0.00, -1.00, 169.8, 2.8)"> </text><text xml:space="preserve" font-family="KontrapunktBob-Light,Kontrapunkt Bob" font-size="48.0" fill="#7FC7EA" transform="matrix(1.00, 0.00, -0.00, -1.00, 182.3, 2.8)">D</text><text xml:space="preserve" font-family="KontrapunktBob-Light,Kontrapunkt Bob" font-size="48.0" fill="#7FC7EA" transform="matrix(1.00, 0.00, -0.00, -1.00, 221.5, 2.8)">E</text><text xml:space="preserve" font-family="KontrapunktBob-Light,Kontrapunkt Bob" font-size="48.0" fill="#7FC7EA" transform="matrix(1.00, 0.00, -0.00, -1.00, 254.9, 2.8)"> </text><text xml:space="preserve" font-family="KontrapunktBob-Light,Kontrapunkt Bob" font-size="48.0" fill="#7FC7EA" transform="matrix(1.00, 0.00, -0.00, -1.00, 267.4, 2.8)">U</text><text xml:space="preserve" font-family="KontrapunktBob-Light,Kontrapunkt Bob" font-size="48.0" fill="#7FC7EA" transform="matrix(1.00, 0.00, -0.00, -1.00, 308.0, 2.8)">S</text><text xml:space="preserve" font-family="KontrapunktBob-Light,Kontrapunkt Bob" font-size="48.0" fill="#7FC7EA" transform="matrix(1.00, 0.00, -0.00, -1.00, 337.2, 2.8)">O</text></g></svg>