<?xml version="1.0" encoding="UTF-8" standalone="no"?><svg xmlns="http://www.w3.org/2000/svg" xmlns:xlink="http://www.w3.org/1999/xlink" clip-rule="evenodd" stroke-miterlimit="10" viewBox="0 0 108 34"><desc>SVG generated by Keynote</desc><defs></defs><g transform="matrix(1.00, 0.00, -0.00, -1.00, 0.0, 34.0)"><g><clipPath id="clip0x6180012aa260"><path d="M 0.3 1.0 L 107.4 1.0 L 107.4 33.9 L 0.3 33.9 Z M 0.3 1.0 "></path></clipPath><g clip-path="url(#clip0x6180012aa260)"><path d="M 52.9 32.9 L 37.0 33.0 L 1.3 33.0 L 19.2 2.0 L 19.2 2.0 L 70.7 2.0 L 106.4 2.0 L 88.6 32.9 C 88.6 32.9 52.9 32.9 52.9 32.9 Z M 52.9 32.9 " fill="#7FC7EA"></path></g></g><g><clipPath id="clip0x6180012a9b40"><path d="M 18.4 3.7 L 89.4 3.7 L 89.4 31.1 L 18.4 31.1 Z M 18.4 3.7 "></path></clipPath><g clip-path="url(#clip0x6180012a9b40)"><text xml:space="preserve" font-family="KontrapunktBob-Bold,Kontrapunkt Bob" font-weight="bold" font-size="10.0" fill="#FEFFFE" transform="matrix(1.00, 0.00, -0.00, -1.00, 47.5, 14.7)">0</text><text xml:space="preserve" font-family="KontrapunktBob-Bold,Kontrapunkt Bob" font-weight="bold" font-size="10.0" fill="#FEFFFE" transform="matrix(1.00, 0.00, -0.00, -1.00, 54.5, 14.7)">3</text></g></g></g></svg>