<?xml version="1.0" encoding="UTF-8" standalone="no"?><svg xmlns="http://www.w3.org/2000/svg" xmlns:xlink="http://www.w3.org/1999/xlink" clip-rule="evenodd" stroke-miterlimit="10" viewBox="0 0 108 34"><desc>SVG generated by Keynote</desc><defs></defs><g transform="matrix(1.00, 0.00, -0.00, -1.00, 0.0, 34.0)"><g><clipPath id="clip0x600001ea6180"><path d="M 0.7 0.5 L 107.7 0.5 L 107.7 33.4 L 0.7 33.4 Z M 0.7 0.5 "></path></clipPath><g clip-path="url(#clip0x600001ea6180)"><path d="M 53.2 32.4 L 37.4 32.0 L 1.7 32.0 L 19.5 1.5 L 19.5 1.0 L 71.1 1.0 L 106.7 1.0 L 88.9 32.4 C 88.9 32.4 53.2 32.4 53.2 32.4 Z M 53.2 32.4 " fill="#7FC7EA"></path></g></g><g><clipPath id="clip0x600001ea5ca0"><path d="M 18.7 3.3 L 89.7 3.3 L 89.7 30.6 L 18.7 30.6 Z M 18.7 3.3 "></path></clipPath><g clip-path="url(#clip0x600001ea5ca0)"><text xml:space="preserve" font-family="KontrapunktBob-Bold,Kontrapunkt Bob" font-weight="bold" font-size="10.0" fill="#FEFFFE" transform="matrix(1.00, 0.00, -0.00, -1.00, 47.6, 14.3)">0</text><text xml:space="preserve" font-family="KontrapunktBob-Bold,Kontrapunkt Bob" font-weight="bold" font-size="10.0" fill="#FEFFFE" transform="matrix(1.00, 0.00, -0.00, -1.00, 54.6, 14.3)">2</text></g></g></g></svg>