<?xml version="1.0" encoding="UTF-8" standalone="no"?><svg xmlns="http://www.w3.org/2000/svg" xmlns:xlink="http://www.w3.org/1999/xlink" clip-rule="evenodd" stroke-miterlimit="10" viewBox="0 0 511 162"><desc>SVG generated by Keynote</desc><defs></defs><g transform="matrix(1.00, 0.00, -0.00, -1.00, 0.0, 162.0)"><g><clipPath id="clip0x600001ca5460"><path d="M 289.6 17.1 L 0.2 17.1 L 0.2 161.2 L 289.6 161.2 Z M 289.6 17.1 "></path></clipPath><g clip-path="url(#clip0x600001ca5460)"><path d="M 72.2 18.1 C 107.3 18.1 136.5 43.5 142.2 77.1 C 155.0 77.1 173.1 77.1 183.1 77.1 C 187.6 77.1 190.4 77.0 190.4 77.0 L 191.9 77.0 C 191.9 77.0 193.5 77.4 195.6 75.2 C 197.8 73.0 211.4 59.0 211.4 59.0 C 211.4 59.0 211.4 59.0 211.4 59.0 C 211.4 59.0 212.5 58.8 213.0 58.8 L 213.0 59.0 L 288.0 59.0 L 289.0 126.0 L 212.5 127.0 C 211.9 127.0 211.4 126.3 211.4 126.3 C 211.4 126.3 197.8 110.6 195.6 108.4 C 193.5 106.1 191.9 106.0 191.9 106.0 L 190.4 106.0 C 190.4 106.0 187.6 106.4 183.1 106.4 C 172.8 106.4 154.0 106.4 141.1 106.4 C 133.4 137.3 105.5 160.2 72.2 160.2 C 33.0 160.2 1.2 128.4 1.2 89.2 C 1.2 50.0 33.0 18.1 72.2 18.1 Z M 72.2 18.1 " fill="#7FC7EA" fill-opacity="0.75"></path></g></g><g><clipPath id="clip0x600001ca4f80"><path d="M 283.3 20.5 L 283.0 124.8 C 283.0 135.8 292.2 145.0 303.1 145.0 L 490.4 145.0 C 501.4 145.0 510.0 135.8 510.0 124.8 L 510.0 20.5 C 510.0 9.6 501.4 1.0 490.4 1.0 L 303.1 1.0 C 292.2 1.0 283.3 9.6 283.3 20.5 Z M 283.3 20.5 "></path></clipPath><g clip-path="url(#clip0x600001ca4f80)"><g><clipPath id="clip0x600001ca4e00"><path d="M 283.3 0.7 L 510.3 0.7 L 510.3 144.7 L 283.3 144.7 Z M 283.3 0.7 "></path></clipPath><g clip-path="url(#clip0x600001ca4e00)"><image xlink:href="638049F7B58D24C063C685D365DDBAE0.png" width="300.00" height="320.00" transform="matrix(0.55, 0.00, -0.00, -0.55, 315.0, 160.0)"></image></g></g></g></g></g></svg>