<?xml version="1.0" encoding="UTF-8" standalone="no"?><svg xmlns="http://www.w3.org/2000/svg" xmlns:xlink="http://www.w3.org/1999/xlink" clip-rule="evenodd" stroke-miterlimit="10" viewBox="0 0 140 140"><desc>SVG generated by Keynote</desc><defs></defs><g transform="matrix(1.00, 0.00, -0.00, -1.00, 0.0, 140.0)"><g><clipPath id="clip0x6000020a26a0"><path d="M 0.3 0.3 L 139.5 0.3 L 139.5 139.5 L 0.3 139.5 Z M 0.3 0.3 "></path></clipPath><g clip-path="url(#clip0x6000020a26a0)"><path d="M 118.4 118.4 C 145.2 91.6 145.2 48.2 118.4 21.4 C 91.6 -5.4 48.2 -5.4 21.4 21.4 C -5.4 48.2 -5.4 91.6 21.4 118.4 C 48.2 145.2 91.6 145.2 118.4 118.4 Z M 118.4 118.4 " fill="#7FC7EA"></path></g></g><g><clipPath id="clip0x6000020a2400"><path d="M 29.4 37.8 L 102.1 37.8 L 102.1 102.0 L 29.4 102.0 Z M 29.4 37.8 "></path></clipPath><g clip-path="url(#clip0x6000020a2400)"><path d="M 56.8 77.9 L 67.4 74.4 L 78.1 86.9 L 79.8 88.5 L 87.0 83.3 L 87.0 92.1 L 87.0 101.0 L 78.1 99.2 L 69.2 97.5 L 76.3 90.3 L 65.6 79.7 L 55.1 83.3 L 48.1 70.8 L 37.4 74.4 L 32.2 58.3 L 30.4 54.9 L 33.8 53.1 L 39.2 69.0 L 49.7 65.6 L 56.8 77.9 L 56.8 77.9 Z M 52.0 39.0 L 52.0 53.0 L 43.0 53.0 L 43.0 39.0 L 51.5 39.0 L 52.0 39.0 Z M 64.0 39.0 L 55.0 39.0 L 55.0 58.0 L 64.0 58.0 L 64.0 38.8 L 64.0 39.0 Z M 76.0 39.0 L 67.0 39.0 L 67.0 66.0 L 76.0 66.0 L 76.0 38.8 L 76.0 39.0 Z M 89.0 39.0 L 80.0 39.0 L 80.0 73.0 L 89.0 73.0 L 89.0 38.8 L 89.0 39.0 Z M 92.2 81.0 L 92.0 39.0 L 101.0 39.0 L 101.0 81.0 L 92.2 81.0 Z M 92.2 81.5 " fill="#FEFFFE"></path></g></g></g></svg>