<?xml version="1.0" encoding="UTF-8" standalone="no"?><svg xmlns="http://www.w3.org/2000/svg" xmlns:xlink="http://www.w3.org/1999/xlink" clip-rule="evenodd" stroke-miterlimit="10" viewBox="0 0 64 64"><desc>SVG generated by Keynote</desc><defs></defs><g transform="matrix(1.00, 0.00, -0.00, -1.00, 0.0, 64.0)"><g><clipPath id="clip0x600000eb9b00"><path d="M 0.3 0.5 L 63.2 0.5 L 63.2 63.5 L 0.3 63.5 Z M 0.3 0.5 "></path></clipPath><g clip-path="url(#clip0x600000eb9b00)"><path d="M 53.3 53.6 C 65.2 41.7 65.2 22.4 53.3 10.5 C 41.4 -1.4 22.1 -1.4 10.2 10.5 C -1.7 22.4 -1.7 41.7 10.2 53.6 C 22.1 65.5 41.4 65.5 53.3 53.6 Z M 53.3 53.6 " fill="#7FC7EA"></path></g></g><g><clipPath id="clip0x600000eba040"><path d="M 14.4 17.9 L 49.1 17.9 L 49.1 46.1 L 14.4 46.1 Z M 14.4 17.9 "></path></clipPath><g clip-path="url(#clip0x600000eba040)"><path d="M 26.5 19.3 C 26.5 18.9 26.8 18.7 27.1 19.1 C 27.6 19.5 32.2 23.6 32.2 23.6 L 26.5 26.5 C 26.5 26.5 26.5 19.3 26.5 19.3 Z M 47.2 45.1 C 46.6 44.9 16.5 34.3 15.9 34.0 C 15.4 33.9 15.3 33.4 15.9 33.2 C 16.6 32.9 22.6 30.5 22.6 30.5 L 22.6 30.5 L 26.6 28.9 C 26.6 28.9 45.8 43.0 46.1 43.2 C 46.3 43.4 46.6 43.0 46.4 42.8 C 46.2 42.6 32.0 27.7 32.0 27.7 L 32.0 27.0 L 32.7 26.0 L 32.7 26.0 C 32.7 26.3 41.0 21.8 41.6 21.5 C 42.1 21.2 42.8 21.5 42.9 22.1 C 43.1 22.9 48.0 43.8 48.1 44.3 C 48.2 44.9 47.8 45.3 47.2 45.1 Z M 47.2 45.1 " fill="#FEFFFE"></path></g></g></g></svg>