<?xml version="1.0" encoding="UTF-8" standalone="no"?><svg xmlns="http://www.w3.org/2000/svg" xmlns:xlink="http://www.w3.org/1999/xlink" clip-rule="evenodd" stroke-miterlimit="10" viewBox="0 0 519 88"><desc>SVG generated by Keynote</desc><defs></defs><g transform="matrix(1.00, 0.00, -0.00, -1.00, 0.0, 88.0)"><text xml:space="preserve" font-family="Aller-Light,Aller Light" font-size="15.0" fill="#52575F" transform="matrix(1.00, 0.00, -0.00, -1.00, 0.8, 74.7)">L</text><text xml:space="preserve" font-family="Aller-Light,Aller Light" font-size="15.0" fill="#52575F" transform="matrix(1.00, 0.00, -0.00, -1.00, 8.2, 74.7)">a</text><text xml:space="preserve" font-family="Aller-Light,Aller Light" font-size="15.0" fill="#52575F" transform="matrix(1.00, 0.00, -0.00, -1.00, 15.9, 74.7)"> </text><text xml:space="preserve" font-family="Aller-Light,Aller Light" font-size="15.0" fill="#52575F" transform="matrix(1.00, 0.00, -0.00, -1.00, 21.8, 74.7)">r</text><text xml:space="preserve" font-family="Aller-Light,Aller Light" font-size="15.0" fill="#52575F" transform="matrix(1.00, 0.00, -0.00, -1.00, 26.8, 74.7)">e</text><text xml:space="preserve" font-family="Aller-Light,Aller Light" font-size="15.0" fill="#52575F" transform="matrix(1.00, 0.00, -0.00, -1.00, 35.1, 74.7)">a</text><text xml:space="preserve" font-family="Aller-Light,Aller Light" font-size="15.0" fill="#52575F" transform="matrix(1.00, 0.00, -0.00, -1.00, 42.8, 74.7)">l</text><text xml:space="preserve" font-family="Aller-Light,Aller Light" font-size="15.0" fill="#52575F" transform="matrix(1.00, 0.00, -0.00, -1.00, 47.0, 74.7)">i</text><text xml:space="preserve" font-family="Aller-Light,Aller Light" font-size="15.0" fill="#52575F" transform="matrix(1.00, 0.00, -0.00, -1.00, 51.1, 74.7)">z</text><text xml:space="preserve" font-family="Aller-Light,Aller Light" font-size="15.0" fill="#52575F" transform="matrix(1.00, 0.00, -0.00, -1.00, 57.9, 74.7)">a</text><text xml:space="preserve" font-family="Aller-Light,Aller Light" font-size="15.0" fill="#52575F" transform="matrix(1.00, 0.00, -0.00, -1.00, 65.6, 74.7)">c</text><text xml:space="preserve" font-family="Aller-Light,Aller Light" font-size="15.0" fill="#52575F" transform="matrix(1.00, 0.00, -0.00, -1.00, 72.8, 74.7)">i</text><text xml:space="preserve" font-family="Aller-Light,Aller Light" font-size="15.0" fill="#52575F" transform="matrix(1.00, 0.00, -0.00, -1.00, 76.9, 74.7)">ó</text><text xml:space="preserve" font-family="Aller-Light,Aller Light" font-size="15.0" fill="#52575F" transform="matrix(1.00, 0.00, -0.00, -1.00, 85.5, 74.7)">n</text><text xml:space="preserve" font-family="Aller-Light,Aller Light" font-size="15.0" fill="#52575F" transform="matrix(1.00, 0.00, -0.00, -1.00, 94.1, 74.7)"> </text><text xml:space="preserve" font-family="Aller-Light,Aller Light" font-size="15.0" fill="#52575F" transform="matrix(1.00, 0.00, -0.00, -1.00, 99.9, 74.7)">d</text><text xml:space="preserve" font-family="Aller-Light,Aller Light" font-size="15.0" fill="#52575F" transform="matrix(1.00, 0.00, -0.00, -1.00, 108.7, 74.7)">e</text><text xml:space="preserve" font-family="Aller-Light,Aller Light" font-size="15.0" fill="#52575F" transform="matrix(1.00, 0.00, -0.00, -1.00, 117.0, 74.7)"> </text><text xml:space="preserve" font-family="Aller-Light,Aller Light" font-size="15.0" fill="#52575F" transform="matrix(1.00, 0.00, -0.00, -1.00, 122.8, 74.7)">u</text><text xml:space="preserve" font-family="Aller-Light,Aller Light" font-size="15.0" fill="#52575F" transform="matrix(1.00, 0.00, -0.00, -1.00, 131.5, 74.7)">n</text><text xml:space="preserve" font-family="Aller-Light,Aller Light" font-size="15.0" fill="#52575F" transform="matrix(1.00, 0.00, -0.00, -1.00, 140.0, 74.7)"> </text><text xml:space="preserve" font-family="Aller-Light,Aller Light" font-size="15.0" fill="#52575F" transform="matrix(1.00, 0.00, -0.00, -1.00, 145.9, 74.7)">P</text><text xml:space="preserve" font-family="Aller-Light,Aller Light" font-size="15.0" fill="#52575F" transform="matrix(1.00, 0.00, -0.00, -1.00, 154.2, 74.7)">l</text><text xml:space="preserve" font-family="Aller-Light,Aller Light" font-size="15.0" fill="#52575F" transform="matrix(1.00, 0.00, -0.00, -1.00, 158.4, 74.7)">a</text><text xml:space="preserve" font-family="Aller-Light,Aller Light" font-size="15.0" fill="#52575F" transform="matrix(1.00, 0.00, -0.00, -1.00, 166.1, 74.7)">n</text><text xml:space="preserve" font-family="Aller-Light,Aller Light" font-size="15.0" fill="#52575F" transform="matrix(1.00, 0.00, -0.00, -1.00, 174.7, 74.7)"> </text><text xml:space="preserve" font-family="Aller-Light,Aller Light" font-size="15.0" fill="#52575F" transform="matrix(1.00, 0.00, -0.00, -1.00, 180.5, 74.7)">d</text><text xml:space="preserve" font-family="Aller-Light,Aller Light" font-size="15.0" fill="#52575F" transform="matrix(1.00, 0.00, -0.00, -1.00, 189.3, 74.7)">e</text><text xml:space="preserve" font-family="Aller-Light,Aller Light" font-size="15.0" fill="#52575F" transform="matrix(1.00, 0.00, -0.00, -1.00, 197.6, 74.7)"> </text><text xml:space="preserve" font-family="Aller-Light,Aller Light" font-size="15.0" fill="#52575F" transform="matrix(1.00, 0.00, -0.00, -1.00, 203.4, 74.7)">N</text><text xml:space="preserve" font-family="Aller-Light,Aller Light" font-size="15.0" fill="#52575F" transform="matrix(1.00, 0.00, -0.00, -1.00, 213.8, 74.7)">e</text><text xml:space="preserve" font-family="Aller-Light,Aller Light" font-size="15.0" fill="#52575F" transform="matrix(1.00, 0.00, -0.00, -1.00, 221.9, 74.7)">g</text><text xml:space="preserve" font-family="Aller-Light,Aller Light" font-size="15.0" fill="#52575F" transform="matrix(1.00, 0.00, -0.00, -1.00, 229.8, 74.7)">o</text><text xml:space="preserve" font-family="Aller-Light,Aller Light" font-size="15.0" fill="#52575F" transform="matrix(1.00, 0.00, -0.00, -1.00, 238.4, 74.7)">c</text><text xml:space="preserve" font-family="Aller-Light,Aller Light" font-size="15.0" fill="#52575F" transform="matrix(1.00, 0.00, -0.00, -1.00, 245.6, 74.7)">i</text><text xml:space="preserve" font-family="Aller-Light,Aller Light" font-size="15.0" fill="#52575F" transform="matrix(1.00, 0.00, -0.00, -1.00, 249.7, 74.7)">o</text><text xml:space="preserve" font-family="Aller-Light,Aller Light" font-size="15.0" fill="#52575F" transform="matrix(1.00, 0.00, -0.00, -1.00, 258.3, 74.7)"> </text><text xml:space="preserve" font-family="Aller-Light,Aller Light" font-size="15.0" fill="#52575F" transform="matrix(1.00, 0.00, -0.00, -1.00, 264.2, 74.7)">e</text><text xml:space="preserve" font-family="Aller-Light,Aller Light" font-size="15.0" fill="#52575F" transform="matrix(1.00, 0.00, -0.00, -1.00, 272.5, 74.7)">n</text><text xml:space="preserve" font-family="Aller-Light,Aller Light" font-size="15.0" fill="#52575F" transform="matrix(1.00, 0.00, -0.00, -1.00, 281.0, 74.7)"> </text><text xml:space="preserve" font-family="Aller-Light,Aller Light" font-size="15.0" fill="#52575F" transform="matrix(1.00, 0.00, -0.00, -1.00, 286.9, 74.7)">b</text><text xml:space="preserve" font-family="Aller-Light,Aller Light" font-size="15.0" fill="#52575F" transform="matrix(1.00, 0.00, -0.00, -1.00, 295.8, 74.7)">a</text><text xml:space="preserve" font-family="Aller-Light,Aller Light" font-size="15.0" fill="#52575F" transform="matrix(1.00, 0.00, -0.00, -1.00, 303.4, 74.7)">s</text><text xml:space="preserve" font-family="Aller-Light,Aller Light" font-size="15.0" fill="#52575F" transform="matrix(1.00, 0.00, -0.00, -1.00, 310.2, 74.7)">e</text><text xml:space="preserve" font-family="Aller-Light,Aller Light" font-size="15.0" fill="#52575F" transform="matrix(1.00, 0.00, -0.00, -1.00, 318.5, 74.7)"> </text><text xml:space="preserve" font-family="Aller-Light,Aller Light" font-size="15.0" fill="#52575F" transform="matrix(1.00, 0.00, -0.00, -1.00, 324.4, 74.7)">a</text><text xml:space="preserve" font-family="Aller-Light,Aller Light" font-size="15.0" fill="#52575F" transform="matrix(1.00, 0.00, -0.00, -1.00, 332.1, 74.7)">l</text><text xml:space="preserve" font-family="Aller-Light,Aller Light" font-size="15.0" fill="#52575F" transform="matrix(1.00, 0.00, -0.00, -1.00, 336.3, 74.7)"> </text><text xml:space="preserve" font-family="Aller-Light,Aller Light" font-size="15.0" fill="#52575F" transform="matrix(1.00, 0.00, -0.00, -1.00, 342.1, 74.7)">u</text><text xml:space="preserve" font-family="Aller-Light,Aller Light" font-size="15.0" fill="#52575F" transform="matrix(1.00, 0.00, -0.00, -1.00, 350.7, 74.7)">s</text><text xml:space="preserve" font-family="Aller-Light,Aller Light" font-size="15.0" fill="#52575F" transform="matrix(1.00, 0.00, -0.00, -1.00, 357.5, 74.7)">o</text><text xml:space="preserve" font-family="Aller-Light,Aller Light" font-size="15.0" fill="#52575F" transform="matrix(1.00, 0.00, -0.00, -1.00, 366.1, 74.7)"> </text><text xml:space="preserve" font-family="Aller-Light,Aller Light" font-size="15.0" fill="#52575F" transform="matrix(1.00, 0.00, -0.00, -1.00, 372.0, 74.7)">d</text><text xml:space="preserve" font-family="Aller-Light,Aller Light" font-size="15.0" fill="#52575F" transform="matrix(1.00, 0.00, -0.00, -1.00, 380.8, 74.7)">e</text><text xml:space="preserve" font-family="Aller-Light,Aller Light" font-size="15.0" fill="#52575F" transform="matrix(1.00, 0.00, -0.00, -1.00, 389.0, 74.7)"> </text><text xml:space="preserve" font-family="Aller-Light,Aller Light" font-size="15.0" fill="#52575F" transform="matrix(1.00, 0.00, -0.00, -1.00, 394.9, 74.7)">t</text><text xml:space="preserve" font-family="Aller-Light,Aller Light" font-size="15.0" fill="#52575F" transform="matrix(1.00, 0.00, -0.00, -1.00, 400.0, 74.7)">e</text><text xml:space="preserve" font-family="Aller-Light,Aller Light" font-size="15.0" fill="#52575F" transform="matrix(1.00, 0.00, -0.00, -1.00, 408.3, 74.7)">c</text><text xml:space="preserve" font-family="Aller-Light,Aller Light" font-size="15.0" fill="#52575F" transform="matrix(1.00, 0.00, -0.00, -1.00, 415.5, 74.7)">n</text><text xml:space="preserve" font-family="Aller-Light,Aller Light" font-size="15.0" fill="#52575F" transform="matrix(1.00, 0.00, -0.00, -1.00, 424.1, 74.7)">o</text><text xml:space="preserve" font-family="Aller-Light,Aller Light" font-size="15.0" fill="#52575F" transform="matrix(1.00, 0.00, -0.00, -1.00, 432.7, 74.7)">l</text><text xml:space="preserve" font-family="Aller-Light,Aller Light" font-size="15.0" fill="#52575F" transform="matrix(1.00, 0.00, -0.00, -1.00, 436.9, 74.7)">o</text><text xml:space="preserve" font-family="Aller-Light,Aller Light" font-size="15.0" fill="#52575F" transform="matrix(1.00, 0.00, -0.00, -1.00, 445.3, 74.7)">g</text><text xml:space="preserve" font-family="Aller-Light,Aller Light" font-size="15.0" fill="#52575F" transform="matrix(1.00, 0.00, -0.00, -1.00, 453.4, 74.7)">í</text><text xml:space="preserve" font-family="Aller-Light,Aller Light" font-size="15.0" fill="#52575F" transform="matrix(1.00, 0.00, -0.00, -1.00, 457.5, 74.7)">a</text><text xml:space="preserve" font-family="Aller-Light,Aller Light" font-size="15.0" fill="#52575F" transform="matrix(1.00, 0.00, -0.00, -1.00, 465.1, 74.7)">s</text><text xml:space="preserve" font-family="Aller-Light,Aller Light" font-size="15.0" fill="#52575F" transform="matrix(1.00, 0.00, -0.00, -1.00, 471.9, 74.7)"> </text><text xml:space="preserve" font-family="Aller-Light,Aller Light" font-size="15.0" fill="#52575F" transform="matrix(1.00, 0.00, -0.00, -1.00, 477.8, 74.7)">R</text><text xml:space="preserve" font-family="Aller-Light,Aller Light" font-size="15.0" fill="#52575F" transform="matrix(1.00, 0.00, -0.00, -1.00, 486.6, 74.7)">P</text><text xml:space="preserve" font-family="Aller-Light,Aller Light" font-size="15.0" fill="#52575F" transform="matrix(1.00, 0.00, -0.00, -1.00, 494.2, 74.7)">A</text><text xml:space="preserve" font-family="Aller-Light,Aller Light" font-size="15.0" fill="#52575F" transform="matrix(1.00, 0.00, -0.00, -1.00, 503.3, 74.7)"> </text><text xml:space="preserve" font-family="Aller-Light,Aller Light" font-size="15.0" fill="#52575F" transform="matrix(1.00, 0.00, -0.00, -1.00, 509.1, 74.7)">y</text><text xml:space="preserve" font-family="Aller-Light,Aller Light" font-size="15.0" fill="#52575F" transform="matrix(1.00, 0.00, -0.00, -1.00, 516.8, 74.7)"> </text><text xml:space="preserve" font-family="Aller-Light,Aller Light" font-size="15.0" fill="#52575F" transform="matrix(1.00, 0.00, -0.00, -1.00, 0.8, 56.7)">o</text><text xml:space="preserve" font-family="Aller-Light,Aller Light" font-size="15.0" fill="#52575F" transform="matrix(1.00, 0.00, -0.00, -1.00, 9.4, 56.7)">t</text><text xml:space="preserve" font-family="Aller-Light,Aller Light" font-size="15.0" fill="#52575F" transform="matrix(1.00, 0.00, -0.00, -1.00, 14.5, 56.7)">r</text><text xml:space="preserve" font-family="Aller-Light,Aller Light" font-size="15.0" fill="#52575F" transform="matrix(1.00, 0.00, -0.00, -1.00, 19.6, 56.7)">a</text><text xml:space="preserve" font-family="Aller-Light,Aller Light" font-size="15.0" fill="#52575F" transform="matrix(1.00, 0.00, -0.00, -1.00, 27.2, 56.7)">s</text><text xml:space="preserve" font-family="Aller-Light,Aller Light" font-size="15.0" fill="#52575F" transform="matrix(1.00, 0.00, -0.00, -1.00, 34.0, 56.7)"> </text><text xml:space="preserve" font-family="Aller-Light,Aller Light" font-size="15.0" fill="#52575F" transform="matrix(1.00, 0.00, -0.00, -1.00, 40.7, 56.7)">t</text><text xml:space="preserve" font-family="Aller-Light,Aller Light" font-size="15.0" fill="#52575F" transform="matrix(1.00, 0.00, -0.00, -1.00, 45.8, 56.7)">e</text><text xml:space="preserve" font-family="Aller-Light,Aller Light" font-size="15.0" fill="#52575F" transform="matrix(1.00, 0.00, -0.00, -1.00, 54.1, 56.7)">c</text><text xml:space="preserve" font-family="Aller-Light,Aller Light" font-size="15.0" fill="#52575F" transform="matrix(1.00, 0.00, -0.00, -1.00, 61.3, 56.7)">n</text><text xml:space="preserve" font-family="Aller-Light,Aller Light" font-size="15.0" fill="#52575F" transform="matrix(1.00, 0.00, -0.00, -1.00, 69.8, 56.7)">o</text><text xml:space="preserve" font-family="Aller-Light,Aller Light" font-size="15.0" fill="#52575F" transform="matrix(1.00, 0.00, -0.00, -1.00, 78.4, 56.7)">l</text><text xml:space="preserve" font-family="Aller-Light,Aller Light" font-size="15.0" fill="#52575F" transform="matrix(1.00, 0.00, -0.00, -1.00, 82.6, 56.7)">o</text><text xml:space="preserve" font-family="Aller-Light,Aller Light" font-size="15.0" fill="#52575F" transform="matrix(1.00, 0.00, -0.00, -1.00, 91.1, 56.7)">g</text><text xml:space="preserve" font-family="Aller-Light,Aller Light" font-size="15.0" fill="#52575F" transform="matrix(1.00, 0.00, -0.00, -1.00, 99.1, 56.7)">í</text><text xml:space="preserve" font-family="Aller-Light,Aller Light" font-size="15.0" fill="#52575F" transform="matrix(1.00, 0.00, -0.00, -1.00, 103.2, 56.7)">a</text><text xml:space="preserve" font-family="Aller-Light,Aller Light" font-size="15.0" fill="#52575F" transform="matrix(1.00, 0.00, -0.00, -1.00, 110.9, 56.7)">s</text><text xml:space="preserve" font-family="Aller-Light,Aller Light" font-size="15.0" fill="#52575F" transform="matrix(1.00, 0.00, -0.00, -1.00, 117.7, 56.7)"> </text><text xml:space="preserve" font-family="Aller-Light,Aller Light" font-size="15.0" fill="#52575F" transform="matrix(1.00, 0.00, -0.00, -1.00, 124.3, 56.7)">c</text><text xml:space="preserve" font-family="Aller-Light,Aller Light" font-size="15.0" fill="#52575F" transform="matrix(1.00, 0.00, -0.00, -1.00, 131.3, 56.7)">o</text><text xml:space="preserve" font-family="Aller-Light,Aller Light" font-size="15.0" fill="#52575F" transform="matrix(1.00, 0.00, -0.00, -1.00, 139.9, 56.7)">m</text><text xml:space="preserve" font-family="Aller-Light,Aller Light" font-size="15.0" fill="#52575F" transform="matrix(1.00, 0.00, -0.00, -1.00, 152.5, 56.7)">p</text><text xml:space="preserve" font-family="Aller-Light,Aller Light" font-size="15.0" fill="#52575F" transform="matrix(1.00, 0.00, -0.00, -1.00, 161.3, 56.7)">l</text><text xml:space="preserve" font-family="Aller-Light,Aller Light" font-size="15.0" fill="#52575F" transform="matrix(1.00, 0.00, -0.00, -1.00, 165.5, 56.7)">e</text><text xml:space="preserve" font-family="Aller-Light,Aller Light" font-size="15.0" fill="#52575F" transform="matrix(1.00, 0.00, -0.00, -1.00, 173.8, 56.7)">m</text><text xml:space="preserve" font-family="Aller-Light,Aller Light" font-size="15.0" fill="#52575F" transform="matrix(1.00, 0.00, -0.00, -1.00, 186.3, 56.7)">e</text><text xml:space="preserve" font-family="Aller-Light,Aller Light" font-size="15.0" fill="#52575F" transform="matrix(1.00, 0.00, -0.00, -1.00, 194.6, 56.7)">n</text><text xml:space="preserve" font-family="Aller-Light,Aller Light" font-size="15.0" fill="#52575F" transform="matrix(1.00, 0.00, -0.00, -1.00, 203.2, 56.7)">t</text><text xml:space="preserve" font-family="Aller-Light,Aller Light" font-size="15.0" fill="#52575F" transform="matrix(1.00, 0.00, -0.00, -1.00, 208.3, 56.7)">a</text><text xml:space="preserve" font-family="Aller-Light,Aller Light" font-size="15.0" fill="#52575F" transform="matrix(1.00, 0.00, -0.00, -1.00, 216.0, 56.7)">r</text><text xml:space="preserve" font-family="Aller-Light,Aller Light" font-size="15.0" fill="#52575F" transform="matrix(1.00, 0.00, -0.00, -1.00, 221.2, 56.7)">i</text><text xml:space="preserve" font-family="Aller-Light,Aller Light" font-size="15.0" fill="#52575F" transform="matrix(1.00, 0.00, -0.00, -1.00, 225.3, 56.7)">a</text><text xml:space="preserve" font-family="Aller-Light,Aller Light" font-size="15.0" fill="#52575F" transform="matrix(1.00, 0.00, -0.00, -1.00, 233.0, 56.7)">s</text><text xml:space="preserve" font-family="Aller-Light,Aller Light" font-size="15.0" fill="#52575F" transform="matrix(1.00, 0.00, -0.00, -1.00, 239.8, 56.7)"> </text><text xml:space="preserve" font-family="Aller-Light,Aller Light" font-size="15.0" fill="#52575F" transform="matrix(1.00, 0.00, -0.00, -1.00, 246.5, 56.7)">e</text><text xml:space="preserve" font-family="Aller-Light,Aller Light" font-size="15.0" fill="#52575F" transform="matrix(1.00, 0.00, -0.00, -1.00, 254.7, 56.7)">n</text><text xml:space="preserve" font-family="Aller-Light,Aller Light" font-size="15.0" fill="#52575F" transform="matrix(1.00, 0.00, -0.00, -1.00, 263.3, 56.7)">f</text><text xml:space="preserve" font-family="Aller-Light,Aller Light" font-size="15.0" fill="#52575F" transform="matrix(1.00, 0.00, -0.00, -1.00, 268.3, 56.7)">o</text><text xml:space="preserve" font-family="Aller-Light,Aller Light" font-size="15.0" fill="#52575F" transform="matrix(1.00, 0.00, -0.00, -1.00, 276.9, 56.7)">c</text><text xml:space="preserve" font-family="Aller-Light,Aller Light" font-size="15.0" fill="#52575F" transform="matrix(1.00, 0.00, -0.00, -1.00, 284.1, 56.7)">a</text><text xml:space="preserve" font-family="Aller-Light,Aller Light" font-size="15.0" fill="#52575F" transform="matrix(1.00, 0.00, -0.00, -1.00, 291.8, 56.7)">d</text><text xml:space="preserve" font-family="Aller-Light,Aller Light" font-size="15.0" fill="#52575F" transform="matrix(1.00, 0.00, -0.00, -1.00, 300.6, 56.7)">a</text><text xml:space="preserve" font-family="Aller-Light,Aller Light" font-size="15.0" fill="#52575F" transform="matrix(1.00, 0.00, -0.00, -1.00, 308.3, 56.7)">s</text><text xml:space="preserve" font-family="Aller-Light,Aller Light" font-size="15.0" fill="#52575F" transform="matrix(1.00, 0.00, -0.00, -1.00, 315.0, 56.7)"> </text><text xml:space="preserve" font-family="Aller-Light,Aller Light" font-size="15.0" fill="#52575F" transform="matrix(1.00, 0.00, -0.00, -1.00, 321.7, 56.7)">e</text><text xml:space="preserve" font-family="Aller-Light,Aller Light" font-size="15.0" fill="#52575F" transform="matrix(1.00, 0.00, -0.00, -1.00, 330.0, 56.7)">n</text><text xml:space="preserve" font-family="Aller-Light,Aller Light" font-size="15.0" fill="#52575F" transform="matrix(1.00, 0.00, -0.00, -1.00, 338.6, 56.7)"> </text><text xml:space="preserve" font-family="Aller-Light,Aller Light" font-size="15.0" fill="#52575F" transform="matrix(1.00, 0.00, -0.00, -1.00, 345.2, 56.7)">e</text><text xml:space="preserve" font-family="Aller-Light,Aller Light" font-size="15.0" fill="#52575F" transform="matrix(1.00, 0.00, -0.00, -1.00, 353.5, 56.7)">l</text><text xml:space="preserve" font-family="Aller-Light,Aller Light" font-size="15.0" fill="#52575F" transform="matrix(1.00, 0.00, -0.00, -1.00, 357.7, 56.7)"> </text><text xml:space="preserve" font-family="Aller-Light,Aller Light" font-size="15.0" fill="#52575F" transform="matrix(1.00, 0.00, -0.00, -1.00, 364.3, 56.7)">á</text><text xml:space="preserve" font-family="Aller-Light,Aller Light" font-size="15.0" fill="#52575F" transform="matrix(1.00, 0.00, -0.00, -1.00, 372.0, 56.7)">m</text><text xml:space="preserve" font-family="Aller-Light,Aller Light" font-size="15.0" fill="#52575F" transform="matrix(1.00, 0.00, -0.00, -1.00, 384.6, 56.7)">b</text><text xml:space="preserve" font-family="Aller-Light,Aller Light" font-size="15.0" fill="#52575F" transform="matrix(1.00, 0.00, -0.00, -1.00, 393.4, 56.7)">i</text><text xml:space="preserve" font-family="Aller-Light,Aller Light" font-size="15.0" fill="#52575F" transform="matrix(1.00, 0.00, -0.00, -1.00, 397.5, 56.7)">t</text><text xml:space="preserve" font-family="Aller-Light,Aller Light" font-size="15.0" fill="#52575F" transform="matrix(1.00, 0.00, -0.00, -1.00, 402.6, 56.7)">o</text><text xml:space="preserve" font-family="Aller-Light,Aller Light" font-size="15.0" fill="#52575F" transform="matrix(1.00, 0.00, -0.00, -1.00, 411.2, 56.7)"> </text><text xml:space="preserve" font-family="Aller-Light,Aller Light" font-size="15.0" fill="#52575F" transform="matrix(1.00, 0.00, -0.00, -1.00, 417.9, 56.7)">d</text><text xml:space="preserve" font-family="Aller-Light,Aller Light" font-size="15.0" fill="#52575F" transform="matrix(1.00, 0.00, -0.00, -1.00, 426.6, 56.7)">e</text><text xml:space="preserve" font-family="Aller-Light,Aller Light" font-size="15.0" fill="#52575F" transform="matrix(1.00, 0.00, -0.00, -1.00, 434.9, 56.7)"> </text><text xml:space="preserve" font-family="Aller-Light,Aller Light" font-size="15.0" fill="#52575F" transform="matrix(1.00, 0.00, -0.00, -1.00, 441.6, 56.7)">l</text><text xml:space="preserve" font-family="Aller-Light,Aller Light" font-size="15.0" fill="#52575F" transform="matrix(1.00, 0.00, -0.00, -1.00, 445.8, 56.7)">a</text><text xml:space="preserve" font-family="Aller-Light,Aller Light" font-size="15.0" fill="#52575F" transform="matrix(1.00, 0.00, -0.00, -1.00, 453.5, 56.7)"> </text><text xml:space="preserve" font-family="Aller-Light,Aller Light" font-size="15.0" fill="#52575F" transform="matrix(1.00, 0.00, -0.00, -1.00, 460.1, 56.7)">e</text><text xml:space="preserve" font-family="Aller-Light,Aller Light" font-size="15.0" fill="#52575F" transform="matrix(1.00, 0.00, -0.00, -1.00, 468.4, 56.7)">n</text><text xml:space="preserve" font-family="Aller-Light,Aller Light" font-size="15.0" fill="#52575F" transform="matrix(1.00, 0.00, -0.00, -1.00, 477.0, 56.7)">t</text><text xml:space="preserve" font-family="Aller-Light,Aller Light" font-size="15.0" fill="#52575F" transform="matrix(1.00, 0.00, -0.00, -1.00, 482.1, 56.7)">r</text><text xml:space="preserve" font-family="Aller-Light,Aller Light" font-size="15.0" fill="#52575F" transform="matrix(1.00, 0.00, -0.00, -1.00, 487.1, 56.7)">e</text><text xml:space="preserve" font-family="Aller-Light,Aller Light" font-size="15.0" fill="#52575F" transform="matrix(1.00, 0.00, -0.00, -1.00, 495.2, 56.7)">g</text><text xml:space="preserve" font-family="Aller-Light,Aller Light" font-size="15.0" fill="#52575F" transform="matrix(1.00, 0.00, -0.00, -1.00, 503.3, 56.7)">a</text><text xml:space="preserve" font-family="Aller-Light,Aller Light" font-size="15.0" fill="#52575F" transform="matrix(1.00, 0.00, -0.00, -1.00, 511.0, 56.7)">/</text><text xml:space="preserve" font-family="Aller-Light,Aller Light" font-size="15.0" fill="#52575F" transform="matrix(1.00, 0.00, -0.00, -1.00, 0.8, 38.7)">r</text><text xml:space="preserve" font-family="Aller-Light,Aller Light" font-size="15.0" fill="#52575F" transform="matrix(1.00, 0.00, -0.00, -1.00, 5.8, 38.7)">e</text><text xml:space="preserve" font-family="Aller-Light,Aller Light" font-size="15.0" fill="#52575F" transform="matrix(1.00, 0.00, -0.00, -1.00, 14.1, 38.7)">c</text><text xml:space="preserve" font-family="Aller-Light,Aller Light" font-size="15.0" fill="#52575F" transform="matrix(1.00, 0.00, -0.00, -1.00, 21.1, 38.7)">o</text><text xml:space="preserve" font-family="Aller-Light,Aller Light" font-size="15.0" fill="#52575F" transform="matrix(1.00, 0.00, -0.00, -1.00, 29.5, 38.7)">g</text><text xml:space="preserve" font-family="Aller-Light,Aller Light" font-size="15.0" fill="#52575F" transform="matrix(1.00, 0.00, -0.00, -1.00, 37.6, 38.7)">i</text><text xml:space="preserve" font-family="Aller-Light,Aller Light" font-size="15.0" fill="#52575F" transform="matrix(1.00, 0.00, -0.00, -1.00, 41.6, 38.7)">d</text><text xml:space="preserve" font-family="Aller-Light,Aller Light" font-size="15.0" fill="#52575F" transform="matrix(1.00, 0.00, -0.00, -1.00, 50.4, 38.7)">a</text><text xml:space="preserve" font-family="Aller-Light,Aller Light" font-size="15.0" fill="#52575F" transform="matrix(1.00, 0.00, -0.00, -1.00, 58.1, 38.7)"> </text><text xml:space="preserve" font-family="Aller-Light,Aller Light" font-size="15.0" fill="#52575F" transform="matrix(1.00, 0.00, -0.00, -1.00, 61.9, 38.7)">d</text><text xml:space="preserve" font-family="Aller-Light,Aller Light" font-size="15.0" fill="#52575F" transform="matrix(1.00, 0.00, -0.00, -1.00, 70.6, 38.7)">e</text><text xml:space="preserve" font-family="Aller-Light,Aller Light" font-size="15.0" fill="#52575F" transform="matrix(1.00, 0.00, -0.00, -1.00, 78.9, 38.7)"> </text><text xml:space="preserve" font-family="Aller-Light,Aller Light" font-size="15.0" fill="#52575F" transform="matrix(1.00, 0.00, -0.00, -1.00, 82.7, 38.7)">p</text><text xml:space="preserve" font-family="Aller-Light,Aller Light" font-size="15.0" fill="#52575F" transform="matrix(1.00, 0.00, -0.00, -1.00, 91.5, 38.7)">a</text><text xml:space="preserve" font-family="Aller-Light,Aller Light" font-size="15.0" fill="#52575F" transform="matrix(1.00, 0.00, -0.00, -1.00, 99.2, 38.7)">q</text><text xml:space="preserve" font-family="Aller-Light,Aller Light" font-size="15.0" fill="#52575F" transform="matrix(1.00, 0.00, -0.00, -1.00, 108.0, 38.7)">u</text><text xml:space="preserve" font-family="Aller-Light,Aller Light" font-size="15.0" fill="#52575F" transform="matrix(1.00, 0.00, -0.00, -1.00, 116.6, 38.7)">e</text><text xml:space="preserve" font-family="Aller-Light,Aller Light" font-size="15.0" fill="#52575F" transform="matrix(1.00, 0.00, -0.00, -1.00, 124.9, 38.7)">t</text><text xml:space="preserve" font-family="Aller-Light,Aller Light" font-size="15.0" fill="#52575F" transform="matrix(1.00, 0.00, -0.00, -1.00, 130.0, 38.7)">e</text><text xml:space="preserve" font-family="Aller-Light,Aller Light" font-size="15.0" fill="#52575F" transform="matrix(1.00, 0.00, -0.00, -1.00, 138.3, 38.7)">r</text><text xml:space="preserve" font-family="Aller-Light,Aller Light" font-size="15.0" fill="#52575F" transform="matrix(1.00, 0.00, -0.00, -1.00, 143.5, 38.7)">í</text><text xml:space="preserve" font-family="Aller-Light,Aller Light" font-size="15.0" fill="#52575F" transform="matrix(1.00, 0.00, -0.00, -1.00, 147.6, 38.7)">a</text><text xml:space="preserve" font-family="Aller-Light,Aller Light" font-size="15.0" fill="#52575F" transform="matrix(1.00, 0.00, -0.00, -1.00, 155.3, 38.7)"> </text><text xml:space="preserve" font-family="Aller-Light,Aller Light" font-size="15.0" fill="#52575F" transform="matrix(1.00, 0.00, -0.00, -1.00, 159.1, 38.7)">e</text><text xml:space="preserve" font-family="Aller-Light,Aller Light" font-size="15.0" fill="#52575F" transform="matrix(1.00, 0.00, -0.00, -1.00, 167.4, 38.7)">n</text><text xml:space="preserve" font-family="Aller-Light,Aller Light" font-size="15.0" fill="#52575F" transform="matrix(1.00, 0.00, -0.00, -1.00, 175.9, 38.7)"> </text><text xml:space="preserve" font-family="Aller-Light,Aller Light" font-size="15.0" fill="#52575F" transform="matrix(1.00, 0.00, -0.00, -1.00, 179.7, 38.7)">e</text><text xml:space="preserve" font-family="Aller-Light,Aller Light" font-size="15.0" fill="#52575F" transform="matrix(1.00, 0.00, -0.00, -1.00, 188.0, 38.7)">n</text><text xml:space="preserve" font-family="Aller-Light,Aller Light" font-size="15.0" fill="#52575F" transform="matrix(1.00, 0.00, -0.00, -1.00, 196.6, 38.7)">t</text><text xml:space="preserve" font-family="Aller-Light,Aller Light" font-size="15.0" fill="#52575F" transform="matrix(1.00, 0.00, -0.00, -1.00, 201.7, 38.7)">o</text><text xml:space="preserve" font-family="Aller-Light,Aller Light" font-size="15.0" fill="#52575F" transform="matrix(1.00, 0.00, -0.00, -1.00, 210.3, 38.7)">r</text><text xml:space="preserve" font-family="Aller-Light,Aller Light" font-size="15.0" fill="#52575F" transform="matrix(1.00, 0.00, -0.00, -1.00, 215.5, 38.7)">n</text><text xml:space="preserve" font-family="Aller-Light,Aller Light" font-size="15.0" fill="#52575F" transform="matrix(1.00, 0.00, -0.00, -1.00, 224.1, 38.7)">o</text><text xml:space="preserve" font-family="Aller-Light,Aller Light" font-size="15.0" fill="#52575F" transform="matrix(1.00, 0.00, -0.00, -1.00, 232.7, 38.7)">s</text><text xml:space="preserve" font-family="Aller-Light,Aller Light" font-size="15.0" fill="#52575F" transform="matrix(1.00, 0.00, -0.00, -1.00, 239.5, 38.7)"> </text><text xml:space="preserve" font-family="Aller-Light,Aller Light" font-size="15.0" fill="#52575F" transform="matrix(1.00, 0.00, -0.00, -1.00, 243.2, 38.7)">p</text><text xml:space="preserve" font-family="Aller-Light,Aller Light" font-size="15.0" fill="#52575F" transform="matrix(1.00, 0.00, -0.00, -1.00, 252.1, 38.7)">o</text><text xml:space="preserve" font-family="Aller-Light,Aller Light" font-size="15.0" fill="#52575F" transform="matrix(1.00, 0.00, -0.00, -1.00, 260.7, 38.7)">c</text><text xml:space="preserve" font-family="Aller-Light,Aller Light" font-size="15.0" fill="#52575F" transform="matrix(1.00, 0.00, -0.00, -1.00, 267.7, 38.7)">o</text><text xml:space="preserve" font-family="Aller-Light,Aller Light" font-size="15.0" fill="#52575F" transform="matrix(1.00, 0.00, -0.00, -1.00, 276.3, 38.7)"> </text><text xml:space="preserve" font-family="Aller-Light,Aller Light" font-size="15.0" fill="#52575F" transform="matrix(1.00, 0.00, -0.00, -1.00, 280.0, 38.7)">p</text><text xml:space="preserve" font-family="Aller-Light,Aller Light" font-size="15.0" fill="#52575F" transform="matrix(1.00, 0.00, -0.00, -1.00, 288.8, 38.7)">o</text><text xml:space="preserve" font-family="Aller-Light,Aller Light" font-size="15.0" fill="#52575F" transform="matrix(1.00, 0.00, -0.00, -1.00, 297.5, 38.7)">b</text><text xml:space="preserve" font-family="Aller-Light,Aller Light" font-size="15.0" fill="#52575F" transform="matrix(1.00, 0.00, -0.00, -1.00, 306.3, 38.7)">l</text><text xml:space="preserve" font-family="Aller-Light,Aller Light" font-size="15.0" fill="#52575F" transform="matrix(1.00, 0.00, -0.00, -1.00, 310.5, 38.7)">a</text><text xml:space="preserve" font-family="Aller-Light,Aller Light" font-size="15.0" fill="#52575F" transform="matrix(1.00, 0.00, -0.00, -1.00, 318.2, 38.7)">d</text><text xml:space="preserve" font-family="Aller-Light,Aller Light" font-size="15.0" fill="#52575F" transform="matrix(1.00, 0.00, -0.00, -1.00, 327.0, 38.7)">o</text><text xml:space="preserve" font-family="Aller-Light,Aller Light" font-size="15.0" fill="#52575F" transform="matrix(1.00, 0.00, -0.00, -1.00, 335.6, 38.7)">s</text><text xml:space="preserve" font-family="Aller-Light,Aller Light" font-size="15.0" fill="#52575F" transform="matrix(1.00, 0.00, -0.00, -1.00, 342.4, 38.7)"> </text><text xml:space="preserve" font-family="Aller-Light,Aller Light" font-size="15.0" fill="#52575F" transform="matrix(1.00, 0.00, -0.00, -1.00, 346.1, 38.7)">o</text><text xml:space="preserve" font-family="Aller-Light,Aller Light" font-size="15.0" fill="#52575F" transform="matrix(1.00, 0.00, -0.00, -1.00, 354.7, 38.7)"> </text><text xml:space="preserve" font-family="Aller-Light,Aller Light" font-size="15.0" fill="#52575F" transform="matrix(1.00, 0.00, -0.00, -1.00, 358.5, 38.7)">d</text><text xml:space="preserve" font-family="Aller-Light,Aller Light" font-size="15.0" fill="#52575F" transform="matrix(1.00, 0.00, -0.00, -1.00, 367.2, 38.7)">e</text><text xml:space="preserve" font-family="Aller-Light,Aller Light" font-size="15.0" fill="#52575F" transform="matrix(1.00, 0.00, -0.00, -1.00, 375.5, 38.7)"> </text><text xml:space="preserve" font-family="Aller-Light,Aller Light" font-size="15.0" fill="#52575F" transform="matrix(1.00, 0.00, -0.00, -1.00, 379.3, 38.7)">d</text><text xml:space="preserve" font-family="Aller-Light,Aller Light" font-size="15.0" fill="#52575F" transform="matrix(1.00, 0.00, -0.00, -1.00, 388.1, 38.7)">i</text><text xml:space="preserve" font-family="Aller-Light,Aller Light" font-size="15.0" fill="#52575F" transform="matrix(1.00, 0.00, -0.00, -1.00, 392.2, 38.7)">f</text><text xml:space="preserve" font-family="Aller-Light,Aller Light" font-size="15.0" fill="#52575F" transform="matrix(1.00, 0.00, -0.00, -1.00, 397.4, 38.7)">í</text><text xml:space="preserve" font-family="Aller-Light,Aller Light" font-size="15.0" fill="#52575F" transform="matrix(1.00, 0.00, -0.00, -1.00, 401.5, 38.7)">c</text><text xml:space="preserve" font-family="Aller-Light,Aller Light" font-size="15.0" fill="#52575F" transform="matrix(1.00, 0.00, -0.00, -1.00, 408.7, 38.7)">i</text><text xml:space="preserve" font-family="Aller-Light,Aller Light" font-size="15.0" fill="#52575F" transform="matrix(1.00, 0.00, -0.00, -1.00, 412.8, 38.7)">l</text><text xml:space="preserve" font-family="Aller-Light,Aller Light" font-size="15.0" fill="#52575F" transform="matrix(1.00, 0.00, -0.00, -1.00, 417.0, 38.7)"> </text><text xml:space="preserve" font-family="Aller-Light,Aller Light" font-size="15.0" fill="#52575F" transform="matrix(1.00, 0.00, -0.00, -1.00, 420.7, 38.7)">a</text><text xml:space="preserve" font-family="Aller-Light,Aller Light" font-size="15.0" fill="#52575F" transform="matrix(1.00, 0.00, -0.00, -1.00, 428.4, 38.7)">c</text><text xml:space="preserve" font-family="Aller-Light,Aller Light" font-size="15.0" fill="#52575F" transform="matrix(1.00, 0.00, -0.00, -1.00, 435.4, 38.7)">c</text><text xml:space="preserve" font-family="Aller-Light,Aller Light" font-size="15.0" fill="#52575F" transform="matrix(1.00, 0.00, -0.00, -1.00, 442.4, 38.7)">e</text><text xml:space="preserve" font-family="Aller-Light,Aller Light" font-size="15.0" fill="#52575F" transform="matrix(1.00, 0.00, -0.00, -1.00, 450.7, 38.7)">s</text><text xml:space="preserve" font-family="Aller-Light,Aller Light" font-size="15.0" fill="#52575F" transform="matrix(1.00, 0.00, -0.00, -1.00, 457.4, 38.7)">o</text><text xml:space="preserve" font-family="Aller-Light,Aller Light" font-size="15.0" fill="#52575F" transform="matrix(1.00, 0.00, -0.00, -1.00, 465.9, 38.7)">.</text><text xml:space="preserve" font-family="Aller-Light,Aller Light" font-size="15.0" fill="#52575F" transform="matrix(1.00, 0.00, -0.00, -1.00, 469.0, 38.7)"> </text><g><clipPath id="clip0x608000cb9020"><path d="M 0.0 0.0 L 519.0 0.0 L 519.0 88.0 L 0.0 88.0 Z M 0.0 0.0 "></path></clipPath><g clip-path="url(#clip0x608000cb9020)"></g></g></g></svg>