<?xml version="1.0" encoding="UTF-8" standalone="no"?><svg xmlns="http://www.w3.org/2000/svg" xmlns:xlink="http://www.w3.org/1999/xlink" clip-rule="evenodd" stroke-miterlimit="10" viewBox="0 0 64 64"><desc>SVG generated by Keynote</desc><defs></defs><g transform="matrix(1.00, 0.00, -0.00, -1.00, 0.0, 64.0)"><g><clipPath id="clip0x600000ebb180"><path d="M 0.3 0.2 L 63.2 0.2 L 63.2 63.1 L 0.3 63.1 Z M 0.3 0.2 "></path></clipPath><g clip-path="url(#clip0x600000ebb180)"><path d="M 53.3 53.2 C 65.2 41.3 65.2 22.0 53.3 10.1 C 41.4 -1.8 22.1 -1.8 10.2 10.1 C -1.7 22.0 -1.7 41.3 10.2 53.2 C 22.1 65.1 41.4 65.1 53.3 53.2 Z M 53.3 53.2 " fill="#7FC7EA"></path></g></g><g><clipPath id="clip0x600000ebafa0"><path d="M 15.2 16.0 L 48.3 16.0 L 48.3 47.3 L 15.2 47.3 Z M 15.2 16.0 "></path></clipPath><g clip-path="url(#clip0x600000ebafa0)"><path d="M 46.4 40.8 C 26.7 33.0 34.7 54.2 19.4 43.0 L 16.2 41.9 L 22.6 17.0 L 26.0 17.0 L 22.9 29.2 C 36.6 40.6 31.1 16.7 47.2 40.1 C 47.6 40.7 47.1 41.1 46.4 40.8 Z M 46.4 40.8 " fill="#FEFFFE"></path></g></g></g></svg>