<?xml version="1.0" encoding="UTF-8" standalone="no"?><svg xmlns="http://www.w3.org/2000/svg" xmlns:xlink="http://www.w3.org/1999/xlink" clip-rule="evenodd" stroke-miterlimit="10" viewBox="0 0 348 220"><desc>SVG generated by Keynote</desc><defs></defs><g transform="matrix(1.00, 0.00, -0.00, -1.00, 0.0, 220.0)"><g><clipPath id="clip0x600000ebb8a0"><path d="M 1.0 218.0 L 346.0 218.0 L 346.0 2.0 L 1.0 2.0 Z M 1.4 218.4 "></path></clipPath><g clip-path="url(#clip0x600000ebb8a0)"><g><clipPath id="clip0x600000ebb900"><path d="M 125.1 13.0 C 124.7 13.8 124.5 14.5 124.6 14.7 C 124.8 14.8 131.3 16.6 139.0 18.7 C 146.8 20.8 153.2 22.8 153.3 23.2 C 153.3 23.6 151.6 24.1 149.4 24.4 C 146.7 24.7 148.3 24.8 154.4 24.8 C 162.0 24.9 164.2 25.1 170.0 26.9 L 177.0 28.9 L 177.0 43.9 C 177.0 52.1 176.5 59.4 176.2 60.2 C 175.6 61.5 175.5 61.5 174.7 60.4 C 173.9 59.3 173.7 59.9 172.6 64.3 C 171.1 70.6 171.1 71.7 172.4 70.6 C 172.9 70.1 173.6 70.0 173.8 70.3 C 174.6 71.0 174.3 74.4 173.4 75.7 C 172.6 76.8 171.6 76.7 159.7 74.3 C 149.1 72.2 146.3 71.9 143.0 72.4 C 137.3 73.3 137.5 74.7 143.9 77.6 C 146.7 79.0 154.0 81.7 160.1 83.7 C 169.4 86.8 171.1 87.6 170.9 88.7 C 170.4 92.0 166.9 103.7 166.0 105.1 C 165.1 106.6 164.3 106.7 160.9 105.6 C 160.1 105.4 160.1 105.1 160.9 104.2 C 161.7 103.1 161.6 103.1 159.0 103.5 C 154.3 104.4 148.7 104.1 141.2 102.6 C 137.3 101.8 126.4 99.7 117.1 97.9 C 107.7 96.1 96.7 94.0 92.7 93.2 C 85.3 91.8 83.7 91.9 83.0 93.6 C 82.7 94.3 83.2 94.8 84.4 95.0 C 85.3 95.2 86.9 95.5 87.8 95.7 C 88.8 95.9 96.2 97.2 104.4 98.6 C 112.5 100.0 120.2 101.3 121.5 101.6 C 122.7 101.8 124.1 102.3 124.4 102.8 C 124.8 103.2 125.2 107.7 125.4 112.8 C 125.8 121.6 127.5 132.0 128.9 134.7 C 129.4 135.6 129.3 136.0 128.5 136.3 C 126.8 137.0 114.7 134.6 111.8 133.0 C 109.6 131.8 109.1 131.8 108.3 132.7 C 107.6 133.3 106.8 133.5 105.8 133.0 C 104.9 132.7 100.4 131.8 95.7 131.0 C 91.0 130.2 81.7 128.6 75.1 127.4 C 68.4 126.2 62.1 125.2 61.1 125.1 C 60.0 124.9 59.0 124.6 58.7 124.4 C 58.5 124.1 59.4 120.9 60.9 117.3 C 64.9 107.1 66.7 99.5 65.6 97.2 C 64.6 94.9 60.3 92.9 58.5 93.9 C 57.8 94.3 55.6 97.9 53.5 101.9 C 51.5 105.9 48.7 110.7 47.5 112.4 C 45.3 115.5 45.0 115.6 41.9 115.4 C 35.1 115.0 29.5 117.9 30.4 121.4 C 30.6 122.4 30.4 123.6 30.0 124.2 C 29.5 124.7 29.0 126.3 29.0 127.5 C 28.9 129.6 29.1 129.9 31.0 130.0 C 34.0 130.3 34.8 131.4 32.5 132.3 C 31.4 132.7 30.3 133.1 30.0 133.1 C 29.7 133.1 29.2 133.8 29.0 134.7 C 28.6 135.9 29.1 136.8 30.9 138.4 L 33.4 140.6 L 31.6 142.7 C 28.5 146.4 26.5 150.3 24.5 156.5 C 22.0 164.2 21.9 169.4 24.0 171.6 C 26.2 173.7 27.0 172.9 31.2 164.9 C 33.0 161.3 36.5 155.7 39.1 152.3 C 41.6 149.0 44.1 145.2 44.6 144.1 C 45.3 142.3 46.3 141.6 49.4 140.7 C 53.4 139.4 55.2 138.0 55.2 136.0 C 55.2 134.5 56.9 134.6 70.8 136.9 C 77.1 138.0 85.1 139.3 88.6 139.8 C 92.1 140.4 96.6 141.2 98.5 141.6 C 100.4 142.0 102.1 142.2 102.3 142.0 C 103.0 141.3 105.2 143.1 104.9 144.1 C 104.3 145.6 108.1 145.5 109.2 144.1 C 109.9 143.1 111.1 143.1 120.9 144.7 C 131.0 146.4 131.9 146.6 133.9 148.7 C 135.2 150.0 135.9 151.3 135.6 151.9 C 135.4 152.5 135.7 153.8 136.2 154.6 C 136.8 155.5 137.5 157.6 137.7 159.4 C 138.0 161.1 139.2 164.5 140.3 166.8 L 142.4 171.1 L 137.0 176.2 C 134.1 179.0 131.5 181.0 131.2 180.7 C 130.6 179.6 126.3 179.9 123.2 181.1 C 120.1 182.4 119.1 184.8 119.0 189.1 L 119.0 192.0 L 111.4 192.0 C 102.6 191.7 84.7 190.2 71.9 189.2 C 63.7 188.6 56.3 188.8 57.1 189.6 C 58.0 190.5 98.1 197.0 110.6 198.4 C 113.7 198.7 117.7 198.7 119.5 198.3 C 121.3 198.0 123.6 197.9 124.6 198.1 C 125.6 198.4 130.1 198.7 134.5 198.8 C 139.0 198.9 147.1 199.4 152.5 199.9 C 157.9 200.4 162.4 200.6 162.6 200.4 C 162.8 200.3 158.5 199.7 153.1 199.3 C 147.8 198.8 142.1 198.2 140.5 197.9 C 137.8 197.4 137.7 197.4 137.9 194.6 C 138.2 189.0 138.1 186.4 137.7 185.8 C 137.5 185.4 139.7 183.2 142.6 180.8 C 147.8 176.5 147.8 176.5 149.1 177.9 C 151.2 180.3 160.1 184.1 166.1 185.4 C 172.8 186.7 180.1 186.3 186.7 184.2 C 191.1 182.8 196.7 179.4 196.7 178.1 C 196.7 177.7 198.0 176.3 199.5 175.0 C 203.2 171.8 203.5 171.4 203.2 169.8 C 202.8 168.5 204.9 164.6 207.4 161.9 C 208.2 161.0 209.2 158.9 209.5 157.3 C 210.3 153.6 211.4 153.5 212.2 156.8 C 212.6 158.2 213.2 159.4 213.6 159.4 C 217.7 159.4 228.1 161.6 228.8 162.6 C 229.6 163.7 232.9 163.5 233.7 162.2 C 233.9 161.8 234.6 161.8 235.3 162.2 C 236.0 162.5 239.9 163.3 244.0 163.9 C 248.1 164.5 255.2 165.5 259.9 166.2 L 268.3 167.4 L 269.3 169.8 C 269.9 171.2 270.3 172.6 270.2 173.1 C 270.0 174.9 270.3 175.5 272.1 176.3 C 273.8 177.1 273.8 177.2 272.8 178.9 C 272.1 179.8 270.4 181.4 268.9 182.4 C 265.0 184.9 254.9 193.9 253.2 196.3 C 251.8 198.3 251.9 200.6 253.4 200.6 C 253.8 200.6 256.9 198.0 260.3 194.7 C 267.0 188.4 279.4 178.6 280.9 178.6 C 281.3 178.6 282.9 177.6 284.4 176.5 C 285.8 175.4 288.1 174.2 289.5 173.9 C 293.9 173.0 295.9 171.5 306.7 160.9 C 320.0 147.9 322.3 144.4 317.6 144.4 C 314.8 144.4 312.8 145.5 306.2 150.6 C 302.7 153.2 297.8 156.8 295.2 158.4 L 290.7 161.4 L 288.7 159.3 C 287.3 157.8 286.1 157.2 284.0 157.1 C 278.5 156.9 274.8 157.4 271.9 158.8 L 268.9 160.2 L 253.0 157.6 C 242.2 155.8 236.6 154.6 235.4 153.7 C 234.2 152.9 233.2 152.6 232.6 153.0 C 232.0 153.4 231.2 153.3 230.7 152.8 C 230.0 152.3 229.5 152.3 228.9 152.8 C 228.2 153.3 225.8 153.2 220.7 152.3 C 216.7 151.6 213.1 150.8 212.7 150.5 C 211.8 150.0 211.7 147.5 212.6 147.0 C 214.0 146.1 211.1 134.5 209.0 132.6 C 208.3 132.0 207.7 131.2 207.7 130.9 C 207.7 130.6 209.0 128.2 210.6 125.6 C 212.2 123.0 213.4 120.5 213.2 120.0 C 213.1 119.5 217.4 115.2 222.8 110.4 L 232.5 102.0 L 235.9 103.0 C 237.7 103.4 241.2 103.2 243.6 103.2 C 254.8 103.0 258.1 103.5 283.1 108.9 C 290.9 110.6 319.1 118.1 324.3 119.9 C 330.7 122.1 330.9 122.1 330.6 120.1 C 330.2 117.6 326.7 115.8 316.1 112.6 C 303.4 108.8 274.3 101.5 267.4 100.4 C 261.3 99.4 258.4 97.9 259.6 96.5 C 260.7 95.2 259.9 83.2 258.5 79.2 C 257.0 75.2 254.1 72.9 249.2 71.9 C 243.9 70.8 238.5 71.4 233.6 73.6 C 230.4 75.1 229.5 75.9 228.3 78.5 C 227.6 80.1 226.9 82.2 226.9 83.1 C 226.9 84.8 225.7 85.9 224.8 85.0 C 224.5 84.6 224.7 82.0 225.3 79.0 C 225.9 75.7 226.4 67.8 226.5 58.2 C 226.7 49.6 226.9 42.5 227.1 42.4 C 227.3 42.1 234.1 43.8 252.9 48.8 C 256.8 49.8 261.5 51.1 263.5 51.7 C 265.4 52.3 267.6 52.7 268.3 52.7 C 269.6 52.7 270.1 51.0 268.9 50.2 C 268.2 49.8 236.8 41.0 221.6 37.0 C 217.3 35.9 213.3 34.7 212.7 34.5 C 212.1 34.2 211.4 34.0 211.1 34.1 C 210.9 34.2 209.3 33.7 207.6 33.1 C 205.9 32.5 203.9 31.9 203.1 31.7 C 197.5 30.7 192.8 28.6 192.8 27.2 C 192.8 26.8 190.3 26.3 187.3 26.0 C 184.2 25.7 181.3 25.3 180.6 24.9 C 180.0 24.6 178.3 24.2 176.7 24.0 C 175.2 23.8 171.1 22.8 167.5 21.8 C 164.0 20.8 157.6 19.2 153.3 18.1 C 149.0 17.1 144.8 16.0 144.0 15.6 C 143.2 15.2 142.3 15.0 141.9 15.1 C 141.1 15.3 136.6 14.3 135.6 13.7 C 135.2 13.5 134.4 13.3 133.8 13.2 C 133.2 13.1 131.2 12.7 129.3 12.3 C 126.2 11.7 125.8 11.8 125.1 13.0 M 165.4 40.0 C 160.2 40.7 150.7 42.9 151.1 43.3 C 151.4 43.6 162.2 41.9 171.1 40.3 C 175.6 39.5 175.7 39.4 172.9 39.4 C 171.1 39.4 167.7 39.7 165.4 40.0 M 268.9 83.8 C 269.0 88.9 269.1 89.1 269.6 86.1 C 270.4 81.6 270.4 78.3 269.6 78.3 C 269.2 78.3 268.9 80.6 268.9 83.8 M 273.1 80.8 C 273.1 82.4 273.3 82.5 277.9 82.4 C 280.6 82.3 283.1 82.0 283.6 81.6 C 284.1 81.3 284.8 81.3 285.2 81.5 C 285.6 81.8 285.9 81.6 285.9 81.2 C 285.9 79.7 282.6 78.7 281.2 79.8 C 280.7 80.3 280.2 80.3 279.9 79.8 C 279.7 79.5 278.1 79.1 276.3 79.1 C 273.4 79.1 273.1 79.3 273.1 80.8 M 289.3 80.0 C 288.0 81.0 287.7 81.9 288.6 81.9 C 288.9 81.9 289.5 81.2 290.0 80.4 C 291.1 78.8 291.0 78.7 289.3 80.0 M 292.3 80.9 C 291.8 81.6 291.6 82.0 291.9 81.7 C 292.3 81.4 293.0 81.5 293.5 82.0 C 294.3 82.6 294.7 82.6 295.4 81.9 C 296.0 81.2 296.0 81.1 295.4 81.4 C 294.9 81.7 294.3 81.4 293.9 80.8 C 293.4 79.8 293.2 79.8 292.3 80.9 M 281.5 85.1 C 281.3 85.3 281.3 86.1 281.5 86.8 C 281.7 87.8 282.4 88.2 283.9 88.1 C 286.4 88.0 287.0 87.3 285.6 86.1 C 285.0 85.6 284.5 85.5 284.5 85.7 C 284.5 86.0 283.9 85.9 283.2 85.5 C 282.4 85.1 281.7 84.9 281.5 85.1 M 273.1 86.9 C 273.1 88.1 273.3 88.3 274.1 87.7 C 274.6 87.2 275.2 87.0 275.4 87.2 C 275.6 87.4 276.0 87.2 276.2 86.7 C 276.4 86.1 275.9 85.7 274.8 85.6 C 273.5 85.5 273.1 85.8 273.1 86.9 M 277.9 86.6 C 278.1 87.1 278.5 87.6 278.8 87.6 C 279.1 87.6 279.5 87.1 279.7 86.6 C 279.9 86.1 279.5 85.7 278.8 85.7 C 278.1 85.7 277.7 86.1 277.9 86.6 M 289.5 86.8 C 289.5 87.9 289.9 88.2 291.3 88.1 C 292.2 88.0 293.0 87.5 293.0 87.0 C 293.0 86.5 292.7 86.2 292.4 86.5 C 292.0 86.7 291.5 86.5 291.3 86.1 C 290.5 84.9 289.5 85.3 289.5 86.8 M -66.8 191.6 C -71.5 193.2 -70.1 196.4 -64.1 197.8 C -62.0 198.3 -61.8 198.2 -61.6 196.1 C -61.3 193.0 -59.4 193.1 -59.1 196.2 C -58.9 198.3 -58.7 198.4 -56.9 198.1 C -52.6 197.1 -51.0 196.2 -51.3 194.6 C -51.7 191.3 -60.7 189.5 -66.8 191.6 M -44.6 194.4 C -44.7 195.5 -44.5 196.4 -44.2 196.4 C -43.9 196.4 -42.9 196.5 -42.0 196.6 C -41.2 196.7 -40.1 196.4 -39.6 195.9 C -38.9 195.0 -38.5 195.1 -37.2 196.4 L -36.0 197.8 L -35.0 195.9 C -34.5 193.5 -35.6 192.4 -37.4 193.1 C -38.1 193.4 -38.8 193.6 -39.0 193.5 C -39.2 193.4 -39.5 194.0 -39.8 194.8 C -40.5 196.7 -43.5 196.3 -44.1 194.2 C -44.6 192.5 -44.6 192.5 -44.6 194.4 M -32.0 194.0 L -34.1 195.0 L -32.5 196.7 L -31.0 198.8 L -30.0 196.3 C -29.4 193.4 -30.3 192.7 -32.5 193.9 M -25.0 194.2 C -24.8 195.0 -25.0 196.1 -25.4 196.6 C -25.9 197.1 -26.0 197.8 -25.7 198.0 C -24.7 199.0 -24.2 198.4 -24.0 195.6 C -23.8 193.8 -24.0 192.8 -24.5 192.8 C -25.0 192.8 -25.2 193.4 -25.0 194.2 M -21.5 193.3 C -21.7 193.5 -22.0 194.7 -22.0 195.8 C -22.0 198.3 -20.3 199.1 -18.4 197.4 C -17.1 196.3 -17.0 196.3 -16.6 197.3 C -16.0 198.8 -15.0 198.8 -13.4 197.4 C -12.3 196.4 -12.1 196.4 -11.3 197.4 C -9.4 199.7 -7.1 197.5 -8.1 194.2 C -8.7 192.5 -11.0 192.3 -11.6 194.0 C -12.1 195.2 -12.2 195.2 -13.0 194.0 C -14.1 192.6 -15.9 192.4 -16.7 193.6 C -17.0 194.1 -17.4 194.1 -17.9 193.6 C -18.8 192.7 -20.8 192.5 -21.5 193.3 M 165.2 201.1 C 165.9 201.3 167.0 201.3 167.7 201.1 C 168.4 200.9 167.8 200.8 166.5 200.8 C 165.1 200.8 164.5 200.9 165.2 201.1 M 171.6 201.8 C 172.3 202.0 173.4 202.0 174.1 201.8 C 174.8 201.6 174.2 201.5 172.9 201.5 C 171.5 201.5 170.9 201.6 171.6 201.8 M 177.7 202.5 C 178.2 202.7 179.0 202.7 179.4 202.5 C 179.9 202.3 179.5 202.1 178.6 202.1 C 177.6 202.1 177.2 202.3 177.7 202.5 M 183.4 203.2 C 183.8 203.4 184.6 203.4 185.1 203.2 C 185.6 203.0 185.2 202.9 184.2 202.9 C 183.3 202.9 182.9 203.0 183.4 203.2 M 188.2 204.2 C 190.1 205.0 190.8 205.0 190.3 204.2 C 190.0 203.8 189.1 203.5 188.3 203.5 C 186.8 203.6 186.8 203.6 188.2 204.2 "></path></clipPath><g clip-path="url(#clip0x600000ebb900)"><image xlink:href="0B4C75C2D9F50040E95D4F433F297EAD.jpeg" width="960.00" height="480.00" transform="matrix(0.45, 0.00, -0.00, -0.45, -82.0, 218.0)"></image></g></g></g></g></g></svg>