<?xml version="1.0" encoding="UTF-8" standalone="no"?><svg xmlns="http://www.w3.org/2000/svg" xmlns:xlink="http://www.w3.org/1999/xlink" clip-rule="evenodd" stroke-miterlimit="10" viewBox="0 0 592 657"><desc>SVG generated by Keynote</desc><defs></defs><g transform="matrix(1.00, 0.00, -0.00, -1.00, 0.0, 657.0)"><g><clipPath id="clip0x618000caba00"><path d="M 335.9 656.6 L 591.1 180.3 L 255.9 0.7 L 0.7 477.1 Z M 335.9 656.6 "></path></clipPath><g clip-path="url(#clip0x618000caba00)"><path d="M 218.1 398.3 C 175.5 432.8 168.8 495.3 203.3 538.0 C 237.7 580.6 300.2 587.2 342.9 552.8 C 385.5 518.3 392.2 455.8 357.7 413.2 C 323.3 370.5 260.7 363.9 218.1 398.3 Z M 286.9 26.6 C 289.1 45.3 289.7 263.7 289.7 263.7 C 289.7 263.7 289.6 269.3 284.1 270.5 L 285.0 341.6 C 291.3 341.8 297.7 342.5 304.2 343.6 C 376.6 356.5 425.0 425.6 412.1 498.1 C 399.3 570.6 330.1 618.9 257.6 606.0 C 185.2 593.2 136.8 524.0 149.7 451.6 C 159.8 394.6 204.7 352.6 258.6 343.4 L 256.7 271.6 C 251.1 270.6 250.7 265.0 250.7 265.0 C 250.7 265.0 242.9 46.8 244.3 28.0 C 245.4 14.5 256.9 12.7 263.2 12.8 L 263.2 12.7 C 263.2 12.7 284.8 7.9 286.9 26.6 Z M 286.9 26.6 " fill="#7FC7EA"></path></g></g></g></svg>