<?xml version="1.0" encoding="UTF-8" standalone="no"?><svg xmlns="http://www.w3.org/2000/svg" xmlns:xlink="http://www.w3.org/1999/xlink" clip-rule="evenodd" stroke-miterlimit="10" viewBox="0 0 307 28"><desc>SVG generated by Keynote</desc><defs></defs><g transform="matrix(1.00, 0.00, -0.00, -1.00, 0.0, 28.0)"><text xml:space="preserve" font-family="KontrapunktBob-Light,Kontrapunkt Bob" font-size="24.0" fill="#7FC7EA" transform="matrix(1.00, 0.00, -0.00, -1.00, 0.1, 8.0)">M</text><text xml:space="preserve" font-family="KontrapunktBob-Light,Kontrapunkt Bob" font-size="24.0" fill="#7FC7EA" transform="matrix(1.00, 0.00, -0.00, -1.00, 22.8, 8.0)">é</text><text xml:space="preserve" font-family="KontrapunktBob-Light,Kontrapunkt Bob" font-size="24.0" fill="#7FC7EA" transform="matrix(1.00, 0.00, -0.00, -1.00, 37.1, 8.0)">t</text><text xml:space="preserve" font-family="KontrapunktBob-Light,Kontrapunkt Bob" font-size="24.0" fill="#7FC7EA" transform="matrix(1.00, 0.00, -0.00, -1.00, 47.1, 8.0)">o</text><text xml:space="preserve" font-family="KontrapunktBob-Light,Kontrapunkt Bob" font-size="24.0" fill="#7FC7EA" transform="matrix(1.00, 0.00, -0.00, -1.00, 62.6, 8.0)">d</text><text xml:space="preserve" font-family="KontrapunktBob-Light,Kontrapunkt Bob" font-size="24.0" fill="#7FC7EA" transform="matrix(1.00, 0.00, -0.00, -1.00, 78.9, 8.0)">o</text><text xml:space="preserve" font-family="KontrapunktBob-Light,Kontrapunkt Bob" font-size="24.0" fill="#7FC7EA" transform="matrix(1.00, 0.00, -0.00, -1.00, 94.4, 8.0)"> </text><text xml:space="preserve" font-family="KontrapunktBob-Light,Kontrapunkt Bob" font-size="24.0" fill="#7FC7EA" transform="matrix(1.00, 0.00, -0.00, -1.00, 100.6, 8.0)">d</text><text xml:space="preserve" font-family="KontrapunktBob-Light,Kontrapunkt Bob" font-size="24.0" fill="#7FC7EA" transform="matrix(1.00, 0.00, -0.00, -1.00, 117.0, 8.0)">e</text><text xml:space="preserve" font-family="KontrapunktBob-Light,Kontrapunkt Bob" font-size="24.0" fill="#7FC7EA" transform="matrix(1.00, 0.00, -0.00, -1.00, 131.3, 8.0)">l</text><text xml:space="preserve" font-family="KontrapunktBob-Light,Kontrapunkt Bob" font-size="24.0" fill="#7FC7EA" transform="matrix(1.00, 0.00, -0.00, -1.00, 139.2, 8.0)"> </text><text xml:space="preserve" font-family="KontrapunktBob-Light,Kontrapunkt Bob" font-size="24.0" fill="#7FC7EA" transform="matrix(1.00, 0.00, -0.00, -1.00, 145.4, 8.0)">v</text><text xml:space="preserve" font-family="KontrapunktBob-Light,Kontrapunkt Bob" font-size="24.0" fill="#7FC7EA" transform="matrix(1.00, 0.00, -0.00, -1.00, 160.5, 8.0)">a</text><text xml:space="preserve" font-family="KontrapunktBob-Light,Kontrapunkt Bob" font-size="24.0" fill="#7FC7EA" transform="matrix(1.00, 0.00, -0.00, -1.00, 174.9, 8.0)">l</text><text xml:space="preserve" font-family="KontrapunktBob-Light,Kontrapunkt Bob" font-size="24.0" fill="#7FC7EA" transform="matrix(1.00, 0.00, -0.00, -1.00, 182.7, 8.0)">o</text><text xml:space="preserve" font-family="KontrapunktBob-Light,Kontrapunkt Bob" font-size="24.0" fill="#7FC7EA" transform="matrix(1.00, 0.00, -0.00, -1.00, 198.3, 8.0)">r</text><text xml:space="preserve" font-family="KontrapunktBob-Light,Kontrapunkt Bob" font-size="24.0" fill="#7FC7EA" transform="matrix(1.00, 0.00, -0.00, -1.00, 209.2, 8.0)"> </text><text xml:space="preserve" font-family="KontrapunktBob-Light,Kontrapunkt Bob" font-size="24.0" fill="#7FC7EA" transform="matrix(1.00, 0.00, -0.00, -1.00, 215.5, 8.0)">g</text><text xml:space="preserve" font-family="KontrapunktBob-Light,Kontrapunkt Bob" font-size="24.0" fill="#7FC7EA" transform="matrix(1.00, 0.00, -0.00, -1.00, 228.7, 8.0)">a</text><text xml:space="preserve" font-family="KontrapunktBob-Light,Kontrapunkt Bob" font-size="24.0" fill="#7FC7EA" transform="matrix(1.00, 0.00, -0.00, -1.00, 243.0, 8.0)">n</text><text xml:space="preserve" font-family="KontrapunktBob-Light,Kontrapunkt Bob" font-size="24.0" fill="#7FC7EA" transform="matrix(1.00, 0.00, -0.00, -1.00, 259.7, 8.0)">a</text><text xml:space="preserve" font-family="KontrapunktBob-Light,Kontrapunkt Bob" font-size="24.0" fill="#7FC7EA" transform="matrix(1.00, 0.00, -0.00, -1.00, 274.0, 8.0)">d</text><text xml:space="preserve" font-family="KontrapunktBob-Light,Kontrapunkt Bob" font-size="24.0" fill="#7FC7EA" transform="matrix(1.00, 0.00, -0.00, -1.00, 290.4, 8.0)">o</text></g></svg>