<?xml version="1.0" encoding="UTF-8" standalone="no"?><svg xmlns="http://www.w3.org/2000/svg" xmlns:xlink="http://www.w3.org/1999/xlink" clip-rule="evenodd" stroke-miterlimit="10" viewBox="0 0 355 445"><desc>SVG generated by Keynote</desc><defs></defs><g transform="matrix(1.00, 0.00, -0.00, -1.00, 0.0, 445.0)"><g><clipPath id="clip0x600001aa3ba0"><path d="M 163.5 445.0 L 354.9 87.6 L 191.7 0.2 L 0.2 357.5 Z M 163.5 445.0 "></path></clipPath><g clip-path="url(#clip0x600001aa3ba0)"><path d="M 128.8 251.7 C 91.2 249.6 59.0 278.4 56.9 316.1 C 54.9 353.7 83.7 385.8 121.3 387.9 C 158.9 390.0 191.1 361.1 193.2 323.5 C 195.2 285.9 166.4 253.7 128.8 251.7 Z M 335.1 93.7 C 327.5 104.3 227.3 216.0 227.3 216.0 C 227.3 216.0 224.7 218.7 221.3 216.8 L 189.0 253.5 C 192.2 256.5 195.1 259.8 197.9 263.4 C 229.0 303.3 221.8 360.8 181.8 391.9 C 141.9 422.9 84.4 415.8 53.3 375.8 C 22.3 335.9 29.5 278.4 69.4 247.3 C 100.8 222.9 143.0 222.1 174.7 242.3 L 206.8 204.7 C 204.5 201.7 206.8 198.7 206.8 198.7 C 206.8 198.7 303.3 83.7 312.7 74.8 C 319.5 68.4 326.1 72.8 329.3 75.8 L 329.4 75.7 C 329.4 75.7 342.6 83.2 335.1 93.7 Z M 335.1 93.7 " fill="#7FC7EA"></path></g></g><g><clipPath id="clip0x600001aa3900"><path d="M 101.1 285.7 L 111.0 285.7 L 111.0 307.0 L 101.1 307.0 Z M 101.1 285.7 "></path></clipPath><g clip-path="url(#clip0x600001aa3900)"><path d="M 102.0 306.0 L 110.0 306.0 L 110.0 287.0 L 102.0 287.0 Z M 102.1 306.0 " fill="#7FC7EA"></path></g></g><g><clipPath id="clip0x600001aa3720"><path d="M 113.5 285.7 L 123.4 285.7 L 123.4 315.2 L 113.5 315.2 Z M 113.5 285.7 "></path></clipPath><g clip-path="url(#clip0x600001aa3720)"><path d="M 115.0 314.0 L 122.0 314.0 L 122.0 287.0 L 115.0 287.0 Z M 114.5 314.2 " fill="#7FC7EA"></path></g></g><g><clipPath id="clip0x600001aa3600"><path d="M 125.9 285.7 L 135.8 285.7 L 135.8 322.0 L 125.9 322.0 Z M 125.9 285.7 "></path></clipPath><g clip-path="url(#clip0x600001aa3600)"><path d="M 127.0 321.0 L 135.0 321.0 L 135.0 287.0 L 127.0 287.0 Z M 126.9 321.0 " fill="#7FC7EA"></path></g></g><g><clipPath id="clip0x600001aa3360"><path d="M 138.3 285.7 L 148.2 285.7 L 148.2 326.2 L 138.3 326.2 Z M 138.3 285.7 "></path></clipPath><g clip-path="url(#clip0x600001aa3360)"><path d="M 139.0 325.0 L 147.0 325.0 L 147.0 287.0 L 139.0 287.0 Z M 139.3 325.2 " fill="#7FC7EA"></path></g></g><g><clipPath id="clip0x600001aa30c0"><path d="M 101.4 315.4 L 148.2 315.4 L 148.2 336.4 L 101.4 336.4 Z M 101.4 315.4 "></path></clipPath><g clip-path="url(#clip0x600001aa30c0)"><path d="M 39.4 2.4 L 38.9 2.4 C 25.9 7.7 13.0 12.8 0.0 18.0 " fill="none" stroke="#7FC7EA" stroke-width="1.00" transform="matrix(1.00, 0.00, 0.00, -1.00, 102.6, 334.9)"></path><path d="M 142.7 329.5 L 147.1 334.6 L 140.4 335.1 Z M 142.7 329.5 " fill="#7FC7EA"></path></g></g></g></svg>