<?xml version="1.0" encoding="UTF-8" standalone="no"?><svg xmlns="http://www.w3.org/2000/svg" xmlns:xlink="http://www.w3.org/1999/xlink" clip-rule="evenodd" stroke-miterlimit="10" viewBox="0 0 628 39"><desc>SVG generated by Keynote</desc><defs></defs><g transform="matrix(1.00, 0.00, -0.00, -1.00, 0.0, 39.0)"><text xml:space="preserve" font-family="KontrapunktBob-Bold,Kontrapunkt Bob" font-weight="bold" font-size="48.0" fill="#7FC7EA" transform="matrix(1.00, 0.00, -0.00, -1.00, -0.8, 2.8)">M</text><text xml:space="preserve" font-family="KontrapunktBob-Bold,Kontrapunkt Bob" font-weight="bold" font-size="48.0" fill="#7FC7EA" transform="matrix(1.00, 0.00, -0.00, -1.00, 45.0, 2.8)">O</text><text xml:space="preserve" font-family="KontrapunktBob-Bold,Kontrapunkt Bob" font-weight="bold" font-size="48.0" fill="#7FC7EA" transform="matrix(1.00, 0.00, -0.00, -1.00, 83.5, 2.8)">N</text><text xml:space="preserve" font-family="KontrapunktBob-Bold,Kontrapunkt Bob" font-weight="bold" font-size="48.0" fill="#7FC7EA" transform="matrix(1.00, 0.00, -0.00, -1.00, 124.9, 2.8)">I</text><text xml:space="preserve" font-family="KontrapunktBob-Bold,Kontrapunkt Bob" font-weight="bold" font-size="48.0" fill="#7FC7EA" transform="matrix(1.00, 0.00, -0.00, -1.00, 143.0, 2.8)">T</text><text xml:space="preserve" font-family="KontrapunktBob-Bold,Kontrapunkt Bob" font-weight="bold" font-size="48.0" fill="#7FC7EA" transform="matrix(1.00, 0.00, -0.00, -1.00, 171.8, 2.8)">O</text><text xml:space="preserve" font-family="KontrapunktBob-Bold,Kontrapunkt Bob" font-weight="bold" font-size="48.0" fill="#7FC7EA" transform="matrix(1.00, 0.00, -0.00, -1.00, 210.3, 2.8)">R</text><text xml:space="preserve" font-family="KontrapunktBob-Bold,Kontrapunkt Bob" font-weight="bold" font-size="48.0" fill="#7FC7EA" transform="matrix(1.00, 0.00, -0.00, -1.00, 247.0, 2.8)">E</text><text xml:space="preserve" font-family="KontrapunktBob-Bold,Kontrapunkt Bob" font-weight="bold" font-size="48.0" fill="#7FC7EA" transform="matrix(1.00, 0.00, -0.00, -1.00, 279.9, 2.8)">O</text><text xml:space="preserve" font-family="KontrapunktBob-Bold,Kontrapunkt Bob" font-weight="bold" font-size="48.0" fill="#7FC7EA" transform="matrix(1.00, 0.00, -0.00, -1.00, 318.4, 2.8)"> </text><text xml:space="preserve" font-family="KontrapunktBob-Bold,Kontrapunkt Bob" font-weight="bold" font-size="48.0" fill="#7FC7EA" transform="matrix(1.00, 0.00, -0.00, -1.00, 330.9, 2.8)">Y</text><text xml:space="preserve" font-family="KontrapunktBob-Bold,Kontrapunkt Bob" font-weight="bold" font-size="48.0" fill="#7FC7EA" transform="matrix(1.00, 0.00, -0.00, -1.00, 365.4, 2.8)"> </text><text xml:space="preserve" font-family="KontrapunktBob-Bold,Kontrapunkt Bob" font-weight="bold" font-size="48.0" fill="#7FC7EA" transform="matrix(1.00, 0.00, -0.00, -1.00, 377.9, 2.8)">C</text><text xml:space="preserve" font-family="KontrapunktBob-Bold,Kontrapunkt Bob" font-weight="bold" font-size="48.0" fill="#7FC7EA" transform="matrix(1.00, 0.00, -0.00, -1.00, 411.4, 2.8)">O</text><text xml:space="preserve" font-family="KontrapunktBob-Bold,Kontrapunkt Bob" font-weight="bold" font-size="48.0" fill="#7FC7EA" transform="matrix(1.00, 0.00, -0.00, -1.00, 449.9, 2.8)">N</text><text xml:space="preserve" font-family="KontrapunktBob-Bold,Kontrapunkt Bob" font-weight="bold" font-size="48.0" fill="#7FC7EA" transform="matrix(1.00, 0.00, -0.00, -1.00, 491.3, 2.8)">T</text><text xml:space="preserve" font-family="KontrapunktBob-Bold,Kontrapunkt Bob" font-weight="bold" font-size="48.0" fill="#7FC7EA" transform="matrix(1.00, 0.00, -0.00, -1.00, 521.5, 2.8)">R</text><text xml:space="preserve" font-family="KontrapunktBob-Bold,Kontrapunkt Bob" font-weight="bold" font-size="48.0" fill="#7FC7EA" transform="matrix(1.00, 0.00, -0.00, -1.00, 558.0, 2.8)">O</text><text xml:space="preserve" font-family="KontrapunktBob-Bold,Kontrapunkt Bob" font-weight="bold" font-size="48.0" fill="#7FC7EA" transform="matrix(1.00, 0.00, -0.00, -1.00, 596.5, 2.8)">L</text></g></svg>