<?xml version="1.0" encoding="UTF-8" standalone="no"?><svg xmlns="http://www.w3.org/2000/svg" xmlns:xlink="http://www.w3.org/1999/xlink" clip-rule="evenodd" stroke-miterlimit="10" viewBox="0 0 67 117"><desc>SVG generated by Keynote</desc><defs></defs><g transform="matrix(1.00, 0.00, -0.00, -1.00, 0.0, 117.0)"><path d="M 60.3 96.8 C 48.8 85.4 48.8 85.4 48.8 85.4 C 43.5 90.7 38.2 93.3 33.0 93.2 C 30.0 93.2 27.5 92.3 25.6 90.7 C 23.8 89.1 22.8 87.2 22.8 85.1 C 22.9 83.4 23.8 81.6 25.5 79.9 C 27.2 78.1 30.6 76.3 35.6 74.4 C 44.6 70.9 50.7 67.9 54.0 65.4 C 57.3 62.9 59.9 60.0 61.8 56.4 C 63.6 52.8 64.6 48.8 64.6 44.4 C 64.7 39.9 63.9 35.8 62.1 32.0 C 60.3 28.2 57.8 25.1 54.9 22.8 C 52.0 20.6 47.8 18.9 42.2 17.6 C 42.5 1.8 42.5 1.8 42.5 1.8 C 31.2 1.6 31.2 1.6 31.2 1.6 C 30.9 17.0 30.9 17.0 30.9 17.0 C 25.7 17.5 21.2 18.7 17.5 20.7 C 12.3 23.3 7.6 26.9 3.1 31.4 C 14.4 43.1 14.4 43.1 14.4 43.1 C 21.9 35.6 29.0 31.9 35.8 32.0 C 39.4 32.1 42.3 33.3 44.8 35.7 C 47.2 38.2 48.5 41.0 48.4 44.2 C 48.3 47.0 47.5 49.3 45.9 51.4 C 44.2 53.4 41.0 55.4 36.2 57.4 C 26.6 61.6 20.1 65.0 16.7 67.4 C 13.3 69.9 10.7 72.7 9.0 75.8 C 7.2 79.0 6.4 82.3 6.3 85.9 C 6.2 91.9 8.3 97.0 12.6 101.3 C 17.0 105.6 22.5 108.0 29.2 108.5 C 29.1 114.4 29.1 114.4 29.1 114.4 C 40.4 114.6 40.4 114.6 40.4 114.6 C 40.5 107.9 40.5 107.9 40.5 107.9 C 44.5 107.1 47.8 105.9 50.5 104.4 C 53.3 102.9 56.5 100.4 60.3 96.8 Z M 60.3 96.8 " fill="#7FC7EA"></path></g></svg>