<?xml version="1.0" encoding="UTF-8" standalone="no"?><svg xmlns="http://www.w3.org/2000/svg" xmlns:xlink="http://www.w3.org/1999/xlink" clip-rule="evenodd" stroke-miterlimit="10" viewBox="0 0 315 185"><desc>SVG generated by Keynote</desc><defs></defs><g transform="matrix(1.00, 0.00, -0.00, -1.00, 0.0, 185.0)"><g><clipPath id="clip0x6080012aedc0"><path d="M 204.5 13.1 L 241.7 13.1 L 241.7 159.9 L 204.5 159.9 Z M 204.5 13.1 "></path></clipPath><g clip-path="url(#clip0x6080012aedc0)"><path d="M 221.2 158.9 C 226.0 158.8 227.1 155.0 227.1 150.6 C 228.3 150.6 227.6 145.6 226.2 145.7 C 226.4 145.1 225.8 143.0 225.2 142.6 C 224.6 142.2 224.6 141.6 224.6 140.6 C 224.6 139.6 225.3 139.0 225.3 139.0 C 225.3 139.0 227.2 138.7 227.4 137.6 C 227.6 136.5 229.3 135.9 231.2 135.8 C 233.2 135.7 236.6 134.5 236.6 133.0 C 236.6 131.6 236.7 128.8 237.3 129.0 C 237.9 129.2 238.0 126.5 238.5 124.1 C 239.0 121.6 242.0 113.5 240.1 111.0 C 238.2 108.6 233.8 108.7 233.8 108.7 C 233.8 108.7 233.9 107.2 234.3 103.9 C 234.7 100.7 235.3 98.5 234.7 98.5 C 234.1 98.5 234.5 87.7 234.5 82.1 C 234.5 76.5 234.5 66.3 234.5 65.3 C 234.5 64.3 231.0 64.4 229.9 64.4 C 228.8 64.4 227.9 64.5 227.9 64.5 C 227.9 64.5 227.7 61.2 227.5 58.9 C 227.3 56.7 227.3 45.7 227.0 43.0 C 226.7 40.2 225.7 34.1 225.8 30.2 C 225.9 26.4 226.9 22.5 228.1 20.6 C 229.3 18.7 229.7 17.9 230.5 17.2 C 231.3 16.5 233.0 15.5 231.0 15.4 C 229.1 15.3 224.8 15.2 224.0 15.9 C 223.1 16.6 223.8 18.7 223.0 19.9 C 222.3 21.1 221.0 22.3 221.0 22.3 L 221.0 20.9 C 221.0 20.9 223.1 17.5 222.8 16.6 C 222.5 15.7 222.6 14.1 221.2 14.1 C 219.8 14.1 215.8 15.2 215.4 16.5 C 215.0 17.8 215.3 21.6 214.8 22.8 C 214.3 23.9 214.6 26.0 214.9 28.1 C 215.2 30.2 214.6 36.7 213.0 40.7 C 211.5 44.8 211.2 52.7 211.3 56.1 C 211.4 59.6 211.9 62.1 211.8 63.7 C 211.7 65.3 211.7 65.6 211.7 65.6 C 211.7 65.6 207.4 65.6 207.5 66.4 C 207.6 67.2 208.0 76.2 208.0 80.3 C 208.0 84.3 208.2 89.9 208.5 93.2 C 208.9 96.6 208.9 97.7 208.9 97.7 C 208.9 97.7 208.5 98.2 208.9 100.7 C 209.2 103.2 209.5 105.3 209.5 105.3 C 209.5 105.3 207.0 105.3 206.3 108.0 C 205.6 110.7 205.5 115.0 205.6 120.5 C 205.7 126.0 206.2 130.0 206.2 131.4 C 206.2 132.8 205.9 133.3 207.9 133.9 C 209.9 134.4 211.2 134.2 213.0 135.5 C 214.8 136.8 215.4 138.1 216.2 138.7 C 217.1 139.4 218.1 140.4 217.5 141.3 C 217.0 142.2 216.0 143.2 216.1 145.2 C 214.5 145.2 213.9 150.7 215.0 150.8 C 215.3 154.7 215.8 158.9 221.2 158.9 Z M 221.2 158.9 " fill="#F1F1F1"></path></g></g><g><clipPath id="clip0x6080012aeb20"><path d="M 215.3 116.5 L 228.1 116.5 L 228.1 140.9 L 215.3 140.9 Z M 215.3 116.5 "></path></clipPath><g clip-path="url(#clip0x6080012aeb20)"><path d="M 225.2 139.7 C 225.4 139.5 225.5 139.4 225.5 139.4 C 225.5 139.4 225.8 139.4 226.1 139.3 C 226.8 137.8 227.1 131.6 227.1 129.6 C 227.1 127.6 225.9 123.6 225.1 121.5 C 224.4 119.5 224.3 117.5 224.3 117.5 C 224.3 117.5 223.5 121.0 222.4 123.8 C 221.4 126.6 219.4 130.3 218.0 132.9 C 216.9 135.1 216.4 137.2 216.3 139.0 C 216.4 139.0 216.4 139.1 216.5 139.1 C 216.7 139.3 217.0 139.6 217.3 139.9 C 217.4 138.8 218.0 137.2 218.5 136.3 C 219.1 135.3 220.6 134.8 221.2 134.1 C 221.8 133.5 220.6 132.7 221.2 131.7 C 221.8 130.6 222.3 130.0 222.3 130.0 C 222.3 130.0 222.1 131.1 222.4 132.1 C 222.6 133.0 223.4 132.1 223.9 133.6 C 224.4 135.0 224.9 137.7 225.2 139.7 Z M 225.2 139.7 " fill="#FEFFFE"></path></g></g><g><clipPath id="clip0x6080012ae8e0"><path d="M 214.1 97.1 L 232.0 97.1 L 232.0 106.0 L 214.1 106.0 Z M 214.1 97.1 "></path></clipPath><g clip-path="url(#clip0x6080012ae8e0)"><path d="M 222.3 105.0 L 223.4 105.0 C 223.4 105.0 224.5 101.7 226.2 100.9 C 227.9 100.2 231.0 100.1 231.0 100.1 C 231.0 100.1 229.4 98.8 227.3 98.8 C 225.3 98.8 224.6 99.7 224.6 99.7 C 224.6 99.7 221.6 97.7 218.7 98.1 C 215.8 98.6 215.1 99.5 215.1 99.5 C 215.1 99.5 218.9 98.9 220.5 100.2 C 222.2 101.5 222.2 102.8 222.3 105.0 Z M 222.3 105.0 " fill="#FEFFFE"></path></g></g><g><clipPath id="clip0x6080012ae6a0"><path d="M 278.7 37.3 L 314.9 37.3 L 314.9 178.2 L 278.7 178.2 Z M 278.7 37.3 "></path></clipPath><g clip-path="url(#clip0x6080012ae6a0)"><path d="M 297.8 176.7 C 297.8 176.7 300.1 177.5 301.3 176.0 C 302.5 174.5 303.5 171.0 304.0 169.3 C 304.4 167.6 304.0 163.2 305.3 162.4 C 307.2 161.1 305.1 158.8 306.8 158.4 C 308.5 157.9 309.4 155.9 309.4 155.9 C 309.4 155.9 313.0 156.6 313.6 154.7 C 314.3 152.7 313.5 147.6 313.4 145.9 C 313.3 144.2 310.6 135.9 310.5 134.4 C 310.4 132.9 308.9 131.7 308.9 131.7 C 308.9 131.7 309.1 129.5 309.8 127.3 C 310.5 125.1 310.6 124.3 310.6 124.3 C 310.6 124.3 311.7 119.1 312.3 116.9 C 313.0 114.7 312.9 114.5 311.6 113.9 C 310.3 113.4 309.5 112.4 309.5 110.1 C 309.5 107.8 310.8 99.5 309.9 91.4 C 309.1 83.3 308.8 75.0 308.8 75.0 L 307.8 75.0 C 307.8 75.0 308.2 69.2 306.7 63.9 C 305.2 58.6 303.9 53.8 303.9 52.3 C 303.9 50.9 303.8 50.0 304.1 49.2 C 304.4 48.4 305.2 46.9 304.3 45.0 C 303.4 43.1 303.2 41.6 303.2 40.5 C 303.2 39.4 300.0 38.2 297.4 38.3 C 294.9 38.4 295.1 40.2 295.8 41.3 C 296.4 42.4 297.5 43.9 298.1 45.9 C 298.6 47.9 298.3 49.3 298.9 51.3 C 299.4 53.3 299.9 55.2 299.9 60.3 C 299.9 65.5 299.9 67.7 299.9 70.9 C 299.9 74.2 299.7 76.0 299.7 76.0 L 292.4 76.0 C 292.4 76.0 293.0 73.5 293.4 71.5 C 293.9 69.5 293.6 64.9 293.4 60.7 C 293.2 56.4 293.0 52.2 293.6 51.4 C 294.3 50.7 295.4 48.4 294.9 46.5 C 294.3 44.6 293.7 42.5 293.9 41.5 C 294.0 40.5 293.6 40.0 293.6 40.0 L 292.4 40.0 C 292.4 40.0 292.9 42.2 292.9 43.2 C 292.9 44.2 292.5 44.5 292.5 44.5 C 292.5 44.5 291.2 42.4 290.9 41.5 C 290.5 40.6 290.9 38.8 288.0 38.7 C 285.1 38.6 283.1 38.4 282.8 39.4 C 282.6 40.4 283.2 41.0 284.7 42.1 C 286.3 43.2 287.1 45.1 288.0 46.5 C 288.8 48.0 289.1 50.4 288.5 53.1 C 288.0 55.8 285.2 66.8 285.1 70.3 C 284.9 73.7 285.2 76.6 285.2 76.6 C 285.2 76.6 283.3 76.7 282.7 76.7 C 282.2 76.7 282.7 82.5 282.7 86.7 C 282.7 91.0 283.1 106.4 283.4 108.7 C 283.7 111.0 283.7 112.6 283.7 112.6 C 283.7 112.6 282.6 112.0 282.8 113.5 C 283.1 114.9 284.3 120.3 284.3 122.2 C 284.3 124.1 284.1 126.1 284.1 126.1 C 284.1 126.1 280.3 126.5 280.3 128.7 C 280.3 131.0 280.2 131.1 279.9 131.7 C 279.7 132.4 279.5 133.0 279.9 134.3 C 280.4 135.6 281.3 137.0 282.1 140.7 C 282.8 144.3 284.3 148.5 284.3 150.0 C 284.3 151.6 284.8 151.9 286.6 152.7 C 288.4 153.5 286.8 154.1 288.6 155.9 C 290.4 157.7 287.4 158.7 288.8 161.8 C 290.2 164.9 289.0 169.4 289.4 171.9 C 289.8 174.3 292.5 178.8 297.8 176.7 Z M 297.8 176.7 " fill="#F1F1F1"></path></g></g><g><clipPath id="clip0x6080012ae460"><path d="M 290.7 136.1 L 303.3 136.1 L 303.3 159.9 L 290.7 159.9 Z M 290.7 136.1 "></path></clipPath><g clip-path="url(#clip0x6080012ae460)"><path d="M 294.4 157.5 L 291.7 154.0 C 291.7 154.0 292.5 152.5 292.9 152.3 C 293.4 152.1 293.3 150.1 293.3 147.6 C 293.3 145.2 293.3 140.0 293.4 138.9 C 293.5 137.8 293.6 137.1 293.6 137.1 C 293.6 137.1 294.9 141.3 295.7 144.3 C 296.5 147.3 298.5 151.0 299.7 153.0 C 301.0 155.0 302.0 157.4 302.0 157.4 L 301.0 158.9 C 301.0 158.9 299.8 157.5 298.7 156.5 C 297.6 155.5 296.3 155.0 296.3 155.0 C 296.3 155.0 298.6 153.6 297.8 151.8 C 297.1 150.1 296.2 150.0 295.8 148.1 C 295.5 146.2 296.2 150.2 295.6 151.7 C 295.1 153.3 293.6 152.4 294.4 157.5 Z M 294.4 157.5 " fill="#FEFFFE"></path></g></g><g><clipPath id="clip0x6080012ae220"><path d="M 290.7 122.7 L 294.3 122.7 L 294.3 126.9 L 290.7 126.9 Z M 290.7 122.7 "></path></clipPath><g clip-path="url(#clip0x6080012ae220)"><path d="M 292.7 125.9 L 291.7 124.0 L 293.3 124.0 C 293.3 124.0 292.7 125.9 292.7 125.9 Z M 292.7 125.9 " fill="#FEFFFE"></path></g></g><g><clipPath id="clip0x6080012adfe0"><path d="M 238.1 4.5 L 277.2 4.5 L 277.2 152.3 L 238.1 152.3 Z M 238.1 4.5 "></path></clipPath><g clip-path="url(#clip0x6080012adfe0)"><path d="M 242.1 148.2 C 241.5 148.9 242.3 149.5 243.4 149.5 C 244.6 149.5 243.8 150.7 245.6 150.7 C 247.4 150.7 250.0 151.7 252.2 151.0 C 254.3 150.4 256.1 148.9 257.3 146.4 C 258.6 144.0 258.8 141.7 258.0 139.7 C 257.2 137.7 256.4 134.7 256.4 134.7 C 256.4 134.7 256.7 133.7 258.3 132.4 C 260.0 131.2 264.7 130.1 267.3 127.0 C 269.9 124.0 270.2 118.5 271.5 116.4 C 272.7 114.3 271.8 108.4 272.8 105.8 C 273.8 103.1 272.1 100.0 272.1 99.0 C 272.1 98.0 275.8 77.6 276.2 76.3 C 276.5 74.9 275.3 74.6 272.2 73.9 C 269.2 73.2 268.3 73.1 267.9 72.2 C 267.4 71.3 267.4 67.0 267.4 64.6 C 267.4 62.3 266.7 59.4 267.1 56.1 C 267.4 52.9 270.0 42.3 269.9 36.9 C 269.8 31.6 268.5 13.3 268.6 11.3 C 268.8 9.3 268.8 7.0 268.8 7.0 L 265.0 7.0 L 265.0 7.9 C 265.0 7.9 262.8 5.8 257.9 5.6 C 253.0 5.3 250.0 6.2 249.5 7.0 C 248.9 7.8 249.1 9.3 250.7 9.3 C 252.3 9.3 253.1 10.0 253.6 10.5 C 254.2 10.9 253.2 11.5 253.2 11.5 C 253.2 11.5 249.4 10.5 245.7 10.8 C 242.0 11.2 239.4 11.7 239.2 12.4 C 238.9 13.1 239.5 14.7 241.5 14.7 C 243.5 14.7 245.0 14.5 246.2 15.2 C 247.5 15.9 248.6 16.4 248.6 16.4 C 248.6 16.4 249.1 22.6 250.4 26.3 C 251.6 30.0 252.6 32.5 251.7 33.6 C 250.8 34.7 248.9 42.4 249.0 46.2 C 249.1 50.1 249.1 53.0 248.0 56.6 C 246.9 60.1 244.4 72.2 244.7 78.9 C 244.9 85.5 244.4 87.3 244.3 88.8 C 244.2 90.4 244.2 91.9 244.2 91.9 C 244.2 92.4 244.2 92.9 244.2 93.4 C 243.2 92.1 242.7 89.1 242.5 86.3 C 242.3 83.4 241.6 87.7 242.1 91.3 C 242.5 94.9 243.4 96.9 243.2 99.4 C 243.0 101.8 242.5 106.9 244.3 111.7 C 246.1 116.5 245.7 114.5 246.1 117.1 C 246.4 119.7 247.2 121.8 247.2 123.2 C 247.2 124.7 247.6 127.3 247.6 127.3 C 247.6 127.3 248.1 127.7 247.1 129.4 C 246.1 131.0 245.9 131.8 243.9 131.7 C 241.9 131.6 240.6 131.7 241.0 133.0 C 241.4 134.4 240.9 134.7 241.2 135.0 C 241.6 135.3 242.0 135.5 241.6 135.7 C 241.2 135.9 240.9 135.9 240.9 136.6 C 240.9 137.4 240.1 137.0 239.7 137.4 C 239.2 137.7 239.9 138.9 240.5 140.0 C 241.1 141.0 241.6 141.4 241.2 142.2 C 240.9 143.0 241.4 143.8 242.1 145.3 C 242.8 146.7 243.3 147.2 242.1 148.2 Z M 242.1 148.2 " fill="#F1F1F1"></path></g></g><g><clipPath id="clip0x6080012adda0"><path d="M 243.2 90.1 L 258.3 90.1 L 258.3 135.8 L 243.2 135.8 Z M 243.2 90.1 "></path></clipPath><g clip-path="url(#clip0x6080012adda0)"><path d="M 256.6 134.8 C 256.5 134.5 256.5 134.3 256.5 134.3 C 256.5 134.3 256.6 133.7 257.3 133.0 C 254.0 129.9 250.8 123.6 249.5 119.4 C 248.1 115.0 247.3 109.1 247.0 105.1 C 246.6 101.1 247.5 99.5 248.9 96.5 C 250.2 93.5 251.5 91.4 251.5 91.4 C 251.5 91.4 250.0 91.3 248.0 91.2 C 246.1 91.0 244.4 91.2 244.4 91.2 C 244.4 91.2 244.3 91.3 244.2 92.7 C 244.2 92.8 244.2 92.9 244.2 93.0 L 244.2 93.0 C 244.2 94.5 244.3 96.8 244.9 97.9 C 245.4 99.1 246.1 104.1 246.5 105.8 C 246.9 107.6 246.8 109.7 246.7 112.4 C 246.6 115.1 249.5 123.0 248.6 123.7 C 248.1 124.1 247.7 124.8 247.4 125.3 C 247.5 126.2 247.6 126.9 247.6 126.9 C 247.6 126.9 247.7 127.0 247.7 127.2 C 250.1 130.6 253.8 133.2 256.6 134.8 Z M 256.6 134.8 " fill="#FEFFFE"></path></g></g><g><clipPath id="clip0x6080012adb60"><path d="M 122.2 36.6 L 184.5 36.6 L 184.5 183.3 L 122.2 183.3 Z M 122.2 36.6 "></path></clipPath><g clip-path="url(#clip0x6080012adb60)"><path d="M 140.9 55.0 C 140.8 54.3 140.6 53.7 140.6 53.3 C 140.0 50.6 139.4 45.1 138.6 45.1 C 137.9 45.1 138.1 44.6 138.0 43.1 C 137.9 41.6 136.3 41.3 135.5 41.0 C 134.6 40.7 134.4 41.6 134.4 41.6 C 134.4 41.6 133.0 38.6 130.5 38.3 C 128.0 38.0 123.2 37.0 123.2 38.2 C 123.2 39.4 123.7 40.5 125.4 41.4 C 127.0 42.4 128.2 45.0 128.8 45.7 C 129.5 46.3 128.6 46.1 129.2 47.4 C 129.7 48.7 131.3 56.4 131.7 58.9 C 132.0 61.4 131.8 70.0 133.0 74.1 C 134.2 78.1 137.9 91.0 138.4 94.6 C 138.9 98.2 139.7 101.8 139.7 103.7 C 139.7 105.7 139.9 107.0 140.5 108.4 C 141.0 109.8 140.4 111.8 140.4 111.8 C 140.4 111.8 138.9 110.7 138.1 109.9 C 137.2 109.2 137.2 110.4 137.6 112.1 C 138.1 113.8 137.7 114.8 137.3 114.3 C 136.9 113.7 136.6 117.1 135.5 119.2 C 134.4 121.2 132.0 125.5 132.5 127.9 C 133.1 130.3 133.3 134.5 133.9 136.6 C 134.6 138.6 135.2 142.3 136.0 144.6 C 136.8 146.9 136.7 148.0 137.6 150.3 C 138.6 152.5 139.7 155.2 139.7 156.2 C 139.7 156.9 140.0 157.4 141.0 157.8 L 141.0 133.8 C 140.7 133.0 140.3 132.5 140.0 132.4 C 139.2 132.2 139.1 131.0 140.0 130.5 C 141.0 129.9 140.4 126.2 140.8 125.7 C 140.9 125.6 140.9 125.6 140.9 125.7 C 140.9 125.7 140.9 55.0 140.9 55.0 Z M 160.4 181.9 C 161.1 181.3 162.1 180.0 162.8 180.4 C 163.6 180.8 163.3 178.8 164.2 178.8 C 165.0 178.8 166.0 175.8 165.9 174.2 C 165.8 172.7 165.4 171.1 165.3 170.4 C 165.2 169.8 164.8 167.1 164.3 167.1 C 163.8 167.1 163.6 167.0 163.6 167.0 C 163.6 167.0 162.9 165.0 162.9 163.4 C 162.9 161.8 163.0 161.8 163.0 161.8 L 164.0 160.3 C 164.0 160.3 168.9 157.8 171.1 157.1 C 172.1 156.8 173.1 156.5 174.0 156.0 L 174.0 132.4 C 173.7 132.8 173.4 133.6 173.1 135.0 C 173.1 131.9 172.1 127.4 172.8 124.4 C 172.8 125.6 173.4 126.6 174.0 127.6 L 174.0 112.9 C 173.2 112.9 172.6 112.9 172.6 112.9 C 172.6 112.9 172.2 111.1 171.5 110.6 C 170.8 110.1 169.9 108.4 169.7 109.0 C 169.5 109.6 168.9 104.5 168.3 101.8 C 167.6 99.0 164.7 79.9 164.7 77.2 C 164.7 74.5 163.6 71.7 163.7 69.7 C 163.8 67.8 163.4 62.6 163.3 59.8 C 163.2 57.0 160.6 54.1 160.6 52.0 C 160.6 49.9 161.2 48.9 160.9 47.7 C 160.6 46.6 160.7 45.7 162.0 44.3 C 163.3 42.9 163.8 41.6 163.7 40.5 C 163.6 39.4 163.3 38.9 160.7 38.8 C 158.1 38.7 155.6 39.5 155.6 40.1 C 155.6 40.8 154.7 41.0 153.9 41.0 C 153.2 41.0 153.3 41.8 153.6 43.3 C 153.9 44.8 155.0 46.9 154.4 46.7 C 153.7 46.4 153.2 46.9 153.2 49.1 C 153.2 51.2 152.9 51.9 153.8 53.2 C 154.8 54.5 154.6 56.9 154.4 58.8 C 154.2 60.8 153.5 62.2 154.1 64.6 C 154.6 67.0 154.7 69.9 154.4 71.1 C 154.1 72.3 154.3 73.7 155.1 74.7 C 156.0 75.7 154.7 77.4 154.7 78.5 C 154.7 79.6 155.0 84.2 154.5 88.7 C 153.9 93.3 153.8 96.8 153.7 98.0 C 153.6 99.2 153.0 98.6 151.3 94.1 C 149.7 89.5 145.6 75.3 144.8 72.1 C 144.2 69.4 142.0 59.5 141.0 55.0 L 141.0 125.7 C 141.2 126.0 141.0 128.4 141.6 130.1 C 142.2 132.2 142.4 135.0 142.5 138.4 C 142.5 138.4 141.8 135.5 141.0 133.8 L 141.0 157.8 C 141.7 158.1 142.8 158.4 144.6 158.6 C 148.6 159.2 151.6 160.3 152.5 161.0 C 153.1 161.5 153.5 161.8 153.8 162.2 C 154.1 162.5 154.6 163.1 154.1 163.1 C 153.1 163.2 152.9 167.1 152.4 168.2 C 151.9 169.3 152.1 170.1 152.4 171.1 C 152.8 172.1 152.1 173.6 153.0 175.3 C 153.8 176.9 152.6 178.8 153.8 179.1 C 155.0 179.3 154.6 180.7 155.8 180.7 C 157.0 180.7 157.1 182.3 158.3 181.8 C 159.5 181.2 159.5 183.1 160.4 181.9 Z M 174.0 156.0 C 175.0 155.3 175.9 154.2 176.2 152.4 C 176.8 149.0 180.3 137.5 182.1 134.4 C 183.8 131.2 184.0 127.0 182.3 124.3 C 180.6 121.7 176.5 115.2 175.8 114.3 C 175.2 113.4 175.1 112.8 174.1 112.9 C 174.1 112.9 174.1 112.9 174.0 112.9 L 174.0 127.6 C 174.8 128.9 175.7 129.9 175.3 130.6 C 174.8 131.6 174.4 131.6 174.0 132.4 C 174.0 132.4 174.0 156.0 174.0 156.0 Z M 174.0 156.0 " fill="#F1F1F1"></path></g></g><g><clipPath id="clip0x6080012ad920"><path d="M 144.4 119.1 L 167.9 119.1 L 167.9 163.0 L 144.4 163.0 Z M 144.4 119.1 "></path></clipPath><g clip-path="url(#clip0x6080012ad920)"><path d="M 162.7 162.0 C 162.8 161.6 163.0 161.6 163.0 161.6 L 164.0 160.3 C 164.0 160.2 163.6 160.1 163.6 160.0 C 163.3 157.8 162.9 150.3 162.9 145.2 C 162.9 140.1 162.2 137.4 163.1 133.3 C 163.9 129.2 164.0 126.8 165.1 124.3 C 166.2 121.9 166.9 120.1 166.9 120.1 C 166.9 120.1 163.3 120.5 159.6 120.5 C 155.9 120.5 149.1 120.0 147.7 120.4 C 146.3 120.8 145.4 121.3 145.4 121.3 C 145.4 121.3 147.0 125.0 148.1 129.2 C 149.2 133.3 150.3 138.9 150.3 144.5 C 150.3 150.2 150.2 155.5 151.3 158.4 C 151.7 159.4 151.9 160.2 152.2 160.8 C 152.2 160.8 151.9 160.6 152.2 160.8 C 152.5 161.1 153.1 161.7 153.5 162.0 C 154.1 161.3 154.4 160.8 155.7 159.4 C 156.9 157.9 157.0 156.9 159.1 158.3 C 160.6 159.2 161.7 160.7 162.7 162.0 Z M 162.7 162.0 " fill="#FEFFFE"></path></g></g><g><clipPath id="clip0x6080012ad6e0"><path d="M 148.2 114.7 L 160.3 114.7 L 160.3 158.0 L 148.2 158.0 Z M 148.2 114.7 "></path></clipPath><g clip-path="url(#clip0x6080012ad6e0)"><path d="M 157.5 157.0 L 155.5 154.9 C 155.5 154.9 156.6 154.6 156.2 153.7 C 155.9 152.8 154.4 147.9 153.0 141.3 C 151.6 134.7 149.7 123.1 149.3 121.5 C 148.9 119.9 149.4 118.7 150.5 117.0 C 151.6 115.3 151.7 115.4 152.9 116.8 C 154.0 118.3 154.8 117.7 155.5 121.9 C 156.2 126.1 157.3 134.4 157.9 138.1 C 158.5 141.7 159.2 148.8 158.7 150.5 C 158.2 152.1 157.9 153.0 158.0 153.7 C 158.2 154.4 159.3 155.0 159.3 155.0 C 159.3 155.0 158.5 156.5 157.5 157.0 Z M 157.5 157.0 " fill="#F1F1F1"></path></g></g><g><clipPath id="clip0x6080012ad4a0"><path d="M 81.0 22.8 L 118.0 22.8 L 118.0 168.1 L 81.0 168.1 Z M 81.0 22.8 "></path></clipPath><g clip-path="url(#clip0x6080012ad4a0)"><path d="M 98.7 167.1 L 99.0 167.0 L 99.0 72.9 C 98.8 71.9 98.5 70.9 98.3 70.4 C 98.0 69.0 98.5 68.1 98.5 67.2 C 98.5 66.2 98.7 65.0 98.7 65.0 C 98.7 65.0 98.9 65.7 99.0 66.5 L 99.0 23.9 C 97.3 24.5 95.8 26.6 95.9 29.6 C 96.1 33.1 95.3 33.6 95.8 35.7 C 96.4 37.7 95.7 39.1 94.7 42.2 C 93.7 45.4 89.9 58.9 90.1 62.3 C 90.4 65.8 90.7 68.8 90.4 71.2 C 90.0 73.5 89.8 75.5 89.8 75.5 C 89.8 75.5 87.3 74.4 87.3 77.7 C 87.3 81.1 86.8 90.7 86.6 93.6 C 86.3 96.5 86.8 102.2 86.8 102.2 C 86.8 102.2 84.4 102.4 83.7 102.8 C 82.9 103.1 85.7 108.1 86.2 110.1 C 86.8 112.1 86.7 115.6 86.7 115.6 C 86.7 115.6 82.4 115.8 82.2 119.4 C 82.0 123.0 81.9 128.1 82.2 130.2 C 82.5 132.3 82.7 132.1 83.0 134.9 C 83.3 137.7 84.8 142.6 86.2 142.8 C 87.7 143.1 89.5 144.2 89.5 144.2 C 89.5 144.2 88.0 145.8 89.8 147.3 C 91.6 148.7 92.6 149.3 91.8 151.2 C 91.0 153.1 91.6 154.6 92.0 157.0 C 92.5 159.5 93.7 167.1 98.7 167.1 Z M 98.8 167.1 C 102.0 167.2 104.6 164.2 105.2 161.4 C 105.8 158.7 106.4 158.9 106.4 157.3 C 106.4 155.8 107.0 154.1 107.3 151.7 C 107.6 149.2 107.8 147.6 109.0 146.1 C 110.3 144.7 110.1 143.2 110.1 143.2 C 110.1 143.2 114.2 143.0 115.2 140.3 C 116.2 137.5 116.4 132.8 116.8 129.6 C 117.3 126.4 116.9 122.7 115.8 120.3 C 114.7 117.9 112.2 117.6 112.2 117.6 C 112.2 117.6 111.8 112.7 113.2 108.4 C 114.7 104.1 115.7 101.8 114.5 101.6 C 113.2 101.4 112.6 101.3 112.6 101.3 C 112.6 101.3 112.7 95.7 111.8 92.1 C 111.0 88.6 109.1 79.3 109.1 77.0 C 109.1 74.6 109.0 75.1 108.1 75.1 C 107.2 75.1 106.8 75.1 106.8 75.1 C 106.8 75.1 106.9 71.4 106.4 70.5 C 106.0 69.6 106.8 65.5 105.4 61.1 C 104.1 56.8 101.4 49.4 101.4 46.3 C 101.4 43.1 102.7 39.3 104.2 37.8 C 105.7 36.2 107.8 33.1 106.7 32.3 C 105.5 31.5 104.0 31.6 103.0 32.0 C 102.0 32.3 101.2 33.2 101.2 33.2 C 101.2 33.2 101.3 31.6 101.7 30.4 C 102.2 29.2 101.7 23.8 99.6 23.8 C 99.3 23.8 99.3 23.9 99.0 23.9 L 99.0 66.5 C 99.1 67.3 99.0 68.3 99.2 68.9 C 99.6 69.9 99.3 72.1 99.2 75.4 C 99.2 75.4 99.0 74.2 98.8 72.9 C 98.8 72.9 98.8 167.1 98.8 167.1 Z M 98.8 167.1 " fill="#F1F1F1"></path></g></g><g><clipPath id="clip0x6080012ad260"><path d="M 95.6 130.3 L 105.9 130.3 L 105.9 147.8 L 95.6 147.8 Z M 95.6 130.3 "></path></clipPath><g clip-path="url(#clip0x6080012ad260)"><path d="M 96.6 146.4 C 96.6 146.4 98.8 144.5 98.8 143.1 C 98.8 141.6 99.8 136.8 100.3 135.4 C 100.7 133.9 100.9 137.2 101.7 138.6 C 102.5 140.1 102.8 141.3 102.4 142.4 C 101.9 143.5 103.6 144.0 104.8 146.8 C 104.9 145.8 104.8 144.9 104.8 143.9 C 104.8 142.8 103.0 137.6 102.5 136.6 C 102.0 135.6 100.6 132.4 100.5 131.5 C 100.4 130.5 99.2 133.3 98.5 136.3 C 97.8 139.3 96.5 143.6 96.6 146.4 Z M 96.6 146.4 " fill="#FEFFFE"></path></g></g><g><clipPath id="clip0x6080012ad020"><path d="M 91.1 120.1 L 94.7 120.1 L 94.7 125.7 L 91.1 125.7 Z M 91.1 120.1 "></path></clipPath><g clip-path="url(#clip0x6080012ad020)"><path d="M 93.3 121.1 C 93.3 121.1 93.6 122.0 93.7 123.2 C 93.7 124.3 93.7 125.0 93.7 125.0 L 92.5 124.0 C 92.5 124.0 92.4 122.2 92.1 121.5 C 92.7 121.0 93.3 121.1 93.3 121.1 Z M 93.3 121.1 " fill="#FEFFFE"></path></g></g><g><clipPath id="clip0x6080012acde0"><path d="M 103.2 112.8 L 106.8 112.8 L 106.8 118.0 L 103.2 118.0 Z M 103.2 112.8 "></path></clipPath><g clip-path="url(#clip0x6080012acde0)"><path d="M 104.6 117.0 C 104.6 117.0 104.3 114.8 104.2 114.1 C 104.1 113.5 106.0 114.1 106.0 114.1 L 106.0 117.0 C 106.0 117.0 104.6 117.0 104.6 117.0 Z M 104.6 117.0 " fill="#FEFFFE"></path></g></g><g><clipPath id="clip0x6080012acba0"><path d="M 109.5 0.3 L 149.3 0.3 L 149.3 135.8 L 109.5 135.8 Z M 109.5 0.3 "></path></clipPath><g clip-path="url(#clip0x6080012acba0)"><path d="M 125.9 134.8 C 128.6 134.8 132.7 132.2 132.7 128.2 C 132.7 124.2 132.4 122.5 132.1 121.2 C 131.7 119.9 131.3 120.2 131.3 120.2 C 131.3 120.2 131.4 117.5 130.6 116.8 C 129.7 116.2 129.5 116.0 129.5 115.1 C 129.5 114.3 130.0 113.6 130.8 112.8 C 131.5 111.9 134.7 110.9 136.5 110.3 C 138.2 109.6 139.6 108.6 140.5 106.4 C 141.5 104.3 142.9 101.6 144.7 99.8 C 146.5 98.0 148.8 95.1 148.1 92.3 C 147.5 89.5 143.6 87.3 141.5 88.5 C 139.4 89.7 138.5 89.8 138.5 89.8 C 138.5 89.8 139.9 83.7 140.5 77.6 C 141.2 71.5 142.9 65.6 141.9 65.0 C 141.0 64.5 139.6 63.8 139.6 63.8 C 139.6 63.8 139.3 55.2 137.7 47.7 C 136.2 40.3 135.7 36.9 135.5 32.4 C 135.3 28.0 134.8 24.7 135.2 22.8 C 135.6 20.9 138.1 17.3 139.6 16.6 C 141.1 15.9 143.8 15.9 144.8 15.4 C 145.9 14.9 146.7 13.5 144.3 13.1 C 141.8 12.7 137.1 13.4 135.9 13.8 C 134.8 14.2 132.9 15.1 132.9 15.1 C 132.9 15.1 133.5 13.6 130.8 13.6 C 128.1 13.6 127.6 13.8 127.5 15.5 C 127.4 17.2 127.5 19.5 127.2 20.7 C 126.8 21.8 128.7 24.9 127.7 26.6 C 126.8 28.3 125.8 32.6 126.7 35.2 C 127.5 37.8 126.4 40.3 126.7 42.0 C 127.0 43.7 127.3 46.0 127.3 48.5 C 127.3 51.1 127.3 53.0 127.3 53.0 C 127.3 53.0 125.4 43.3 124.9 40.7 C 124.4 38.1 123.6 29.0 123.6 26.2 C 123.6 23.4 121.5 19.7 121.4 17.2 C 121.3 14.7 121.2 13.2 120.5 13.2 C 119.8 13.2 121.2 10.5 121.7 8.3 C 122.2 6.1 123.7 1.3 120.8 1.3 C 118.0 1.3 114.7 2.5 114.6 5.5 C 114.5 8.6 114.9 11.3 114.1 12.4 C 113.3 13.6 113.2 16.2 113.3 17.8 C 113.4 19.4 112.9 22.0 113.3 25.4 C 113.7 28.8 113.7 34.4 114.5 38.6 C 115.3 42.9 115.5 49.4 115.9 54.6 C 116.3 59.7 116.6 62.3 116.1 63.1 C 115.6 63.9 112.6 64.5 111.8 64.7 C 111.0 64.9 112.8 70.3 113.4 74.7 C 114.0 79.2 115.1 81.8 115.7 85.0 C 116.3 88.2 116.3 89.7 115.0 91.9 C 113.7 94.2 112.1 95.7 111.4 100.8 C 110.7 106.0 109.9 109.3 111.2 110.6 C 112.6 111.9 115.3 111.2 117.3 112.8 C 119.2 114.4 119.5 116.1 120.4 116.3 C 121.3 116.5 121.5 116.7 121.5 117.8 C 121.5 118.9 121.2 120.0 121.2 120.0 C 121.2 120.0 119.8 120.9 119.5 122.3 C 119.2 123.7 118.9 127.1 119.3 129.5 C 119.7 131.9 121.9 134.8 125.9 134.8 Z M 125.9 134.8 " fill="#F1F1F1"></path></g></g><g><clipPath id="clip0x6080012ac960"><path d="M 119.6 109.2 L 131.4 109.2 L 131.4 118.7 L 119.6 118.7 Z M 119.6 109.2 "></path></clipPath><g clip-path="url(#clip0x6080012ac960)"><path d="M 129.7 114.3 C 129.9 114.0 130.1 113.7 130.4 113.3 C 130.0 112.3 129.9 111.1 129.9 110.2 C 128.4 111.1 129.2 113.2 127.9 113.4 C 126.7 113.5 126.5 112.9 126.3 112.1 C 126.1 111.3 126.0 110.7 126.0 110.7 C 126.0 110.7 121.9 115.0 120.6 116.6 C 121.2 116.7 121.4 117.0 121.5 117.7 C 122.8 116.2 126.2 113.6 127.7 113.6 C 128.5 113.6 129.1 113.9 129.7 114.3 Z M 129.7 114.3 " fill="#FEFFFE"></path></g></g><g><clipPath id="clip0x6080012ac720"><path d="M 129.8 90.7 L 135.8 90.7 L 135.8 98.4 L 129.8 98.4 Z M 129.8 90.7 "></path></clipPath><g clip-path="url(#clip0x6080012ac720)"><path d="M 133.1 97.2 L 130.8 97.0 C 130.8 97.0 132.9 95.9 132.9 94.4 C 132.9 92.8 132.8 92.0 132.8 92.0 L 134.6 92.0 C 134.6 92.0 135.1 93.3 134.6 94.8 C 134.1 96.3 133.5 96.7 133.1 97.2 Z M 133.1 97.2 " fill="#FEFFFE"></path></g></g><g><clipPath id="clip0x6080012ac4e0"><path d="M 132.3 78.2 L 136.1 78.2 L 136.1 85.1 L 132.3 85.1 Z M 132.3 78.2 "></path></clipPath><g clip-path="url(#clip0x6080012ac4e0)"><path d="M 133.9 84.1 C 133.9 84.1 133.6 81.3 133.4 80.4 C 133.3 79.5 133.3 79.0 133.3 79.0 L 135.1 80.0 C 135.1 80.0 134.7 81.8 133.9 84.1 Z M 133.9 84.1 " fill="#FEFFFE"></path></g></g><g><clipPath id="clip0x6080012ac2a0"><path d="M 17.0 152.6 L 28.1 152.6 L 28.1 167.5 L 17.0 167.5 Z M 17.0 152.6 "></path></clipPath><g clip-path="url(#clip0x6080012ac2a0)"><path d="M 18.1 165.6 C 21.4 164.2 17.7 162.4 18.8 160.7 C 19.9 159.1 17.5 157.9 18.1 155.6 C 18.7 153.3 23.8 153.4 26.3 153.7 C 28.9 153.9 25.3 170.3 18.1 165.6 Z M 18.1 165.6 " fill="#F1F1F1"></path></g></g><g><clipPath id="clip0x6080012ac060"><path d="M 12.6 153.1 L 34.8 153.1 L 34.8 184.6 L 12.6 184.6 Z M 12.6 153.1 "></path></clipPath><g clip-path="url(#clip0x6080012ac060)"><path d="M 14.4 180.4 C 18.5 186.1 29.2 183.8 29.1 176.4 C 29.0 169.1 33.6 173.8 32.1 170.1 C 30.5 166.4 35.3 166.9 33.3 163.8 C 31.3 160.8 36.2 160.1 31.5 156.6 C 26.8 153.1 24.1 154.2 24.1 154.2 C 24.1 154.2 25.6 174.7 17.1 172.3 C 14.5 171.6 12.4 177.7 14.4 180.4 Z M 14.4 180.4 " fill="#F1F1F1"></path></g></g><g><clipPath id="clip0x6080012abe20"><path d="M 0.5 42.6 L 43.6 42.6 L 43.6 184.6 L 0.5 184.6 Z M 0.5 42.6 "></path></clipPath><g clip-path="url(#clip0x6080012abe20)"><path d="M 20.0 183.6 C 22.9 183.6 25.5 182.2 26.8 179.0 C 28.1 175.9 28.3 172.3 27.9 170.5 C 27.5 169.0 28.9 164.4 29.6 162.9 C 30.3 161.0 31.6 158.3 31.6 158.3 C 31.6 158.3 32.9 156.4 32.9 153.7 C 32.9 151.0 32.8 147.1 33.7 142.1 C 34.7 137.1 34.6 136.1 33.7 133.6 C 32.9 131.1 30.1 126.4 30.1 126.4 C 30.1 126.4 32.8 125.1 31.8 123.9 C 30.8 122.7 29.9 122.2 29.9 122.2 C 29.9 122.2 32.9 118.0 31.4 113.5 C 29.8 109.0 29.6 105.6 29.7 101.5 C 29.9 97.3 29.9 94.0 29.9 94.0 L 28.2 93.0 C 28.2 93.0 28.2 89.6 29.9 87.1 C 31.6 84.7 34.4 80.7 34.9 74.3 C 35.4 67.9 36.8 62.4 38.7 60.8 C 40.6 59.3 42.6 59.5 42.6 56.8 C 42.6 54.2 42.1 51.2 42.1 49.9 C 42.1 48.6 42.1 47.0 42.1 47.0 L 41.3 47.0 C 41.3 47.0 41.5 48.1 41.3 49.8 C 41.1 51.5 40.6 53.8 39.4 53.1 C 38.3 52.4 36.6 49.2 35.8 47.7 C 35.0 46.1 33.4 44.7 30.2 45.6 C 26.9 46.5 25.8 48.7 27.5 49.2 C 29.3 49.7 31.4 48.9 31.8 50.7 C 32.2 52.5 32.9 57.1 32.2 59.6 C 31.5 62.0 29.0 69.5 27.9 72.4 C 26.9 75.2 25.5 78.5 25.5 78.5 C 25.5 78.5 25.6 74.1 24.7 72.0 C 23.8 69.8 20.7 61.7 20.1 60.0 C 19.5 58.2 20.6 57.1 21.5 56.2 C 22.4 55.3 21.9 53.1 21.2 51.4 C 20.5 49.7 20.2 47.6 20.2 46.6 C 20.2 45.7 20.2 44.0 20.2 44.0 L 18.9 44.0 C 18.9 44.0 19.3 45.9 19.3 47.7 C 19.3 49.4 19.6 50.6 19.0 50.9 C 18.4 51.2 15.6 48.8 14.5 47.0 C 13.4 45.3 13.2 42.9 9.6 43.8 C 6.0 44.7 3.5 46.6 4.5 47.8 C 5.4 48.9 7.2 48.0 8.3 48.6 C 9.4 49.2 11.5 54.5 12.8 57.7 C 14.1 61.0 15.6 67.6 16.0 71.6 C 16.5 75.5 17.1 78.5 17.2 79.8 C 17.3 81.1 17.3 83.6 17.3 83.6 C 17.3 83.6 16.0 88.1 15.6 90.0 C 15.2 91.9 15.2 93.3 15.2 93.3 C 15.2 93.3 13.1 92.9 13.1 94.2 C 13.1 95.6 13.8 101.1 13.6 103.7 C 13.4 106.3 12.5 106.1 12.5 106.1 C 12.5 106.1 12.3 104.7 12.3 103.6 C 12.3 102.5 11.5 102.8 11.2 103.6 C 10.9 104.4 9.8 103.6 9.8 104.4 C 9.8 105.2 9.3 106.9 9.5 108.3 C 9.7 109.6 10.6 112.0 10.6 112.0 L 1.5 112.0 L 2.7 131.0 L 11.2 131.0 C 11.2 131.0 11.6 136.4 11.6 139.2 C 11.6 142.0 11.3 145.6 13.2 148.8 C 15.1 151.9 17.5 154.4 19.1 156.4 C 20.7 158.4 20.9 158.6 20.4 160.3 C 20.0 162.1 20.0 164.4 18.9 164.2 C 17.8 164.1 16.8 164.2 16.2 165.7 C 15.7 167.1 14.3 169.8 14.2 171.7 C 14.1 173.6 14.5 173.9 14.3 174.5 C 14.0 175.1 14.4 176.9 14.4 178.4 C 14.5 180.0 16.4 183.6 20.0 183.6 Z M 20.0 183.6 " fill="#F1F1F1"></path></g></g><g><clipPath id="clip0x6080012abbe0"><path d="M 19.5 157.8 L 30.1 157.8 L 30.1 166.8 L 19.5 166.8 Z M 19.5 157.8 "></path></clipPath><g clip-path="url(#clip0x6080012abbe0)"><path d="M 28.6 165.8 C 28.8 165.3 28.9 164.8 29.1 164.4 C 24.7 164.6 22.3 161.3 20.5 158.8 C 21.2 159.9 21.1 161.6 21.1 162.4 C 22.1 163.5 23.7 164.6 25.1 165.1 C 26.3 165.6 27.7 165.8 28.6 165.8 Z M 28.6 165.8 " fill="#FEFFFE"></path></g></g><g><clipPath id="clip0x6080012ab9a0"><path d="M 31.6 19.8 L 81.0 19.8 L 81.0 170.6 L 31.6 170.6 Z M 31.6 19.8 "></path></clipPath><g clip-path="url(#clip0x6080012ab9a0)"><path d="M 54.7 169.6 C 57.3 169.6 60.3 167.7 60.6 165.0 C 61.0 162.3 60.8 158.5 60.8 158.5 C 60.8 158.5 61.7 156.7 61.0 155.2 C 60.3 153.8 58.6 154.1 58.6 154.1 C 58.6 154.1 58.1 151.8 58.1 150.5 C 58.1 149.3 58.2 148.5 59.2 147.6 C 60.2 146.8 63.9 145.3 66.8 144.4 C 67.1 144.3 67.7 144.2 68.0 144.1 L 68.0 92.1 C 67.9 92.1 67.6 92.1 67.6 92.1 C 66.7 92.1 66.4 92.0 66.4 92.0 C 66.4 92.0 66.7 90.7 66.7 89.5 C 66.7 88.3 66.6 87.0 66.6 87.0 L 68.0 87.0 L 68.0 58.8 C 67.9 58.8 67.6 58.8 67.5 58.8 C 66.1 58.8 65.5 58.7 65.5 58.7 C 65.5 58.7 65.8 51.7 65.8 49.0 C 65.8 46.3 65.6 41.9 64.4 39.9 C 63.2 37.9 63.0 37.2 63.0 35.5 C 63.0 33.7 65.6 28.9 65.5 27.3 C 65.4 25.7 65.0 23.2 62.4 23.3 C 59.7 23.4 57.7 24.4 57.7 26.6 C 57.7 28.8 58.0 30.1 57.1 31.0 C 56.2 31.8 57.6 33.7 56.1 35.8 C 54.5 37.9 56.2 38.1 55.8 40.1 C 55.4 42.0 56.1 47.9 56.3 50.2 C 56.5 52.6 56.1 55.3 54.9 65.3 C 53.7 75.3 52.9 79.6 52.6 81.8 C 52.3 84.0 51.7 86.7 51.7 86.7 C 51.7 86.7 50.2 77.4 48.9 75.0 C 47.6 72.7 46.2 61.1 45.8 57.7 C 45.4 54.3 45.7 44.3 44.9 43.3 C 44.1 42.2 43.7 40.8 43.7 40.8 C 43.7 40.8 45.8 39.6 45.8 37.9 C 45.8 36.2 44.2 34.8 44.3 32.6 C 44.4 30.5 44.1 28.6 43.3 28.1 C 42.4 27.6 42.5 23.9 41.4 22.7 C 40.3 21.4 38.4 20.3 36.2 21.0 C 33.9 21.6 33.9 24.6 35.0 27.4 C 36.2 30.2 37.5 32.2 37.1 33.3 C 36.7 34.4 36.3 36.1 37.5 37.2 C 38.6 38.4 37.4 39.6 36.6 40.5 C 35.9 41.5 36.1 46.0 36.0 48.4 C 35.9 50.9 36.2 62.9 36.1 67.4 C 35.9 71.8 35.5 85.1 36.2 88.8 C 36.8 92.5 36.2 95.3 36.2 95.3 C 36.2 95.3 34.8 94.5 34.8 95.9 C 34.8 97.3 35.4 97.5 34.7 99.9 C 34.1 102.4 33.9 104.6 33.2 106.5 C 32.5 108.3 32.3 111.5 33.2 112.4 C 34.1 113.4 32.8 118.7 33.6 122.7 C 34.4 126.8 35.0 133.2 35.0 136.7 C 35.1 140.2 35.3 142.7 39.8 143.8 C 44.3 144.9 47.6 146.2 48.3 147.2 C 48.9 148.1 49.1 150.6 49.0 151.8 C 48.8 152.9 48.7 153.8 48.7 154.4 C 48.7 155.1 47.4 154.1 47.1 155.3 C 46.8 156.5 46.6 159.1 46.8 159.3 C 47.1 159.6 47.3 159.5 47.5 159.5 C 47.5 159.9 47.3 162.3 47.5 165.0 C 47.7 167.4 50.2 169.5 54.7 169.6 Z M 67.7 144.1 C 70.2 143.4 72.0 142.7 72.0 139.5 C 72.1 135.9 72.5 128.8 73.0 124.0 C 73.5 119.3 74.9 109.1 75.0 105.9 C 75.1 102.7 75.4 95.9 75.3 95.1 C 75.2 94.4 74.6 94.5 74.9 93.2 C 75.2 91.9 75.2 90.8 74.5 89.9 C 73.8 89.1 74.1 88.0 74.1 88.0 L 80.0 88.0 L 80.0 64.8 L 70.3 57.7 C 70.3 57.7 69.3 58.6 68.0 58.8 L 68.0 87.0 L 68.8 87.0 C 68.8 87.0 68.6 89.0 68.9 90.2 C 69.2 91.3 69.1 92.2 68.9 93.5 C 68.9 93.5 68.5 92.3 67.7 92.1 C 67.7 92.1 67.7 144.1 67.7 144.1 Z M 67.7 144.1 " fill="#F1F1F1"></path></g></g><g><clipPath id="clip0x6080012ab760"><path d="M 34.1 96.6 L 40.6 96.6 L 40.6 102.8 L 34.1 102.8 Z M 34.1 96.6 "></path></clipPath><g clip-path="url(#clip0x6080012ab760)"><path d="M 35.6 97.6 C 35.6 97.6 34.4 99.5 35.6 101.0 C 36.8 102.6 39.6 101.4 39.6 101.4 C 39.6 101.4 37.7 101.4 36.6 100.6 C 35.5 99.7 35.9 99.1 35.6 97.6 Z M 35.6 97.6 " fill="#FEFFFE"></path></g></g><g><clipPath id="clip0x6080012ab520"><path d="M 68.3 93.0 L 76.3 93.0 L 76.3 97.1 L 68.3 97.1 Z M 68.3 93.0 "></path></clipPath><g clip-path="url(#clip0x6080012ab520)"><path d="M 69.3 94.1 C 69.3 94.1 69.3 96.1 72.1 96.1 C 74.8 96.1 75.3 94.0 75.3 94.0 C 75.3 94.0 73.8 95.1 72.0 95.1 C 70.2 95.0 70.1 95.0 69.3 94.1 Z M 69.3 94.1 " fill="#FEFFFE"></path></g></g><g><clipPath id="clip0x6080012ab2e0"><path d="M 42.3 106.6 L 60.3 106.6 L 60.3 150.4 L 42.3 150.4 Z M 42.3 106.6 "></path></clipPath><g clip-path="url(#clip0x6080012ab2e0)"><path d="M 58.7 149.4 C 58.8 149.0 59.0 148.6 59.3 148.2 C 58.7 145.3 57.5 136.4 57.0 129.8 C 56.5 122.3 57.8 107.8 57.8 107.8 C 57.8 107.8 56.8 107.6 53.4 107.6 C 50.0 107.6 43.3 109.7 43.3 109.7 C 43.3 109.7 44.4 111.7 45.4 114.4 C 46.3 117.0 47.9 128.6 48.4 138.3 C 48.6 143.2 48.6 145.7 48.4 147.1 C 48.5 147.2 48.6 147.3 48.7 147.4 C 48.9 147.8 49.1 148.3 49.2 148.8 C 50.2 146.7 52.7 144.7 54.3 144.7 C 55.7 144.7 57.8 147.7 58.7 149.4 Z M 58.7 149.4 " fill="#FEFFFE"></path></g></g><g><clipPath id="clip0x6080012ab0a0"><path d="M 49.3 103.4 L 57.8 103.4 L 57.8 145.3 L 49.3 145.3 Z M 49.3 103.4 "></path></clipPath><g clip-path="url(#clip0x6080012ab0a0)"><path d="M 50.3 142.5 C 50.3 142.5 51.5 144.3 53.5 144.3 C 55.5 144.3 56.8 142.5 56.8 142.5 C 56.8 142.5 54.6 142.9 54.7 141.4 C 54.8 140.0 55.5 132.3 55.5 127.2 C 55.5 122.2 55.9 109.1 55.4 106.6 C 54.8 104.1 53.1 103.2 52.7 106.4 C 52.3 109.6 52.4 126.9 52.5 130.2 C 52.6 133.5 53.2 140.4 52.8 141.4 C 52.4 142.3 51.4 143.0 50.3 142.5 Z M 50.3 142.5 " fill="#F1F1F1"></path></g></g></g></svg>