<?xml version="1.0" encoding="UTF-8" standalone="no"?><svg xmlns="http://www.w3.org/2000/svg" xmlns:xlink="http://www.w3.org/1999/xlink" clip-rule="evenodd" stroke-miterlimit="10" viewBox="0 0 189 35"><desc>SVG generated by Keynote</desc><defs></defs><g transform="matrix(1.00, 0.00, -0.00, -1.00, 0.0, 35.0)"><text xml:space="preserve" font-family="Aller-Light,Aller Light" font-size="10.0" fill="#52575F" transform="matrix(1.00, 0.00, -0.00, -1.00, 2.0, 26.2)">G</text><text xml:space="preserve" font-family="Aller-Light,Aller Light" font-size="10.0" fill="#52575F" transform="matrix(1.00, 0.00, -0.00, -1.00, 8.9, 26.2)">r</text><text xml:space="preserve" font-family="Aller-Light,Aller Light" font-size="10.0" fill="#52575F" transform="matrix(1.00, 0.00, -0.00, -1.00, 12.3, 26.2)">a</text><text xml:space="preserve" font-family="Aller-Light,Aller Light" font-size="10.0" fill="#52575F" transform="matrix(1.00, 0.00, -0.00, -1.00, 17.5, 26.2)">c</text><text xml:space="preserve" font-family="Aller-Light,Aller Light" font-size="10.0" fill="#52575F" transform="matrix(1.00, 0.00, -0.00, -1.00, 22.3, 26.2)">i</text><text xml:space="preserve" font-family="Aller-Light,Aller Light" font-size="10.0" fill="#52575F" transform="matrix(1.00, 0.00, -0.00, -1.00, 25.0, 26.2)">a</text><text xml:space="preserve" font-family="Aller-Light,Aller Light" font-size="10.0" fill="#52575F" transform="matrix(1.00, 0.00, -0.00, -1.00, 30.1, 26.2)">s</text><text xml:space="preserve" font-family="Aller-Light,Aller Light" font-size="10.0" fill="#52575F" transform="matrix(1.00, 0.00, -0.00, -1.00, 34.7, 26.2)"> </text><text xml:space="preserve" font-family="Aller-Light,Aller Light" font-size="10.0" fill="#52575F" transform="matrix(1.00, 0.00, -0.00, -1.00, 37.2, 26.2)">a</text><text xml:space="preserve" font-family="Aller-Light,Aller Light" font-size="10.0" fill="#52575F" transform="matrix(1.00, 0.00, -0.00, -1.00, 42.3, 26.2)"> </text><text xml:space="preserve" font-family="Aller-Light,Aller Light" font-size="10.0" fill="#52575F" transform="matrix(1.00, 0.00, -0.00, -1.00, 44.8, 26.2)">l</text><text xml:space="preserve" font-family="Aller-Light,Aller Light" font-size="10.0" fill="#52575F" transform="matrix(1.00, 0.00, -0.00, -1.00, 47.6, 26.2)">o</text><text xml:space="preserve" font-family="Aller-Light,Aller Light" font-size="10.0" fill="#52575F" transform="matrix(1.00, 0.00, -0.00, -1.00, 53.3, 26.2)">s</text><text xml:space="preserve" font-family="Aller-Light,Aller Light" font-size="10.0" fill="#52575F" transform="matrix(1.00, 0.00, -0.00, -1.00, 57.8, 26.2)"> </text><text xml:space="preserve" font-family="Aller-Light,Aller Light" font-size="10.0" fill="#52575F" transform="matrix(1.00, 0.00, -0.00, -1.00, 60.3, 26.2)">d</text><text xml:space="preserve" font-family="Aller-Light,Aller Light" font-size="10.0" fill="#52575F" transform="matrix(1.00, 0.00, -0.00, -1.00, 66.2, 26.2)">a</text><text xml:space="preserve" font-family="Aller-Light,Aller Light" font-size="10.0" fill="#52575F" transform="matrix(1.00, 0.00, -0.00, -1.00, 71.3, 26.2)">t</text><text xml:space="preserve" font-family="Aller-Light,Aller Light" font-size="10.0" fill="#52575F" transform="matrix(1.00, 0.00, -0.00, -1.00, 74.7, 26.2)">o</text><text xml:space="preserve" font-family="Aller-Light,Aller Light" font-size="10.0" fill="#52575F" transform="matrix(1.00, 0.00, -0.00, -1.00, 80.4, 26.2)">s</text><text xml:space="preserve" font-family="Aller-Light,Aller Light" font-size="10.0" fill="#52575F" transform="matrix(1.00, 0.00, -0.00, -1.00, 85.0, 26.2)"> </text><text xml:space="preserve" font-family="Aller-Light,Aller Light" font-size="10.0" fill="#52575F" transform="matrix(1.00, 0.00, -0.00, -1.00, 87.5, 26.2)">r</text><text xml:space="preserve" font-family="Aller-Light,Aller Light" font-size="10.0" fill="#52575F" transform="matrix(1.00, 0.00, -0.00, -1.00, 90.8, 26.2)">e</text><text xml:space="preserve" font-family="Aller-Light,Aller Light" font-size="10.0" fill="#52575F" transform="matrix(1.00, 0.00, -0.00, -1.00, 96.3, 26.2)">c</text><text xml:space="preserve" font-family="Aller-Light,Aller Light" font-size="10.0" fill="#52575F" transform="matrix(1.00, 0.00, -0.00, -1.00, 101.0, 26.2)">o</text><text xml:space="preserve" font-family="Aller-Light,Aller Light" font-size="10.0" fill="#52575F" transform="matrix(1.00, 0.00, -0.00, -1.00, 106.6, 26.2)">g</text><text xml:space="preserve" font-family="Aller-Light,Aller Light" font-size="10.0" fill="#52575F" transform="matrix(1.00, 0.00, -0.00, -1.00, 112.0, 26.2)">i</text><text xml:space="preserve" font-family="Aller-Light,Aller Light" font-size="10.0" fill="#52575F" transform="matrix(1.00, 0.00, -0.00, -1.00, 114.7, 26.2)">d</text><text xml:space="preserve" font-family="Aller-Light,Aller Light" font-size="10.0" fill="#52575F" transform="matrix(1.00, 0.00, -0.00, -1.00, 120.6, 26.2)">o</text><text xml:space="preserve" font-family="Aller-Light,Aller Light" font-size="10.0" fill="#52575F" transform="matrix(1.00, 0.00, -0.00, -1.00, 126.3, 26.2)">s</text><text xml:space="preserve" font-family="Aller-Light,Aller Light" font-size="10.0" fill="#52575F" transform="matrix(1.00, 0.00, -0.00, -1.00, 130.8, 26.2)"> </text><text xml:space="preserve" font-family="Aller-Light,Aller Light" font-size="10.0" fill="#52575F" transform="matrix(1.00, 0.00, -0.00, -1.00, 133.3, 26.2)">p</text><text xml:space="preserve" font-family="Aller-Light,Aller Light" font-size="10.0" fill="#52575F" transform="matrix(1.00, 0.00, -0.00, -1.00, 139.2, 26.2)">o</text><text xml:space="preserve" font-family="Aller-Light,Aller Light" font-size="10.0" fill="#52575F" transform="matrix(1.00, 0.00, -0.00, -1.00, 145.0, 26.2)">r</text><text xml:space="preserve" font-family="Aller-Light,Aller Light" font-size="10.0" fill="#52575F" transform="matrix(1.00, 0.00, -0.00, -1.00, 148.5, 26.2)"> </text><text xml:space="preserve" font-family="Aller-Light,Aller Light" font-size="10.0" fill="#52575F" transform="matrix(1.00, 0.00, -0.00, -1.00, 151.0, 26.2)"> </text><text xml:space="preserve" font-family="Aller-Light,Aller Light" font-size="10.0" fill="#52575F" transform="matrix(1.00, 0.00, -0.00, -1.00, 153.5, 26.2)">e</text><text xml:space="preserve" font-family="Aller-Light,Aller Light" font-size="10.0" fill="#52575F" transform="matrix(1.00, 0.00, -0.00, -1.00, 159.0, 26.2)">l</text><text xml:space="preserve" font-family="Aller-Light,Aller Light" font-size="10.0" fill="#52575F" transform="matrix(1.00, 0.00, -0.00, -1.00, 161.8, 26.2)">l</text><text xml:space="preserve" font-family="Aller-Light,Aller Light" font-size="10.0" fill="#52575F" transform="matrix(1.00, 0.00, -0.00, -1.00, 164.6, 26.2)">o</text><text xml:space="preserve" font-family="Aller-Light,Aller Light" font-size="10.0" fill="#52575F" transform="matrix(1.00, 0.00, -0.00, -1.00, 170.3, 26.2)">s</text><text xml:space="preserve" font-family="Aller-Light,Aller Light" font-size="10.0" fill="#52575F" transform="matrix(1.00, 0.00, -0.00, -1.00, 174.8, 26.2)"> </text><text xml:space="preserve" font-family="Aller-Light,Aller Light" font-size="10.0" fill="#52575F" transform="matrix(1.00, 0.00, -0.00, -1.00, 177.3, 26.2)">e</text><text xml:space="preserve" font-family="Aller-Light,Aller Light" font-size="10.0" fill="#52575F" transform="matrix(1.00, 0.00, -0.00, -1.00, 182.9, 26.2)">l</text><text xml:space="preserve" font-family="Aller-Light,Aller Light" font-size="10.0" fill="#52575F" transform="matrix(1.00, 0.00, -0.00, -1.00, 185.7, 26.2)"> </text><text xml:space="preserve" font-family="Aller-Light,Aller Light" font-size="10.0" fill="#52575F" transform="matrix(1.00, 0.00, -0.00, -1.00, 2.0, 14.2)">d</text><text xml:space="preserve" font-family="Aller-Light,Aller Light" font-size="10.0" fill="#52575F" transform="matrix(1.00, 0.00, -0.00, -1.00, 7.9, 14.2)">r</text><text xml:space="preserve" font-family="Aller-Light,Aller Light" font-size="10.0" fill="#52575F" transform="matrix(1.00, 0.00, -0.00, -1.00, 11.2, 14.2)">o</text><text xml:space="preserve" font-family="Aller-Light,Aller Light" font-size="10.0" fill="#52575F" transform="matrix(1.00, 0.00, -0.00, -1.00, 17.0, 14.2)">n</text><text xml:space="preserve" font-family="Aller-Light,Aller Light" font-size="10.0" fill="#52575F" transform="matrix(1.00, 0.00, -0.00, -1.00, 22.7, 14.2)"> </text><text xml:space="preserve" font-family="Aller-Light,Aller Light" font-size="10.0" fill="#52575F" transform="matrix(1.00, 0.00, -0.00, -1.00, 25.2, 14.2)">s</text><text xml:space="preserve" font-family="Aller-Light,Aller Light" font-size="10.0" fill="#52575F" transform="matrix(1.00, 0.00, -0.00, -1.00, 29.7, 14.2)">e</text><text xml:space="preserve" font-family="Aller-Light,Aller Light" font-size="10.0" fill="#52575F" transform="matrix(1.00, 0.00, -0.00, -1.00, 35.3, 14.2)"> </text><text xml:space="preserve" font-family="Aller-Light,Aller Light" font-size="10.0" fill="#52575F" transform="matrix(1.00, 0.00, -0.00, -1.00, 37.8, 14.2)">m</text><text xml:space="preserve" font-family="Aller-Light,Aller Light" font-size="10.0" fill="#52575F" transform="matrix(1.00, 0.00, -0.00, -1.00, 46.1, 14.2)">a</text><text xml:space="preserve" font-family="Aller-Light,Aller Light" font-size="10.0" fill="#52575F" transform="matrix(1.00, 0.00, -0.00, -1.00, 51.2, 14.2)">n</text><text xml:space="preserve" font-family="Aller-Light,Aller Light" font-size="10.0" fill="#52575F" transform="matrix(1.00, 0.00, -0.00, -1.00, 57.0, 14.2)">t</text><text xml:space="preserve" font-family="Aller-Light,Aller Light" font-size="10.0" fill="#52575F" transform="matrix(1.00, 0.00, -0.00, -1.00, 60.4, 14.2)">e</text><text xml:space="preserve" font-family="Aller-Light,Aller Light" font-size="10.0" fill="#52575F" transform="matrix(1.00, 0.00, -0.00, -1.00, 65.9, 14.2)">n</text><text xml:space="preserve" font-family="Aller-Light,Aller Light" font-size="10.0" fill="#52575F" transform="matrix(1.00, 0.00, -0.00, -1.00, 71.6, 14.2)">d</text><text xml:space="preserve" font-family="Aller-Light,Aller Light" font-size="10.0" fill="#52575F" transform="matrix(1.00, 0.00, -0.00, -1.00, 77.5, 14.2)">r</text><text xml:space="preserve" font-family="Aller-Light,Aller Light" font-size="10.0" fill="#52575F" transform="matrix(1.00, 0.00, -0.00, -1.00, 80.9, 14.2)">รก</text><text xml:space="preserve" font-family="Aller-Light,Aller Light" font-size="10.0" fill="#52575F" transform="matrix(1.00, 0.00, -0.00, -1.00, 86.0, 14.2)"> </text><text xml:space="preserve" font-family="Aller-Light,Aller Light" font-size="10.0" fill="#52575F" transform="matrix(1.00, 0.00, -0.00, -1.00, 88.5, 14.2)">e</text><text xml:space="preserve" font-family="Aller-Light,Aller Light" font-size="10.0" fill="#52575F" transform="matrix(1.00, 0.00, -0.00, -1.00, 94.0, 14.2)">s</text><text xml:space="preserve" font-family="Aller-Light,Aller Light" font-size="10.0" fill="#52575F" transform="matrix(1.00, 0.00, -0.00, -1.00, 98.5, 14.2)">t</text><text xml:space="preserve" font-family="Aller-Light,Aller Light" font-size="10.0" fill="#52575F" transform="matrix(1.00, 0.00, -0.00, -1.00, 101.9, 14.2)">a</text><text xml:space="preserve" font-family="Aller-Light,Aller Light" font-size="10.0" fill="#52575F" transform="matrix(1.00, 0.00, -0.00, -1.00, 107.1, 14.2)">b</text><text xml:space="preserve" font-family="Aller-Light,Aller Light" font-size="10.0" fill="#52575F" transform="matrix(1.00, 0.00, -0.00, -1.00, 113.0, 14.2)">l</text><text xml:space="preserve" font-family="Aller-Light,Aller Light" font-size="10.0" fill="#52575F" transform="matrix(1.00, 0.00, -0.00, -1.00, 115.7, 14.2)">e</text><text xml:space="preserve" font-family="Aller-Light,Aller Light" font-size="10.0" fill="#52575F" transform="matrix(1.00, 0.00, -0.00, -1.00, 121.3, 14.2)"> </text><text xml:space="preserve" font-family="Aller-Light,Aller Light" font-size="10.0" fill="#52575F" transform="matrix(1.00, 0.00, -0.00, -1.00, 123.8, 14.2)">a</text><text xml:space="preserve" font-family="Aller-Light,Aller Light" font-size="10.0" fill="#52575F" transform="matrix(1.00, 0.00, -0.00, -1.00, 128.9, 14.2)">n</text><text xml:space="preserve" font-family="Aller-Light,Aller Light" font-size="10.0" fill="#52575F" transform="matrix(1.00, 0.00, -0.00, -1.00, 134.6, 14.2)">t</text><text xml:space="preserve" font-family="Aller-Light,Aller Light" font-size="10.0" fill="#52575F" transform="matrix(1.00, 0.00, -0.00, -1.00, 138.0, 14.2)">e</text><text xml:space="preserve" font-family="Aller-Light,Aller Light" font-size="10.0" fill="#52575F" transform="matrix(1.00, 0.00, -0.00, -1.00, 143.5, 14.2)"> </text><text xml:space="preserve" font-family="Aller-Light,Aller Light" font-size="10.0" fill="#52575F" transform="matrix(1.00, 0.00, -0.00, -1.00, 146.0, 14.2)">c</text><text xml:space="preserve" font-family="Aller-Light,Aller Light" font-size="10.0" fill="#52575F" transform="matrix(1.00, 0.00, -0.00, -1.00, 150.8, 14.2)">u</text><text xml:space="preserve" font-family="Aller-Light,Aller Light" font-size="10.0" fill="#52575F" transform="matrix(1.00, 0.00, -0.00, -1.00, 156.6, 14.2)">a</text><text xml:space="preserve" font-family="Aller-Light,Aller Light" font-size="10.0" fill="#52575F" transform="matrix(1.00, 0.00, -0.00, -1.00, 161.7, 14.2)">l</text><text xml:space="preserve" font-family="Aller-Light,Aller Light" font-size="10.0" fill="#52575F" transform="matrix(1.00, 0.00, -0.00, -1.00, 164.5, 14.2)">q</text><text xml:space="preserve" font-family="Aller-Light,Aller Light" font-size="10.0" fill="#52575F" transform="matrix(1.00, 0.00, -0.00, -1.00, 170.4, 14.2)">u</text><text xml:space="preserve" font-family="Aller-Light,Aller Light" font-size="10.0" fill="#52575F" transform="matrix(1.00, 0.00, -0.00, -1.00, 176.1, 14.2)">i</text><text xml:space="preserve" font-family="Aller-Light,Aller Light" font-size="10.0" fill="#52575F" transform="matrix(1.00, 0.00, -0.00, -1.00, 178.8, 14.2)">e</text><text xml:space="preserve" font-family="Aller-Light,Aller Light" font-size="10.0" fill="#52575F" transform="matrix(1.00, 0.00, -0.00, -1.00, 184.4, 14.2)">r</text><text xml:space="preserve" font-family="Aller-Light,Aller Light" font-size="10.0" fill="#52575F" transform="matrix(1.00, 0.00, -0.00, -1.00, 187.9, 14.2)"> </text><text xml:space="preserve" font-family="Aller-Light,Aller Light" font-size="10.0" fill="#52575F" transform="matrix(1.00, 0.00, -0.00, -1.00, 2.0, 2.2)">c</text><text xml:space="preserve" font-family="Aller-Light,Aller Light" font-size="10.0" fill="#52575F" transform="matrix(1.00, 0.00, -0.00, -1.00, 6.8, 2.2)">a</text><text xml:space="preserve" font-family="Aller-Light,Aller Light" font-size="10.0" fill="#52575F" transform="matrix(1.00, 0.00, -0.00, -1.00, 12.0, 2.2)">m</text><text xml:space="preserve" font-family="Aller-Light,Aller Light" font-size="10.0" fill="#52575F" transform="matrix(1.00, 0.00, -0.00, -1.00, 20.3, 2.2)">b</text><text xml:space="preserve" font-family="Aller-Light,Aller Light" font-size="10.0" fill="#52575F" transform="matrix(1.00, 0.00, -0.00, -1.00, 26.2, 2.2)">i</text><text xml:space="preserve" font-family="Aller-Light,Aller Light" font-size="10.0" fill="#52575F" transform="matrix(1.00, 0.00, -0.00, -1.00, 29.0, 2.2)">o</text><text xml:space="preserve" font-family="Aller-Light,Aller Light" font-size="10.0" fill="#52575F" transform="matrix(1.00, 0.00, -0.00, -1.00, 34.7, 2.2)"> </text><text xml:space="preserve" font-family="Aller-Light,Aller Light" font-size="10.0" fill="#52575F" transform="matrix(1.00, 0.00, -0.00, -1.00, 37.2, 2.2)">e</text><text xml:space="preserve" font-family="Aller-Light,Aller Light" font-size="10.0" fill="#52575F" transform="matrix(1.00, 0.00, -0.00, -1.00, 42.7, 2.2)">n</text><text xml:space="preserve" font-family="Aller-Light,Aller Light" font-size="10.0" fill="#52575F" transform="matrix(1.00, 0.00, -0.00, -1.00, 48.5, 2.2)"> </text><text xml:space="preserve" font-family="Aller-Light,Aller Light" font-size="10.0" fill="#52575F" transform="matrix(1.00, 0.00, -0.00, -1.00, 51.0, 2.2)">e</text><text xml:space="preserve" font-family="Aller-Light,Aller Light" font-size="10.0" fill="#52575F" transform="matrix(1.00, 0.00, -0.00, -1.00, 56.5, 2.2)">l</text><text xml:space="preserve" font-family="Aller-Light,Aller Light" font-size="10.0" fill="#52575F" transform="matrix(1.00, 0.00, -0.00, -1.00, 59.3, 2.2)"> </text><text xml:space="preserve" font-family="Aller-Light,Aller Light" font-size="10.0" fill="#52575F" transform="matrix(1.00, 0.00, -0.00, -1.00, 61.8, 2.2)">e</text><text xml:space="preserve" font-family="Aller-Light,Aller Light" font-size="10.0" fill="#52575F" transform="matrix(1.00, 0.00, -0.00, -1.00, 67.2, 2.2)">x</text><text xml:space="preserve" font-family="Aller-Light,Aller Light" font-size="10.0" fill="#52575F" transform="matrix(1.00, 0.00, -0.00, -1.00, 72.1, 2.2)">t</text><text xml:space="preserve" font-family="Aller-Light,Aller Light" font-size="10.0" fill="#52575F" transform="matrix(1.00, 0.00, -0.00, -1.00, 75.5, 2.2)">e</text><text xml:space="preserve" font-family="Aller-Light,Aller Light" font-size="10.0" fill="#52575F" transform="matrix(1.00, 0.00, -0.00, -1.00, 81.0, 2.2)">r</text><text xml:space="preserve" font-family="Aller-Light,Aller Light" font-size="10.0" fill="#52575F" transform="matrix(1.00, 0.00, -0.00, -1.00, 84.5, 2.2)">i</text><text xml:space="preserve" font-family="Aller-Light,Aller Light" font-size="10.0" fill="#52575F" transform="matrix(1.00, 0.00, -0.00, -1.00, 87.3, 2.2)">o</text><text xml:space="preserve" font-family="Aller-Light,Aller Light" font-size="10.0" fill="#52575F" transform="matrix(1.00, 0.00, -0.00, -1.00, 93.0, 2.2)">r</text><text xml:space="preserve" font-family="Aller-Light,Aller Light" font-size="10.0" fill="#52575F" transform="matrix(1.00, 0.00, -0.00, -1.00, 95.8, 2.2)">.</text></g></svg>