<?xml version="1.0" encoding="UTF-8" standalone="no"?><svg xmlns="http://www.w3.org/2000/svg" xmlns:xlink="http://www.w3.org/1999/xlink" clip-rule="evenodd" stroke-miterlimit="10" viewBox="0 0 356 98"><desc>SVG generated by Keynote</desc><defs></defs><g transform="matrix(1.00, 0.00, -0.00, -1.00, 0.0, 98.0)"><path d="M 343.7 96.9 L 53.8 78.8 L 30.1 77.3 L 4.6 75.7 L 4.6 75.7 C 3.3 67.8 3.1 64.6 1.9 58.4 L 17.4 59.8 L 30.1 42.4 L 40.0 28.2 L 40.0 15.0 L 39.0 15.0 L 39.0 16.2 C 39.0 16.8 38.5 17.0 37.9 17.0 L 36.9 17.0 C 36.3 17.0 36.0 16.8 36.0 16.2 L 36.0 21.9 C 36.0 23.6 34.4 25.0 32.7 25.0 L 30.1 25.0 L 29.8 25.0 C 28.1 25.0 27.0 23.6 27.0 21.9 L 27.0 4.8 C 27.0 3.0 28.1 2.0 29.8 2.0 L 30.1 2.0 L 32.7 2.0 C 34.4 2.0 36.0 3.0 36.0 4.8 L 36.0 10.4 C 36.0 9.8 36.3 9.0 36.9 9.0 L 37.9 9.0 C 38.5 9.0 39.0 9.8 39.0 10.4 L 39.0 12.0 L 40.4 12.0 L 44.6 12.0 L 46.0 12.0 L 46.0 10.4 C 46.0 9.8 46.5 9.0 47.1 9.0 L 48.1 9.0 C 48.7 9.0 49.0 9.8 49.0 10.4 L 49.0 4.8 C 49.0 3.0 50.6 2.0 52.3 2.0 L 53.8 2.0 L 55.2 2.0 C 56.9 2.0 58.0 3.0 58.0 4.8 L 58.0 21.9 C 58.0 23.6 56.9 25.0 55.2 25.0 L 53.8 25.0 L 52.3 25.0 C 50.6 25.0 49.0 23.6 49.0 21.9 L 49.0 16.2 C 49.0 16.8 48.7 17.0 48.1 17.0 L 47.1 17.0 C 46.5 17.0 46.0 16.8 46.0 16.2 L 46.0 15.0 L 45.0 15.0 L 45.0 22.0 L 49.0 32.8 L 49.0 62.0 L 53.8 63.0 L 85.0 65.5 L 85.0 64.5 C 73.6 62.3 65.5 52.2 65.5 40.2 C 65.5 37.4 65.9 34.7 66.8 32.2 C 67.8 20.1 77.9 10.7 90.3 10.7 C 102.6 10.7 112.7 20.1 113.7 32.2 C 114.6 34.7 115.1 37.4 115.1 40.2 C 115.1 52.4 106.6 62.5 95.0 64.6 L 95.0 66.4 L 225.0 77.5 L 226.0 77.1 C 218.7 75.7 212.7 69.2 212.7 61.5 C 212.7 59.7 213.0 57.9 213.5 56.3 C 214.2 48.5 220.7 42.4 228.6 42.4 C 236.6 42.4 243.1 48.5 243.8 56.3 C 244.3 57.9 244.6 59.7 244.6 61.5 C 244.6 69.3 238.5 75.9 231.0 77.2 L 232.0 78.1 L 345.9 87.8 C 357.5 88.8 359.1 97.9 343.7 96.9 Z M 343.7 96.9 " fill="#7FC7EA"></path></g></svg>