<?xml version="1.0" encoding="UTF-8" standalone="no"?><svg xmlns="http://www.w3.org/2000/svg" xmlns:xlink="http://www.w3.org/1999/xlink" clip-rule="evenodd" stroke-miterlimit="10" viewBox="0 0 182 49"><desc>SVG generated by Keynote</desc><defs></defs><g transform="matrix(1.00, 0.00, -0.00, -1.00, 0.0, 49.0)"><text xml:space="preserve" font-family="Aller-Light,Aller Light" font-size="10.0" fill="#52575F" transform="matrix(1.00, 0.00, -0.00, -1.00, 1.1, 40.2)">L</text><text xml:space="preserve" font-family="Aller-Light,Aller Light" font-size="10.0" fill="#52575F" transform="matrix(1.00, 0.00, -0.00, -1.00, 6.1, 40.2)">a</text><text xml:space="preserve" font-family="Aller-Light,Aller Light" font-size="10.0" fill="#52575F" transform="matrix(1.00, 0.00, -0.00, -1.00, 11.2, 40.2)">s</text><text xml:space="preserve" font-family="Aller-Light,Aller Light" font-size="10.0" fill="#52575F" transform="matrix(1.00, 0.00, -0.00, -1.00, 15.7, 40.2)"> </text><text xml:space="preserve" font-family="Aller-Light,Aller Light" font-size="10.0" fill="#52575F" transform="matrix(1.00, 0.00, -0.00, -1.00, 18.2, 40.2)">c</text><text xml:space="preserve" font-family="Aller-Light,Aller Light" font-size="10.0" fill="#52575F" transform="matrix(1.00, 0.00, -0.00, -1.00, 22.9, 40.2)">o</text><text xml:space="preserve" font-family="Aller-Light,Aller Light" font-size="10.0" fill="#52575F" transform="matrix(1.00, 0.00, -0.00, -1.00, 28.6, 40.2)">m</text><text xml:space="preserve" font-family="Aller-Light,Aller Light" font-size="10.0" fill="#52575F" transform="matrix(1.00, 0.00, -0.00, -1.00, 37.0, 40.2)">u</text><text xml:space="preserve" font-family="Aller-Light,Aller Light" font-size="10.0" fill="#52575F" transform="matrix(1.00, 0.00, -0.00, -1.00, 42.7, 40.2)">n</text><text xml:space="preserve" font-family="Aller-Light,Aller Light" font-size="10.0" fill="#52575F" transform="matrix(1.00, 0.00, -0.00, -1.00, 48.4, 40.2)">i</text><text xml:space="preserve" font-family="Aller-Light,Aller Light" font-size="10.0" fill="#52575F" transform="matrix(1.00, 0.00, -0.00, -1.00, 51.2, 40.2)">c</text><text xml:space="preserve" font-family="Aller-Light,Aller Light" font-size="10.0" fill="#52575F" transform="matrix(1.00, 0.00, -0.00, -1.00, 56.0, 40.2)">a</text><text xml:space="preserve" font-family="Aller-Light,Aller Light" font-size="10.0" fill="#52575F" transform="matrix(1.00, 0.00, -0.00, -1.00, 61.1, 40.2)">c</text><text xml:space="preserve" font-family="Aller-Light,Aller Light" font-size="10.0" fill="#52575F" transform="matrix(1.00, 0.00, -0.00, -1.00, 65.9, 40.2)">i</text><text xml:space="preserve" font-family="Aller-Light,Aller Light" font-size="10.0" fill="#52575F" transform="matrix(1.00, 0.00, -0.00, -1.00, 68.6, 40.2)">o</text><text xml:space="preserve" font-family="Aller-Light,Aller Light" font-size="10.0" fill="#52575F" transform="matrix(1.00, 0.00, -0.00, -1.00, 74.4, 40.2)">n</text><text xml:space="preserve" font-family="Aller-Light,Aller Light" font-size="10.0" fill="#52575F" transform="matrix(1.00, 0.00, -0.00, -1.00, 80.1, 40.2)">e</text><text xml:space="preserve" font-family="Aller-Light,Aller Light" font-size="10.0" fill="#52575F" transform="matrix(1.00, 0.00, -0.00, -1.00, 85.6, 40.2)">s</text><text xml:space="preserve" font-family="Aller-Light,Aller Light" font-size="10.0" fill="#52575F" transform="matrix(1.00, 0.00, -0.00, -1.00, 90.1, 40.2)"> </text><text xml:space="preserve" font-family="Aller-Light,Aller Light" font-size="10.0" fill="#52575F" transform="matrix(1.00, 0.00, -0.00, -1.00, 92.6, 40.2)">s</text><text xml:space="preserve" font-family="Aller-Light,Aller Light" font-size="10.0" fill="#52575F" transform="matrix(1.00, 0.00, -0.00, -1.00, 97.2, 40.2)">o</text><text xml:space="preserve" font-family="Aller-Light,Aller Light" font-size="10.0" fill="#52575F" transform="matrix(1.00, 0.00, -0.00, -1.00, 102.9, 40.2)">n</text><text xml:space="preserve" font-family="Aller-Light,Aller Light" font-size="10.0" fill="#52575F" transform="matrix(1.00, 0.00, -0.00, -1.00, 108.6, 40.2)"> </text><text xml:space="preserve" font-family="Aller-Light,Aller Light" font-size="10.0" fill="#52575F" transform="matrix(1.00, 0.00, -0.00, -1.00, 111.1, 40.2)">n</text><text xml:space="preserve" font-family="Aller-Light,Aller Light" font-size="10.0" fill="#52575F" transform="matrix(1.00, 0.00, -0.00, -1.00, 116.8, 40.2)">e</text><text xml:space="preserve" font-family="Aller-Light,Aller Light" font-size="10.0" fill="#52575F" transform="matrix(1.00, 0.00, -0.00, -1.00, 122.4, 40.2)">c</text><text xml:space="preserve" font-family="Aller-Light,Aller Light" font-size="10.0" fill="#52575F" transform="matrix(1.00, 0.00, -0.00, -1.00, 127.0, 40.2)">e</text><text xml:space="preserve" font-family="Aller-Light,Aller Light" font-size="10.0" fill="#52575F" transform="matrix(1.00, 0.00, -0.00, -1.00, 132.6, 40.2)">s</text><text xml:space="preserve" font-family="Aller-Light,Aller Light" font-size="10.0" fill="#52575F" transform="matrix(1.00, 0.00, -0.00, -1.00, 137.1, 40.2)">a</text><text xml:space="preserve" font-family="Aller-Light,Aller Light" font-size="10.0" fill="#52575F" transform="matrix(1.00, 0.00, -0.00, -1.00, 142.2, 40.2)">r</text><text xml:space="preserve" font-family="Aller-Light,Aller Light" font-size="10.0" fill="#52575F" transform="matrix(1.00, 0.00, -0.00, -1.00, 145.7, 40.2)">i</text><text xml:space="preserve" font-family="Aller-Light,Aller Light" font-size="10.0" fill="#52575F" transform="matrix(1.00, 0.00, -0.00, -1.00, 148.4, 40.2)">a</text><text xml:space="preserve" font-family="Aller-Light,Aller Light" font-size="10.0" fill="#52575F" transform="matrix(1.00, 0.00, -0.00, -1.00, 153.6, 40.2)">s</text><text xml:space="preserve" font-family="Aller-Light,Aller Light" font-size="10.0" fill="#52575F" transform="matrix(1.00, 0.00, -0.00, -1.00, 158.1, 40.2)"> </text><text xml:space="preserve" font-family="Aller-Light,Aller Light" font-size="10.0" fill="#52575F" transform="matrix(1.00, 0.00, -0.00, -1.00, 160.6, 40.2)">p</text><text xml:space="preserve" font-family="Aller-Light,Aller Light" font-size="10.0" fill="#52575F" transform="matrix(1.00, 0.00, -0.00, -1.00, 166.5, 40.2)">a</text><text xml:space="preserve" font-family="Aller-Light,Aller Light" font-size="10.0" fill="#52575F" transform="matrix(1.00, 0.00, -0.00, -1.00, 171.6, 40.2)">r</text><text xml:space="preserve" font-family="Aller-Light,Aller Light" font-size="10.0" fill="#52575F" transform="matrix(1.00, 0.00, -0.00, -1.00, 175.0, 40.2)">a</text><text xml:space="preserve" font-family="Aller-Light,Aller Light" font-size="10.0" fill="#52575F" transform="matrix(1.00, 0.00, -0.00, -1.00, 180.1, 40.2)"> </text><text xml:space="preserve" font-family="Aller-Light,Aller Light" font-size="10.0" fill="#52575F" transform="matrix(1.00, 0.00, -0.00, -1.00, 1.4, 28.2)">l</text><text xml:space="preserve" font-family="Aller-Light,Aller Light" font-size="10.0" fill="#52575F" transform="matrix(1.00, 0.00, -0.00, -1.00, 4.2, 28.2)">a</text><text xml:space="preserve" font-family="Aller-Light,Aller Light" font-size="10.0" fill="#52575F" transform="matrix(1.00, 0.00, -0.00, -1.00, 9.3, 28.2)"> </text><text xml:space="preserve" font-family="Aller-Light,Aller Light" font-size="10.0" fill="#52575F" transform="matrix(1.00, 0.00, -0.00, -1.00, 11.8, 28.2)">t</text><text xml:space="preserve" font-family="Aller-Light,Aller Light" font-size="10.0" fill="#52575F" transform="matrix(1.00, 0.00, -0.00, -1.00, 15.2, 28.2)">r</text><text xml:space="preserve" font-family="Aller-Light,Aller Light" font-size="10.0" fill="#52575F" transform="matrix(1.00, 0.00, -0.00, -1.00, 18.6, 28.2)">a</text><text xml:space="preserve" font-family="Aller-Light,Aller Light" font-size="10.0" fill="#52575F" transform="matrix(1.00, 0.00, -0.00, -1.00, 23.8, 28.2)">n</text><text xml:space="preserve" font-family="Aller-Light,Aller Light" font-size="10.0" fill="#52575F" transform="matrix(1.00, 0.00, -0.00, -1.00, 29.5, 28.2)">s</text><text xml:space="preserve" font-family="Aller-Light,Aller Light" font-size="10.0" fill="#52575F" transform="matrix(1.00, 0.00, -0.00, -1.00, 34.0, 28.2)">f</text><text xml:space="preserve" font-family="Aller-Light,Aller Light" font-size="10.0" fill="#52575F" transform="matrix(1.00, 0.00, -0.00, -1.00, 37.3, 28.2)">e</text><text xml:space="preserve" font-family="Aller-Light,Aller Light" font-size="10.0" fill="#52575F" transform="matrix(1.00, 0.00, -0.00, -1.00, 42.8, 28.2)">r</text><text xml:space="preserve" font-family="Aller-Light,Aller Light" font-size="10.0" fill="#52575F" transform="matrix(1.00, 0.00, -0.00, -1.00, 46.2, 28.2)">e</text><text xml:space="preserve" font-family="Aller-Light,Aller Light" font-size="10.0" fill="#52575F" transform="matrix(1.00, 0.00, -0.00, -1.00, 51.7, 28.2)">n</text><text xml:space="preserve" font-family="Aller-Light,Aller Light" font-size="10.0" fill="#52575F" transform="matrix(1.00, 0.00, -0.00, -1.00, 57.4, 28.2)">c</text><text xml:space="preserve" font-family="Aller-Light,Aller Light" font-size="10.0" fill="#52575F" transform="matrix(1.00, 0.00, -0.00, -1.00, 62.2, 28.2)">i</text><text xml:space="preserve" font-family="Aller-Light,Aller Light" font-size="10.0" fill="#52575F" transform="matrix(1.00, 0.00, -0.00, -1.00, 65.0, 28.2)">a</text><text xml:space="preserve" font-family="Aller-Light,Aller Light" font-size="10.0" fill="#52575F" transform="matrix(1.00, 0.00, -0.00, -1.00, 70.1, 28.2)"> </text><text xml:space="preserve" font-family="Aller-Light,Aller Light" font-size="10.0" fill="#52575F" transform="matrix(1.00, 0.00, -0.00, -1.00, 72.6, 28.2)">d</text><text xml:space="preserve" font-family="Aller-Light,Aller Light" font-size="10.0" fill="#52575F" transform="matrix(1.00, 0.00, -0.00, -1.00, 78.4, 28.2)">e</text><text xml:space="preserve" font-family="Aller-Light,Aller Light" font-size="10.0" fill="#52575F" transform="matrix(1.00, 0.00, -0.00, -1.00, 84.0, 28.2)"> </text><text xml:space="preserve" font-family="Aller-Light,Aller Light" font-size="10.0" fill="#52575F" transform="matrix(1.00, 0.00, -0.00, -1.00, 86.5, 28.2)">i</text><text xml:space="preserve" font-family="Aller-Light,Aller Light" font-size="10.0" fill="#52575F" transform="matrix(1.00, 0.00, -0.00, -1.00, 89.2, 28.2)">n</text><text xml:space="preserve" font-family="Aller-Light,Aller Light" font-size="10.0" fill="#52575F" transform="matrix(1.00, 0.00, -0.00, -1.00, 94.9, 28.2)">f</text><text xml:space="preserve" font-family="Aller-Light,Aller Light" font-size="10.0" fill="#52575F" transform="matrix(1.00, 0.00, -0.00, -1.00, 98.2, 28.2)">o</text><text xml:space="preserve" font-family="Aller-Light,Aller Light" font-size="10.0" fill="#52575F" transform="matrix(1.00, 0.00, -0.00, -1.00, 104.0, 28.2)">r</text><text xml:space="preserve" font-family="Aller-Light,Aller Light" font-size="10.0" fill="#52575F" transform="matrix(1.00, 0.00, -0.00, -1.00, 107.5, 28.2)">m</text><text xml:space="preserve" font-family="Aller-Light,Aller Light" font-size="10.0" fill="#52575F" transform="matrix(1.00, 0.00, -0.00, -1.00, 115.8, 28.2)">a</text><text xml:space="preserve" font-family="Aller-Light,Aller Light" font-size="10.0" fill="#52575F" transform="matrix(1.00, 0.00, -0.00, -1.00, 120.9, 28.2)">c</text><text xml:space="preserve" font-family="Aller-Light,Aller Light" font-size="10.0" fill="#52575F" transform="matrix(1.00, 0.00, -0.00, -1.00, 125.7, 28.2)">i</text><text xml:space="preserve" font-family="Aller-Light,Aller Light" font-size="10.0" fill="#52575F" transform="matrix(1.00, 0.00, -0.00, -1.00, 128.5, 28.2)">รณ</text><text xml:space="preserve" font-family="Aller-Light,Aller Light" font-size="10.0" fill="#52575F" transform="matrix(1.00, 0.00, -0.00, -1.00, 134.2, 28.2)">n</text><text xml:space="preserve" font-family="Aller-Light,Aller Light" font-size="10.0" fill="#52575F" transform="matrix(1.00, 0.00, -0.00, -1.00, 139.9, 28.2)"> </text><text xml:space="preserve" font-family="Aller-Light,Aller Light" font-size="10.0" fill="#52575F" transform="matrix(1.00, 0.00, -0.00, -1.00, 142.4, 28.2)">d</text><text xml:space="preserve" font-family="Aller-Light,Aller Light" font-size="10.0" fill="#52575F" transform="matrix(1.00, 0.00, -0.00, -1.00, 148.3, 28.2)">e</text><text xml:space="preserve" font-family="Aller-Light,Aller Light" font-size="10.0" fill="#52575F" transform="matrix(1.00, 0.00, -0.00, -1.00, 153.8, 28.2)">s</text><text xml:space="preserve" font-family="Aller-Light,Aller Light" font-size="10.0" fill="#52575F" transform="matrix(1.00, 0.00, -0.00, -1.00, 158.3, 28.2)">d</text><text xml:space="preserve" font-family="Aller-Light,Aller Light" font-size="10.0" fill="#52575F" transform="matrix(1.00, 0.00, -0.00, -1.00, 164.2, 28.2)">e</text><text xml:space="preserve" font-family="Aller-Light,Aller Light" font-size="10.0" fill="#52575F" transform="matrix(1.00, 0.00, -0.00, -1.00, 169.7, 28.2)"> </text><text xml:space="preserve" font-family="Aller-Light,Aller Light" font-size="10.0" fill="#52575F" transform="matrix(1.00, 0.00, -0.00, -1.00, 172.2, 28.2)">l</text><text xml:space="preserve" font-family="Aller-Light,Aller Light" font-size="10.0" fill="#52575F" transform="matrix(1.00, 0.00, -0.00, -1.00, 175.0, 28.2)">a</text><text xml:space="preserve" font-family="Aller-Light,Aller Light" font-size="10.0" fill="#52575F" transform="matrix(1.00, 0.00, -0.00, -1.00, 180.1, 28.2)"> </text><text xml:space="preserve" font-family="Aller-Light,Aller Light" font-size="10.0" fill="#52575F" transform="matrix(1.00, 0.00, -0.00, -1.00, 1.2, 16.2)">u</text><text xml:space="preserve" font-family="Aller-Light,Aller Light" font-size="10.0" fill="#52575F" transform="matrix(1.00, 0.00, -0.00, -1.00, 7.0, 16.2)">n</text><text xml:space="preserve" font-family="Aller-Light,Aller Light" font-size="10.0" fill="#52575F" transform="matrix(1.00, 0.00, -0.00, -1.00, 12.7, 16.2)">i</text><text xml:space="preserve" font-family="Aller-Light,Aller Light" font-size="10.0" fill="#52575F" transform="matrix(1.00, 0.00, -0.00, -1.00, 15.4, 16.2)">d</text><text xml:space="preserve" font-family="Aller-Light,Aller Light" font-size="10.0" fill="#52575F" transform="matrix(1.00, 0.00, -0.00, -1.00, 21.3, 16.2)">a</text><text xml:space="preserve" font-family="Aller-Light,Aller Light" font-size="10.0" fill="#52575F" transform="matrix(1.00, 0.00, -0.00, -1.00, 26.4, 16.2)">d</text><text xml:space="preserve" font-family="Aller-Light,Aller Light" font-size="10.0" fill="#52575F" transform="matrix(1.00, 0.00, -0.00, -1.00, 32.3, 16.2)"> </text><text xml:space="preserve" font-family="Aller-Light,Aller Light" font-size="10.0" fill="#52575F" transform="matrix(1.00, 0.00, -0.00, -1.00, 34.8, 16.2)">d</text><text xml:space="preserve" font-family="Aller-Light,Aller Light" font-size="10.0" fill="#52575F" transform="matrix(1.00, 0.00, -0.00, -1.00, 40.6, 16.2)">e</text><text xml:space="preserve" font-family="Aller-Light,Aller Light" font-size="10.0" fill="#52575F" transform="matrix(1.00, 0.00, -0.00, -1.00, 46.1, 16.2)"> </text><text xml:space="preserve" font-family="Aller-Light,Aller Light" font-size="10.0" fill="#52575F" transform="matrix(1.00, 0.00, -0.00, -1.00, 48.6, 16.2)">p</text><text xml:space="preserve" font-family="Aller-Light,Aller Light" font-size="10.0" fill="#52575F" transform="matrix(1.00, 0.00, -0.00, -1.00, 54.5, 16.2)">r</text><text xml:space="preserve" font-family="Aller-Light,Aller Light" font-size="10.0" fill="#52575F" transform="matrix(1.00, 0.00, -0.00, -1.00, 57.9, 16.2)">o</text><text xml:space="preserve" font-family="Aller-Light,Aller Light" font-size="10.0" fill="#52575F" transform="matrix(1.00, 0.00, -0.00, -1.00, 63.6, 16.2)">c</text><text xml:space="preserve" font-family="Aller-Light,Aller Light" font-size="10.0" fill="#52575F" transform="matrix(1.00, 0.00, -0.00, -1.00, 68.3, 16.2)">e</text><text xml:space="preserve" font-family="Aller-Light,Aller Light" font-size="10.0" fill="#52575F" transform="matrix(1.00, 0.00, -0.00, -1.00, 73.8, 16.2)">s</text><text xml:space="preserve" font-family="Aller-Light,Aller Light" font-size="10.0" fill="#52575F" transform="matrix(1.00, 0.00, -0.00, -1.00, 78.3, 16.2)">o</text><text xml:space="preserve" font-family="Aller-Light,Aller Light" font-size="10.0" fill="#52575F" transform="matrix(1.00, 0.00, -0.00, -1.00, 84.1, 16.2)"> </text><text xml:space="preserve" font-family="Aller-Light,Aller Light" font-size="10.0" fill="#52575F" transform="matrix(1.00, 0.00, -0.00, -1.00, 86.6, 16.2)">d</text><text xml:space="preserve" font-family="Aller-Light,Aller Light" font-size="10.0" fill="#52575F" transform="matrix(1.00, 0.00, -0.00, -1.00, 92.4, 16.2)">e</text><text xml:space="preserve" font-family="Aller-Light,Aller Light" font-size="10.0" fill="#52575F" transform="matrix(1.00, 0.00, -0.00, -1.00, 97.9, 16.2)"> </text><text xml:space="preserve" font-family="Aller-Light,Aller Light" font-size="10.0" fill="#52575F" transform="matrix(1.00, 0.00, -0.00, -1.00, 100.4, 16.2)">a</text><text xml:space="preserve" font-family="Aller-Light,Aller Light" font-size="10.0" fill="#52575F" transform="matrix(1.00, 0.00, -0.00, -1.00, 105.6, 16.2)"> </text><text xml:space="preserve" font-family="Aller-Light,Aller Light" font-size="10.0" fill="#52575F" transform="matrix(1.00, 0.00, -0.00, -1.00, 108.1, 16.2)">b</text><text xml:space="preserve" font-family="Aller-Light,Aller Light" font-size="10.0" fill="#52575F" transform="matrix(1.00, 0.00, -0.00, -1.00, 114.0, 16.2)">o</text><text xml:space="preserve" font-family="Aller-Light,Aller Light" font-size="10.0" fill="#52575F" transform="matrix(1.00, 0.00, -0.00, -1.00, 119.7, 16.2)">r</text><text xml:space="preserve" font-family="Aller-Light,Aller Light" font-size="10.0" fill="#52575F" transform="matrix(1.00, 0.00, -0.00, -1.00, 123.1, 16.2)">d</text><text xml:space="preserve" font-family="Aller-Light,Aller Light" font-size="10.0" fill="#52575F" transform="matrix(1.00, 0.00, -0.00, -1.00, 128.9, 16.2)">o</text><text xml:space="preserve" font-family="Aller-Light,Aller Light" font-size="10.0" fill="#52575F" transform="matrix(1.00, 0.00, -0.00, -1.00, 134.6, 16.2)"> </text><text xml:space="preserve" font-family="Aller-Light,Aller Light" font-size="10.0" fill="#52575F" transform="matrix(1.00, 0.00, -0.00, -1.00, 137.1, 16.2)">h</text><text xml:space="preserve" font-family="Aller-Light,Aller Light" font-size="10.0" fill="#52575F" transform="matrix(1.00, 0.00, -0.00, -1.00, 142.9, 16.2)">a</text><text xml:space="preserve" font-family="Aller-Light,Aller Light" font-size="10.0" fill="#52575F" transform="matrix(1.00, 0.00, -0.00, -1.00, 148.0, 16.2)">s</text><text xml:space="preserve" font-family="Aller-Light,Aller Light" font-size="10.0" fill="#52575F" transform="matrix(1.00, 0.00, -0.00, -1.00, 152.5, 16.2)">t</text><text xml:space="preserve" font-family="Aller-Light,Aller Light" font-size="10.0" fill="#52575F" transform="matrix(1.00, 0.00, -0.00, -1.00, 155.9, 16.2)">a</text><text xml:space="preserve" font-family="Aller-Light,Aller Light" font-size="10.0" fill="#52575F" transform="matrix(1.00, 0.00, -0.00, -1.00, 161.0, 16.2)"> </text><text xml:space="preserve" font-family="Aller-Light,Aller Light" font-size="10.0" fill="#52575F" transform="matrix(1.00, 0.00, -0.00, -1.00, 163.5, 16.2)">u</text><text xml:space="preserve" font-family="Aller-Light,Aller Light" font-size="10.0" fill="#52575F" transform="matrix(1.00, 0.00, -0.00, -1.00, 169.3, 16.2)">n</text><text xml:space="preserve" font-family="Aller-Light,Aller Light" font-size="10.0" fill="#52575F" transform="matrix(1.00, 0.00, -0.00, -1.00, 175.0, 16.2)">a</text><text xml:space="preserve" font-family="Aller-Light,Aller Light" font-size="10.0" fill="#52575F" transform="matrix(1.00, 0.00, -0.00, -1.00, 180.1, 16.2)"> </text><text xml:space="preserve" font-family="Aller-Light,Aller Light" font-size="10.0" fill="#52575F" transform="matrix(1.00, 0.00, -0.00, -1.00, 5.5, 4.2)">b</text><text xml:space="preserve" font-family="Aller-Light,Aller Light" font-size="10.0" fill="#52575F" transform="matrix(1.00, 0.00, -0.00, -1.00, 11.4, 4.2)">a</text><text xml:space="preserve" font-family="Aller-Light,Aller Light" font-size="10.0" fill="#52575F" transform="matrix(1.00, 0.00, -0.00, -1.00, 16.6, 4.2)">s</text><text xml:space="preserve" font-family="Aller-Light,Aller Light" font-size="10.0" fill="#52575F" transform="matrix(1.00, 0.00, -0.00, -1.00, 21.1, 4.2)">e</text><text xml:space="preserve" font-family="Aller-Light,Aller Light" font-size="10.0" fill="#52575F" transform="matrix(1.00, 0.00, -0.00, -1.00, 26.6, 4.2)"> </text><text xml:space="preserve" font-family="Aller-Light,Aller Light" font-size="10.0" fill="#52575F" transform="matrix(1.00, 0.00, -0.00, -1.00, 29.1, 4.2)">r</text><text xml:space="preserve" font-family="Aller-Light,Aller Light" font-size="10.0" fill="#52575F" transform="matrix(1.00, 0.00, -0.00, -1.00, 32.5, 4.2)">e</text><text xml:space="preserve" font-family="Aller-Light,Aller Light" font-size="10.0" fill="#52575F" transform="matrix(1.00, 0.00, -0.00, -1.00, 38.0, 4.2)">c</text><text xml:space="preserve" font-family="Aller-Light,Aller Light" font-size="10.0" fill="#52575F" transform="matrix(1.00, 0.00, -0.00, -1.00, 42.6, 4.2)">e</text><text xml:space="preserve" font-family="Aller-Light,Aller Light" font-size="10.0" fill="#52575F" transform="matrix(1.00, 0.00, -0.00, -1.00, 48.2, 4.2)">p</text><text xml:space="preserve" font-family="Aller-Light,Aller Light" font-size="10.0" fill="#52575F" transform="matrix(1.00, 0.00, -0.00, -1.00, 54.1, 4.2)">t</text><text xml:space="preserve" font-family="Aller-Light,Aller Light" font-size="10.0" fill="#52575F" transform="matrix(1.00, 0.00, -0.00, -1.00, 57.4, 4.2)">o</text><text xml:space="preserve" font-family="Aller-Light,Aller Light" font-size="10.0" fill="#52575F" transform="matrix(1.00, 0.00, -0.00, -1.00, 63.2, 4.2)">r</text><text xml:space="preserve" font-family="Aller-Light,Aller Light" font-size="10.0" fill="#52575F" transform="matrix(1.00, 0.00, -0.00, -1.00, 66.6, 4.2)">a</text><text xml:space="preserve" font-family="Aller-Light,Aller Light" font-size="10.0" fill="#52575F" transform="matrix(1.00, 0.00, -0.00, -1.00, 71.7, 4.2)">,</text><text xml:space="preserve" font-family="Aller-Light,Aller Light" font-size="10.0" fill="#52575F" transform="matrix(1.00, 0.00, -0.00, -1.00, 73.8, 4.2)"> </text><text xml:space="preserve" font-family="Aller-Light,Aller Light" font-size="10.0" fill="#52575F" transform="matrix(1.00, 0.00, -0.00, -1.00, 76.3, 4.2)">g</text><text xml:space="preserve" font-family="Aller-Light,Aller Light" font-size="10.0" fill="#52575F" transform="matrix(1.00, 0.00, -0.00, -1.00, 81.5, 4.2)">e</text><text xml:space="preserve" font-family="Aller-Light,Aller Light" font-size="10.0" fill="#52575F" transform="matrix(1.00, 0.00, -0.00, -1.00, 87.1, 4.2)">n</text><text xml:space="preserve" font-family="Aller-Light,Aller Light" font-size="10.0" fill="#52575F" transform="matrix(1.00, 0.00, -0.00, -1.00, 92.8, 4.2)">e</text><text xml:space="preserve" font-family="Aller-Light,Aller Light" font-size="10.0" fill="#52575F" transform="matrix(1.00, 0.00, -0.00, -1.00, 98.3, 4.2)">r</text><text xml:space="preserve" font-family="Aller-Light,Aller Light" font-size="10.0" fill="#52575F" transform="matrix(1.00, 0.00, -0.00, -1.00, 101.7, 4.2)">a</text><text xml:space="preserve" font-family="Aller-Light,Aller Light" font-size="10.0" fill="#52575F" transform="matrix(1.00, 0.00, -0.00, -1.00, 106.8, 4.2)">l</text><text xml:space="preserve" font-family="Aller-Light,Aller Light" font-size="10.0" fill="#52575F" transform="matrix(1.00, 0.00, -0.00, -1.00, 109.6, 4.2)">m</text><text xml:space="preserve" font-family="Aller-Light,Aller Light" font-size="10.0" fill="#52575F" transform="matrix(1.00, 0.00, -0.00, -1.00, 118.0, 4.2)">e</text><text xml:space="preserve" font-family="Aller-Light,Aller Light" font-size="10.0" fill="#52575F" transform="matrix(1.00, 0.00, -0.00, -1.00, 123.5, 4.2)">n</text><text xml:space="preserve" font-family="Aller-Light,Aller Light" font-size="10.0" fill="#52575F" transform="matrix(1.00, 0.00, -0.00, -1.00, 129.2, 4.2)">t</text><text xml:space="preserve" font-family="Aller-Light,Aller Light" font-size="10.0" fill="#52575F" transform="matrix(1.00, 0.00, -0.00, -1.00, 132.6, 4.2)">e</text><text xml:space="preserve" font-family="Aller-Light,Aller Light" font-size="10.0" fill="#52575F" transform="matrix(1.00, 0.00, -0.00, -1.00, 138.2, 4.2)"> </text><text xml:space="preserve" font-family="Aller-Light,Aller Light" font-size="10.0" fill="#52575F" transform="matrix(1.00, 0.00, -0.00, -1.00, 140.7, 4.2)">e</text><text xml:space="preserve" font-family="Aller-Light,Aller Light" font-size="10.0" fill="#52575F" transform="matrix(1.00, 0.00, -0.00, -1.00, 146.2, 4.2)">n</text><text xml:space="preserve" font-family="Aller-Light,Aller Light" font-size="10.0" fill="#52575F" transform="matrix(1.00, 0.00, -0.00, -1.00, 151.9, 4.2)"> </text><text xml:space="preserve" font-family="Aller-Light,Aller Light" font-size="10.0" fill="#52575F" transform="matrix(1.00, 0.00, -0.00, -1.00, 154.4, 4.2)">t</text><text xml:space="preserve" font-family="Aller-Light,Aller Light" font-size="10.0" fill="#52575F" transform="matrix(1.00, 0.00, -0.00, -1.00, 157.8, 4.2)">i</text><text xml:space="preserve" font-family="Aller-Light,Aller Light" font-size="10.0" fill="#52575F" transform="matrix(1.00, 0.00, -0.00, -1.00, 160.5, 4.2)">e</text><text xml:space="preserve" font-family="Aller-Light,Aller Light" font-size="10.0" fill="#52575F" transform="matrix(1.00, 0.00, -0.00, -1.00, 166.1, 4.2)">r</text><text xml:space="preserve" font-family="Aller-Light,Aller Light" font-size="10.0" fill="#52575F" transform="matrix(1.00, 0.00, -0.00, -1.00, 169.6, 4.2)">r</text><text xml:space="preserve" font-family="Aller-Light,Aller Light" font-size="10.0" fill="#52575F" transform="matrix(1.00, 0.00, -0.00, -1.00, 173.0, 4.2)">a</text><text xml:space="preserve" font-family="Aller-Light,Aller Light" font-size="10.0" fill="#52575F" transform="matrix(1.00, 0.00, -0.00, -1.00, 178.1, 4.2)">.</text></g></svg>