<?xml version="1.0" encoding="UTF-8" standalone="no"?><svg xmlns="http://www.w3.org/2000/svg" xmlns:xlink="http://www.w3.org/1999/xlink" clip-rule="evenodd" stroke-miterlimit="10" viewBox="0 0 357 98"><desc>SVG generated by Keynote</desc><defs></defs><g transform="matrix(1.00, 0.00, -0.00, -1.00, 0.0, 98.0)"><path d="M 303.1 78.8 L 128.3 89.7 L 13.2 96.9 C -2.2 97.9 -0.6 88.8 11.0 87.8 L 126.5 78.0 C 118.5 77.1 112.3 70.3 112.3 62.1 C 112.3 60.3 112.6 58.5 113.1 56.9 C 113.8 49.1 120.3 43.0 128.3 43.0 C 136.2 43.0 142.7 49.1 143.4 56.9 C 143.9 58.5 144.2 60.3 144.2 62.1 C 144.2 69.4 139.3 75.5 132.7 77.4 L 263.0 66.3 L 264.0 64.9 C 251.5 63.6 241.8 53.0 241.8 40.2 C 241.8 37.4 242.3 34.7 243.2 32.2 C 244.2 20.1 254.3 10.7 266.6 10.7 C 279.0 10.7 289.1 20.1 290.1 32.2 C 291.0 34.7 291.4 37.4 291.4 40.2 C 291.4 52.2 283.4 62.3 272.0 64.5 L 272.0 65.5 L 303.1 63.0 L 308.0 62.0 L 308.0 32.8 L 312.0 22.0 L 312.0 15.0 L 311.0 15.0 L 311.0 16.2 C 311.0 16.8 310.4 17.0 309.8 17.0 L 308.8 17.0 C 308.4 17.0 308.2 17.1 308.0 16.9 L 308.0 21.9 C 308.0 23.6 306.6 25.0 304.9 25.0 L 303.4 25.0 L 301.9 25.0 C 300.2 25.0 299.0 23.6 299.0 21.9 L 299.0 4.8 C 299.0 3.0 300.2 2.0 301.9 2.0 L 303.4 2.0 L 304.9 2.0 C 306.6 2.0 308.0 3.0 308.0 4.8 L 308.0 9.7 C 308.2 9.5 308.4 9.0 308.8 9.0 L 309.8 9.0 C 310.4 9.0 311.0 9.8 311.0 10.4 L 311.0 12.0 L 312.3 12.0 L 316.5 12.0 L 316.5 12.0 L 318.0 12.0 L 318.0 10.4 C 318.0 9.8 318.4 9.0 319.0 9.0 L 320.0 9.0 C 320.6 9.0 321.0 9.8 321.0 10.4 L 321.0 4.8 C 321.0 3.0 322.5 2.0 324.2 2.0 L 327.1 2.0 C 328.8 2.0 330.0 3.0 330.0 4.8 L 330.0 21.9 C 330.0 23.6 328.8 25.0 327.1 25.0 L 324.2 25.0 C 322.5 25.0 321.0 23.6 321.0 21.9 L 321.0 16.2 C 321.0 16.8 320.6 17.0 320.0 17.0 L 319.0 17.0 C 318.4 17.0 318.0 16.8 318.0 16.2 L 318.0 15.0 L 316.0 15.0 L 316.0 28.2 L 339.5 59.8 L 355.0 58.4 L 352.2 75.7 C 352.2 75.7 303.1 78.8 303.1 78.8 Z M 303.1 78.8 " fill="#7FC7EA"></path></g></svg>