<?xml version="1.0" encoding="UTF-8" standalone="no"?><svg xmlns="http://www.w3.org/2000/svg" xmlns:xlink="http://www.w3.org/1999/xlink" clip-rule="evenodd" stroke-miterlimit="10" viewBox="0 0 803 256"><desc>SVG generated by Keynote</desc><defs></defs><g transform="matrix(1.00, 0.00, -0.00, -1.00, 0.0, 256.0)"><g><clipPath id="clip0x600001ca9480"><path d="M 263.2 4.4 L 540.8 4.4 L 540.8 255.9 L 263.2 255.9 Z M 263.2 4.4 "></path></clipPath><g clip-path="url(#clip0x600001ca9480)"><path d="M 354.6 58.4 C 357.6 65.9 353.1 70.3 351.6 76.3 C 353.1 70.3 357.6 65.9 354.6 58.4 Z M 452.9 76.2 C 450.8 79.1 449.0 82.8 449.1 88.0 C 449.3 90.1 449.5 92.3 449.5 94.5 C 449.5 96.1 449.4 97.8 449.2 99.5 L 478.4 102.4 L 502.1 104.9 L 533.0 108.0 C 541.8 108.9 543.0 116.0 531.3 114.9 L 502.1 112.4 L 478.4 110.3 L 447.9 107.7 C 446.1 115.1 442.7 121.9 438.3 127.6 C 435.3 131.5 431.7 134.8 427.8 137.6 C 427.0 138.1 426.2 138.7 425.4 139.2 C 419.2 143.0 412.2 145.3 404.7 145.7 L 404.7 145.7 L 403.4 252.2 C 403.3 256.0 400.6 255.7 400.7 252.2 L 399.4 145.7 C 378.6 144.5 361.3 128.7 356.2 107.7 L 302.0 112.4 L 272.7 114.9 C 261.1 116.0 262.3 108.9 271.0 108.0 L 302.0 104.9 L 354.8 99.5 C 354.7 97.8 354.6 96.1 354.6 94.5 C 354.6 92.3 354.7 90.3 354.9 88.2 C 355.1 82.8 353.2 79.0 351.1 76.1 L 353.9 58.8 C 357.0 52.4 353.3 39.6 368.0 37.2 C 383.6 34.8 385.4 38.0 401.0 38.3 L 401.0 13.0 L 400.0 13.0 L 400.0 13.9 C 400.0 14.3 399.4 15.0 399.1 15.0 L 398.5 15.0 C 398.1 15.0 398.0 14.3 398.0 13.9 L 398.0 17.2 C 398.0 18.2 397.0 19.0 396.0 19.0 L 394.3 19.0 C 393.3 19.0 393.0 18.2 393.0 17.2 L 393.0 7.2 C 393.0 6.3 393.3 5.0 394.3 5.0 L 396.0 5.0 C 397.0 5.0 398.0 6.3 398.0 7.2 L 398.0 10.5 C 398.0 10.2 398.1 10.0 398.5 10.0 L 399.1 10.0 C 399.4 10.0 400.0 10.2 400.0 10.5 L 400.0 11.0 L 400.5 11.0 L 402.9 11.0 L 404.0 11.0 L 404.0 10.5 C 404.0 10.2 404.1 10.0 404.4 10.0 L 405.0 10.0 C 405.3 10.0 406.0 10.2 406.0 10.5 L 406.0 7.2 C 406.0 6.3 406.4 5.0 407.4 5.0 L 409.1 5.0 C 410.1 5.0 411.0 6.3 411.0 7.2 L 411.0 17.2 C 411.0 18.2 410.1 19.0 409.1 19.0 L 407.4 19.0 C 406.4 19.0 406.0 18.2 406.0 17.2 L 406.0 13.9 C 406.0 14.3 405.3 15.0 405.0 15.0 L 404.4 15.0 C 404.1 15.0 404.0 14.3 404.0 13.9 L 404.0 13.0 L 403.0 13.0 L 403.0 38.3 C 414.5 38.2 418.3 36.4 425.4 36.3 C 426.1 36.3 426.9 36.3 427.8 36.4 C 430.1 36.5 432.7 36.7 436.1 37.2 C 436.9 37.4 437.6 37.5 438.3 37.7 C 450.2 40.9 447.3 52.5 450.1 58.5 C 450.0 58.5 450.0 58.5 450.0 58.4 C 450.0 64.3 450.0 70.3 452.9 76.2 Z M 452.9 76.2 " fill="#F1F1F1"></path></g></g><g><clipPath id="clip0x600001ca9720"><path d="M 447.9 0.7 L 802.9 0.7 L 802.9 98.0 L 447.9 98.0 Z M 447.9 0.7 "></path></clipPath><g clip-path="url(#clip0x600001ca9720)"><path d="M 790.7 96.9 L 500.8 78.8 L 477.1 77.3 L 451.6 75.7 L 451.6 75.7 C 450.3 67.8 450.1 64.6 448.9 58.4 L 464.4 59.8 L 477.1 42.4 L 487.0 28.2 L 487.0 15.0 L 486.0 15.0 L 486.0 16.2 C 486.0 16.8 485.5 17.0 484.9 17.0 L 483.9 17.0 C 483.3 17.0 483.0 16.8 483.0 16.2 L 483.0 21.9 C 483.0 23.6 481.4 25.0 479.7 25.0 L 477.1 25.0 L 476.8 25.0 C 475.1 25.0 474.0 23.6 474.0 21.9 L 474.0 4.8 C 474.0 3.0 475.1 2.0 476.8 2.0 L 477.1 2.0 L 479.7 2.0 C 481.4 2.0 483.0 3.0 483.0 4.8 L 483.0 10.4 C 483.0 9.8 483.3 9.0 483.9 9.0 L 484.9 9.0 C 485.5 9.0 486.0 9.8 486.0 10.4 L 486.0 12.0 L 487.4 12.0 L 491.6 12.0 L 493.0 12.0 L 493.0 10.4 C 493.0 9.8 493.5 9.0 494.1 9.0 L 495.1 9.0 C 495.7 9.0 496.0 9.8 496.0 10.4 L 496.0 4.8 C 496.0 3.0 497.6 2.0 499.3 2.0 L 500.8 2.0 L 502.2 2.0 C 503.9 2.0 505.0 3.0 505.0 4.8 L 505.0 21.9 C 505.0 23.6 503.9 25.0 502.2 25.0 L 500.8 25.0 L 499.3 25.0 C 497.6 25.0 496.0 23.6 496.0 21.9 L 496.0 16.2 C 496.0 16.8 495.7 17.0 495.1 17.0 L 494.1 17.0 C 493.5 17.0 493.0 16.8 493.0 16.2 L 493.0 15.0 L 492.0 15.0 L 492.0 22.0 L 496.0 32.8 L 496.0 62.0 L 500.8 63.0 L 532.0 65.5 L 532.0 64.5 C 520.6 62.3 512.5 52.2 512.5 40.2 C 512.5 37.4 512.9 34.7 513.8 32.2 C 514.8 20.1 524.9 10.7 537.3 10.7 C 549.6 10.7 559.7 20.1 560.7 32.2 C 561.6 34.7 562.1 37.4 562.1 40.2 C 562.1 52.4 553.6 62.5 542.0 64.6 L 542.0 66.4 L 672.0 77.5 L 673.0 77.1 C 665.7 75.7 659.7 69.2 659.7 61.5 C 659.7 59.7 660.0 57.9 660.5 56.3 C 661.2 48.5 667.7 42.4 675.6 42.4 C 683.6 42.4 690.1 48.5 690.8 56.3 C 691.3 57.9 691.6 59.7 691.6 61.5 C 691.6 69.3 685.5 75.9 678.0 77.2 L 679.0 78.1 L 792.9 87.8 C 804.5 88.8 806.1 97.9 790.7 96.9 Z M 790.7 96.9 " fill="#F1F1F1"></path></g></g><g><clipPath id="clip0x600001ca9a20"><path d="M 1.0 0.7 L 356.0 0.7 L 356.0 98.0 L 1.0 98.0 Z M 1.0 0.7 "></path></clipPath><g clip-path="url(#clip0x600001ca9a20)"><path d="M 303.1 78.8 L 128.3 89.7 L 13.2 96.9 C -2.2 97.9 -0.6 88.8 11.0 87.8 L 126.5 78.0 C 118.5 77.1 112.3 70.3 112.3 62.1 C 112.3 60.3 112.6 58.5 113.1 56.9 C 113.8 49.1 120.3 43.0 128.3 43.0 C 136.2 43.0 142.7 49.1 143.4 56.9 C 143.9 58.5 144.2 60.3 144.2 62.1 C 144.2 69.4 139.3 75.5 132.7 77.4 L 263.0 66.3 L 264.0 64.9 C 251.5 63.6 241.8 53.0 241.8 40.2 C 241.8 37.4 242.3 34.7 243.2 32.2 C 244.2 20.1 254.3 10.7 266.6 10.7 C 279.0 10.7 289.1 20.1 290.1 32.2 C 291.0 34.7 291.4 37.4 291.4 40.2 C 291.4 52.2 283.4 62.3 272.0 64.5 L 272.0 65.5 L 303.1 63.0 L 308.0 62.0 L 308.0 32.8 L 312.0 22.0 L 312.0 15.0 L 311.0 15.0 L 311.0 16.2 C 311.0 16.8 310.4 17.0 309.8 17.0 L 308.8 17.0 C 308.4 17.0 308.2 17.1 308.0 16.9 L 308.0 21.9 C 308.0 23.6 306.6 25.0 304.9 25.0 L 303.4 25.0 L 301.9 25.0 C 300.2 25.0 299.0 23.6 299.0 21.9 L 299.0 4.8 C 299.0 3.0 300.2 2.0 301.9 2.0 L 303.4 2.0 L 304.9 2.0 C 306.6 2.0 308.0 3.0 308.0 4.8 L 308.0 9.7 C 308.2 9.5 308.4 9.0 308.8 9.0 L 309.8 9.0 C 310.4 9.0 311.0 9.8 311.0 10.4 L 311.0 12.0 L 312.3 12.0 L 316.5 12.0 L 316.5 12.0 L 318.0 12.0 L 318.0 10.4 C 318.0 9.8 318.4 9.0 319.0 9.0 L 320.0 9.0 C 320.6 9.0 321.0 9.8 321.0 10.4 L 321.0 4.8 C 321.0 3.0 322.5 2.0 324.2 2.0 L 327.1 2.0 C 328.8 2.0 330.0 3.0 330.0 4.8 L 330.0 21.9 C 330.0 23.6 328.8 25.0 327.1 25.0 L 324.2 25.0 C 322.5 25.0 321.0 23.6 321.0 21.9 L 321.0 16.2 C 321.0 16.8 320.6 17.0 320.0 17.0 L 319.0 17.0 C 318.4 17.0 318.0 16.8 318.0 16.2 L 318.0 15.0 L 316.0 15.0 L 316.0 28.2 L 339.5 59.8 L 355.0 58.4 L 352.2 75.7 C 352.2 75.7 303.1 78.8 303.1 78.8 Z M 303.1 78.8 " fill="#F1F1F1"></path></g></g></g></svg>