<?xml version="1.0" encoding="UTF-8" standalone="no"?><svg xmlns="http://www.w3.org/2000/svg" xmlns:xlink="http://www.w3.org/1999/xlink" clip-rule="evenodd" stroke-miterlimit="10" viewBox="0 0 56 56"><desc>SVG generated by Keynote</desc><defs></defs><g transform="matrix(1.00, 0.00, -0.00, -1.00, 0.0, 56.0)"><g><clipPath id="clip0x618000ab4e80"><path d="M 0.4 0.7 L 55.8 0.7 L 55.8 56.0 L 0.4 56.0 Z M 0.4 0.7 "></path></clipPath><g clip-path="url(#clip0x618000ab4e80)"><path d="M 47.0 47.2 C 57.4 36.8 57.4 19.9 47.0 9.5 C 36.5 -1.0 19.7 -1.0 9.2 9.5 C -1.2 19.9 -1.2 36.8 9.2 47.2 C 19.7 57.6 36.5 57.6 47.0 47.2 Z M 47.0 47.2 " fill="#7FC7EA"></path></g></g><g><clipPath id="clip0x618000ab4c40"><path d="M 16.1 15.6 L 40.1 15.6 L 40.1 41.0 L 16.1 41.0 Z M 16.1 15.6 "></path></clipPath><g clip-path="url(#clip0x618000ab4c40)"><path d="M 29.3 27.1 L 27.0 27.0 L 27.0 33.0 L 29.3 33.0 C 29.3 33.0 29.3 27.1 29.3 27.1 Z M 29.3 23.2 L 27.0 23.0 L 27.0 26.0 L 29.3 26.0 C 29.3 26.0 29.3 23.2 29.3 23.2 Z M 38.7 25.5 L 36.6 27.3 C 36.0 27.9 36.0 28.8 36.6 29.3 L 38.7 31.2 C 39.3 31.7 39.2 31.9 38.3 32.0 L 35.5 33.0 C 34.7 33.1 34.3 33.4 34.6 34.1 L 36.1 38.3 C 36.3 39.0 36.0 39.3 35.3 38.9 L 32.0 36.8 C 31.3 36.4 30.4 36.6 30.0 37.4 L 28.8 39.5 C 28.4 40.2 27.8 40.2 27.4 39.5 L 26.2 37.6 C 25.8 36.9 24.9 36.7 24.2 37.0 L 22.2 38.0 C 21.5 38.3 21.0 37.7 21.0 36.9 L 21.0 34.9 C 21.0 34.1 20.5 33.2 19.7 33.0 L 17.8 33.0 C 17.0 32.8 16.9 31.7 17.5 31.2 L 19.6 29.3 C 20.2 28.8 20.2 27.9 19.6 27.3 L 17.5 25.5 C 16.9 24.9 17.0 24.1 17.9 24.0 L 20.4 24.0 C 21.2 23.9 21.7 23.2 21.4 22.4 L 20.1 18.4 C 19.8 17.6 20.2 17.3 20.9 17.7 L 23.9 19.5 C 24.6 19.9 25.6 19.7 26.0 19.0 L 27.3 17.1 C 27.7 16.4 28.4 16.4 28.8 17.2 L 29.9 19.3 C 30.3 20.0 31.2 20.3 31.9 20.0 L 34.0 18.9 C 34.7 18.5 35.0 18.9 35.0 19.7 L 35.0 21.7 C 35.0 22.5 35.7 23.8 36.5 24.0 L 38.4 24.0 C 39.2 24.2 39.3 24.9 38.7 25.5 Z M 38.7 25.5 " fill="#FEFFFE"></path></g></g></g></svg>