<?xml version="1.0" encoding="UTF-8" standalone="no"?><svg xmlns="http://www.w3.org/2000/svg" xmlns:xlink="http://www.w3.org/1999/xlink" clip-rule="evenodd" stroke-miterlimit="10" viewBox="0 0 136 27"><desc>SVG generated by Keynote</desc><defs></defs><g transform="matrix(1.00, 0.00, -0.00, -1.00, 0.0, 27.0)"><path d="M 1.0 26.0 L 134.0 26.0 L 134.0 2.0 L 1.0 2.0 Z M 1.2 26.0 " fill="#FEFFFE"></path><g><clipPath id="clip0x6100008bb0c0"><path d="M -1.4 -0.8 L 136.8 -0.8 L 136.8 27.5 L -1.4 27.5 Z M -1.4 -0.8 "></path></clipPath><g clip-path="url(#clip0x6100008bb0c0)"><text xml:space="preserve" font-family="KontrapunktBob-Bold,Kontrapunkt Bob" font-weight="bold" font-size="16.0" fill="#7FC7EA" transform="matrix(1.00, 0.00, -0.00, -1.00, 3.3, 8.2)">I</text><text xml:space="preserve" font-family="KontrapunktBob-Bold,Kontrapunkt Bob" font-weight="bold" font-size="16.0" fill="#7FC7EA" transform="matrix(1.00, 0.00, -0.00, -1.00, 9.3, 8.2)">m</text><text xml:space="preserve" font-family="KontrapunktBob-Bold,Kontrapunkt Bob" font-weight="bold" font-size="16.0" fill="#7FC7EA" transform="matrix(1.00, 0.00, -0.00, -1.00, 25.8, 8.2)">p</text><text xml:space="preserve" font-family="KontrapunktBob-Bold,Kontrapunkt Bob" font-weight="bold" font-size="16.0" fill="#7FC7EA" transform="matrix(1.00, 0.00, -0.00, -1.00, 37.0, 8.2)">r</text><text xml:space="preserve" font-family="KontrapunktBob-Bold,Kontrapunkt Bob" font-weight="bold" font-size="16.0" fill="#7FC7EA" transform="matrix(1.00, 0.00, -0.00, -1.00, 44.4, 8.2)">e</text><text xml:space="preserve" font-family="KontrapunktBob-Bold,Kontrapunkt Bob" font-weight="bold" font-size="16.0" fill="#7FC7EA" transform="matrix(1.00, 0.00, -0.00, -1.00, 54.0, 8.2)">d</text><text xml:space="preserve" font-family="KontrapunktBob-Bold,Kontrapunkt Bob" font-weight="bold" font-size="16.0" fill="#7FC7EA" transform="matrix(1.00, 0.00, -0.00, -1.00, 65.2, 8.2)">e</text><text xml:space="preserve" font-family="KontrapunktBob-Bold,Kontrapunkt Bob" font-weight="bold" font-size="16.0" fill="#7FC7EA" transform="matrix(1.00, 0.00, -0.00, -1.00, 74.7, 8.2)">c</text><text xml:space="preserve" font-family="KontrapunktBob-Bold,Kontrapunkt Bob" font-weight="bold" font-size="16.0" fill="#7FC7EA" transform="matrix(1.00, 0.00, -0.00, -1.00, 83.6, 8.2)">i</text><text xml:space="preserve" font-family="KontrapunktBob-Bold,Kontrapunkt Bob" font-weight="bold" font-size="16.0" fill="#7FC7EA" transform="matrix(1.00, 0.00, -0.00, -1.00, 89.1, 8.2)">b</text><text xml:space="preserve" font-family="KontrapunktBob-Bold,Kontrapunkt Bob" font-weight="bold" font-size="16.0" fill="#7FC7EA" transform="matrix(1.00, 0.00, -0.00, -1.00, 100.4, 8.2)">l</text><text xml:space="preserve" font-family="KontrapunktBob-Bold,Kontrapunkt Bob" font-weight="bold" font-size="16.0" fill="#7FC7EA" transform="matrix(1.00, 0.00, -0.00, -1.00, 105.6, 8.2)">e</text><text xml:space="preserve" font-family="KontrapunktBob-Bold,Kontrapunkt Bob" font-weight="bold" font-size="16.0" fill="#7FC7EA" transform="matrix(1.00, 0.00, -0.00, -1.00, 115.2, 8.2)">s</text></g></g></g></svg>