<?xml version="1.0" encoding="UTF-8" standalone="no"?><svg xmlns="http://www.w3.org/2000/svg" xmlns:xlink="http://www.w3.org/1999/xlink" clip-rule="evenodd" stroke-miterlimit="10" viewBox="0 0 56 57"><desc>SVG generated by Keynote</desc><defs></defs><g transform="matrix(1.00, 0.00, -0.00, -1.00, 0.0, 57.0)"><g><clipPath id="clip0x6100008bdac0"><path d="M 0.4 0.8 L 55.7 0.8 L 55.7 56.1 L 0.4 56.1 Z M 0.4 0.8 "></path></clipPath><g clip-path="url(#clip0x6100008bdac0)"><path d="M 46.9 47.3 C 57.3 36.9 57.3 20.0 46.9 9.6 C 36.5 -0.8 19.6 -0.8 9.2 9.6 C -1.2 20.0 -1.2 36.9 9.2 47.3 C 19.6 57.7 36.5 57.7 46.9 47.3 Z M 46.9 47.3 " fill="#7FC7EA"></path></g></g><g><clipPath id="clip0x6100008bd9a0"><path d="M 16.1 15.8 L 40.1 15.8 L 40.1 41.2 L 16.1 41.2 Z M 16.1 15.8 "></path></clipPath><g clip-path="url(#clip0x6100008bd9a0)"><path d="M 29.3 27.3 L 27.0 27.0 L 27.0 34.0 L 29.3 34.0 C 29.3 34.0 29.3 27.3 29.3 27.3 Z M 29.3 23.3 L 27.0 23.0 L 27.0 26.0 L 29.3 26.0 C 29.3 26.0 29.3 23.3 29.3 23.3 Z M 38.7 25.6 L 36.6 27.5 C 36.0 28.0 36.0 28.9 36.6 29.5 L 38.7 31.3 C 39.3 31.9 39.1 31.9 38.3 32.0 L 35.5 33.0 C 34.7 33.1 34.3 33.5 34.6 34.3 L 36.0 38.4 C 36.3 39.2 36.0 39.5 35.3 39.0 L 32.0 37.0 C 31.3 36.6 30.4 36.8 30.0 37.5 L 28.8 39.6 C 28.4 40.4 27.7 40.4 27.3 39.6 L 26.2 37.7 C 25.8 37.0 24.9 36.7 24.1 37.0 L 22.2 38.0 C 21.4 38.3 21.0 37.9 21.0 37.1 L 21.0 35.1 C 21.0 34.3 20.5 33.2 19.7 33.0 L 17.8 33.0 C 17.0 32.8 16.9 31.9 17.5 31.3 L 19.6 29.5 C 20.2 28.9 20.2 28.0 19.6 27.5 L 17.5 25.6 C 16.9 25.1 17.0 24.1 17.8 24.0 L 20.4 24.0 C 21.2 23.9 21.6 23.3 21.4 22.5 L 20.1 18.6 C 19.8 17.8 20.2 17.5 20.9 17.9 L 23.9 19.6 C 24.6 20.0 25.6 19.8 26.0 19.1 L 27.3 17.2 C 27.7 16.6 28.4 16.6 28.8 17.3 L 29.9 19.4 C 30.2 20.2 31.1 20.5 31.9 20.1 L 34.0 19.0 C 34.7 18.7 35.0 19.1 35.0 19.9 L 35.0 21.8 C 35.0 22.7 35.7 23.8 36.5 24.0 L 38.4 24.0 C 39.1 24.2 39.3 25.1 38.7 25.6 Z M 38.7 25.6 " fill="#FEFFFE"></path></g></g></g></svg>