<?xml version="1.0" encoding="UTF-8" standalone="no"?><svg xmlns="http://www.w3.org/2000/svg" xmlns:xlink="http://www.w3.org/1999/xlink" clip-rule="evenodd" stroke-miterlimit="10" viewBox="0 0 57 56"><desc>SVG generated by Keynote</desc><defs></defs><g transform="matrix(1.00, 0.00, -0.00, -1.00, 0.0, 56.0)"><g><clipPath id="clip0x618000ab3da0"><path d="M 0.8 0.4 L 56.2 0.4 L 56.2 55.8 L 0.8 55.8 Z M 0.8 0.4 "></path></clipPath><g clip-path="url(#clip0x618000ab3da0)"><path d="M 47.4 47.0 C 57.8 36.6 57.8 19.7 47.4 9.3 C 37.0 -1.2 20.1 -1.2 9.7 9.3 C -0.8 19.7 -0.8 36.6 9.7 47.0 C 20.1 57.4 37.0 57.4 47.4 47.0 Z M 47.4 47.0 " fill="#7FC7EA"></path></g></g><g><clipPath id="clip0x618000ab3ce0"><path d="M 16.5 15.4 L 40.5 15.4 L 40.5 40.8 L 16.5 40.8 Z M 16.5 15.4 "></path></clipPath><g clip-path="url(#clip0x618000ab3ce0)"><path d="M 29.7 26.9 L 27.0 27.0 L 27.0 33.0 L 29.7 33.0 C 29.7 33.0 29.7 26.9 29.7 26.9 Z M 29.7 23.0 L 27.0 23.0 L 27.0 26.0 L 29.7 26.0 C 29.7 26.0 29.7 23.0 29.7 23.0 Z M 39.1 25.2 L 37.0 27.1 C 36.4 27.7 36.4 28.6 37.0 29.1 L 39.1 31.0 C 39.7 31.5 39.6 31.9 38.8 32.0 L 36.0 32.0 C 35.1 32.1 34.7 33.1 35.0 33.9 L 36.5 38.0 C 36.8 38.8 36.4 39.1 35.7 38.7 L 32.4 36.6 C 31.7 36.2 30.8 36.4 30.4 37.2 L 29.2 39.3 C 28.8 40.0 28.2 40.0 27.8 39.3 L 26.7 37.4 C 26.2 36.7 25.3 36.7 24.6 37.0 L 22.6 38.0 C 21.9 38.3 21.0 37.5 21.0 36.7 L 21.0 34.7 C 21.0 33.9 20.9 33.2 20.1 33.0 L 18.2 32.0 C 17.4 31.8 17.3 31.5 17.9 31.0 L 20.0 29.1 C 20.6 28.6 20.6 27.7 20.0 27.1 L 17.9 25.2 C 17.3 24.7 17.5 24.1 18.3 24.0 L 20.8 24.0 C 21.6 23.9 22.1 23.0 21.8 22.2 L 20.5 18.2 C 20.3 17.4 20.6 17.1 21.3 17.5 L 24.3 19.3 C 25.0 19.7 26.0 19.4 26.4 18.8 L 27.7 16.9 C 28.1 16.2 28.8 16.2 29.2 17.0 L 30.3 19.1 C 30.7 19.8 31.6 20.1 32.3 19.7 L 34.4 18.7 C 35.2 18.3 36.0 18.7 36.0 19.5 L 36.0 21.5 C 36.0 22.3 36.1 22.8 36.9 23.0 L 38.8 24.0 C 39.6 24.2 39.7 24.7 39.1 25.2 Z M 39.1 25.2 " fill="#FEFFFE"></path></g></g></g></svg>