<?xml version="1.0" encoding="UTF-8" standalone="no"?><svg xmlns="http://www.w3.org/2000/svg" xmlns:xlink="http://www.w3.org/1999/xlink" clip-rule="evenodd" stroke-miterlimit="10" viewBox="0 0 56 57"><desc>SVG generated by Keynote</desc><defs></defs><g transform="matrix(1.00, 0.00, -0.00, -1.00, 0.0, 57.0)"><g><clipPath id="clip0x6100008bd160"><path d="M 0.3 0.9 L 55.6 0.9 L 55.6 56.2 L 0.3 56.2 Z M 0.3 0.9 "></path></clipPath><g clip-path="url(#clip0x6100008bd160)"><path d="M 46.8 47.4 C 57.2 37.0 57.2 20.1 46.8 9.7 C 36.4 -0.7 19.5 -0.7 9.1 9.7 C -1.3 20.1 -1.3 37.0 9.1 47.4 C 19.5 57.8 36.4 57.8 46.8 47.4 Z M 46.8 47.4 " fill="#7FC7EA"></path></g></g><g><clipPath id="clip0x6100008bcf80"><path d="M 15.9 15.8 L 39.9 15.8 L 39.9 41.3 L 15.9 41.3 Z M 15.9 15.8 "></path></clipPath><g clip-path="url(#clip0x6100008bcf80)"><path d="M 29.1 27.3 L 27.0 27.0 L 27.0 34.0 L 29.1 34.0 C 29.1 34.0 29.1 27.3 29.1 27.3 Z M 29.1 23.4 L 27.0 23.0 L 27.0 26.0 L 29.1 26.0 C 29.1 26.0 29.1 23.4 29.1 23.4 Z M 38.5 25.7 L 36.4 27.6 C 35.8 28.1 35.8 29.0 36.4 29.5 L 38.5 31.4 C 39.1 32.0 39.0 32.9 38.2 33.0 L 35.4 33.0 C 34.6 33.1 34.1 33.6 34.4 34.4 L 35.9 38.5 C 36.2 39.3 35.8 39.5 35.1 39.1 L 31.8 37.1 C 31.1 36.6 30.2 36.9 29.8 37.6 L 28.7 39.7 C 28.2 40.4 27.6 40.4 27.2 39.7 L 26.1 37.8 C 25.7 37.1 24.7 36.7 24.0 37.0 L 22.0 38.0 C 21.3 38.3 21.0 38.0 21.0 37.2 L 21.0 35.2 C 21.0 34.4 20.3 33.2 19.5 33.0 L 17.6 33.0 C 16.9 32.8 16.7 32.0 17.3 31.4 L 19.4 29.5 C 20.0 29.0 20.0 28.1 19.4 27.6 L 17.3 25.7 C 16.7 25.1 16.9 25.1 17.7 25.0 L 20.2 24.0 C 21.0 23.9 21.5 23.4 21.2 22.6 L 19.9 18.6 C 19.7 17.9 20.0 17.6 20.7 18.0 L 23.7 19.7 C 24.4 20.1 25.4 19.9 25.8 19.2 L 27.1 17.3 C 27.5 16.6 28.2 16.7 28.6 17.4 L 29.7 19.5 C 30.1 20.3 31.0 20.5 31.7 20.2 L 33.8 19.1 C 34.6 18.8 35.0 19.1 35.0 20.0 L 35.0 21.9 C 35.0 22.8 35.5 23.8 36.3 24.0 L 38.2 24.0 C 39.0 24.2 39.1 25.1 38.5 25.7 Z M 38.5 25.7 " fill="#FEFFFE"></path></g></g></g></svg>