<?xml version="1.0" encoding="UTF-8" standalone="no"?><svg xmlns="http://www.w3.org/2000/svg" xmlns:xlink="http://www.w3.org/1999/xlink" clip-rule="evenodd" stroke-miterlimit="10" viewBox="0 0 57 57"><desc>SVG generated by Keynote</desc><defs></defs><g transform="matrix(1.00, 0.00, -0.00, -1.00, 0.0, 57.0)"><g><clipPath id="clip0x608000abe9c0"><path d="M 0.7 0.8 L 56.1 0.8 L 56.1 56.1 L 0.7 56.1 Z M 0.7 0.8 "></path></clipPath><g clip-path="url(#clip0x608000abe9c0)"><path d="M 47.2 47.3 C 57.7 36.9 57.7 20.0 47.2 9.6 C 36.8 -0.8 19.9 -0.8 9.5 9.6 C -0.9 20.0 -0.9 36.9 9.5 47.3 C 19.9 57.7 36.8 57.7 47.2 47.3 Z M 47.2 47.3 " fill="#7FC7EA"></path></g></g><g><clipPath id="clip0x608000abeba0"><path d="M 16.4 15.8 L 40.4 15.8 L 40.4 41.2 L 16.4 41.2 Z M 16.4 15.8 "></path></clipPath><g clip-path="url(#clip0x608000abeba0)"><path d="M 29.6 27.3 L 27.0 27.0 L 27.0 34.0 L 29.6 34.0 C 29.6 34.0 29.6 27.3 29.6 27.3 Z M 29.6 23.3 L 27.0 23.0 L 27.0 26.0 L 29.6 26.0 C 29.6 26.0 29.6 23.3 29.6 23.3 Z M 39.0 25.6 L 36.9 27.5 C 36.3 28.0 36.3 28.9 36.9 29.5 L 39.0 31.3 C 39.6 31.9 39.4 31.9 38.6 32.0 L 35.8 33.0 C 35.0 33.1 34.6 33.5 34.9 34.3 L 36.4 38.4 C 36.6 39.2 36.3 39.5 35.6 39.0 L 32.3 37.0 C 31.6 36.6 30.7 36.8 30.3 37.5 L 29.1 39.6 C 28.7 40.4 28.1 40.4 27.6 39.6 L 26.5 37.7 C 26.1 37.0 25.2 36.7 24.4 37.0 L 22.5 38.0 C 21.8 38.3 21.0 37.9 21.0 37.1 L 21.0 35.1 C 21.0 34.3 20.8 33.2 20.0 33.0 L 18.1 33.0 C 17.3 32.8 17.2 31.9 17.8 31.3 L 19.9 29.5 C 20.5 28.9 20.5 28.0 19.9 27.5 L 17.8 25.6 C 17.2 25.1 17.3 24.1 18.1 24.0 L 20.7 24.0 C 21.5 23.9 22.0 23.3 21.7 22.5 L 20.4 18.6 C 20.1 17.8 20.5 17.5 21.2 17.9 L 24.2 19.6 C 24.9 20.0 25.9 19.8 26.3 19.1 L 27.6 17.2 C 28.0 16.6 28.7 16.6 29.1 17.3 L 30.2 19.4 C 30.6 20.2 31.5 20.5 32.2 20.1 L 34.3 19.0 C 35.0 18.7 36.0 19.1 36.0 19.9 L 35.0 21.8 C 35.0 22.7 36.0 23.8 36.8 24.0 L 38.7 24.0 C 39.5 24.2 39.6 25.1 39.0 25.6 Z M 39.0 25.6 " fill="#FEFFFE"></path></g></g></g></svg>