<?xml version="1.0" encoding="UTF-8" standalone="no"?><svg xmlns="http://www.w3.org/2000/svg" xmlns:xlink="http://www.w3.org/1999/xlink" clip-rule="evenodd" stroke-miterlimit="10" viewBox="0 0 237 25"><desc>SVG generated by Keynote</desc><defs></defs><g transform="matrix(1.00, 0.00, -0.00, -1.00, 0.0, 25.0)"><g><clipPath id="clip0x600000eb51e0"><path d="M 0.0 0.0 L 237.0 0.0 L 237.0 25.0 L 0.0 25.0 Z M 0.0 0.0 "></path></clipPath><g clip-path="url(#clip0x600000eb51e0)"><text xml:space="preserve" font-family="KontrapunktBob-Light,Kontrapunkt Bob" font-size="28.0" fill="#7FC7EA" transform="matrix(1.00, 0.00, -0.00, -1.00, 0.5, 2.3)">S</text><text xml:space="preserve" font-family="KontrapunktBob-Light,Kontrapunkt Bob" font-size="28.0" fill="#7FC7EA" transform="matrix(1.00, 0.00, -0.00, -1.00, 17.3, 2.3)">i</text><text xml:space="preserve" font-family="KontrapunktBob-Light,Kontrapunkt Bob" font-size="28.0" fill="#7FC7EA" transform="matrix(1.00, 0.00, -0.00, -1.00, 26.0, 2.3)">t</text><text xml:space="preserve" font-family="KontrapunktBob-Light,Kontrapunkt Bob" font-size="28.0" fill="#7FC7EA" transform="matrix(1.00, 0.00, -0.00, -1.00, 38.1, 2.3)">u</text><text xml:space="preserve" font-family="KontrapunktBob-Light,Kontrapunkt Bob" font-size="28.0" fill="#7FC7EA" transform="matrix(1.00, 0.00, -0.00, -1.00, 57.0, 2.3)">a</text><text xml:space="preserve" font-family="KontrapunktBob-Light,Kontrapunkt Bob" font-size="28.0" fill="#7FC7EA" transform="matrix(1.00, 0.00, -0.00, -1.00, 73.7, 2.3)">c</text><text xml:space="preserve" font-family="KontrapunktBob-Light,Kontrapunkt Bob" font-size="28.0" fill="#7FC7EA" transform="matrix(1.00, 0.00, -0.00, -1.00, 89.2, 2.3)">i</text><text xml:space="preserve" font-family="KontrapunktBob-Light,Kontrapunkt Bob" font-size="28.0" fill="#7FC7EA" transform="matrix(1.00, 0.00, -0.00, -1.00, 98.0, 2.3)">รณ</text><text xml:space="preserve" font-family="KontrapunktBob-Light,Kontrapunkt Bob" font-size="28.0" fill="#7FC7EA" transform="matrix(1.00, 0.00, -0.00, -1.00, 116.1, 2.3)">n</text><text xml:space="preserve" font-family="KontrapunktBob-Light,Kontrapunkt Bob" font-size="28.0" fill="#7FC7EA" transform="matrix(1.00, 0.00, -0.00, -1.00, 135.5, 2.3)"> </text><text xml:space="preserve" font-family="KontrapunktBob-Light,Kontrapunkt Bob" font-size="28.0" fill="#7FC7EA" transform="matrix(1.00, 0.00, -0.00, -1.00, 142.8, 2.3)">A</text><text xml:space="preserve" font-family="KontrapunktBob-Light,Kontrapunkt Bob" font-size="28.0" fill="#7FC7EA" transform="matrix(1.00, 0.00, -0.00, -1.00, 164.6, 2.3)">c</text><text xml:space="preserve" font-family="KontrapunktBob-Light,Kontrapunkt Bob" font-size="28.0" fill="#7FC7EA" transform="matrix(1.00, 0.00, -0.00, -1.00, 180.1, 2.3)">t</text><text xml:space="preserve" font-family="KontrapunktBob-Light,Kontrapunkt Bob" font-size="28.0" fill="#7FC7EA" transform="matrix(1.00, 0.00, -0.00, -1.00, 192.1, 2.3)">u</text><text xml:space="preserve" font-family="KontrapunktBob-Light,Kontrapunkt Bob" font-size="28.0" fill="#7FC7EA" transform="matrix(1.00, 0.00, -0.00, -1.00, 211.1, 2.3)">a</text><text xml:space="preserve" font-family="KontrapunktBob-Light,Kontrapunkt Bob" font-size="28.0" fill="#7FC7EA" transform="matrix(1.00, 0.00, -0.00, -1.00, 227.8, 2.3)">l</text></g></g></g></svg>