<?xml version="1.0" encoding="UTF-8" standalone="no"?><svg xmlns="http://www.w3.org/2000/svg" xmlns:xlink="http://www.w3.org/1999/xlink" clip-rule="evenodd" stroke-miterlimit="10" viewBox="0 0 814 39"><desc>SVG generated by Keynote</desc><defs></defs><g transform="matrix(1.00, 0.00, -0.00, -1.00, 0.0, 39.0)"><text xml:space="preserve" font-family="KontrapunktBob-Bold,Kontrapunkt Bob" font-weight="bold" font-size="48.0" fill="#7FC7EA" transform="matrix(1.00, 0.00, -0.00, -1.00, -0.4, 2.4)">B</text><text xml:space="preserve" font-family="KontrapunktBob-Bold,Kontrapunkt Bob" font-weight="bold" font-size="48.0" fill="#7FC7EA" transform="matrix(1.00, 0.00, -0.00, -1.00, 35.2, 2.4)">I</text><text xml:space="preserve" font-family="KontrapunktBob-Bold,Kontrapunkt Bob" font-weight="bold" font-size="48.0" fill="#7FC7EA" transform="matrix(1.00, 0.00, -0.00, -1.00, 53.3, 2.4)">E</text><text xml:space="preserve" font-family="KontrapunktBob-Bold,Kontrapunkt Bob" font-weight="bold" font-size="48.0" fill="#7FC7EA" transform="matrix(1.00, 0.00, -0.00, -1.00, 86.2, 2.4)">N</text><text xml:space="preserve" font-family="KontrapunktBob-Bold,Kontrapunkt Bob" font-weight="bold" font-size="48.0" fill="#7FC7EA" transform="matrix(1.00, 0.00, -0.00, -1.00, 127.6, 2.4)">V</text><text xml:space="preserve" font-family="KontrapunktBob-Bold,Kontrapunkt Bob" font-weight="bold" font-size="48.0" fill="#7FC7EA" transform="matrix(1.00, 0.00, -0.00, -1.00, 164.4, 2.4)">E</text><text xml:space="preserve" font-family="KontrapunktBob-Bold,Kontrapunkt Bob" font-weight="bold" font-size="48.0" fill="#7FC7EA" transform="matrix(1.00, 0.00, -0.00, -1.00, 197.3, 2.4)">N</text><text xml:space="preserve" font-family="KontrapunktBob-Bold,Kontrapunkt Bob" font-weight="bold" font-size="48.0" fill="#7FC7EA" transform="matrix(1.00, 0.00, -0.00, -1.00, 238.8, 2.4)">I</text><text xml:space="preserve" font-family="KontrapunktBob-Bold,Kontrapunkt Bob" font-weight="bold" font-size="48.0" fill="#7FC7EA" transform="matrix(1.00, 0.00, -0.00, -1.00, 256.9, 2.4)">D</text><text xml:space="preserve" font-family="KontrapunktBob-Bold,Kontrapunkt Bob" font-weight="bold" font-size="48.0" fill="#7FC7EA" transform="matrix(1.00, 0.00, -0.00, -1.00, 295.2, 2.4)">O</text><text xml:space="preserve" font-family="KontrapunktBob-Bold,Kontrapunkt Bob" font-weight="bold" font-size="48.0" fill="#7FC7EA" transform="matrix(1.00, 0.00, -0.00, -1.00, 334.4, 2.4)">S</text><text xml:space="preserve" font-family="KontrapunktBob-Bold,Kontrapunkt Bob" font-weight="bold" font-size="48.0" fill="#7FC7EA" transform="matrix(1.00, 0.00, -0.00, -1.00, 363.3, 2.4)"> </text><text xml:space="preserve" font-family="KontrapunktBob-Bold,Kontrapunkt Bob" font-weight="bold" font-size="48.0" fill="#7FC7EA" transform="matrix(1.00, 0.00, -0.00, -1.00, 375.8, 2.4)">A</text><text xml:space="preserve" font-family="KontrapunktBob-Bold,Kontrapunkt Bob" font-weight="bold" font-size="48.0" fill="#7FC7EA" transform="matrix(1.00, 0.00, -0.00, -1.00, 413.6, 2.4)"> </text><text xml:space="preserve" font-family="KontrapunktBob-Bold,Kontrapunkt Bob" font-weight="bold" font-size="48.0" fill="#7FC7EA" transform="matrix(1.00, 0.00, -0.00, -1.00, 426.1, 2.4)">L</text><text xml:space="preserve" font-family="KontrapunktBob-Bold,Kontrapunkt Bob" font-weight="bold" font-size="48.0" fill="#7FC7EA" transform="matrix(1.00, 0.00, -0.00, -1.00, 456.4, 2.4)">A</text><text xml:space="preserve" font-family="KontrapunktBob-Bold,Kontrapunkt Bob" font-weight="bold" font-size="48.0" fill="#7FC7EA" transform="matrix(1.00, 0.00, -0.00, -1.00, 494.3, 2.4)"> </text><text xml:space="preserve" font-family="KontrapunktBob-Bold,Kontrapunkt Bob" font-weight="bold" font-size="48.0" fill="#7FC7EA" transform="matrix(1.00, 0.00, -0.00, -1.00, 506.7, 2.4)">E</text><text xml:space="preserve" font-family="KontrapunktBob-Bold,Kontrapunkt Bob" font-weight="bold" font-size="48.0" fill="#7FC7EA" transform="matrix(1.00, 0.00, -0.00, -1.00, 539.7, 2.4)">R</text><text xml:space="preserve" font-family="KontrapunktBob-Bold,Kontrapunkt Bob" font-weight="bold" font-size="48.0" fill="#7FC7EA" transform="matrix(1.00, 0.00, -0.00, -1.00, 576.4, 2.4)">A</text><text xml:space="preserve" font-family="KontrapunktBob-Bold,Kontrapunkt Bob" font-weight="bold" font-size="48.0" fill="#7FC7EA" transform="matrix(1.00, 0.00, -0.00, -1.00, 614.2, 2.4)"> </text><text xml:space="preserve" font-family="KontrapunktBob-Bold,Kontrapunkt Bob" font-weight="bold" font-size="48.0" fill="#7FC7EA" transform="matrix(1.00, 0.00, -0.00, -1.00, 626.7, 2.4)">D</text><text xml:space="preserve" font-family="KontrapunktBob-Bold,Kontrapunkt Bob" font-weight="bold" font-size="48.0" fill="#7FC7EA" transform="matrix(1.00, 0.00, -0.00, -1.00, 665.0, 2.4)">R</text><text xml:space="preserve" font-family="KontrapunktBob-Bold,Kontrapunkt Bob" font-weight="bold" font-size="48.0" fill="#7FC7EA" transform="matrix(1.00, 0.00, -0.00, -1.00, 701.5, 2.4)">O</text><text xml:space="preserve" font-family="KontrapunktBob-Bold,Kontrapunkt Bob" font-weight="bold" font-size="48.0" fill="#7FC7EA" transform="matrix(1.00, 0.00, -0.00, -1.00, 740.0, 2.4)">N</text><text xml:space="preserve" font-family="KontrapunktBob-Bold,Kontrapunkt Bob" font-weight="bold" font-size="48.0" fill="#7FC7EA" transform="matrix(1.00, 0.00, -0.00, -1.00, 781.4, 2.4)">E</text></g></svg>