<?xml version="1.0" encoding="UTF-8" standalone="no"?><svg xmlns="http://www.w3.org/2000/svg" xmlns:xlink="http://www.w3.org/1999/xlink" clip-rule="evenodd" stroke-miterlimit="10" viewBox="0 0 1028 149"><desc>SVG generated by Keynote</desc><defs></defs><g transform="matrix(1.00, 0.00, -0.00, -1.00, 0.0, 149.0)"><g><clipPath id="clip0x6100016a3480"><path d="M 1.0 0.3 L 1027.0 0.3 L 1027.0 148.9 L 1.0 148.9 Z M 1.0 0.3 "></path></clipPath><g clip-path="url(#clip0x6100016a3480)"><path d="M 2.0 148.0 L 1026.0 148.0 L 1026.0 1.0 L 2.0 1.0 Z M 2.0 147.9 " fill="#F1F1F1"></path></g></g><g><clipPath id="clip0x6100016a32a0"><path d="M 1.0 68.2 L 56.9 68.2 L 56.9 81.1 L 1.0 81.1 Z M 1.0 68.2 "></path></clipPath><g clip-path="url(#clip0x6100016a32a0)"><path d="M 2.0 80.0 L 56.0 80.0 L 56.0 69.0 L 2.0 69.0 Z M 2.0 80.1 " fill="#FEFFFE"></path></g></g><g><clipPath id="clip0x6100016a3060"><path d="M 108.9 68.2 L 164.8 68.2 L 164.8 81.1 L 108.9 81.1 Z M 108.9 68.2 "></path></clipPath><g clip-path="url(#clip0x6100016a3060)"><path d="M 110.0 80.0 L 164.0 80.0 L 164.0 69.0 L 110.0 69.0 Z M 109.9 80.1 " fill="#FEFFFE"></path></g></g><g><clipPath id="clip0x6100016a2e20"><path d="M 216.7 68.2 L 272.6 68.2 L 272.6 81.1 L 216.7 81.1 Z M 216.7 68.2 "></path></clipPath><g clip-path="url(#clip0x6100016a2e20)"><path d="M 218.0 80.0 L 272.0 80.0 L 272.0 69.0 L 218.0 69.0 Z M 217.7 80.1 " fill="#FEFFFE"></path></g></g><g><clipPath id="clip0x6100016a2be0"><path d="M 324.6 68.2 L 380.5 68.2 L 380.5 81.1 L 324.6 81.1 Z M 324.6 68.2 "></path></clipPath><g clip-path="url(#clip0x6100016a2be0)"><path d="M 326.0 80.0 L 379.0 80.0 L 379.0 69.0 L 326.0 69.0 Z M 325.6 80.1 " fill="#FEFFFE"></path></g></g><g><clipPath id="clip0x6100016a29a0"><path d="M 432.4 68.2 L 488.3 68.2 L 488.3 81.1 L 432.4 81.1 Z M 432.4 68.2 "></path></clipPath><g clip-path="url(#clip0x6100016a29a0)"><path d="M 433.0 80.0 L 487.0 80.0 L 487.0 69.0 L 433.0 69.0 Z M 433.4 80.1 " fill="#FEFFFE"></path></g></g><g><clipPath id="clip0x6100016a2760"><path d="M 540.3 68.2 L 596.2 68.2 L 596.2 81.1 L 540.3 81.1 Z M 540.3 68.2 "></path></clipPath><g clip-path="url(#clip0x6100016a2760)"><path d="M 541.0 80.0 L 595.0 80.0 L 595.0 69.0 L 541.0 69.0 Z M 541.3 80.1 " fill="#FEFFFE"></path></g></g><g><clipPath id="clip0x6100016a2520"><path d="M 648.1 68.2 L 704.0 68.2 L 704.0 81.1 L 648.1 81.1 Z M 648.1 68.2 "></path></clipPath><g clip-path="url(#clip0x6100016a2520)"><path d="M 649.0 80.0 L 703.0 80.0 L 703.0 69.0 L 649.0 69.0 Z M 649.1 80.1 " fill="#FEFFFE"></path></g></g><g><clipPath id="clip0x6100016a22e0"><path d="M 756.0 68.2 L 811.9 68.2 L 811.9 81.1 L 756.0 81.1 Z M 756.0 68.2 "></path></clipPath><g clip-path="url(#clip0x6100016a22e0)"><path d="M 757.0 80.0 L 811.0 80.0 L 811.0 69.0 L 757.0 69.0 Z M 757.0 80.1 " fill="#FEFFFE"></path></g></g><g><clipPath id="clip0x6100016a20a0"><path d="M 863.8 68.2 L 919.8 68.2 L 919.8 81.1 L 863.8 81.1 Z M 863.8 68.2 "></path></clipPath><g clip-path="url(#clip0x6100016a20a0)"><path d="M 865.0 80.0 L 919.0 80.0 L 919.0 69.0 L 865.0 69.0 Z M 864.8 80.1 " fill="#FEFFFE"></path></g></g><g><clipPath id="clip0x6100016a1e60"><path d="M 971.7 68.2 L 1027.6 68.2 L 1027.6 81.1 L 971.7 81.1 Z M 971.7 68.2 "></path></clipPath><g clip-path="url(#clip0x6100016a1e60)"><path d="M 973.0 80.0 L 1027.0 80.0 L 1027.0 69.0 L 973.0 69.0 Z M 972.7 80.1 " fill="#FEFFFE"></path></g></g></g></svg>