<?xml version="1.0" encoding="UTF-8" standalone="no"?><svg xmlns="http://www.w3.org/2000/svg" xmlns:xlink="http://www.w3.org/1999/xlink" clip-rule="evenodd" stroke-miterlimit="10" viewBox="0 0 189 89"><desc>SVG generated by Keynote</desc><defs></defs><g transform="matrix(1.00, 0.00, -0.00, -1.00, 0.0, 89.0)"><g><clipPath id="clip0x6100014bee40"><path d="M 0.2 0.1 L 132.9 0.1 L 132.9 5.7 L 0.2 5.7 Z M 0.2 0.1 "></path></clipPath><g clip-path="url(#clip0x6100014bee40)"><path d="M 1.0 5.0 L 132.0 5.0 L 132.0 1.0 L 1.0 1.0 Z M 1.2 4.7 " fill="#7FC7EA"></path></g></g><g><clipPath id="clip0x6100014be9c0"><path d="M -0.7 60.8 L 129.9 60.8 L 129.9 87.6 L -0.7 87.6 Z M -0.7 60.8 "></path></clipPath><g clip-path="url(#clip0x6100014be9c0)"><text xml:space="preserve" font-family="KontrapunktBob-Bold,Kontrapunkt Bob" font-weight="bold" font-size="14.0" fill="#A6AAA8" transform="matrix(1.00, 0.00, -0.00, -1.00, 3.4, 69.3)">P</text><text xml:space="preserve" font-family="KontrapunktBob-Bold,Kontrapunkt Bob" font-weight="bold" font-size="14.0" fill="#A6AAA8" transform="matrix(1.00, 0.00, -0.00, -1.00, 12.8, 69.3)">a</text><text xml:space="preserve" font-family="KontrapunktBob-Bold,Kontrapunkt Bob" font-weight="bold" font-size="14.0" fill="#A6AAA8" transform="matrix(1.00, 0.00, -0.00, -1.00, 21.2, 69.3)">s</text><text xml:space="preserve" font-family="KontrapunktBob-Bold,Kontrapunkt Bob" font-weight="bold" font-size="14.0" fill="#A6AAA8" transform="matrix(1.00, 0.00, -0.00, -1.00, 27.9, 69.3)">o</text><text xml:space="preserve" font-family="KontrapunktBob-Bold,Kontrapunkt Bob" font-weight="bold" font-size="14.0" fill="#A6AAA8" transform="matrix(1.00, 0.00, -0.00, -1.00, 37.0, 69.3)"> </text><text xml:space="preserve" font-family="KontrapunktBob-Bold,Kontrapunkt Bob" font-weight="bold" font-size="14.0" fill="#A6AAA8" transform="matrix(1.00, 0.00, -0.00, -1.00, 40.6, 69.3)">1</text><text xml:space="preserve" font-family="KontrapunktBob-Bold,Kontrapunkt Bob" font-weight="bold" font-size="14.0" fill="#A6AAA8" transform="matrix(1.00, 0.00, -0.00, -1.00, 47.2, 69.3)">0</text></g></g><g><clipPath id="clip0x6100014be540"><path d="M -0.3 12.8 L 189.1 12.8 L 189.1 62.4 L -0.3 62.4 Z M -0.3 12.8 "></path></clipPath><g clip-path="url(#clip0x6100014be540)"><text xml:space="preserve" font-family="Aller-Light,Aller Light" font-size="12.0" fill="#52575F" transform="matrix(1.00, 0.00, -0.00, -1.00, 3.3, 48.2)">S</text><text xml:space="preserve" font-family="Aller-Light,Aller Light" font-size="12.0" fill="#52575F" transform="matrix(1.00, 0.00, -0.00, -1.00, 9.8, 48.2)">e</text><text xml:space="preserve" font-family="Aller-Light,Aller Light" font-size="12.0" fill="#52575F" transform="matrix(1.00, 0.00, -0.00, -1.00, 16.4, 48.2)">r</text><text xml:space="preserve" font-family="Aller-Light,Aller Light" font-size="12.0" fill="#52575F" transform="matrix(1.00, 0.00, -0.00, -1.00, 20.6, 48.2)">v</text><text xml:space="preserve" font-family="Aller-Light,Aller Light" font-size="12.0" fill="#52575F" transform="matrix(1.00, 0.00, -0.00, -1.00, 26.9, 48.2)">i</text><text xml:space="preserve" font-family="Aller-Light,Aller Light" font-size="12.0" fill="#52575F" transform="matrix(1.00, 0.00, -0.00, -1.00, 30.1, 48.2)">c</text><text xml:space="preserve" font-family="Aller-Light,Aller Light" font-size="12.0" fill="#52575F" transform="matrix(1.00, 0.00, -0.00, -1.00, 35.9, 48.2)">i</text><text xml:space="preserve" font-family="Aller-Light,Aller Light" font-size="12.0" fill="#52575F" transform="matrix(1.00, 0.00, -0.00, -1.00, 39.2, 48.2)">o</text><text xml:space="preserve" font-family="Aller-Light,Aller Light" font-size="12.0" fill="#52575F" transform="matrix(1.00, 0.00, -0.00, -1.00, 46.1, 48.2)">s</text><text xml:space="preserve" font-family="Aller-Light,Aller Light" font-size="12.0" fill="#52575F" transform="matrix(1.00, 0.00, -0.00, -1.00, 51.5, 48.2)"> </text><text xml:space="preserve" font-family="Aller-Light,Aller Light" font-size="12.0" fill="#52575F" transform="matrix(1.00, 0.00, -0.00, -1.00, 54.5, 48.2)">l</text><text xml:space="preserve" font-family="Aller-Light,Aller Light" font-size="12.0" fill="#52575F" transform="matrix(1.00, 0.00, -0.00, -1.00, 57.8, 48.2)">e</text><text xml:space="preserve" font-family="Aller-Light,Aller Light" font-size="12.0" fill="#52575F" transform="matrix(1.00, 0.00, -0.00, -1.00, 64.4, 48.2)">g</text><text xml:space="preserve" font-family="Aller-Light,Aller Light" font-size="12.0" fill="#52575F" transform="matrix(1.00, 0.00, -0.00, -1.00, 70.8, 48.2)">a</text><text xml:space="preserve" font-family="Aller-Light,Aller Light" font-size="12.0" fill="#52575F" transform="matrix(1.00, 0.00, -0.00, -1.00, 76.9, 48.2)">l</text><text xml:space="preserve" font-family="Aller-Light,Aller Light" font-size="12.0" fill="#52575F" transform="matrix(1.00, 0.00, -0.00, -1.00, 80.3, 48.2)">e</text><text xml:space="preserve" font-family="Aller-Light,Aller Light" font-size="12.0" fill="#52575F" transform="matrix(1.00, 0.00, -0.00, -1.00, 86.9, 48.2)">s</text><text xml:space="preserve" font-family="Aller-Light,Aller Light" font-size="12.0" fill="#52575F" transform="matrix(1.00, 0.00, -0.00, -1.00, 92.4, 48.2)"> </text><text xml:space="preserve" font-family="Aller-Light,Aller Light" font-size="12.0" fill="#52575F" transform="matrix(1.00, 0.00, -0.00, -1.00, 95.4, 48.2)">y</text><text xml:space="preserve" font-family="Aller-Light,Aller Light" font-size="12.0" fill="#52575F" transform="matrix(1.00, 0.00, -0.00, -1.00, 101.5, 48.2)"> </text><text xml:space="preserve" font-family="Aller-Light,Aller Light" font-size="12.0" fill="#52575F" transform="matrix(1.00, 0.00, -0.00, -1.00, 104.5, 48.2)">d</text><text xml:space="preserve" font-family="Aller-Light,Aller Light" font-size="12.0" fill="#52575F" transform="matrix(1.00, 0.00, -0.00, -1.00, 111.6, 48.2)">e</text><text xml:space="preserve" font-family="Aller-Light,Aller Light" font-size="12.0" fill="#52575F" transform="matrix(1.00, 0.00, -0.00, -1.00, 118.2, 48.2)"> </text><text xml:space="preserve" font-family="Aller-Light,Aller Light" font-size="12.0" fill="#52575F" transform="matrix(1.00, 0.00, -0.00, -1.00, 121.2, 48.2)">c</text><text xml:space="preserve" font-family="Aller-Light,Aller Light" font-size="12.0" fill="#52575F" transform="matrix(1.00, 0.00, -0.00, -1.00, 126.8, 48.2)">o</text><text xml:space="preserve" font-family="Aller-Light,Aller Light" font-size="12.0" fill="#52575F" transform="matrix(1.00, 0.00, -0.00, -1.00, 133.7, 48.2)">n</text><text xml:space="preserve" font-family="Aller-Light,Aller Light" font-size="12.0" fill="#52575F" transform="matrix(1.00, 0.00, -0.00, -1.00, 140.5, 48.2)">s</text><text xml:space="preserve" font-family="Aller-Light,Aller Light" font-size="12.0" fill="#52575F" transform="matrix(1.00, 0.00, -0.00, -1.00, 145.9, 48.2)">u</text><text xml:space="preserve" font-family="Aller-Light,Aller Light" font-size="12.0" fill="#52575F" transform="matrix(1.00, 0.00, -0.00, -1.00, 152.8, 48.2)">l</text><text xml:space="preserve" font-family="Aller-Light,Aller Light" font-size="12.0" fill="#52575F" transform="matrix(1.00, 0.00, -0.00, -1.00, 156.2, 48.2)">t</text><text xml:space="preserve" font-family="Aller-Light,Aller Light" font-size="12.0" fill="#52575F" transform="matrix(1.00, 0.00, -0.00, -1.00, 160.3, 48.2)">o</text><text xml:space="preserve" font-family="Aller-Light,Aller Light" font-size="12.0" fill="#52575F" transform="matrix(1.00, 0.00, -0.00, -1.00, 167.2, 48.2)">r</text><text xml:space="preserve" font-family="Aller-Light,Aller Light" font-size="12.0" fill="#52575F" transform="matrix(1.00, 0.00, -0.00, -1.00, 171.4, 48.2)">í</text><text xml:space="preserve" font-family="Aller-Light,Aller Light" font-size="12.0" fill="#52575F" transform="matrix(1.00, 0.00, -0.00, -1.00, 174.6, 48.2)">a</text><text xml:space="preserve" font-family="Aller-Light,Aller Light" font-size="12.0" fill="#52575F" transform="matrix(1.00, 0.00, -0.00, -1.00, 180.8, 48.2)"> </text><text xml:space="preserve" font-family="Aller-Light,Aller Light" font-size="12.0" fill="#52575F" transform="matrix(1.00, 0.00, -0.00, -1.00, 3.3, 34.2)">p</text><text xml:space="preserve" font-family="Aller-Light,Aller Light" font-size="12.0" fill="#52575F" transform="matrix(1.00, 0.00, -0.00, -1.00, 10.4, 34.2)">a</text><text xml:space="preserve" font-family="Aller-Light,Aller Light" font-size="12.0" fill="#52575F" transform="matrix(1.00, 0.00, -0.00, -1.00, 16.5, 34.2)">r</text><text xml:space="preserve" font-family="Aller-Light,Aller Light" font-size="12.0" fill="#52575F" transform="matrix(1.00, 0.00, -0.00, -1.00, 20.6, 34.2)">a</text><text xml:space="preserve" font-family="Aller-Light,Aller Light" font-size="12.0" fill="#52575F" transform="matrix(1.00, 0.00, -0.00, -1.00, 26.8, 34.2)"> </text><text xml:space="preserve" font-family="Aller-Light,Aller Light" font-size="12.0" fill="#52575F" transform="matrix(1.00, 0.00, -0.00, -1.00, 29.8, 34.2)">e</text><text xml:space="preserve" font-family="Aller-Light,Aller Light" font-size="12.0" fill="#52575F" transform="matrix(1.00, 0.00, -0.00, -1.00, 36.4, 34.2)">l</text><text xml:space="preserve" font-family="Aller-Light,Aller Light" font-size="12.0" fill="#52575F" transform="matrix(1.00, 0.00, -0.00, -1.00, 39.7, 34.2)"> </text><text xml:space="preserve" font-family="Aller-Light,Aller Light" font-size="12.0" fill="#52575F" transform="matrix(1.00, 0.00, -0.00, -1.00, 42.7, 34.2)">l</text><text xml:space="preserve" font-family="Aller-Light,Aller Light" font-size="12.0" fill="#52575F" transform="matrix(1.00, 0.00, -0.00, -1.00, 46.1, 34.2)">a</text><text xml:space="preserve" font-family="Aller-Light,Aller Light" font-size="12.0" fill="#52575F" transform="matrix(1.00, 0.00, -0.00, -1.00, 52.2, 34.2)">n</text><text xml:space="preserve" font-family="Aller-Light,Aller Light" font-size="12.0" fill="#52575F" transform="matrix(1.00, 0.00, -0.00, -1.00, 59.1, 34.2)">z</text><text xml:space="preserve" font-family="Aller-Light,Aller Light" font-size="12.0" fill="#52575F" transform="matrix(1.00, 0.00, -0.00, -1.00, 64.6, 34.2)">a</text><text xml:space="preserve" font-family="Aller-Light,Aller Light" font-size="12.0" fill="#52575F" transform="matrix(1.00, 0.00, -0.00, -1.00, 70.7, 34.2)">m</text><text xml:space="preserve" font-family="Aller-Light,Aller Light" font-size="12.0" fill="#52575F" transform="matrix(1.00, 0.00, -0.00, -1.00, 80.8, 34.2)">i</text><text xml:space="preserve" font-family="Aller-Light,Aller Light" font-size="12.0" fill="#52575F" transform="matrix(1.00, 0.00, -0.00, -1.00, 84.0, 34.2)">e</text><text xml:space="preserve" font-family="Aller-Light,Aller Light" font-size="12.0" fill="#52575F" transform="matrix(1.00, 0.00, -0.00, -1.00, 90.7, 34.2)">n</text><text xml:space="preserve" font-family="Aller-Light,Aller Light" font-size="12.0" fill="#52575F" transform="matrix(1.00, 0.00, -0.00, -1.00, 97.5, 34.2)">t</text><text xml:space="preserve" font-family="Aller-Light,Aller Light" font-size="12.0" fill="#52575F" transform="matrix(1.00, 0.00, -0.00, -1.00, 101.6, 34.2)">o</text><text xml:space="preserve" font-family="Aller-Light,Aller Light" font-size="12.0" fill="#52575F" transform="matrix(1.00, 0.00, -0.00, -1.00, 108.5, 34.2)"> </text><text xml:space="preserve" font-family="Aller-Light,Aller Light" font-size="12.0" fill="#52575F" transform="matrix(1.00, 0.00, -0.00, -1.00, 111.5, 34.2)">d</text><text xml:space="preserve" font-family="Aller-Light,Aller Light" font-size="12.0" fill="#52575F" transform="matrix(1.00, 0.00, -0.00, -1.00, 118.5, 34.2)">e</text><text xml:space="preserve" font-family="Aller-Light,Aller Light" font-size="12.0" fill="#52575F" transform="matrix(1.00, 0.00, -0.00, -1.00, 125.1, 34.2)">l</text><text xml:space="preserve" font-family="Aller-Light,Aller Light" font-size="12.0" fill="#52575F" transform="matrix(1.00, 0.00, -0.00, -1.00, 128.5, 34.2)"> </text><text xml:space="preserve" font-family="Aller-Light,Aller Light" font-size="12.0" fill="#52575F" transform="matrix(1.00, 0.00, -0.00, -1.00, 131.5, 34.2)">m</text><text xml:space="preserve" font-family="Aller-Light,Aller Light" font-size="12.0" fill="#52575F" transform="matrix(1.00, 0.00, -0.00, -1.00, 141.5, 34.2)">o</text><text xml:space="preserve" font-family="Aller-Light,Aller Light" font-size="12.0" fill="#52575F" transform="matrix(1.00, 0.00, -0.00, -1.00, 148.4, 34.2)">d</text><text xml:space="preserve" font-family="Aller-Light,Aller Light" font-size="12.0" fill="#52575F" transform="matrix(1.00, 0.00, -0.00, -1.00, 155.4, 34.2)">e</text><text xml:space="preserve" font-family="Aller-Light,Aller Light" font-size="12.0" fill="#52575F" transform="matrix(1.00, 0.00, -0.00, -1.00, 162.1, 34.2)">l</text><text xml:space="preserve" font-family="Aller-Light,Aller Light" font-size="12.0" fill="#52575F" transform="matrix(1.00, 0.00, -0.00, -1.00, 165.4, 34.2)">o</text><text xml:space="preserve" font-family="Aller-Light,Aller Light" font-size="12.0" fill="#52575F" transform="matrix(1.00, 0.00, -0.00, -1.00, 172.3, 34.2)"> </text><text xml:space="preserve" font-family="Aller-Light,Aller Light" font-size="12.0" fill="#52575F" transform="matrix(1.00, 0.00, -0.00, -1.00, 3.3, 20.2)">d</text><text xml:space="preserve" font-family="Aller-Light,Aller Light" font-size="12.0" fill="#52575F" transform="matrix(1.00, 0.00, -0.00, -1.00, 10.3, 20.2)">e</text><text xml:space="preserve" font-family="Aller-Light,Aller Light" font-size="12.0" fill="#52575F" transform="matrix(1.00, 0.00, -0.00, -1.00, 16.9, 20.2)"> </text><text xml:space="preserve" font-family="Aller-Light,Aller Light" font-size="12.0" fill="#52575F" transform="matrix(1.00, 0.00, -0.00, -1.00, 19.9, 20.2)">n</text><text xml:space="preserve" font-family="Aller-Light,Aller Light" font-size="12.0" fill="#52575F" transform="matrix(1.00, 0.00, -0.00, -1.00, 26.8, 20.2)">e</text><text xml:space="preserve" font-family="Aller-Light,Aller Light" font-size="12.0" fill="#52575F" transform="matrix(1.00, 0.00, -0.00, -1.00, 33.3, 20.2)">g</text><text xml:space="preserve" font-family="Aller-Light,Aller Light" font-size="12.0" fill="#52575F" transform="matrix(1.00, 0.00, -0.00, -1.00, 39.6, 20.2)">o</text><text xml:space="preserve" font-family="Aller-Light,Aller Light" font-size="12.0" fill="#52575F" transform="matrix(1.00, 0.00, -0.00, -1.00, 46.5, 20.2)">c</text><text xml:space="preserve" font-family="Aller-Light,Aller Light" font-size="12.0" fill="#52575F" transform="matrix(1.00, 0.00, -0.00, -1.00, 52.3, 20.2)">i</text><text xml:space="preserve" font-family="Aller-Light,Aller Light" font-size="12.0" fill="#52575F" transform="matrix(1.00, 0.00, -0.00, -1.00, 55.6, 20.2)">o</text></g></g></g></svg>