<?xml version="1.0" encoding="UTF-8" standalone="no"?><svg xmlns="http://www.w3.org/2000/svg" xmlns:xlink="http://www.w3.org/1999/xlink" clip-rule="evenodd" stroke-miterlimit="10" viewBox="0 0 189 91"><desc>SVG generated by Keynote</desc><defs></defs><g transform="matrix(1.00, 0.00, -0.00, -1.00, 0.0, 91.0)"><g><clipPath id="clip0x6180016a55e0"><path d="M 0.7 84.6 L 133.5 84.6 L 133.5 90.3 L 0.7 90.3 Z M 0.7 84.6 "></path></clipPath><g clip-path="url(#clip0x6180016a55e0)"><path d="M 2.0 89.0 L 132.0 89.0 L 132.0 86.0 L 2.0 86.0 Z M 1.7 89.3 " fill="#7FC7EA"></path></g></g><g><clipPath id="clip0x6180016a6120"><path d="M -0.6 49.1 L 130.0 49.1 L 130.0 75.9 L -0.6 75.9 Z M -0.6 49.1 "></path></clipPath><g clip-path="url(#clip0x6180016a6120)"><text xml:space="preserve" font-family="KontrapunktBob-Bold,Kontrapunkt Bob" font-weight="bold" font-size="14.0" fill="#A6AAA8" transform="matrix(1.00, 0.00, -0.00, -1.00, 3.5, 57.6)">P</text><text xml:space="preserve" font-family="KontrapunktBob-Bold,Kontrapunkt Bob" font-weight="bold" font-size="14.0" fill="#A6AAA8" transform="matrix(1.00, 0.00, -0.00, -1.00, 13.0, 57.6)">a</text><text xml:space="preserve" font-family="KontrapunktBob-Bold,Kontrapunkt Bob" font-weight="bold" font-size="14.0" fill="#A6AAA8" transform="matrix(1.00, 0.00, -0.00, -1.00, 21.3, 57.6)">s</text><text xml:space="preserve" font-family="KontrapunktBob-Bold,Kontrapunkt Bob" font-weight="bold" font-size="14.0" fill="#A6AAA8" transform="matrix(1.00, 0.00, -0.00, -1.00, 28.0, 57.6)">o</text><text xml:space="preserve" font-family="KontrapunktBob-Bold,Kontrapunkt Bob" font-weight="bold" font-size="14.0" fill="#A6AAA8" transform="matrix(1.00, 0.00, -0.00, -1.00, 37.1, 57.6)"> </text><text xml:space="preserve" font-family="KontrapunktBob-Bold,Kontrapunkt Bob" font-weight="bold" font-size="14.0" fill="#A6AAA8" transform="matrix(1.00, 0.00, -0.00, -1.00, 40.8, 57.6)">0</text><text xml:space="preserve" font-family="KontrapunktBob-Bold,Kontrapunkt Bob" font-weight="bold" font-size="14.0" fill="#A6AAA8" transform="matrix(1.00, 0.00, -0.00, -1.00, 50.6, 57.6)">9</text></g></g><g><clipPath id="clip0x6180016a65a0"><path d="M -0.1 1.1 L 192.4 1.1 L 192.4 50.7 L -0.1 50.7 Z M -0.1 1.1 "></path></clipPath><g clip-path="url(#clip0x6180016a65a0)"><text xml:space="preserve" font-family="Aller-Light,Aller Light" font-size="12.0" fill="#52575F" transform="matrix(1.00, 0.00, -0.00, -1.00, 3.4, 36.5)">B</text><text xml:space="preserve" font-family="Aller-Light,Aller Light" font-size="12.0" fill="#52575F" transform="matrix(1.00, 0.00, -0.00, -1.00, 10.5, 36.5)">ú</text><text xml:space="preserve" font-family="Aller-Light,Aller Light" font-size="12.0" fill="#52575F" transform="matrix(1.00, 0.00, -0.00, -1.00, 17.4, 36.5)">s</text><text xml:space="preserve" font-family="Aller-Light,Aller Light" font-size="12.0" fill="#52575F" transform="matrix(1.00, 0.00, -0.00, -1.00, 22.8, 36.5)">q</text><text xml:space="preserve" font-family="Aller-Light,Aller Light" font-size="12.0" fill="#52575F" transform="matrix(1.00, 0.00, -0.00, -1.00, 29.8, 36.5)">u</text><text xml:space="preserve" font-family="Aller-Light,Aller Light" font-size="12.0" fill="#52575F" transform="matrix(1.00, 0.00, -0.00, -1.00, 36.7, 36.5)">e</text><text xml:space="preserve" font-family="Aller-Light,Aller Light" font-size="12.0" fill="#52575F" transform="matrix(1.00, 0.00, -0.00, -1.00, 43.3, 36.5)">d</text><text xml:space="preserve" font-family="Aller-Light,Aller Light" font-size="12.0" fill="#52575F" transform="matrix(1.00, 0.00, -0.00, -1.00, 50.3, 36.5)">a</text><text xml:space="preserve" font-family="Aller-Light,Aller Light" font-size="12.0" fill="#52575F" transform="matrix(1.00, 0.00, -0.00, -1.00, 56.5, 36.5)"> </text><text xml:space="preserve" font-family="Aller-Light,Aller Light" font-size="12.0" fill="#52575F" transform="matrix(1.00, 0.00, -0.00, -1.00, 59.5, 36.5)">d</text><text xml:space="preserve" font-family="Aller-Light,Aller Light" font-size="12.0" fill="#52575F" transform="matrix(1.00, 0.00, -0.00, -1.00, 66.5, 36.5)">e</text><text xml:space="preserve" font-family="Aller-Light,Aller Light" font-size="12.0" fill="#52575F" transform="matrix(1.00, 0.00, -0.00, -1.00, 73.2, 36.5)"> </text><text xml:space="preserve" font-family="Aller-Light,Aller Light" font-size="12.0" fill="#52575F" transform="matrix(1.00, 0.00, -0.00, -1.00, 76.2, 36.5)">P</text><text xml:space="preserve" font-family="Aller-Light,Aller Light" font-size="12.0" fill="#52575F" transform="matrix(1.00, 0.00, -0.00, -1.00, 82.6, 36.5)">a</text><text xml:space="preserve" font-family="Aller-Light,Aller Light" font-size="12.0" fill="#52575F" transform="matrix(1.00, 0.00, -0.00, -1.00, 88.7, 36.5)">r</text><text xml:space="preserve" font-family="Aller-Light,Aller Light" font-size="12.0" fill="#52575F" transform="matrix(1.00, 0.00, -0.00, -1.00, 92.9, 36.5)">t</text><text xml:space="preserve" font-family="Aller-Light,Aller Light" font-size="12.0" fill="#52575F" transform="matrix(1.00, 0.00, -0.00, -1.00, 97.0, 36.5)">n</text><text xml:space="preserve" font-family="Aller-Light,Aller Light" font-size="12.0" fill="#52575F" transform="matrix(1.00, 0.00, -0.00, -1.00, 103.9, 36.5)">e</text><text xml:space="preserve" font-family="Aller-Light,Aller Light" font-size="12.0" fill="#52575F" transform="matrix(1.00, 0.00, -0.00, -1.00, 110.5, 36.5)">r</text><text xml:space="preserve" font-family="Aller-Light,Aller Light" font-size="12.0" fill="#52575F" transform="matrix(1.00, 0.00, -0.00, -1.00, 114.6, 36.5)">s</text><text xml:space="preserve" font-family="Aller-Light,Aller Light" font-size="12.0" fill="#52575F" transform="matrix(1.00, 0.00, -0.00, -1.00, 120.0, 36.5)">.</text><text xml:space="preserve" font-family="Aller-Light,Aller Light" font-size="12.0" fill="#52575F" transform="matrix(1.00, 0.00, -0.00, -1.00, 122.4, 36.5)"> </text><text xml:space="preserve" font-family="Aller-Light,Aller Light" font-size="12.0" fill="#52575F" transform="matrix(1.00, 0.00, -0.00, -1.00, 125.4, 36.5)">E</text><text xml:space="preserve" font-family="Aller-Light,Aller Light" font-size="12.0" fill="#52575F" transform="matrix(1.00, 0.00, -0.00, -1.00, 131.9, 36.5)">s</text><text xml:space="preserve" font-family="Aller-Light,Aller Light" font-size="12.0" fill="#52575F" transform="matrix(1.00, 0.00, -0.00, -1.00, 137.3, 36.5)">t</text><text xml:space="preserve" font-family="Aller-Light,Aller Light" font-size="12.0" fill="#52575F" transform="matrix(1.00, 0.00, -0.00, -1.00, 141.4, 36.5)">a</text><text xml:space="preserve" font-family="Aller-Light,Aller Light" font-size="12.0" fill="#52575F" transform="matrix(1.00, 0.00, -0.00, -1.00, 147.6, 36.5)">b</text><text xml:space="preserve" font-family="Aller-Light,Aller Light" font-size="12.0" fill="#52575F" transform="matrix(1.00, 0.00, -0.00, -1.00, 154.6, 36.5)">l</text><text xml:space="preserve" font-family="Aller-Light,Aller Light" font-size="12.0" fill="#52575F" transform="matrix(1.00, 0.00, -0.00, -1.00, 158.0, 36.5)">e</text><text xml:space="preserve" font-family="Aller-Light,Aller Light" font-size="12.0" fill="#52575F" transform="matrix(1.00, 0.00, -0.00, -1.00, 164.6, 36.5)">c</text><text xml:space="preserve" font-family="Aller-Light,Aller Light" font-size="12.0" fill="#52575F" transform="matrix(1.00, 0.00, -0.00, -1.00, 170.2, 36.5)">e</text><text xml:space="preserve" font-family="Aller-Light,Aller Light" font-size="12.0" fill="#52575F" transform="matrix(1.00, 0.00, -0.00, -1.00, 176.8, 36.5)">r</text><text xml:space="preserve" font-family="Aller-Light,Aller Light" font-size="12.0" fill="#52575F" transform="matrix(1.00, 0.00, -0.00, -1.00, 181.0, 36.5)"> </text><text xml:space="preserve" font-family="Aller-Light,Aller Light" font-size="12.0" fill="#52575F" transform="matrix(1.00, 0.00, -0.00, -1.00, 3.4, 22.5)">c</text><text xml:space="preserve" font-family="Aller-Light,Aller Light" font-size="12.0" fill="#52575F" transform="matrix(1.00, 0.00, -0.00, -1.00, 9.0, 22.5)">o</text><text xml:space="preserve" font-family="Aller-Light,Aller Light" font-size="12.0" fill="#52575F" transform="matrix(1.00, 0.00, -0.00, -1.00, 15.9, 22.5)">n</text><text xml:space="preserve" font-family="Aller-Light,Aller Light" font-size="12.0" fill="#52575F" transform="matrix(1.00, 0.00, -0.00, -1.00, 22.7, 22.5)">t</text><text xml:space="preserve" font-family="Aller-Light,Aller Light" font-size="12.0" fill="#52575F" transform="matrix(1.00, 0.00, -0.00, -1.00, 26.8, 22.5)">a</text><text xml:space="preserve" font-family="Aller-Light,Aller Light" font-size="12.0" fill="#52575F" transform="matrix(1.00, 0.00, -0.00, -1.00, 33.0, 22.5)">c</text><text xml:space="preserve" font-family="Aller-Light,Aller Light" font-size="12.0" fill="#52575F" transform="matrix(1.00, 0.00, -0.00, -1.00, 38.7, 22.5)">t</text><text xml:space="preserve" font-family="Aller-Light,Aller Light" font-size="12.0" fill="#52575F" transform="matrix(1.00, 0.00, -0.00, -1.00, 42.8, 22.5)">o</text><text xml:space="preserve" font-family="Aller-Light,Aller Light" font-size="12.0" fill="#52575F" transform="matrix(1.00, 0.00, -0.00, -1.00, 49.7, 22.5)">s</text><text xml:space="preserve" font-family="Aller-Light,Aller Light" font-size="12.0" fill="#52575F" transform="matrix(1.00, 0.00, -0.00, -1.00, 55.1, 22.5)"> </text><text xml:space="preserve" font-family="Aller-Light,Aller Light" font-size="12.0" fill="#52575F" transform="matrix(1.00, 0.00, -0.00, -1.00, 58.1, 22.5)">c</text><text xml:space="preserve" font-family="Aller-Light,Aller Light" font-size="12.0" fill="#52575F" transform="matrix(1.00, 0.00, -0.00, -1.00, 63.7, 22.5)">o</text><text xml:space="preserve" font-family="Aller-Light,Aller Light" font-size="12.0" fill="#52575F" transform="matrix(1.00, 0.00, -0.00, -1.00, 70.6, 22.5)">n</text><text xml:space="preserve" font-family="Aller-Light,Aller Light" font-size="12.0" fill="#52575F" transform="matrix(1.00, 0.00, -0.00, -1.00, 77.4, 22.5)"> </text><text xml:space="preserve" font-family="Aller-Light,Aller Light" font-size="12.0" fill="#52575F" transform="matrix(1.00, 0.00, -0.00, -1.00, 80.4, 22.5)">p</text><text xml:space="preserve" font-family="Aller-Light,Aller Light" font-size="12.0" fill="#52575F" transform="matrix(1.00, 0.00, -0.00, -1.00, 87.5, 22.5)">o</text><text xml:space="preserve" font-family="Aller-Light,Aller Light" font-size="12.0" fill="#52575F" transform="matrix(1.00, 0.00, -0.00, -1.00, 94.4, 22.5)">t</text><text xml:space="preserve" font-family="Aller-Light,Aller Light" font-size="12.0" fill="#52575F" transform="matrix(1.00, 0.00, -0.00, -1.00, 98.5, 22.5)">e</text><text xml:space="preserve" font-family="Aller-Light,Aller Light" font-size="12.0" fill="#52575F" transform="matrix(1.00, 0.00, -0.00, -1.00, 105.1, 22.5)">n</text><text xml:space="preserve" font-family="Aller-Light,Aller Light" font-size="12.0" fill="#52575F" transform="matrix(1.00, 0.00, -0.00, -1.00, 112.0, 22.5)">c</text><text xml:space="preserve" font-family="Aller-Light,Aller Light" font-size="12.0" fill="#52575F" transform="matrix(1.00, 0.00, -0.00, -1.00, 117.7, 22.5)">i</text><text xml:space="preserve" font-family="Aller-Light,Aller Light" font-size="12.0" fill="#52575F" transform="matrix(1.00, 0.00, -0.00, -1.00, 121.0, 22.5)">a</text><text xml:space="preserve" font-family="Aller-Light,Aller Light" font-size="12.0" fill="#52575F" transform="matrix(1.00, 0.00, -0.00, -1.00, 127.2, 22.5)">l</text><text xml:space="preserve" font-family="Aller-Light,Aller Light" font-size="12.0" fill="#52575F" transform="matrix(1.00, 0.00, -0.00, -1.00, 130.5, 22.5)">e</text><text xml:space="preserve" font-family="Aller-Light,Aller Light" font-size="12.0" fill="#52575F" transform="matrix(1.00, 0.00, -0.00, -1.00, 137.1, 22.5)">s</text><text xml:space="preserve" font-family="Aller-Light,Aller Light" font-size="12.0" fill="#52575F" transform="matrix(1.00, 0.00, -0.00, -1.00, 142.6, 22.5)"> </text><text xml:space="preserve" font-family="Aller-Light,Aller Light" font-size="12.0" fill="#52575F" transform="matrix(1.00, 0.00, -0.00, -1.00, 145.6, 22.5)">s</text><text xml:space="preserve" font-family="Aller-Light,Aller Light" font-size="12.0" fill="#52575F" transform="matrix(1.00, 0.00, -0.00, -1.00, 151.0, 22.5)">o</text><text xml:space="preserve" font-family="Aller-Light,Aller Light" font-size="12.0" fill="#52575F" transform="matrix(1.00, 0.00, -0.00, -1.00, 157.9, 22.5)">c</text><text xml:space="preserve" font-family="Aller-Light,Aller Light" font-size="12.0" fill="#52575F" transform="matrix(1.00, 0.00, -0.00, -1.00, 163.6, 22.5)">i</text><text xml:space="preserve" font-family="Aller-Light,Aller Light" font-size="12.0" fill="#52575F" transform="matrix(1.00, 0.00, -0.00, -1.00, 166.9, 22.5)">o</text><text xml:space="preserve" font-family="Aller-Light,Aller Light" font-size="12.0" fill="#52575F" transform="matrix(1.00, 0.00, -0.00, -1.00, 173.8, 22.5)">s</text><text xml:space="preserve" font-family="Aller-Light,Aller Light" font-size="12.0" fill="#52575F" transform="matrix(1.00, 0.00, -0.00, -1.00, 179.2, 22.5)">.</text><text xml:space="preserve" font-family="Aller-Light,Aller Light" font-size="12.0" fill="#52575F" transform="matrix(1.00, 0.00, -0.00, -1.00, 181.7, 22.5)"> </text></g></g></g></svg>