<?xml version="1.0" encoding="UTF-8" standalone="no"?><svg xmlns="http://www.w3.org/2000/svg" xmlns:xlink="http://www.w3.org/1999/xlink" clip-rule="evenodd" stroke-miterlimit="10" viewBox="0 0 135 72"><desc>SVG generated by Keynote</desc><defs></defs><g transform="matrix(1.00, 0.00, -0.00, -1.00, 0.0, 72.0)"><g><clipPath id="clip0x6000022ac060"><path d="M 0.3 71.5 L 34.8 71.5 L 34.8 21.2 L 0.3 21.2 Z M 0.3 71.5 "></path></clipPath><g clip-path="url(#clip0x6000022ac060)"><path d="M 24.0 22.2 C 9.0 25.3 -1.0 38.5 1.7 51.6 C 4.4 64.8 18.8 73.0 33.8 69.9 C 33.8 69.9 24.0 22.2 24.0 22.2 Z M 24.0 22.2 " fill="#7FC7EA"></path></g></g><g><clipPath id="clip0x6000022abdc0"><path d="M 35.5 0.8 L 134.7 0.8 L 134.7 69.0 L 35.5 69.0 Z M 35.5 0.8 "></path></clipPath><g clip-path="url(#clip0x6000022abdc0)"><path d="M 36.5 18.1 C 36.5 18.2 46.8 13.5 60.5 9.2 C 74.2 4.9 91.4 1.1 103.2 2.0 C 121.3 3.3 130.3 11.0 132.9 24.0 C 132.9 24.2 133.0 24.3 133.0 24.5 C 135.8 37.5 130.6 48.1 114.5 56.5 C 104.0 62.0 86.7 65.2 72.4 66.7 C 58.0 68.2 46.8 67.9 46.8 68.0 C 42.7 48.4 39.9 34.8 36.5 18.1 " fill="#7FC7EA"></path></g></g><g><clipPath id="clip0x6000022abb80"><path d="M 37.7 66.9 L 130.8 46.4 L 121.8 5.5 L 28.8 25.9 Z M 37.7 66.9 "></path></clipPath><g clip-path="url(#clip0x6000022abb80)"><text xml:space="preserve" font-family="KontrapunktBob-Bold,Kontrapunkt Bob" font-weight="bold" font-size="14.0" fill="#FEFFFE" transform="matrix(0.98, -0.21, -0.21, -0.98, 42.6, 38.9)">C</text><text xml:space="preserve" font-family="KontrapunktBob-Bold,Kontrapunkt Bob" font-weight="bold" font-size="14.0" fill="#FEFFFE" transform="matrix(0.98, -0.21, -0.21, -0.98, 52.3, 36.8)">o</text><text xml:space="preserve" font-family="KontrapunktBob-Bold,Kontrapunkt Bob" font-weight="bold" font-size="14.0" fill="#FEFFFE" transform="matrix(0.98, -0.21, -0.21, -0.98, 61.1, 34.8)">m</text><text xml:space="preserve" font-family="KontrapunktBob-Bold,Kontrapunkt Bob" font-weight="bold" font-size="14.0" fill="#FEFFFE" transform="matrix(0.98, -0.21, -0.21, -0.98, 75.2, 31.8)">e</text><text xml:space="preserve" font-family="KontrapunktBob-Bold,Kontrapunkt Bob" font-weight="bold" font-size="14.0" fill="#FEFFFE" transform="matrix(0.98, -0.21, -0.21, -0.98, 83.3, 30.0)">r</text><text xml:space="preserve" font-family="KontrapunktBob-Bold,Kontrapunkt Bob" font-weight="bold" font-size="14.0" fill="#FEFFFE" transform="matrix(0.98, -0.21, -0.21, -0.98, 89.7, 28.6)">c</text><text xml:space="preserve" font-family="KontrapunktBob-Bold,Kontrapunkt Bob" font-weight="bold" font-size="14.0" fill="#FEFFFE" transform="matrix(0.98, -0.21, -0.21, -0.98, 97.3, 26.9)">i</text><text xml:space="preserve" font-family="KontrapunktBob-Bold,Kontrapunkt Bob" font-weight="bold" font-size="14.0" fill="#FEFFFE" transform="matrix(0.98, -0.21, -0.21, -0.98, 102.0, 25.9)">a</text><text xml:space="preserve" font-family="KontrapunktBob-Bold,Kontrapunkt Bob" font-weight="bold" font-size="14.0" fill="#FEFFFE" transform="matrix(0.98, -0.21, -0.21, -0.98, 110.2, 24.1)">l</text></g></g></g></svg>