<?xml version="1.0" encoding="UTF-8" standalone="no"?><svg xmlns="http://www.w3.org/2000/svg" xmlns:xlink="http://www.w3.org/1999/xlink" clip-rule="evenodd" stroke-miterlimit="10" viewBox="0 0 137 72"><desc>SVG generated by Keynote</desc><defs></defs><g transform="matrix(1.00, 0.00, -0.00, -1.00, 0.0, 72.0)"><g><clipPath id="clip0x6080018a3060"><path d="M 0.1 0.8 L 34.6 0.8 L 34.6 51.1 L 0.1 51.1 Z M 0.1 0.8 "></path></clipPath><g clip-path="url(#clip0x6080018a3060)"><path d="M 23.8 50.1 C 8.8 47.0 -1.2 33.8 1.5 20.7 C 4.2 7.5 18.6 -0.6 33.6 2.4 C 33.6 2.4 23.8 50.1 23.8 50.1 Z M 23.8 50.1 " fill="#7FC7EA"></path></g></g><g><clipPath id="clip0x6080018a3660"><path d="M 35.3 3.3 L 134.5 3.3 L 134.5 71.5 L 35.3 71.5 Z M 35.3 3.3 "></path></clipPath><g clip-path="url(#clip0x6080018a3660)"><path d="M 36.3 54.2 C 36.3 54.1 46.6 58.8 60.4 63.1 C 74.0 67.4 91.2 71.2 103.0 70.3 C 121.1 69.0 130.1 61.3 132.7 48.3 C 132.7 48.1 132.8 48.0 132.8 47.8 C 135.6 34.8 130.4 24.2 114.3 15.8 C 103.8 10.4 86.5 7.1 72.2 5.6 C 57.9 4.1 46.6 4.4 46.6 4.3 C 42.5 23.9 39.7 37.5 36.3 54.2 " fill="#7FC7EA"></path></g></g><g><clipPath id="clip0x6080018a3900"><path d="M 35.1 49.1 L 128.4 68.4 L 136.9 27.3 L 43.6 8.0 Z M 35.1 49.1 "></path></clipPath><g clip-path="url(#clip0x6080018a3900)"><text xml:space="preserve" font-family="KontrapunktBob-Bold,Kontrapunkt Bob" font-weight="bold" font-size="14.0" fill="#FEFFFE" transform="matrix(0.98, 0.20, 0.20, -0.98, 56.7, 26.7)">P</text><text xml:space="preserve" font-family="KontrapunktBob-Bold,Kontrapunkt Bob" font-weight="bold" font-size="14.0" fill="#FEFFFE" transform="matrix(0.98, 0.20, 0.20, -0.98, 65.9, 28.6)">a</text><text xml:space="preserve" font-family="KontrapunktBob-Bold,Kontrapunkt Bob" font-weight="bold" font-size="14.0" fill="#FEFFFE" transform="matrix(0.98, 0.20, 0.20, -0.98, 74.1, 30.3)">r</text><text xml:space="preserve" font-family="KontrapunktBob-Bold,Kontrapunkt Bob" font-weight="bold" font-size="14.0" fill="#FEFFFE" transform="matrix(0.98, 0.20, 0.20, -0.98, 80.6, 31.7)">t</text><text xml:space="preserve" font-family="KontrapunktBob-Bold,Kontrapunkt Bob" font-weight="bold" font-size="14.0" fill="#FEFFFE" transform="matrix(0.98, 0.20, 0.20, -0.98, 86.7, 32.9)">n</text><text xml:space="preserve" font-family="KontrapunktBob-Bold,Kontrapunkt Bob" font-weight="bold" font-size="14.0" fill="#FEFFFE" transform="matrix(0.98, 0.20, 0.20, -0.98, 96.2, 34.9)">e</text><text xml:space="preserve" font-family="KontrapunktBob-Bold,Kontrapunkt Bob" font-weight="bold" font-size="14.0" fill="#FEFFFE" transform="matrix(0.98, 0.20, 0.20, -0.98, 104.3, 36.6)">r</text><text xml:space="preserve" font-family="KontrapunktBob-Bold,Kontrapunkt Bob" font-weight="bold" font-size="14.0" fill="#FEFFFE" transform="matrix(0.98, 0.20, 0.20, -0.98, 110.8, 37.9)">s</text></g></g></g></svg>