<?xml version="1.0" encoding="UTF-8" standalone="no"?><svg xmlns="http://www.w3.org/2000/svg" xmlns:xlink="http://www.w3.org/1999/xlink" clip-rule="evenodd" stroke-miterlimit="10" viewBox="0 0 137 72"><desc>SVG generated by Keynote</desc><defs></defs><g transform="matrix(1.00, 0.00, -0.00, -1.00, 0.0, 72.0)"><g><clipPath id="clip0x6180014b78e0"><path d="M 0.8 0.8 L 35.3 0.8 L 35.3 51.1 L 0.8 51.1 Z M 0.8 0.8 "></path></clipPath><g clip-path="url(#clip0x6180014b78e0)"><path d="M 24.5 50.1 C 9.5 47.0 -0.5 33.8 2.2 20.7 C 4.9 7.5 19.3 -0.6 34.3 2.4 C 34.3 2.4 24.5 50.1 24.5 50.1 Z M 24.5 50.1 " fill="#7FC7EA"></path></g></g><g><clipPath id="clip0x6180014b7b80"><path d="M 36.0 3.3 L 135.2 3.3 L 135.2 71.5 L 36.0 71.5 Z M 36.0 3.3 "></path></clipPath><g clip-path="url(#clip0x6180014b7b80)"><path d="M 37.0 54.2 C 37.0 54.1 47.3 58.8 61.0 63.1 C 74.7 67.4 91.9 71.2 103.7 70.3 C 121.8 69.0 130.8 61.3 133.4 48.3 C 133.4 48.1 133.5 48.0 133.5 47.8 C 136.3 34.8 131.1 24.2 115.0 15.8 C 104.5 10.4 87.2 7.1 72.9 5.6 C 58.6 4.1 47.3 4.4 47.3 4.3 C 43.2 23.9 40.4 37.5 37.0 54.2 " fill="#7FC7EA"></path></g></g><g><clipPath id="clip0x6180014b7dc0"><path d="M 35.8 49.1 L 129.1 68.4 L 137.6 27.3 L 44.3 8.0 Z M 35.8 49.1 "></path></clipPath><g clip-path="url(#clip0x6180014b7dc0)"><text xml:space="preserve" font-family="KontrapunktBob-Bold,Kontrapunkt Bob" font-weight="bold" font-size="14.0" fill="#FEFFFE" transform="matrix(0.98, 0.20, 0.20, -0.98, 53.4, 25.9)">P</text><text xml:space="preserve" font-family="KontrapunktBob-Bold,Kontrapunkt Bob" font-weight="bold" font-size="14.0" fill="#FEFFFE" transform="matrix(0.98, 0.20, 0.20, -0.98, 62.7, 27.8)">r</text><text xml:space="preserve" font-family="KontrapunktBob-Bold,Kontrapunkt Bob" font-weight="bold" font-size="14.0" fill="#FEFFFE" transform="matrix(0.98, 0.20, 0.20, -0.98, 69.1, 29.2)">o</text><text xml:space="preserve" font-family="KontrapunktBob-Bold,Kontrapunkt Bob" font-weight="bold" font-size="14.0" fill="#FEFFFE" transform="matrix(0.98, 0.20, 0.20, -0.98, 78.0, 31.0)">t</text><text xml:space="preserve" font-family="KontrapunktBob-Bold,Kontrapunkt Bob" font-weight="bold" font-size="14.0" fill="#FEFFFE" transform="matrix(0.98, 0.20, 0.20, -0.98, 83.9, 32.2)">o</text><text xml:space="preserve" font-family="KontrapunktBob-Bold,Kontrapunkt Bob" font-weight="bold" font-size="14.0" fill="#FEFFFE" transform="matrix(0.98, 0.20, 0.20, -0.98, 92.8, 34.0)">t</text><text xml:space="preserve" font-family="KontrapunktBob-Bold,Kontrapunkt Bob" font-weight="bold" font-size="14.0" fill="#FEFFFE" transform="matrix(0.98, 0.20, 0.20, -0.98, 98.8, 35.3)">i</text><text xml:space="preserve" font-family="KontrapunktBob-Bold,Kontrapunkt Bob" font-weight="bold" font-size="14.0" fill="#FEFFFE" transform="matrix(0.98, 0.20, 0.20, -0.98, 103.5, 36.3)">p</text><text xml:space="preserve" font-family="KontrapunktBob-Bold,Kontrapunkt Bob" font-weight="bold" font-size="14.0" fill="#FEFFFE" transform="matrix(0.98, 0.20, 0.20, -0.98, 113.1, 38.3)">o</text></g></g></g></svg>