<?xml version="1.0" encoding="UTF-8" standalone="no"?><svg xmlns="http://www.w3.org/2000/svg" xmlns:xlink="http://www.w3.org/1999/xlink" clip-rule="evenodd" stroke-miterlimit="10" viewBox="0 0 133 89"><desc>SVG generated by Keynote</desc><defs></defs><g transform="matrix(1.00, 0.00, -0.00, -1.00, 0.0, 89.0)"><g><clipPath id="clip0x6000020bcaa0"><path d="M 0.1 0.1 L 132.8 0.1 L 132.8 5.7 L 0.1 5.7 Z M 0.1 0.1 "></path></clipPath><g clip-path="url(#clip0x6000020bcaa0)"><path d="M 1.0 5.0 L 132.0 5.0 L 132.0 1.0 L 1.0 1.0 Z M 1.1 4.7 " fill="#7FC7EA"></path></g></g><g><clipPath id="clip0x6000020bd340"><path d="M -0.8 60.8 L 129.8 60.8 L 129.8 87.6 L -0.8 87.6 Z M -0.8 60.8 "></path></clipPath><g clip-path="url(#clip0x6000020bd340)"><text xml:space="preserve" font-family="KontrapunktBob-Bold,Kontrapunkt Bob" font-weight="bold" font-size="14.0" fill="#A6AAA8" transform="matrix(1.00, 0.00, -0.00, -1.00, 3.3, 69.3)">P</text><text xml:space="preserve" font-family="KontrapunktBob-Bold,Kontrapunkt Bob" font-weight="bold" font-size="14.0" fill="#A6AAA8" transform="matrix(1.00, 0.00, -0.00, -1.00, 12.7, 69.3)">a</text><text xml:space="preserve" font-family="KontrapunktBob-Bold,Kontrapunkt Bob" font-weight="bold" font-size="14.0" fill="#A6AAA8" transform="matrix(1.00, 0.00, -0.00, -1.00, 21.1, 69.3)">s</text><text xml:space="preserve" font-family="KontrapunktBob-Bold,Kontrapunkt Bob" font-weight="bold" font-size="14.0" fill="#A6AAA8" transform="matrix(1.00, 0.00, -0.00, -1.00, 27.8, 69.3)">o</text><text xml:space="preserve" font-family="KontrapunktBob-Bold,Kontrapunkt Bob" font-weight="bold" font-size="14.0" fill="#A6AAA8" transform="matrix(1.00, 0.00, -0.00, -1.00, 36.9, 69.3)"> </text><text xml:space="preserve" font-family="KontrapunktBob-Bold,Kontrapunkt Bob" font-weight="bold" font-size="14.0" fill="#A6AAA8" transform="matrix(1.00, 0.00, -0.00, -1.00, 40.5, 69.3)">0</text><text xml:space="preserve" font-family="KontrapunktBob-Bold,Kontrapunkt Bob" font-weight="bold" font-size="14.0" fill="#A6AAA8" transform="matrix(1.00, 0.00, -0.00, -1.00, 50.3, 69.3)">6</text></g></g><g><clipPath id="clip0x6000020bdac0"><path d="M -0.4 12.8 L 133.2 12.8 L 133.2 62.4 L -0.4 62.4 Z M -0.4 12.8 "></path></clipPath><g clip-path="url(#clip0x6000020bdac0)"><text xml:space="preserve" font-family="Aller-Light,Aller Light" font-size="12.0" fill="#52575F" transform="matrix(1.00, 0.00, -0.00, -1.00, 3.2, 48.2)">A</text><text xml:space="preserve" font-family="Aller-Light,Aller Light" font-size="12.0" fill="#52575F" transform="matrix(1.00, 0.00, -0.00, -1.00, 10.4, 48.2)">j</text><text xml:space="preserve" font-family="Aller-Light,Aller Light" font-size="12.0" fill="#52575F" transform="matrix(1.00, 0.00, -0.00, -1.00, 13.8, 48.2)">u</text><text xml:space="preserve" font-family="Aller-Light,Aller Light" font-size="12.0" fill="#52575F" transform="matrix(1.00, 0.00, -0.00, -1.00, 20.7, 48.2)">s</text><text xml:space="preserve" font-family="Aller-Light,Aller Light" font-size="12.0" fill="#52575F" transform="matrix(1.00, 0.00, -0.00, -1.00, 26.1, 48.2)">t</text><text xml:space="preserve" font-family="Aller-Light,Aller Light" font-size="12.0" fill="#52575F" transform="matrix(1.00, 0.00, -0.00, -1.00, 30.2, 48.2)">e</text><text xml:space="preserve" font-family="Aller-Light,Aller Light" font-size="12.0" fill="#52575F" transform="matrix(1.00, 0.00, -0.00, -1.00, 36.8, 48.2)">s</text><text xml:space="preserve" font-family="Aller-Light,Aller Light" font-size="12.0" fill="#52575F" transform="matrix(1.00, 0.00, -0.00, -1.00, 42.2, 48.2)"> </text><text xml:space="preserve" font-family="Aller-Light,Aller Light" font-size="12.0" fill="#52575F" transform="matrix(1.00, 0.00, -0.00, -1.00, 45.2, 48.2)">ﬁ</text><text xml:space="preserve" font-family="Aller-Light,Aller Light" font-size="12.0" fill="#52575F" transform="matrix(1.00, 0.00, -0.00, -1.00, 52.2, 48.2)">n</text><text xml:space="preserve" font-family="Aller-Light,Aller Light" font-size="12.0" fill="#52575F" transform="matrix(1.00, 0.00, -0.00, -1.00, 59.0, 48.2)">a</text><text xml:space="preserve" font-family="Aller-Light,Aller Light" font-size="12.0" fill="#52575F" transform="matrix(1.00, 0.00, -0.00, -1.00, 65.2, 48.2)">l</text><text xml:space="preserve" font-family="Aller-Light,Aller Light" font-size="12.0" fill="#52575F" transform="matrix(1.00, 0.00, -0.00, -1.00, 68.6, 48.2)">e</text><text xml:space="preserve" font-family="Aller-Light,Aller Light" font-size="12.0" fill="#52575F" transform="matrix(1.00, 0.00, -0.00, -1.00, 75.2, 48.2)">s</text><text xml:space="preserve" font-family="Aller-Light,Aller Light" font-size="12.0" fill="#52575F" transform="matrix(1.00, 0.00, -0.00, -1.00, 80.6, 48.2)"> </text><text xml:space="preserve" font-family="Aller-Light,Aller Light" font-size="12.0" fill="#52575F" transform="matrix(1.00, 0.00, -0.00, -1.00, 83.6, 48.2)">e</text><text xml:space="preserve" font-family="Aller-Light,Aller Light" font-size="12.0" fill="#52575F" transform="matrix(1.00, 0.00, -0.00, -1.00, 90.2, 48.2)"> </text><text xml:space="preserve" font-family="Aller-Light,Aller Light" font-size="12.0" fill="#52575F" transform="matrix(1.00, 0.00, -0.00, -1.00, 3.2, 34.2)">i</text><text xml:space="preserve" font-family="Aller-Light,Aller Light" font-size="12.0" fill="#52575F" transform="matrix(1.00, 0.00, -0.00, -1.00, 6.5, 34.2)">n</text><text xml:space="preserve" font-family="Aller-Light,Aller Light" font-size="12.0" fill="#52575F" transform="matrix(1.00, 0.00, -0.00, -1.00, 13.3, 34.2)">t</text><text xml:space="preserve" font-family="Aller-Light,Aller Light" font-size="12.0" fill="#52575F" transform="matrix(1.00, 0.00, -0.00, -1.00, 17.4, 34.2)">e</text><text xml:space="preserve" font-family="Aller-Light,Aller Light" font-size="12.0" fill="#52575F" transform="matrix(1.00, 0.00, -0.00, -1.00, 23.9, 34.2)">g</text><text xml:space="preserve" font-family="Aller-Light,Aller Light" font-size="12.0" fill="#52575F" transform="matrix(1.00, 0.00, -0.00, -1.00, 30.4, 34.2)">r</text><text xml:space="preserve" font-family="Aller-Light,Aller Light" font-size="12.0" fill="#52575F" transform="matrix(1.00, 0.00, -0.00, -1.00, 34.4, 34.2)">a</text><text xml:space="preserve" font-family="Aller-Light,Aller Light" font-size="12.0" fill="#52575F" transform="matrix(1.00, 0.00, -0.00, -1.00, 40.6, 34.2)">c</text><text xml:space="preserve" font-family="Aller-Light,Aller Light" font-size="12.0" fill="#52575F" transform="matrix(1.00, 0.00, -0.00, -1.00, 46.4, 34.2)">i</text><text xml:space="preserve" font-family="Aller-Light,Aller Light" font-size="12.0" fill="#52575F" transform="matrix(1.00, 0.00, -0.00, -1.00, 49.6, 34.2)">ó</text><text xml:space="preserve" font-family="Aller-Light,Aller Light" font-size="12.0" fill="#52575F" transform="matrix(1.00, 0.00, -0.00, -1.00, 56.5, 34.2)">n</text><text xml:space="preserve" font-family="Aller-Light,Aller Light" font-size="12.0" fill="#52575F" transform="matrix(1.00, 0.00, -0.00, -1.00, 63.4, 34.2)"> </text><text xml:space="preserve" font-family="Aller-Light,Aller Light" font-size="12.0" fill="#52575F" transform="matrix(1.00, 0.00, -0.00, -1.00, 66.4, 34.2)">d</text><text xml:space="preserve" font-family="Aller-Light,Aller Light" font-size="12.0" fill="#52575F" transform="matrix(1.00, 0.00, -0.00, -1.00, 73.4, 34.2)">e</text><text xml:space="preserve" font-family="Aller-Light,Aller Light" font-size="12.0" fill="#52575F" transform="matrix(1.00, 0.00, -0.00, -1.00, 80.0, 34.2)">l</text><text xml:space="preserve" font-family="Aller-Light,Aller Light" font-size="12.0" fill="#52575F" transform="matrix(1.00, 0.00, -0.00, -1.00, 83.4, 34.2)"> </text><text xml:space="preserve" font-family="Aller-Light,Aller Light" font-size="12.0" fill="#52575F" transform="matrix(1.00, 0.00, -0.00, -1.00, 86.4, 34.2)">s</text><text xml:space="preserve" font-family="Aller-Light,Aller Light" font-size="12.0" fill="#52575F" transform="matrix(1.00, 0.00, -0.00, -1.00, 91.8, 34.2)">i</text><text xml:space="preserve" font-family="Aller-Light,Aller Light" font-size="12.0" fill="#52575F" transform="matrix(1.00, 0.00, -0.00, -1.00, 95.1, 34.2)">s</text><text xml:space="preserve" font-family="Aller-Light,Aller Light" font-size="12.0" fill="#52575F" transform="matrix(1.00, 0.00, -0.00, -1.00, 100.5, 34.2)">t</text><text xml:space="preserve" font-family="Aller-Light,Aller Light" font-size="12.0" fill="#52575F" transform="matrix(1.00, 0.00, -0.00, -1.00, 104.6, 34.2)">e</text><text xml:space="preserve" font-family="Aller-Light,Aller Light" font-size="12.0" fill="#52575F" transform="matrix(1.00, 0.00, -0.00, -1.00, 111.2, 34.2)">m</text><text xml:space="preserve" font-family="Aller-Light,Aller Light" font-size="12.0" fill="#52575F" transform="matrix(1.00, 0.00, -0.00, -1.00, 121.2, 34.2)">a</text></g></g></g></svg>