<?xml version="1.0" encoding="UTF-8" standalone="no"?><svg xmlns="http://www.w3.org/2000/svg" xmlns:xlink="http://www.w3.org/1999/xlink" clip-rule="evenodd" stroke-miterlimit="10" viewBox="0 0 189 89"><desc>SVG generated by Keynote</desc><defs></defs><g transform="matrix(1.00, 0.00, -0.00, -1.00, 0.0, 89.0)"><g><clipPath id="clip0x6180014b9560"><path d="M 0.3 0.1 L 133.0 0.1 L 133.0 5.7 L 0.3 5.7 Z M 0.3 0.1 "></path></clipPath><g clip-path="url(#clip0x6180014b9560)"><path d="M 1.0 5.0 L 132.0 5.0 L 132.0 1.0 L 1.0 1.0 Z M 1.3 4.7 " fill="#7FC7EA"></path></g></g><g><clipPath id="clip0x6180014b99e0"><path d="M -0.9 60.1 L 130.3 60.1 L 130.3 87.6 L -0.9 87.6 Z M -0.9 60.1 "></path></clipPath><g clip-path="url(#clip0x6180014b99e0)"><text xml:space="preserve" font-family="KontrapunktBob-Bold,Kontrapunkt Bob" font-weight="bold" font-size="15.0" fill="#A6AAA8" transform="matrix(1.00, 0.00, -0.00, -1.00, 3.5, 68.6)">P</text><text xml:space="preserve" font-family="KontrapunktBob-Bold,Kontrapunkt Bob" font-weight="bold" font-size="15.0" fill="#A6AAA8" transform="matrix(1.00, 0.00, -0.00, -1.00, 13.6, 68.6)">a</text><text xml:space="preserve" font-family="KontrapunktBob-Bold,Kontrapunkt Bob" font-weight="bold" font-size="15.0" fill="#A6AAA8" transform="matrix(1.00, 0.00, -0.00, -1.00, 22.6, 68.6)">s</text><text xml:space="preserve" font-family="KontrapunktBob-Bold,Kontrapunkt Bob" font-weight="bold" font-size="15.0" fill="#A6AAA8" transform="matrix(1.00, 0.00, -0.00, -1.00, 29.7, 68.6)">o</text><text xml:space="preserve" font-family="KontrapunktBob-Bold,Kontrapunkt Bob" font-weight="bold" font-size="15.0" fill="#A6AAA8" transform="matrix(1.00, 0.00, -0.00, -1.00, 39.5, 68.6)"> </text><text xml:space="preserve" font-family="KontrapunktBob-Bold,Kontrapunkt Bob" font-weight="bold" font-size="15.0" fill="#A6AAA8" transform="matrix(1.00, 0.00, -0.00, -1.00, 43.4, 68.6)">0</text><text xml:space="preserve" font-family="KontrapunktBob-Bold,Kontrapunkt Bob" font-weight="bold" font-size="15.0" fill="#A6AAA8" transform="matrix(1.00, 0.00, -0.00, -1.00, 53.9, 68.6)">2</text></g></g><g><clipPath id="clip0x6180014b9e60"><path d="M -0.2 12.8 L 189.2 12.8 L 189.2 62.4 L -0.2 62.4 Z M -0.2 12.8 "></path></clipPath><g clip-path="url(#clip0x6180014b9e60)"><text xml:space="preserve" font-family="Aller-Light,Aller Light" font-size="12.0" fill="#52575F" transform="matrix(1.00, 0.00, -0.00, -1.00, 3.4, 48.2)">A</text><text xml:space="preserve" font-family="Aller-Light,Aller Light" font-size="12.0" fill="#52575F" transform="matrix(1.00, 0.00, -0.00, -1.00, 10.6, 48.2)">d</text><text xml:space="preserve" font-family="Aller-Light,Aller Light" font-size="12.0" fill="#52575F" transform="matrix(1.00, 0.00, -0.00, -1.00, 17.6, 48.2)">a</text><text xml:space="preserve" font-family="Aller-Light,Aller Light" font-size="12.0" fill="#52575F" transform="matrix(1.00, 0.00, -0.00, -1.00, 23.8, 48.2)">p</text><text xml:space="preserve" font-family="Aller-Light,Aller Light" font-size="12.0" fill="#52575F" transform="matrix(1.00, 0.00, -0.00, -1.00, 30.9, 48.2)">t</text><text xml:space="preserve" font-family="Aller-Light,Aller Light" font-size="12.0" fill="#52575F" transform="matrix(1.00, 0.00, -0.00, -1.00, 34.9, 48.2)">a</text><text xml:space="preserve" font-family="Aller-Light,Aller Light" font-size="12.0" fill="#52575F" transform="matrix(1.00, 0.00, -0.00, -1.00, 41.1, 48.2)">c</text><text xml:space="preserve" font-family="Aller-Light,Aller Light" font-size="12.0" fill="#52575F" transform="matrix(1.00, 0.00, -0.00, -1.00, 46.8, 48.2)">i</text><text xml:space="preserve" font-family="Aller-Light,Aller Light" font-size="12.0" fill="#52575F" transform="matrix(1.00, 0.00, -0.00, -1.00, 50.1, 48.2)">ó</text><text xml:space="preserve" font-family="Aller-Light,Aller Light" font-size="12.0" fill="#52575F" transform="matrix(1.00, 0.00, -0.00, -1.00, 57.0, 48.2)">n</text><text xml:space="preserve" font-family="Aller-Light,Aller Light" font-size="12.0" fill="#52575F" transform="matrix(1.00, 0.00, -0.00, -1.00, 63.9, 48.2)"> </text><text xml:space="preserve" font-family="Aller-Light,Aller Light" font-size="12.0" fill="#52575F" transform="matrix(1.00, 0.00, -0.00, -1.00, 66.9, 48.2)">e</text><text xml:space="preserve" font-family="Aller-Light,Aller Light" font-size="12.0" fill="#52575F" transform="matrix(1.00, 0.00, -0.00, -1.00, 73.5, 48.2)"> </text><text xml:space="preserve" font-family="Aller-Light,Aller Light" font-size="12.0" fill="#52575F" transform="matrix(1.00, 0.00, -0.00, -1.00, 76.5, 48.2)">i</text><text xml:space="preserve" font-family="Aller-Light,Aller Light" font-size="12.0" fill="#52575F" transform="matrix(1.00, 0.00, -0.00, -1.00, 79.8, 48.2)">n</text><text xml:space="preserve" font-family="Aller-Light,Aller Light" font-size="12.0" fill="#52575F" transform="matrix(1.00, 0.00, -0.00, -1.00, 86.6, 48.2)">g</text><text xml:space="preserve" font-family="Aller-Light,Aller Light" font-size="12.0" fill="#52575F" transform="matrix(1.00, 0.00, -0.00, -1.00, 93.0, 48.2)">e</text><text xml:space="preserve" font-family="Aller-Light,Aller Light" font-size="12.0" fill="#52575F" transform="matrix(1.00, 0.00, -0.00, -1.00, 99.6, 48.2)">n</text><text xml:space="preserve" font-family="Aller-Light,Aller Light" font-size="12.0" fill="#52575F" transform="matrix(1.00, 0.00, -0.00, -1.00, 106.5, 48.2)">i</text><text xml:space="preserve" font-family="Aller-Light,Aller Light" font-size="12.0" fill="#52575F" transform="matrix(1.00, 0.00, -0.00, -1.00, 109.7, 48.2)">e</text><text xml:space="preserve" font-family="Aller-Light,Aller Light" font-size="12.0" fill="#52575F" transform="matrix(1.00, 0.00, -0.00, -1.00, 116.4, 48.2)">r</text><text xml:space="preserve" font-family="Aller-Light,Aller Light" font-size="12.0" fill="#52575F" transform="matrix(1.00, 0.00, -0.00, -1.00, 120.6, 48.2)">í</text><text xml:space="preserve" font-family="Aller-Light,Aller Light" font-size="12.0" fill="#52575F" transform="matrix(1.00, 0.00, -0.00, -1.00, 123.8, 48.2)">a</text><text xml:space="preserve" font-family="Aller-Light,Aller Light" font-size="12.0" fill="#52575F" transform="matrix(1.00, 0.00, -0.00, -1.00, 130.0, 48.2)"> </text><text xml:space="preserve" font-family="Aller-Light,Aller Light" font-size="12.0" fill="#52575F" transform="matrix(1.00, 0.00, -0.00, -1.00, 133.0, 48.2)">d</text><text xml:space="preserve" font-family="Aller-Light,Aller Light" font-size="12.0" fill="#52575F" transform="matrix(1.00, 0.00, -0.00, -1.00, 140.0, 48.2)">e</text><text xml:space="preserve" font-family="Aller-Light,Aller Light" font-size="12.0" fill="#52575F" transform="matrix(1.00, 0.00, -0.00, -1.00, 146.7, 48.2)"> </text><text xml:space="preserve" font-family="Aller-Light,Aller Light" font-size="12.0" fill="#52575F" transform="matrix(1.00, 0.00, -0.00, -1.00, 149.7, 48.2)">l</text><text xml:space="preserve" font-family="Aller-Light,Aller Light" font-size="12.0" fill="#52575F" transform="matrix(1.00, 0.00, -0.00, -1.00, 153.0, 48.2)">a</text><text xml:space="preserve" font-family="Aller-Light,Aller Light" font-size="12.0" fill="#52575F" transform="matrix(1.00, 0.00, -0.00, -1.00, 159.2, 48.2)"> </text><text xml:space="preserve" font-family="Aller-Light,Aller Light" font-size="12.0" fill="#52575F" transform="matrix(1.00, 0.00, -0.00, -1.00, 3.4, 34.2)">m</text><text xml:space="preserve" font-family="Aller-Light,Aller Light" font-size="12.0" fill="#52575F" transform="matrix(1.00, 0.00, -0.00, -1.00, 13.4, 34.2)">á</text><text xml:space="preserve" font-family="Aller-Light,Aller Light" font-size="12.0" fill="#52575F" transform="matrix(1.00, 0.00, -0.00, -1.00, 19.6, 34.2)">q</text><text xml:space="preserve" font-family="Aller-Light,Aller Light" font-size="12.0" fill="#52575F" transform="matrix(1.00, 0.00, -0.00, -1.00, 26.6, 34.2)">u</text><text xml:space="preserve" font-family="Aller-Light,Aller Light" font-size="12.0" fill="#52575F" transform="matrix(1.00, 0.00, -0.00, -1.00, 33.5, 34.2)">i</text><text xml:space="preserve" font-family="Aller-Light,Aller Light" font-size="12.0" fill="#52575F" transform="matrix(1.00, 0.00, -0.00, -1.00, 36.8, 34.2)">n</text><text xml:space="preserve" font-family="Aller-Light,Aller Light" font-size="12.0" fill="#52575F" transform="matrix(1.00, 0.00, -0.00, -1.00, 43.6, 34.2)">a</text><text xml:space="preserve" font-family="Aller-Light,Aller Light" font-size="12.0" fill="#52575F" transform="matrix(1.00, 0.00, -0.00, -1.00, 49.8, 34.2)"> </text><text xml:space="preserve" font-family="Aller-Light,Aller Light" font-size="12.0" fill="#52575F" transform="matrix(1.00, 0.00, -0.00, -1.00, 52.8, 34.2)">p</text><text xml:space="preserve" font-family="Aller-Light,Aller Light" font-size="12.0" fill="#52575F" transform="matrix(1.00, 0.00, -0.00, -1.00, 59.8, 34.2)">a</text><text xml:space="preserve" font-family="Aller-Light,Aller Light" font-size="12.0" fill="#52575F" transform="matrix(1.00, 0.00, -0.00, -1.00, 66.0, 34.2)">r</text><text xml:space="preserve" font-family="Aller-Light,Aller Light" font-size="12.0" fill="#52575F" transform="matrix(1.00, 0.00, -0.00, -1.00, 70.1, 34.2)">a</text><text xml:space="preserve" font-family="Aller-Light,Aller Light" font-size="12.0" fill="#52575F" transform="matrix(1.00, 0.00, -0.00, -1.00, 76.2, 34.2)"> </text><text xml:space="preserve" font-family="Aller-Light,Aller Light" font-size="12.0" fill="#52575F" transform="matrix(1.00, 0.00, -0.00, -1.00, 79.2, 34.2)">s</text><text xml:space="preserve" font-family="Aller-Light,Aller Light" font-size="12.0" fill="#52575F" transform="matrix(1.00, 0.00, -0.00, -1.00, 84.7, 34.2)">e</text><text xml:space="preserve" font-family="Aller-Light,Aller Light" font-size="12.0" fill="#52575F" transform="matrix(1.00, 0.00, -0.00, -1.00, 91.3, 34.2)">r</text><text xml:space="preserve" font-family="Aller-Light,Aller Light" font-size="12.0" fill="#52575F" transform="matrix(1.00, 0.00, -0.00, -1.00, 95.5, 34.2)"> </text><text xml:space="preserve" font-family="Aller-Light,Aller Light" font-size="12.0" fill="#52575F" transform="matrix(1.00, 0.00, -0.00, -1.00, 98.5, 34.2)">a</text><text xml:space="preserve" font-family="Aller-Light,Aller Light" font-size="12.0" fill="#52575F" transform="matrix(1.00, 0.00, -0.00, -1.00, 104.7, 34.2)">d</text><text xml:space="preserve" font-family="Aller-Light,Aller Light" font-size="12.0" fill="#52575F" transform="matrix(1.00, 0.00, -0.00, -1.00, 111.7, 34.2)">a</text><text xml:space="preserve" font-family="Aller-Light,Aller Light" font-size="12.0" fill="#52575F" transform="matrix(1.00, 0.00, -0.00, -1.00, 117.8, 34.2)">p</text><text xml:space="preserve" font-family="Aller-Light,Aller Light" font-size="12.0" fill="#52575F" transform="matrix(1.00, 0.00, -0.00, -1.00, 124.9, 34.2)">t</text><text xml:space="preserve" font-family="Aller-Light,Aller Light" font-size="12.0" fill="#52575F" transform="matrix(1.00, 0.00, -0.00, -1.00, 129.0, 34.2)">a</text><text xml:space="preserve" font-family="Aller-Light,Aller Light" font-size="12.0" fill="#52575F" transform="matrix(1.00, 0.00, -0.00, -1.00, 135.1, 34.2)">d</text><text xml:space="preserve" font-family="Aller-Light,Aller Light" font-size="12.0" fill="#52575F" transform="matrix(1.00, 0.00, -0.00, -1.00, 142.1, 34.2)">a</text><text xml:space="preserve" font-family="Aller-Light,Aller Light" font-size="12.0" fill="#52575F" transform="matrix(1.00, 0.00, -0.00, -1.00, 148.3, 34.2)"> </text><text xml:space="preserve" font-family="Aller-Light,Aller Light" font-size="12.0" fill="#52575F" transform="matrix(1.00, 0.00, -0.00, -1.00, 151.3, 34.2)">a</text><text xml:space="preserve" font-family="Aller-Light,Aller Light" font-size="12.0" fill="#52575F" transform="matrix(1.00, 0.00, -0.00, -1.00, 157.5, 34.2)"> </text><text xml:space="preserve" font-family="Aller-Light,Aller Light" font-size="12.0" fill="#52575F" transform="matrix(1.00, 0.00, -0.00, -1.00, 160.5, 34.2)">l</text><text xml:space="preserve" font-family="Aller-Light,Aller Light" font-size="12.0" fill="#52575F" transform="matrix(1.00, 0.00, -0.00, -1.00, 163.8, 34.2)">a</text><text xml:space="preserve" font-family="Aller-Light,Aller Light" font-size="12.0" fill="#52575F" transform="matrix(1.00, 0.00, -0.00, -1.00, 170.0, 34.2)"> </text><text xml:space="preserve" font-family="Aller-Light,Aller Light" font-size="12.0" fill="#52575F" transform="matrix(1.00, 0.00, -0.00, -1.00, 3.4, 20.2)">a</text><text xml:space="preserve" font-family="Aller-Light,Aller Light" font-size="12.0" fill="#52575F" transform="matrix(1.00, 0.00, -0.00, -1.00, 9.5, 20.2)">p</text><text xml:space="preserve" font-family="Aller-Light,Aller Light" font-size="12.0" fill="#52575F" transform="matrix(1.00, 0.00, -0.00, -1.00, 16.6, 20.2)">l</text><text xml:space="preserve" font-family="Aller-Light,Aller Light" font-size="12.0" fill="#52575F" transform="matrix(1.00, 0.00, -0.00, -1.00, 20.0, 20.2)">i</text><text xml:space="preserve" font-family="Aller-Light,Aller Light" font-size="12.0" fill="#52575F" transform="matrix(1.00, 0.00, -0.00, -1.00, 23.2, 20.2)">c</text><text xml:space="preserve" font-family="Aller-Light,Aller Light" font-size="12.0" fill="#52575F" transform="matrix(1.00, 0.00, -0.00, -1.00, 29.0, 20.2)">a</text><text xml:space="preserve" font-family="Aller-Light,Aller Light" font-size="12.0" fill="#52575F" transform="matrix(1.00, 0.00, -0.00, -1.00, 35.2, 20.2)">c</text><text xml:space="preserve" font-family="Aller-Light,Aller Light" font-size="12.0" fill="#52575F" transform="matrix(1.00, 0.00, -0.00, -1.00, 40.9, 20.2)">i</text><text xml:space="preserve" font-family="Aller-Light,Aller Light" font-size="12.0" fill="#52575F" transform="matrix(1.00, 0.00, -0.00, -1.00, 44.2, 20.2)">ó</text><text xml:space="preserve" font-family="Aller-Light,Aller Light" font-size="12.0" fill="#52575F" transform="matrix(1.00, 0.00, -0.00, -1.00, 51.1, 20.2)">n</text></g></g></g></svg>