<?xml version="1.0" encoding="UTF-8" standalone="no"?><svg xmlns="http://www.w3.org/2000/svg" xmlns:xlink="http://www.w3.org/1999/xlink" clip-rule="evenodd" stroke-miterlimit="10" viewBox="0 0 137 72"><desc>SVG generated by Keynote</desc><defs></defs><g transform="matrix(1.00, 0.00, -0.00, -1.00, 0.0, 72.0)"><g><clipPath id="clip0x6180014b57e0"><path d="M 0.4 0.8 L 35.0 0.8 L 35.0 51.1 L 0.4 51.1 Z M 0.4 0.8 "></path></clipPath><g clip-path="url(#clip0x6180014b57e0)"><path d="M 24.1 50.1 C 9.1 47.0 -0.9 33.8 1.8 20.7 C 4.5 7.5 18.9 -0.6 34.0 2.4 C 34.0 2.4 24.1 50.1 24.1 50.1 Z M 24.1 50.1 " fill="#7FC7EA"></path></g></g><g><clipPath id="clip0x6180014b5d80"><path d="M 35.6 3.3 L 134.8 3.3 L 134.8 71.5 L 35.6 71.5 Z M 35.6 3.3 "></path></clipPath><g clip-path="url(#clip0x6180014b5d80)"><path d="M 36.6 54.2 C 36.6 54.1 46.9 58.8 60.7 63.1 C 74.3 67.4 91.5 71.2 103.3 70.3 C 121.4 69.0 130.4 61.3 133.0 48.3 C 133.0 48.1 133.1 48.0 133.1 47.8 C 135.9 34.8 130.7 24.2 114.6 15.8 C 104.1 10.4 86.8 7.1 72.5 5.6 C 58.2 4.1 46.9 4.4 46.9 4.3 C 42.9 23.9 40.0 37.5 36.6 54.2 " fill="#7FC7EA"></path></g></g><g><clipPath id="clip0x6180014b5fc0"><path d="M 35.4 49.1 L 128.7 68.4 L 137.2 27.0 L 43.9 7.7 Z M 35.4 49.1 "></path></clipPath><g clip-path="url(#clip0x6180014b5fc0)"><text xml:space="preserve" font-family="KontrapunktBob-Bold,Kontrapunkt Bob" font-weight="bold" font-size="14.0" fill="#FEFFFE" transform="matrix(0.98, 0.20, 0.20, -0.98, 51.8, 34.8)">S</text><text xml:space="preserve" font-family="KontrapunktBob-Bold,Kontrapunkt Bob" font-weight="bold" font-size="14.0" fill="#FEFFFE" transform="matrix(0.98, 0.20, 0.20, -0.98, 60.2, 36.6)">e</text><text xml:space="preserve" font-family="KontrapunktBob-Bold,Kontrapunkt Bob" font-weight="bold" font-size="14.0" fill="#FEFFFE" transform="matrix(0.98, 0.20, 0.20, -0.98, 68.4, 38.3)">l</text><text xml:space="preserve" font-family="KontrapunktBob-Bold,Kontrapunkt Bob" font-weight="bold" font-size="14.0" fill="#FEFFFE" transform="matrix(0.98, 0.20, 0.20, -0.98, 72.9, 39.2)">e</text><text xml:space="preserve" font-family="KontrapunktBob-Bold,Kontrapunkt Bob" font-weight="bold" font-size="14.0" fill="#FEFFFE" transform="matrix(0.98, 0.20, 0.20, -0.98, 81.1, 40.9)">c</text><text xml:space="preserve" font-family="KontrapunktBob-Bold,Kontrapunkt Bob" font-weight="bold" font-size="14.0" fill="#FEFFFE" transform="matrix(0.98, 0.20, 0.20, -0.98, 88.5, 42.4)">c</text><text xml:space="preserve" font-family="KontrapunktBob-Bold,Kontrapunkt Bob" font-weight="bold" font-size="14.0" fill="#FEFFFE" transform="matrix(0.98, 0.20, 0.20, -0.98, 96.1, 44.0)">i</text><text xml:space="preserve" font-family="KontrapunktBob-Bold,Kontrapunkt Bob" font-weight="bold" font-size="14.0" fill="#FEFFFE" transform="matrix(0.98, 0.20, 0.20, -0.98, 100.8, 45.0)">รณ</text><text xml:space="preserve" font-family="KontrapunktBob-Bold,Kontrapunkt Bob" font-weight="bold" font-size="14.0" fill="#FEFFFE" transform="matrix(0.98, 0.20, 0.20, -0.98, 109.8, 46.8)">n</text><text xml:space="preserve" font-family="KontrapunktBob-Bold,Kontrapunkt Bob" font-weight="bold" font-size="14.0" fill="#FEFFFE" transform="matrix(0.98, 0.20, 0.20, -0.98, 119.3, 48.8)"> </text><text xml:space="preserve" font-family="KontrapunktBob-Bold,Kontrapunkt Bob" font-weight="bold" font-size="14.0" fill="#FEFFFE" transform="matrix(0.98, 0.20, 0.20, -0.98, 80.1, 23.3)">d</text><text xml:space="preserve" font-family="KontrapunktBob-Bold,Kontrapunkt Bob" font-weight="bold" font-size="14.0" fill="#FEFFFE" transform="matrix(0.98, 0.20, 0.20, -0.98, 89.7, 25.3)">e</text><text xml:space="preserve" font-family="KontrapunktBob-Bold,Kontrapunkt Bob" font-weight="bold" font-size="14.0" fill="#FEFFFE" transform="matrix(0.98, 0.20, 0.20, -0.98, 97.9, 27.0)"> </text></g></g></g></svg>