<?xml version="1.0" encoding="UTF-8" standalone="no"?><svg xmlns="http://www.w3.org/2000/svg" xmlns:xlink="http://www.w3.org/1999/xlink" clip-rule="evenodd" stroke-miterlimit="10" viewBox="0 0 213 102"><desc>SVG generated by Keynote</desc><defs></defs><g transform="matrix(1.00, 0.00, -0.00, -1.00, 0.0, 102.0)"><g><clipPath id="clip0x6000020b3f20"><path d="M 0.7 95.7 L 149.9 95.7 L 149.9 101.8 L 0.7 101.8 Z M 0.7 95.7 "></path></clipPath><g clip-path="url(#clip0x6000020b3f20)"><path d="M 2.0 101.0 L 149.0 101.0 L 149.0 97.0 L 2.0 97.0 Z M 1.7 100.8 " fill="#7FC7EA"></path></g></g><g><clipPath id="clip0x6000020b43a0"><path d="M -0.7 55.6 L 146.0 55.6 L 146.0 85.8 L -0.7 85.8 Z M -0.7 55.6 "></path></clipPath><g clip-path="url(#clip0x6000020b43a0)"><text xml:space="preserve" font-family="KontrapunktBob-Bold,Kontrapunkt Bob" font-weight="bold" font-size="14.0" fill="#A6AAA8" transform="matrix(1.00, 0.00, -0.00, -1.00, 3.4, 65.5)">P</text><text xml:space="preserve" font-family="KontrapunktBob-Bold,Kontrapunkt Bob" font-weight="bold" font-size="14.0" fill="#A6AAA8" transform="matrix(1.00, 0.00, -0.00, -1.00, 12.8, 65.5)">a</text><text xml:space="preserve" font-family="KontrapunktBob-Bold,Kontrapunkt Bob" font-weight="bold" font-size="14.0" fill="#A6AAA8" transform="matrix(1.00, 0.00, -0.00, -1.00, 21.2, 65.5)">s</text><text xml:space="preserve" font-family="KontrapunktBob-Bold,Kontrapunkt Bob" font-weight="bold" font-size="14.0" fill="#A6AAA8" transform="matrix(1.00, 0.00, -0.00, -1.00, 27.9, 65.5)">o</text><text xml:space="preserve" font-family="KontrapunktBob-Bold,Kontrapunkt Bob" font-weight="bold" font-size="14.0" fill="#A6AAA8" transform="matrix(1.00, 0.00, -0.00, -1.00, 37.0, 65.5)"> </text><text xml:space="preserve" font-family="KontrapunktBob-Bold,Kontrapunkt Bob" font-weight="bold" font-size="14.0" fill="#A6AAA8" transform="matrix(1.00, 0.00, -0.00, -1.00, 40.6, 65.5)">0</text><text xml:space="preserve" font-family="KontrapunktBob-Bold,Kontrapunkt Bob" font-weight="bold" font-size="14.0" fill="#A6AAA8" transform="matrix(1.00, 0.00, -0.00, -1.00, 50.4, 65.5)">1</text></g></g><g><clipPath id="clip0x6000020b4820"><path d="M -0.3 1.5 L 212.7 1.5 L 212.7 57.2 L -0.3 57.2 Z M -0.3 1.5 "></path></clipPath><g clip-path="url(#clip0x6000020b4820)"><text xml:space="preserve" font-family="Aller-Light,Aller Light" font-size="12.0" fill="#52575F" transform="matrix(1.00, 0.00, -0.00, -1.00, 3.3, 43.0)">S</text><text xml:space="preserve" font-family="Aller-Light,Aller Light" font-size="12.0" fill="#52575F" transform="matrix(1.00, 0.00, -0.00, -1.00, 9.8, 43.0)">e</text><text xml:space="preserve" font-family="Aller-Light,Aller Light" font-size="12.0" fill="#52575F" transform="matrix(1.00, 0.00, -0.00, -1.00, 16.4, 43.0)">l</text><text xml:space="preserve" font-family="Aller-Light,Aller Light" font-size="12.0" fill="#52575F" transform="matrix(1.00, 0.00, -0.00, -1.00, 19.8, 43.0)">e</text><text xml:space="preserve" font-family="Aller-Light,Aller Light" font-size="12.0" fill="#52575F" transform="matrix(1.00, 0.00, -0.00, -1.00, 26.4, 43.0)">c</text><text xml:space="preserve" font-family="Aller-Light,Aller Light" font-size="12.0" fill="#52575F" transform="matrix(1.00, 0.00, -0.00, -1.00, 32.0, 43.0)">c</text><text xml:space="preserve" font-family="Aller-Light,Aller Light" font-size="12.0" fill="#52575F" transform="matrix(1.00, 0.00, -0.00, -1.00, 37.7, 43.0)">i</text><text xml:space="preserve" font-family="Aller-Light,Aller Light" font-size="12.0" fill="#52575F" transform="matrix(1.00, 0.00, -0.00, -1.00, 41.0, 43.0)">ó</text><text xml:space="preserve" font-family="Aller-Light,Aller Light" font-size="12.0" fill="#52575F" transform="matrix(1.00, 0.00, -0.00, -1.00, 47.9, 43.0)">n</text><text xml:space="preserve" font-family="Aller-Light,Aller Light" font-size="12.0" fill="#52575F" transform="matrix(1.00, 0.00, -0.00, -1.00, 54.8, 43.0)"> </text><text xml:space="preserve" font-family="Aller-Light,Aller Light" font-size="12.0" fill="#52575F" transform="matrix(1.00, 0.00, -0.00, -1.00, 57.8, 43.0)">d</text><text xml:space="preserve" font-family="Aller-Light,Aller Light" font-size="12.0" fill="#52575F" transform="matrix(1.00, 0.00, -0.00, -1.00, 64.8, 43.0)">e</text><text xml:space="preserve" font-family="Aller-Light,Aller Light" font-size="12.0" fill="#52575F" transform="matrix(1.00, 0.00, -0.00, -1.00, 71.4, 43.0)"> </text><text xml:space="preserve" font-family="Aller-Light,Aller Light" font-size="12.0" fill="#52575F" transform="matrix(1.00, 0.00, -0.00, -1.00, 74.4, 43.0)">l</text><text xml:space="preserve" font-family="Aller-Light,Aller Light" font-size="12.0" fill="#52575F" transform="matrix(1.00, 0.00, -0.00, -1.00, 77.8, 43.0)">a</text><text xml:space="preserve" font-family="Aller-Light,Aller Light" font-size="12.0" fill="#52575F" transform="matrix(1.00, 0.00, -0.00, -1.00, 83.9, 43.0)"> </text><text xml:space="preserve" font-family="Aller-Light,Aller Light" font-size="12.0" fill="#52575F" transform="matrix(1.00, 0.00, -0.00, -1.00, 86.9, 43.0)">t</text><text xml:space="preserve" font-family="Aller-Light,Aller Light" font-size="12.0" fill="#52575F" transform="matrix(1.00, 0.00, -0.00, -1.00, 91.0, 43.0)">e</text><text xml:space="preserve" font-family="Aller-Light,Aller Light" font-size="12.0" fill="#52575F" transform="matrix(1.00, 0.00, -0.00, -1.00, 97.6, 43.0)">c</text><text xml:space="preserve" font-family="Aller-Light,Aller Light" font-size="12.0" fill="#52575F" transform="matrix(1.00, 0.00, -0.00, -1.00, 103.4, 43.0)">n</text><text xml:space="preserve" font-family="Aller-Light,Aller Light" font-size="12.0" fill="#52575F" transform="matrix(1.00, 0.00, -0.00, -1.00, 110.2, 43.0)">o</text><text xml:space="preserve" font-family="Aller-Light,Aller Light" font-size="12.0" fill="#52575F" transform="matrix(1.00, 0.00, -0.00, -1.00, 117.1, 43.0)">l</text><text xml:space="preserve" font-family="Aller-Light,Aller Light" font-size="12.0" fill="#52575F" transform="matrix(1.00, 0.00, -0.00, -1.00, 120.5, 43.0)">o</text><text xml:space="preserve" font-family="Aller-Light,Aller Light" font-size="12.0" fill="#52575F" transform="matrix(1.00, 0.00, -0.00, -1.00, 127.3, 43.0)">g</text><text xml:space="preserve" font-family="Aller-Light,Aller Light" font-size="12.0" fill="#52575F" transform="matrix(1.00, 0.00, -0.00, -1.00, 133.7, 43.0)">í</text><text xml:space="preserve" font-family="Aller-Light,Aller Light" font-size="12.0" fill="#52575F" transform="matrix(1.00, 0.00, -0.00, -1.00, 137.0, 43.0)">a</text><text xml:space="preserve" font-family="Aller-Light,Aller Light" font-size="12.0" fill="#52575F" transform="matrix(1.00, 0.00, -0.00, -1.00, 143.1, 43.0)"> </text><text xml:space="preserve" font-family="Aller-Light,Aller Light" font-size="12.0" fill="#52575F" transform="matrix(1.00, 0.00, -0.00, -1.00, 146.1, 43.0)">-</text><text xml:space="preserve" font-family="Aller-Light,Aller Light" font-size="12.0" fill="#52575F" transform="matrix(1.00, 0.00, -0.00, -1.00, 150.4, 43.0)"> </text><text xml:space="preserve" font-family="Aller-Light,Aller Light" font-size="12.0" fill="#52575F" transform="matrix(1.00, 0.00, -0.00, -1.00, 153.4, 43.0)">D</text><text xml:space="preserve" font-family="Aller-Light,Aller Light" font-size="12.0" fill="#52575F" transform="matrix(1.00, 0.00, -0.00, -1.00, 161.7, 43.0)">e</text><text xml:space="preserve" font-family="Aller-Light,Aller Light" font-size="12.0" fill="#52575F" transform="matrix(1.00, 0.00, -0.00, -1.00, 168.4, 43.0)">s</text><text xml:space="preserve" font-family="Aller-Light,Aller Light" font-size="12.0" fill="#52575F" transform="matrix(1.00, 0.00, -0.00, -1.00, 173.8, 43.0)">a</text><text xml:space="preserve" font-family="Aller-Light,Aller Light" font-size="12.0" fill="#52575F" transform="matrix(1.00, 0.00, -0.00, -1.00, 180.0, 43.0)">r</text><text xml:space="preserve" font-family="Aller-Light,Aller Light" font-size="12.0" fill="#52575F" transform="matrix(1.00, 0.00, -0.00, -1.00, 184.2, 43.0)">r</text><text xml:space="preserve" font-family="Aller-Light,Aller Light" font-size="12.0" fill="#52575F" transform="matrix(1.00, 0.00, -0.00, -1.00, 188.2, 43.0)">o</text><text xml:space="preserve" font-family="Aller-Light,Aller Light" font-size="12.0" fill="#52575F" transform="matrix(1.00, 0.00, -0.00, -1.00, 195.1, 43.0)">l</text><text xml:space="preserve" font-family="Aller-Light,Aller Light" font-size="12.0" fill="#52575F" transform="matrix(1.00, 0.00, -0.00, -1.00, 198.4, 43.0)">l</text><text xml:space="preserve" font-family="Aller-Light,Aller Light" font-size="12.0" fill="#52575F" transform="matrix(1.00, 0.00, -0.00, -1.00, 201.8, 43.0)">o</text><text xml:space="preserve" font-family="Aller-Light,Aller Light" font-size="12.0" fill="#52575F" transform="matrix(1.00, 0.00, -0.00, -1.00, 208.6, 43.0)"> </text><text xml:space="preserve" font-family="Aller-Light,Aller Light" font-size="12.0" fill="#52575F" transform="matrix(1.00, 0.00, -0.00, -1.00, 3.3, 29.0)">v</text><text xml:space="preserve" font-family="Aller-Light,Aller Light" font-size="12.0" fill="#52575F" transform="matrix(1.00, 0.00, -0.00, -1.00, 9.3, 29.0)">e</text><text xml:space="preserve" font-family="Aller-Light,Aller Light" font-size="12.0" fill="#52575F" transform="matrix(1.00, 0.00, -0.00, -1.00, 15.9, 29.0)">h</text><text xml:space="preserve" font-family="Aller-Light,Aller Light" font-size="12.0" fill="#52575F" transform="matrix(1.00, 0.00, -0.00, -1.00, 22.8, 29.0)">í</text><text xml:space="preserve" font-family="Aller-Light,Aller Light" font-size="12.0" fill="#52575F" transform="matrix(1.00, 0.00, -0.00, -1.00, 26.1, 29.0)">c</text><text xml:space="preserve" font-family="Aller-Light,Aller Light" font-size="12.0" fill="#52575F" transform="matrix(1.00, 0.00, -0.00, -1.00, 31.8, 29.0)">u</text><text xml:space="preserve" font-family="Aller-Light,Aller Light" font-size="12.0" fill="#52575F" transform="matrix(1.00, 0.00, -0.00, -1.00, 38.7, 29.0)">l</text><text xml:space="preserve" font-family="Aller-Light,Aller Light" font-size="12.0" fill="#52575F" transform="matrix(1.00, 0.00, -0.00, -1.00, 42.1, 29.0)">o</text><text xml:space="preserve" font-family="Aller-Light,Aller Light" font-size="12.0" fill="#52575F" transform="matrix(1.00, 0.00, -0.00, -1.00, 49.0, 29.0)"> </text><text xml:space="preserve" font-family="Aller-Light,Aller Light" font-size="12.0" fill="#52575F" transform="matrix(1.00, 0.00, -0.00, -1.00, 52.0, 29.0)">b</text><text xml:space="preserve" font-family="Aller-Light,Aller Light" font-size="12.0" fill="#52575F" transform="matrix(1.00, 0.00, -0.00, -1.00, 59.0, 29.0)">á</text><text xml:space="preserve" font-family="Aller-Light,Aller Light" font-size="12.0" fill="#52575F" transform="matrix(1.00, 0.00, -0.00, -1.00, 65.2, 29.0)">s</text><text xml:space="preserve" font-family="Aller-Light,Aller Light" font-size="12.0" fill="#52575F" transform="matrix(1.00, 0.00, -0.00, -1.00, 70.6, 29.0)">i</text><text xml:space="preserve" font-family="Aller-Light,Aller Light" font-size="12.0" fill="#52575F" transform="matrix(1.00, 0.00, -0.00, -1.00, 73.9, 29.0)">c</text><text xml:space="preserve" font-family="Aller-Light,Aller Light" font-size="12.0" fill="#52575F" transform="matrix(1.00, 0.00, -0.00, -1.00, 79.5, 29.0)">o</text><text xml:space="preserve" font-family="Aller-Light,Aller Light" font-size="12.0" fill="#52575F" transform="matrix(1.00, 0.00, -0.00, -1.00, 86.2, 29.0)">.</text><text xml:space="preserve" font-family="Aller-Light,Aller Light" font-size="12.0" fill="#52575F" transform="matrix(1.00, 0.00, -0.00, -1.00, 88.7, 29.0)"> </text></g></g></g></svg>