<?xml version="1.0" encoding="UTF-8" standalone="no"?><svg xmlns="http://www.w3.org/2000/svg" xmlns:xlink="http://www.w3.org/1999/xlink" clip-rule="evenodd" stroke-miterlimit="10" viewBox="0 0 654 39"><desc>SVG generated by Keynote</desc><defs></defs><g transform="matrix(1.00, 0.00, -0.00, -1.00, 0.0, 39.0)"><text xml:space="preserve" font-family="KontrapunktBob-Bold,Kontrapunkt Bob" font-weight="bold" font-size="48.0" fill="#7FC7EA" transform="matrix(1.00, 0.00, -0.00, -1.00, 0.5, 2.8)">C</text><text xml:space="preserve" font-family="KontrapunktBob-Bold,Kontrapunkt Bob" font-weight="bold" font-size="48.0" fill="#7FC7EA" transform="matrix(1.00, 0.00, -0.00, -1.00, 34.3, 2.8)">I</text><text xml:space="preserve" font-family="KontrapunktBob-Bold,Kontrapunkt Bob" font-weight="bold" font-size="48.0" fill="#7FC7EA" transform="matrix(1.00, 0.00, -0.00, -1.00, 52.4, 2.8)">E</text><text xml:space="preserve" font-family="KontrapunktBob-Bold,Kontrapunkt Bob" font-weight="bold" font-size="48.0" fill="#7FC7EA" transform="matrix(1.00, 0.00, -0.00, -1.00, 85.3, 2.8)">R</text><text xml:space="preserve" font-family="KontrapunktBob-Bold,Kontrapunkt Bob" font-weight="bold" font-size="48.0" fill="#7FC7EA" transform="matrix(1.00, 0.00, -0.00, -1.00, 122.0, 2.8)">R</text><text xml:space="preserve" font-family="KontrapunktBob-Bold,Kontrapunkt Bob" font-weight="bold" font-size="48.0" fill="#7FC7EA" transform="matrix(1.00, 0.00, -0.00, -1.00, 158.7, 2.8)">E</text><text xml:space="preserve" font-family="KontrapunktBob-Bold,Kontrapunkt Bob" font-weight="bold" font-size="48.0" fill="#7FC7EA" transform="matrix(1.00, 0.00, -0.00, -1.00, 191.7, 2.8)"> </text><text xml:space="preserve" font-family="KontrapunktBob-Bold,Kontrapunkt Bob" font-weight="bold" font-size="48.0" fill="#7FC7EA" transform="matrix(1.00, 0.00, -0.00, -1.00, 204.1, 2.8)">&amp;</text><text xml:space="preserve" font-family="KontrapunktBob-Bold,Kontrapunkt Bob" font-weight="bold" font-size="48.0" fill="#7FC7EA" transform="matrix(1.00, 0.00, -0.00, -1.00, 237.7, 2.8)"> </text><text xml:space="preserve" font-family="KontrapunktBob-Bold,Kontrapunkt Bob" font-weight="bold" font-size="48.0" fill="#7FC7EA" transform="matrix(1.00, 0.00, -0.00, -1.00, 250.2, 2.8)">C</text><text xml:space="preserve" font-family="KontrapunktBob-Bold,Kontrapunkt Bob" font-weight="bold" font-size="48.0" fill="#7FC7EA" transform="matrix(1.00, 0.00, -0.00, -1.00, 283.7, 2.8)">O</text><text xml:space="preserve" font-family="KontrapunktBob-Bold,Kontrapunkt Bob" font-weight="bold" font-size="48.0" fill="#7FC7EA" transform="matrix(1.00, 0.00, -0.00, -1.00, 322.2, 2.8)">N</text><text xml:space="preserve" font-family="KontrapunktBob-Bold,Kontrapunkt Bob" font-weight="bold" font-size="48.0" fill="#7FC7EA" transform="matrix(1.00, 0.00, -0.00, -1.00, 363.6, 2.8)">C</text><text xml:space="preserve" font-family="KontrapunktBob-Bold,Kontrapunkt Bob" font-weight="bold" font-size="48.0" fill="#7FC7EA" transform="matrix(1.00, 0.00, -0.00, -1.00, 397.3, 2.8)">L</text><text xml:space="preserve" font-family="KontrapunktBob-Bold,Kontrapunkt Bob" font-weight="bold" font-size="48.0" fill="#7FC7EA" transform="matrix(1.00, 0.00, -0.00, -1.00, 425.5, 2.8)">U</text><text xml:space="preserve" font-family="KontrapunktBob-Bold,Kontrapunkt Bob" font-weight="bold" font-size="48.0" fill="#7FC7EA" transform="matrix(1.00, 0.00, -0.00, -1.00, 464.7, 2.8)">S</text><text xml:space="preserve" font-family="KontrapunktBob-Bold,Kontrapunkt Bob" font-weight="bold" font-size="48.0" fill="#7FC7EA" transform="matrix(1.00, 0.00, -0.00, -1.00, 493.6, 2.8)">I</text><text xml:space="preserve" font-family="KontrapunktBob-Bold,Kontrapunkt Bob" font-weight="bold" font-size="48.0" fill="#7FC7EA" transform="matrix(1.00, 0.00, -0.00, -1.00, 511.7, 2.8)">O</text><text xml:space="preserve" font-family="KontrapunktBob-Bold,Kontrapunkt Bob" font-weight="bold" font-size="48.0" fill="#7FC7EA" transform="matrix(1.00, 0.00, -0.00, -1.00, 550.2, 2.8)">N</text><text xml:space="preserve" font-family="KontrapunktBob-Bold,Kontrapunkt Bob" font-weight="bold" font-size="48.0" fill="#7FC7EA" transform="matrix(1.00, 0.00, -0.00, -1.00, 591.6, 2.8)">E</text><text xml:space="preserve" font-family="KontrapunktBob-Bold,Kontrapunkt Bob" font-weight="bold" font-size="48.0" fill="#7FC7EA" transform="matrix(1.00, 0.00, -0.00, -1.00, 624.6, 2.8)">S</text></g></svg>