<?xml version="1.0" encoding="UTF-8" standalone="no"?><svg xmlns="http://www.w3.org/2000/svg" xmlns:xlink="http://www.w3.org/1999/xlink" clip-rule="evenodd" stroke-miterlimit="10" viewBox="0 0 288 18"><desc>SVG generated by Keynote</desc><defs></defs><g transform="matrix(1.00, 0.00, -0.00, -1.00, 0.0, 18.0)"><text xml:space="preserve" font-family="KontrapunktBob-Bold,Kontrapunkt Bob" font-weight="bold" font-size="14.0" fill="#FEFFFE" transform="matrix(1.00, 0.00, -0.00, -1.00, 1.2, 5.1)">h</text><text xml:space="preserve" font-family="KontrapunktBob-Bold,Kontrapunkt Bob" font-weight="bold" font-size="14.0" fill="#FEFFFE" transform="matrix(1.00, 0.00, -0.00, -1.00, 10.8, 5.1)">t</text><text xml:space="preserve" font-family="KontrapunktBob-Bold,Kontrapunkt Bob" font-weight="bold" font-size="14.0" fill="#FEFFFE" transform="matrix(1.00, 0.00, -0.00, -1.00, 17.0, 5.1)">t</text><text xml:space="preserve" font-family="KontrapunktBob-Bold,Kontrapunkt Bob" font-weight="bold" font-size="14.0" fill="#FEFFFE" transform="matrix(1.00, 0.00, -0.00, -1.00, 23.1, 5.1)">p</text><text xml:space="preserve" font-family="KontrapunktBob-Bold,Kontrapunkt Bob" font-weight="bold" font-size="14.0" fill="#FEFFFE" transform="matrix(1.00, 0.00, -0.00, -1.00, 33.0, 5.1)">:</text><text xml:space="preserve" font-family="KontrapunktBob-Bold,Kontrapunkt Bob" font-weight="bold" font-size="14.0" fill="#FEFFFE" transform="matrix(1.00, 0.00, -0.00, -1.00, 37.0, 5.1)">/</text><text xml:space="preserve" font-family="KontrapunktBob-Bold,Kontrapunkt Bob" font-weight="bold" font-size="14.0" fill="#FEFFFE" transform="matrix(1.00, 0.00, -0.00, -1.00, 42.0, 5.1)">/</text><text xml:space="preserve" font-family="KontrapunktBob-Bold,Kontrapunkt Bob" font-weight="bold" font-size="14.0" fill="#FEFFFE" transform="matrix(1.00, 0.00, -0.00, -1.00, 47.0, 5.1)">d</text><text xml:space="preserve" font-family="KontrapunktBob-Bold,Kontrapunkt Bob" font-weight="bold" font-size="14.0" fill="#FEFFFE" transform="matrix(1.00, 0.00, -0.00, -1.00, 56.8, 5.1)">r</text><text xml:space="preserve" font-family="KontrapunktBob-Bold,Kontrapunkt Bob" font-weight="bold" font-size="14.0" fill="#FEFFFE" transform="matrix(1.00, 0.00, -0.00, -1.00, 63.3, 5.1)">o</text><text xml:space="preserve" font-family="KontrapunktBob-Bold,Kontrapunkt Bob" font-weight="bold" font-size="14.0" fill="#FEFFFE" transform="matrix(1.00, 0.00, -0.00, -1.00, 72.4, 5.1)">n</text><text xml:space="preserve" font-family="KontrapunktBob-Bold,Kontrapunkt Bob" font-weight="bold" font-size="14.0" fill="#FEFFFE" transform="matrix(1.00, 0.00, -0.00, -1.00, 82.1, 5.1)">e</text><text xml:space="preserve" font-family="KontrapunktBob-Bold,Kontrapunkt Bob" font-weight="bold" font-size="14.0" fill="#FEFFFE" transform="matrix(1.00, 0.00, -0.00, -1.00, 90.5, 5.1)">m</text><text xml:space="preserve" font-family="KontrapunktBob-Bold,Kontrapunkt Bob" font-weight="bold" font-size="14.0" fill="#FEFFFE" transform="matrix(1.00, 0.00, -0.00, -1.00, 104.8, 5.1)">a</text><text xml:space="preserve" font-family="KontrapunktBob-Bold,Kontrapunkt Bob" font-weight="bold" font-size="14.0" fill="#FEFFFE" transform="matrix(1.00, 0.00, -0.00, -1.00, 113.2, 5.1)">i</text><text xml:space="preserve" font-family="KontrapunktBob-Bold,Kontrapunkt Bob" font-weight="bold" font-size="14.0" fill="#FEFFFE" transform="matrix(1.00, 0.00, -0.00, -1.00, 118.0, 5.1)">l</text><text xml:space="preserve" font-family="KontrapunktBob-Bold,Kontrapunkt Bob" font-weight="bold" font-size="14.0" fill="#FEFFFE" transform="matrix(1.00, 0.00, -0.00, -1.00, 122.6, 5.1)">.</text><text xml:space="preserve" font-family="KontrapunktBob-Bold,Kontrapunkt Bob" font-weight="bold" font-size="14.0" fill="#FEFFFE" transform="matrix(1.00, 0.00, -0.00, -1.00, 125.7, 5.1)">t</text><text xml:space="preserve" font-family="KontrapunktBob-Bold,Kontrapunkt Bob" font-weight="bold" font-size="14.0" fill="#FEFFFE" transform="matrix(1.00, 0.00, -0.00, -1.00, 131.6, 5.1)">o</text><text xml:space="preserve" font-family="KontrapunktBob-Bold,Kontrapunkt Bob" font-weight="bold" font-size="14.0" fill="#FEFFFE" transform="matrix(1.00, 0.00, -0.00, -1.00, 140.7, 5.1)">m</text><text xml:space="preserve" font-family="KontrapunktBob-Bold,Kontrapunkt Bob" font-weight="bold" font-size="14.0" fill="#FEFFFE" transform="matrix(1.00, 0.00, -0.00, -1.00, 155.1, 5.1)">a</text><text xml:space="preserve" font-family="KontrapunktBob-Bold,Kontrapunkt Bob" font-weight="bold" font-size="14.0" fill="#FEFFFE" transform="matrix(1.00, 0.00, -0.00, -1.00, 163.4, 5.1)">s</text><text xml:space="preserve" font-family="KontrapunktBob-Bold,Kontrapunkt Bob" font-weight="bold" font-size="14.0" fill="#FEFFFE" transform="matrix(1.00, 0.00, -0.00, -1.00, 170.1, 5.1)">m</text><text xml:space="preserve" font-family="KontrapunktBob-Bold,Kontrapunkt Bob" font-weight="bold" font-size="14.0" fill="#FEFFFE" transform="matrix(1.00, 0.00, -0.00, -1.00, 184.5, 5.1)">a</text><text xml:space="preserve" font-family="KontrapunktBob-Bold,Kontrapunkt Bob" font-weight="bold" font-size="14.0" fill="#FEFFFE" transform="matrix(1.00, 0.00, -0.00, -1.00, 192.9, 5.1)">d</text><text xml:space="preserve" font-family="KontrapunktBob-Bold,Kontrapunkt Bob" font-weight="bold" font-size="14.0" fill="#FEFFFE" transform="matrix(1.00, 0.00, -0.00, -1.00, 202.7, 5.1)">a</text><text xml:space="preserve" font-family="KontrapunktBob-Bold,Kontrapunkt Bob" font-weight="bold" font-size="14.0" fill="#FEFFFE" transform="matrix(1.00, 0.00, -0.00, -1.00, 211.1, 5.1)">r</text><text xml:space="preserve" font-family="KontrapunktBob-Bold,Kontrapunkt Bob" font-weight="bold" font-size="14.0" fill="#FEFFFE" transform="matrix(1.00, 0.00, -0.00, -1.00, 217.7, 5.1)">i</text><text xml:space="preserve" font-family="KontrapunktBob-Bold,Kontrapunkt Bob" font-weight="bold" font-size="14.0" fill="#FEFFFE" transform="matrix(1.00, 0.00, -0.00, -1.00, 222.5, 5.1)">a</text><text xml:space="preserve" font-family="KontrapunktBob-Bold,Kontrapunkt Bob" font-weight="bold" font-size="14.0" fill="#FEFFFE" transform="matrix(1.00, 0.00, -0.00, -1.00, 230.9, 5.1)">g</text><text xml:space="preserve" font-family="KontrapunktBob-Bold,Kontrapunkt Bob" font-weight="bold" font-size="14.0" fill="#FEFFFE" transform="matrix(1.00, 0.00, -0.00, -1.00, 238.8, 5.1)">a</text><text xml:space="preserve" font-family="KontrapunktBob-Bold,Kontrapunkt Bob" font-weight="bold" font-size="14.0" fill="#FEFFFE" transform="matrix(1.00, 0.00, -0.00, -1.00, 247.2, 5.1)">.</text><text xml:space="preserve" font-family="KontrapunktBob-Bold,Kontrapunkt Bob" font-weight="bold" font-size="14.0" fill="#FEFFFE" transform="matrix(1.00, 0.00, -0.00, -1.00, 250.2, 5.1)">c</text><text xml:space="preserve" font-family="KontrapunktBob-Bold,Kontrapunkt Bob" font-weight="bold" font-size="14.0" fill="#FEFFFE" transform="matrix(1.00, 0.00, -0.00, -1.00, 257.8, 5.1)">o</text><text xml:space="preserve" font-family="KontrapunktBob-Bold,Kontrapunkt Bob" font-weight="bold" font-size="14.0" fill="#FEFFFE" transform="matrix(1.00, 0.00, -0.00, -1.00, 266.9, 5.1)">m</text><text xml:space="preserve" font-family="KontrapunktBob-Bold,Kontrapunkt Bob" font-weight="bold" font-size="14.0" fill="#FEFFFE" transform="matrix(1.00, 0.00, -0.00, -1.00, 281.2, 5.1)">/</text></g></svg>