<?xml version="1.0" encoding="UTF-8" standalone="no"?><svg xmlns="http://www.w3.org/2000/svg" xmlns:xlink="http://www.w3.org/1999/xlink" clip-rule="evenodd" stroke-miterlimit="10" viewBox="0 0 984 739"><desc>SVG generated by Keynote</desc><defs></defs><g transform="matrix(1.00, 0.00, -0.00, -1.00, 0.0, 739.0)"><g><clipPath id="clip0x618000aa1800"><path d="M 338.0 0.4 L 647.6 0.4 L 647.6 143.7 L 338.0 143.7 Z M 338.0 0.4 "></path></clipPath><g clip-path="url(#clip0x618000aa1800)"><path d="M 641.6 19.4 C 641.6 19.4 624.9 33.8 615.5 43.2 C 606.1 52.6 603.2 63.4 603.2 63.4 C 596.0 142.7 596.0 142.7 596.0 142.7 C 389.5 142.7 389.5 142.7 389.5 142.7 C 382.3 63.4 382.3 63.4 382.3 63.4 C 382.3 63.4 379.4 51.8 370.7 42.5 C 361.3 33.1 343.9 18.7 343.9 18.7 C 343.9 18.7 328.7 7.9 351.8 5.0 C 364.9 2.8 423.6 1.4 470.6 1.4 C 514.8 1.4 514.8 1.4 514.8 1.4 C 563.4 1.4 620.6 2.8 634.4 5.0 C 656.8 8.6 641.6 19.4 641.6 19.4 Z M 641.6 19.4 " fill="#7FC7EA"></path></g></g><g><clipPath id="clip0x618000aa1560"><path d="M 0.0 136.6 L 983.4 136.6 L 983.4 738.3 L 0.0 738.3 Z M 0.0 136.6 "></path></clipPath><g clip-path="url(#clip0x618000aa1560)"><path d="M 958.5 737.3 C 26.4 737.3 26.4 737.3 26.4 737.3 C 12.6 737.3 1.0 725.0 1.0 711.3 C 1.0 163.7 1.0 163.7 1.0 163.7 C 1.0 149.9 12.6 137.6 26.4 137.6 C 371.6 137.6 371.6 137.6 371.6 137.6 C 391.1 137.6 391.1 137.6 391.1 137.6 C 594.5 137.6 594.5 137.6 594.5 137.6 C 615.5 137.6 615.5 137.6 615.5 137.6 C 958.5 137.6 958.5 137.6 958.5 137.6 C 972.2 137.6 982.4 149.9 982.4 163.7 C 982.4 711.3 982.4 711.3 982.4 711.3 C 982.4 725.0 972.2 737.3 958.5 737.3 Z M 942.0 181.1 C 38.7 181.1 38.7 181.1 38.7 181.1 C 38.7 693.9 38.7 693.9 38.7 693.9 C 941.8 693.9 942.0 693.9 942.0 693.9 L 942.0 181.1 Z M 941.8 181.1 " fill="#7FC7EA"></path></g></g><g><clipPath id="clip0x618000aa1260"><path d="M 39.0 699.0 L 945.0 699.0 L 945.0 181.0 L 39.0 181.0 Z M 38.7 698.6 "></path></clipPath><g clip-path="url(#clip0x618000aa1260)"><g><clipPath id="clip0x618000aa0fc0"><path d="M 39.0 180.8 L 944.7 180.8 L 944.7 698.6 L 39.0 698.6 Z M 39.0 180.8 "></path></clipPath><g clip-path="url(#clip0x618000aa0fc0)"><path d="M 39.0 747.0 L 945.0 747.0 L 945.0 132.0 L 39.0 132.0 Z M 39.0 747.0 " fill="#FEFFFF" fill-opacity="0.00"></path><image xlink:href="9C61468C6A189E5B110B8038916639A9.png" width="1061.00" height="720.00" transform="matrix(0.85, 0.00, -0.00, -0.85, 39.0, 747.0)"></image></g></g></g></g></g></svg>