<?xml version="1.0" encoding="UTF-8" standalone="no"?><svg xmlns="http://www.w3.org/2000/svg" xmlns:xlink="http://www.w3.org/1999/xlink" clip-rule="evenodd" stroke-miterlimit="10" viewBox="0 0 1024 768"><desc>SVG generated by Keynote</desc><defs></defs><g transform="matrix(1.00, 0.00, -0.00, -1.00, 0.0, 768.0)"><path d="M 0.0 768.0 L 1024.0 768.0 L 1024.0 0.0 L 0.0 0.0 Z M 0.0 768.0 " fill="#FEFFFF"></path><text xml:space="preserve" font-family="KontrapunktBob-Light,Kontrapunkt Bob" font-size="12.0" fill="#52575F" transform="matrix(1.00, 0.00, -0.00, -1.00, 474.4, 73.8)">D</text><text xml:space="preserve" font-family="KontrapunktBob-Light,Kontrapunkt Bob" font-size="12.0" fill="#52575F" transform="matrix(1.00, 0.00, -0.00, -1.00, 484.2, 73.8)">r</text><text xml:space="preserve" font-family="KontrapunktBob-Light,Kontrapunkt Bob" font-size="12.0" fill="#52575F" transform="matrix(1.00, 0.00, -0.00, -1.00, 489.6, 73.8)">o</text><text xml:space="preserve" font-family="KontrapunktBob-Light,Kontrapunkt Bob" font-size="12.0" fill="#52575F" transform="matrix(1.00, 0.00, -0.00, -1.00, 497.3, 73.8)">n</text><text xml:space="preserve" font-family="KontrapunktBob-Light,Kontrapunkt Bob" font-size="12.0" fill="#52575F" transform="matrix(1.00, 0.00, -0.00, -1.00, 505.7, 73.8)">e</text><text xml:space="preserve" font-family="KontrapunktBob-Light,Kontrapunkt Bob" font-size="12.0" fill="#52575F" transform="matrix(1.00, 0.00, -0.00, -1.00, 512.8, 73.8)">M</text><text xml:space="preserve" font-family="KontrapunktBob-Light,Kontrapunkt Bob" font-size="12.0" fill="#52575F" transform="matrix(1.00, 0.00, -0.00, -1.00, 524.2, 73.8)">a</text><text xml:space="preserve" font-family="KontrapunktBob-Light,Kontrapunkt Bob" font-size="12.0" fill="#52575F" transform="matrix(1.00, 0.00, -0.00, -1.00, 531.3, 73.8)">i</text><text xml:space="preserve" font-family="KontrapunktBob-Light,Kontrapunkt Bob" font-size="12.0" fill="#52575F" transform="matrix(1.00, 0.00, -0.00, -1.00, 535.1, 73.8)">l</text><g><clipPath id="clip0x6100008a6000"><path d="M 84.0 29.0 L 173.0 29.0 L 173.0 108.0 L 84.0 108.0 Z M 84.0 29.0 "></path></clipPath><g clip-path="url(#clip0x6100008a6000)"><path d="M 84.0 108.0 L 173.0 108.0 L 173.0 29.0 L 84.0 29.0 Z M 84.0 108.0 " fill="#FEFFFF" fill-opacity="0.00"></path><image xlink:href="../../667ED4B2-8475-4CF5-AE40-6680D8188606/assets/CD278FE95C26B745007D7A29F45D1011.png" width="166.00" height="149.00" transform="matrix(0.54, 0.00, -0.00, -0.53, 84.0, 108.0)"></image></g></g><text xml:space="preserve" font-family="KontrapunktBob-Light,Kontrapunkt Bob" font-size="14.0" fill="#7FC7EA" transform="matrix(1.00, 0.00, -0.00, -1.00, 365.6, 52.2)">h</text><text xml:space="preserve" font-family="KontrapunktBob-Light,Kontrapunkt Bob" font-size="14.0" fill="#7FC7EA" transform="matrix(1.00, 0.00, -0.00, -1.00, 375.2, 52.2)">t</text><text xml:space="preserve" font-family="KontrapunktBob-Light,Kontrapunkt Bob" font-size="14.0" fill="#7FC7EA" transform="matrix(1.00, 0.00, -0.00, -1.00, 381.2, 52.2)">t</text><text xml:space="preserve" font-family="KontrapunktBob-Light,Kontrapunkt Bob" font-size="14.0" fill="#7FC7EA" transform="matrix(1.00, 0.00, -0.00, -1.00, 387.2, 52.2)">p</text><text xml:space="preserve" font-family="KontrapunktBob-Light,Kontrapunkt Bob" font-size="14.0" fill="#7FC7EA" transform="matrix(1.00, 0.00, -0.00, -1.00, 396.8, 52.2)">:</text><text xml:space="preserve" font-family="KontrapunktBob-Light,Kontrapunkt Bob" font-size="14.0" fill="#7FC7EA" transform="matrix(1.00, 0.00, -0.00, -1.00, 400.8, 52.2)">/</text><text xml:space="preserve" font-family="KontrapunktBob-Light,Kontrapunkt Bob" font-size="14.0" fill="#7FC7EA" transform="matrix(1.00, 0.00, -0.00, -1.00, 405.8, 52.2)">/</text><text xml:space="preserve" font-family="KontrapunktBob-Light,Kontrapunkt Bob" font-size="14.0" fill="#7FC7EA" transform="matrix(1.00, 0.00, -0.00, -1.00, 410.8, 52.2)">d</text><text xml:space="preserve" font-family="KontrapunktBob-Light,Kontrapunkt Bob" font-size="14.0" fill="#7FC7EA" transform="matrix(1.00, 0.00, -0.00, -1.00, 420.4, 52.2)">r</text><text xml:space="preserve" font-family="KontrapunktBob-Light,Kontrapunkt Bob" font-size="14.0" fill="#7FC7EA" transform="matrix(1.00, 0.00, -0.00, -1.00, 426.6, 52.2)">o</text><text xml:space="preserve" font-family="KontrapunktBob-Light,Kontrapunkt Bob" font-size="14.0" fill="#7FC7EA" transform="matrix(1.00, 0.00, -0.00, -1.00, 435.7, 52.2)">n</text><text xml:space="preserve" font-family="KontrapunktBob-Light,Kontrapunkt Bob" font-size="14.0" fill="#7FC7EA" transform="matrix(1.00, 0.00, -0.00, -1.00, 445.4, 52.2)">e</text><text xml:space="preserve" font-family="KontrapunktBob-Light,Kontrapunkt Bob" font-size="14.0" fill="#7FC7EA" transform="matrix(1.00, 0.00, -0.00, -1.00, 453.7, 52.2)">m</text><text xml:space="preserve" font-family="KontrapunktBob-Light,Kontrapunkt Bob" font-size="14.0" fill="#7FC7EA" transform="matrix(1.00, 0.00, -0.00, -1.00, 468.1, 52.2)">a</text><text xml:space="preserve" font-family="KontrapunktBob-Light,Kontrapunkt Bob" font-size="14.0" fill="#7FC7EA" transform="matrix(1.00, 0.00, -0.00, -1.00, 476.5, 52.2)">i</text><text xml:space="preserve" font-family="KontrapunktBob-Light,Kontrapunkt Bob" font-size="14.0" fill="#7FC7EA" transform="matrix(1.00, 0.00, -0.00, -1.00, 480.8, 52.2)">l</text><text xml:space="preserve" font-family="KontrapunktBob-Light,Kontrapunkt Bob" font-size="14.0" fill="#7FC7EA" transform="matrix(1.00, 0.00, -0.00, -1.00, 485.4, 52.2)">.</text><text xml:space="preserve" font-family="KontrapunktBob-Light,Kontrapunkt Bob" font-size="14.0" fill="#7FC7EA" transform="matrix(1.00, 0.00, -0.00, -1.00, 488.6, 52.2)">t</text><text xml:space="preserve" font-family="KontrapunktBob-Light,Kontrapunkt Bob" font-size="14.0" fill="#7FC7EA" transform="matrix(1.00, 0.00, -0.00, -1.00, 494.4, 52.2)">o</text><text xml:space="preserve" font-family="KontrapunktBob-Light,Kontrapunkt Bob" font-size="14.0" fill="#7FC7EA" transform="matrix(1.00, 0.00, -0.00, -1.00, 503.4, 52.2)">m</text><text xml:space="preserve" font-family="KontrapunktBob-Light,Kontrapunkt Bob" font-size="14.0" fill="#7FC7EA" transform="matrix(1.00, 0.00, -0.00, -1.00, 517.8, 52.2)">a</text><text xml:space="preserve" font-family="KontrapunktBob-Light,Kontrapunkt Bob" font-size="14.0" fill="#7FC7EA" transform="matrix(1.00, 0.00, -0.00, -1.00, 526.1, 52.2)">s</text><text xml:space="preserve" font-family="KontrapunktBob-Light,Kontrapunkt Bob" font-size="14.0" fill="#7FC7EA" transform="matrix(1.00, 0.00, -0.00, -1.00, 532.8, 52.2)">m</text><text xml:space="preserve" font-family="KontrapunktBob-Light,Kontrapunkt Bob" font-size="14.0" fill="#7FC7EA" transform="matrix(1.00, 0.00, -0.00, -1.00, 547.2, 52.2)">a</text><text xml:space="preserve" font-family="KontrapunktBob-Light,Kontrapunkt Bob" font-size="14.0" fill="#7FC7EA" transform="matrix(1.00, 0.00, -0.00, -1.00, 555.6, 52.2)">d</text><text xml:space="preserve" font-family="KontrapunktBob-Light,Kontrapunkt Bob" font-size="14.0" fill="#7FC7EA" transform="matrix(1.00, 0.00, -0.00, -1.00, 565.1, 52.2)">a</text><text xml:space="preserve" font-family="KontrapunktBob-Light,Kontrapunkt Bob" font-size="14.0" fill="#7FC7EA" transform="matrix(1.00, 0.00, -0.00, -1.00, 573.5, 52.2)">r</text><text xml:space="preserve" font-family="KontrapunktBob-Light,Kontrapunkt Bob" font-size="14.0" fill="#7FC7EA" transform="matrix(1.00, 0.00, -0.00, -1.00, 579.9, 52.2)">i</text><text xml:space="preserve" font-family="KontrapunktBob-Light,Kontrapunkt Bob" font-size="14.0" fill="#7FC7EA" transform="matrix(1.00, 0.00, -0.00, -1.00, 584.2, 52.2)">a</text><text xml:space="preserve" font-family="KontrapunktBob-Light,Kontrapunkt Bob" font-size="14.0" fill="#7FC7EA" transform="matrix(1.00, 0.00, -0.00, -1.00, 592.6, 52.2)">g</text><text xml:space="preserve" font-family="KontrapunktBob-Light,Kontrapunkt Bob" font-size="14.0" fill="#7FC7EA" transform="matrix(1.00, 0.00, -0.00, -1.00, 600.3, 52.2)">a</text><text xml:space="preserve" font-family="KontrapunktBob-Light,Kontrapunkt Bob" font-size="14.0" fill="#7FC7EA" transform="matrix(1.00, 0.00, -0.00, -1.00, 608.7, 52.2)">.</text><text xml:space="preserve" font-family="KontrapunktBob-Light,Kontrapunkt Bob" font-size="14.0" fill="#7FC7EA" transform="matrix(1.00, 0.00, -0.00, -1.00, 611.7, 52.2)">c</text><text xml:space="preserve" font-family="KontrapunktBob-Light,Kontrapunkt Bob" font-size="14.0" fill="#7FC7EA" transform="matrix(1.00, 0.00, -0.00, -1.00, 619.4, 52.2)">o</text><text xml:space="preserve" font-family="KontrapunktBob-Light,Kontrapunkt Bob" font-size="14.0" fill="#7FC7EA" transform="matrix(1.00, 0.00, -0.00, -1.00, 628.5, 52.2)">m</text><text xml:space="preserve" font-family="KontrapunktBob-Light,Kontrapunkt Bob" font-size="14.0" fill="#7FC7EA" transform="matrix(1.00, 0.00, -0.00, -1.00, 642.8, 52.2)">/</text><text xml:space="preserve" font-family="KontrapunktBob-Bold,Kontrapunkt Bob" font-weight="bold" font-size="48.0" fill="#7FC7EA" transform="matrix(1.00, 0.00, -0.00, -1.00, 143.0, 653.8)">G</text><text xml:space="preserve" font-family="KontrapunktBob-Bold,Kontrapunkt Bob" font-weight="bold" font-size="48.0" fill="#7FC7EA" transform="matrix(1.00, 0.00, -0.00, -1.00, 180.5, 653.8)">E</text><text xml:space="preserve" font-family="KontrapunktBob-Bold,Kontrapunkt Bob" font-weight="bold" font-size="48.0" fill="#7FC7EA" transform="matrix(1.00, 0.00, -0.00, -1.00, 213.4, 653.8)">S</text><text xml:space="preserve" font-family="KontrapunktBob-Bold,Kontrapunkt Bob" font-weight="bold" font-size="48.0" fill="#7FC7EA" transform="matrix(1.00, 0.00, -0.00, -1.00, 241.8, 653.8)">T</text><text xml:space="preserve" font-family="KontrapunktBob-Bold,Kontrapunkt Bob" font-weight="bold" font-size="48.0" fill="#7FC7EA" transform="matrix(1.00, 0.00, -0.00, -1.00, 272.0, 653.8)">I</text><text xml:space="preserve" font-family="KontrapunktBob-Bold,Kontrapunkt Bob" font-weight="bold" font-size="48.0" fill="#7FC7EA" transform="matrix(1.00, 0.00, -0.00, -1.00, 290.1, 653.8)">Ó</text><text xml:space="preserve" font-family="KontrapunktBob-Bold,Kontrapunkt Bob" font-weight="bold" font-size="48.0" fill="#7FC7EA" transform="matrix(1.00, 0.00, -0.00, -1.00, 328.6, 653.8)">N</text><text xml:space="preserve" font-family="KontrapunktBob-Bold,Kontrapunkt Bob" font-weight="bold" font-size="48.0" fill="#7FC7EA" transform="matrix(1.00, 0.00, -0.00, -1.00, 370.0, 653.8)"> </text><text xml:space="preserve" font-family="KontrapunktBob-Bold,Kontrapunkt Bob" font-weight="bold" font-size="48.0" fill="#7FC7EA" transform="matrix(1.00, 0.00, -0.00, -1.00, 382.5, 653.8)">D</text><text xml:space="preserve" font-family="KontrapunktBob-Bold,Kontrapunkt Bob" font-weight="bold" font-size="48.0" fill="#7FC7EA" transform="matrix(1.00, 0.00, -0.00, -1.00, 420.8, 653.8)">E</text><text xml:space="preserve" font-family="KontrapunktBob-Bold,Kontrapunkt Bob" font-weight="bold" font-size="48.0" fill="#7FC7EA" transform="matrix(1.00, 0.00, -0.00, -1.00, 453.8, 653.8)">L</text><text xml:space="preserve" font-family="KontrapunktBob-Bold,Kontrapunkt Bob" font-weight="bold" font-size="48.0" fill="#7FC7EA" transform="matrix(1.00, 0.00, -0.00, -1.00, 484.1, 653.8)"> </text><text xml:space="preserve" font-family="KontrapunktBob-Bold,Kontrapunkt Bob" font-weight="bold" font-size="48.0" fill="#7FC7EA" transform="matrix(1.00, 0.00, -0.00, -1.00, 496.6, 653.8)">C</text><text xml:space="preserve" font-family="KontrapunktBob-Bold,Kontrapunkt Bob" font-weight="bold" font-size="48.0" fill="#7FC7EA" transform="matrix(1.00, 0.00, -0.00, -1.00, 530.3, 653.8)">R</text><text xml:space="preserve" font-family="KontrapunktBob-Bold,Kontrapunkt Bob" font-weight="bold" font-size="48.0" fill="#7FC7EA" transform="matrix(1.00, 0.00, -0.00, -1.00, 566.8, 653.8)">O</text><text xml:space="preserve" font-family="KontrapunktBob-Bold,Kontrapunkt Bob" font-weight="bold" font-size="48.0" fill="#7FC7EA" transform="matrix(1.00, 0.00, -0.00, -1.00, 605.3, 653.8)">N</text><text xml:space="preserve" font-family="KontrapunktBob-Bold,Kontrapunkt Bob" font-weight="bold" font-size="48.0" fill="#7FC7EA" transform="matrix(1.00, 0.00, -0.00, -1.00, 646.7, 653.8)">O</text><text xml:space="preserve" font-family="KontrapunktBob-Bold,Kontrapunkt Bob" font-weight="bold" font-size="48.0" fill="#7FC7EA" transform="matrix(1.00, 0.00, -0.00, -1.00, 685.2, 653.8)">G</text><text xml:space="preserve" font-family="KontrapunktBob-Bold,Kontrapunkt Bob" font-weight="bold" font-size="48.0" fill="#7FC7EA" transform="matrix(1.00, 0.00, -0.00, -1.00, 722.7, 653.8)">R</text><text xml:space="preserve" font-family="KontrapunktBob-Bold,Kontrapunkt Bob" font-weight="bold" font-size="48.0" fill="#7FC7EA" transform="matrix(1.00, 0.00, -0.00, -1.00, 759.4, 653.8)">Á</text><text xml:space="preserve" font-family="KontrapunktBob-Bold,Kontrapunkt Bob" font-weight="bold" font-size="48.0" fill="#7FC7EA" transform="matrix(1.00, 0.00, -0.00, -1.00, 797.3, 653.8)">M</text><text xml:space="preserve" font-family="KontrapunktBob-Bold,Kontrapunkt Bob" font-weight="bold" font-size="48.0" fill="#7FC7EA" transform="matrix(1.00, 0.00, -0.00, -1.00, 843.2, 653.8)">A</text><text xml:space="preserve" font-family="KontrapunktBob-Light,Kontrapunkt Bob" font-size="20.6" fill="#FEFFFE" transform="matrix(1.00, 0.00, -0.00, -1.00, 428.7, 355.0)">B</text><text xml:space="preserve" font-family="KontrapunktBob-Light,Kontrapunkt Bob" font-size="20.6" fill="#FEFFFE" transform="matrix(1.00, 0.00, -0.00, -1.00, 444.4, 355.0)">o</text><text xml:space="preserve" font-family="KontrapunktBob-Light,Kontrapunkt Bob" font-size="20.6" fill="#FEFFFE" transform="matrix(1.00, 0.00, -0.00, -1.00, 457.6, 355.0)">d</text><text xml:space="preserve" font-family="KontrapunktBob-Light,Kontrapunkt Bob" font-size="20.6" fill="#FEFFFE" transform="matrix(1.00, 0.00, -0.00, -1.00, 471.7, 355.0)">y</text><text xml:space="preserve" font-family="KontrapunktBob-Light,Kontrapunkt Bob" font-size="20.6" fill="#FEFFFE" transform="matrix(1.00, 0.00, -0.00, -1.00, 484.6, 355.0)"> </text><text xml:space="preserve" font-family="KontrapunktBob-Light,Kontrapunkt Bob" font-size="20.6" fill="#FEFFFE" transform="matrix(1.00, 0.00, -0.00, -1.00, 489.9, 355.0)">L</text><text xml:space="preserve" font-family="KontrapunktBob-Light,Kontrapunkt Bob" font-size="20.6" fill="#FEFFFE" transform="matrix(1.00, 0.00, -0.00, -1.00, 502.7, 355.0)">e</text><text xml:space="preserve" font-family="KontrapunktBob-Light,Kontrapunkt Bob" font-size="20.6" fill="#FEFFFE" transform="matrix(1.00, 0.00, -0.00, -1.00, 514.7, 355.0)">v</text><text xml:space="preserve" font-family="KontrapunktBob-Light,Kontrapunkt Bob" font-size="20.6" fill="#FEFFFE" transform="matrix(1.00, 0.00, -0.00, -1.00, 527.4, 355.0)">e</text><text xml:space="preserve" font-family="KontrapunktBob-Light,Kontrapunkt Bob" font-size="20.6" fill="#FEFFFE" transform="matrix(1.00, 0.00, -0.00, -1.00, 539.7, 355.0)">l</text><text xml:space="preserve" font-family="KontrapunktBob-Light,Kontrapunkt Bob" font-size="20.6" fill="#FEFFFE" transform="matrix(1.00, 0.00, -0.00, -1.00, 546.4, 355.0)"> </text><text xml:space="preserve" font-family="KontrapunktBob-Light,Kontrapunkt Bob" font-size="20.6" fill="#FEFFFE" transform="matrix(1.00, 0.00, -0.00, -1.00, 551.8, 355.0)">O</text><text xml:space="preserve" font-family="KontrapunktBob-Light,Kontrapunkt Bob" font-size="20.6" fill="#FEFFFE" transform="matrix(1.00, 0.00, -0.00, -1.00, 568.7, 355.0)">n</text><text xml:space="preserve" font-family="KontrapunktBob-Light,Kontrapunkt Bob" font-size="20.6" fill="#FEFFFE" transform="matrix(1.00, 0.00, -0.00, -1.00, 583.0, 355.0)">e</text><text xml:space="preserve" font-family="KontrapunktBob-Light,Kontrapunkt Bob" font-size="20.6" fill="#FEFFFE" transform="matrix(1.00, 0.00, -0.00, -1.00, 595.3, 355.0)"> </text><text xml:space="preserve" font-family="KontrapunktBob-Light,Kontrapunkt Bob" font-size="20.6" fill="#FEFFFE" transform="matrix(1.00, 0.00, -0.00, -1.00, 437.9, 331.0)">B</text><text xml:space="preserve" font-family="KontrapunktBob-Light,Kontrapunkt Bob" font-size="20.6" fill="#FEFFFE" transform="matrix(1.00, 0.00, -0.00, -1.00, 453.5, 331.0)">o</text><text xml:space="preserve" font-family="KontrapunktBob-Light,Kontrapunkt Bob" font-size="20.6" fill="#FEFFFE" transform="matrix(1.00, 0.00, -0.00, -1.00, 466.8, 331.0)">d</text><text xml:space="preserve" font-family="KontrapunktBob-Light,Kontrapunkt Bob" font-size="20.6" fill="#FEFFFE" transform="matrix(1.00, 0.00, -0.00, -1.00, 480.8, 331.0)">y</text><text xml:space="preserve" font-family="KontrapunktBob-Light,Kontrapunkt Bob" font-size="20.6" fill="#FEFFFE" transform="matrix(1.00, 0.00, -0.00, -1.00, 493.7, 331.0)"> </text><text xml:space="preserve" font-family="KontrapunktBob-Light,Kontrapunkt Bob" font-size="20.6" fill="#FEFFFE" transform="matrix(1.00, 0.00, -0.00, -1.00, 499.1, 331.0)">L</text><text xml:space="preserve" font-family="KontrapunktBob-Light,Kontrapunkt Bob" font-size="20.6" fill="#FEFFFE" transform="matrix(1.00, 0.00, -0.00, -1.00, 511.9, 331.0)">e</text><text xml:space="preserve" font-family="KontrapunktBob-Light,Kontrapunkt Bob" font-size="20.6" fill="#FEFFFE" transform="matrix(1.00, 0.00, -0.00, -1.00, 523.8, 331.0)">v</text><text xml:space="preserve" font-family="KontrapunktBob-Light,Kontrapunkt Bob" font-size="20.6" fill="#FEFFFE" transform="matrix(1.00, 0.00, -0.00, -1.00, 536.5, 331.0)">e</text><text xml:space="preserve" font-family="KontrapunktBob-Light,Kontrapunkt Bob" font-size="20.6" fill="#FEFFFE" transform="matrix(1.00, 0.00, -0.00, -1.00, 548.8, 331.0)">l</text><text xml:space="preserve" font-family="KontrapunktBob-Light,Kontrapunkt Bob" font-size="20.6" fill="#FEFFFE" transform="matrix(1.00, 0.00, -0.00, -1.00, 555.5, 331.0)"> </text><text xml:space="preserve" font-family="KontrapunktBob-Light,Kontrapunkt Bob" font-size="20.6" fill="#FEFFFE" transform="matrix(1.00, 0.00, -0.00, -1.00, 560.9, 331.0)">T</text><text xml:space="preserve" font-family="KontrapunktBob-Light,Kontrapunkt Bob" font-size="20.6" fill="#FEFFFE" transform="matrix(1.00, 0.00, -0.00, -1.00, 572.9, 331.0)">w</text><text xml:space="preserve" font-family="KontrapunktBob-Light,Kontrapunkt Bob" font-size="20.6" fill="#FEFFFE" transform="matrix(1.00, 0.00, -0.00, -1.00, 590.8, 331.0)">o</text><text xml:space="preserve" font-family="KontrapunktBob-Light,Kontrapunkt Bob" font-size="20.6" fill="#FEFFFE" transform="matrix(1.00, 0.00, -0.00, -1.00, 604.1, 331.0)"> </text><text xml:space="preserve" font-family="KontrapunktBob-Light,Kontrapunkt Bob" font-size="20.6" fill="#FEFFFE" transform="matrix(1.00, 0.00, -0.00, -1.00, 438.1, 307.0)">B</text><text xml:space="preserve" font-family="KontrapunktBob-Light,Kontrapunkt Bob" font-size="20.6" fill="#FEFFFE" transform="matrix(1.00, 0.00, -0.00, -1.00, 453.8, 307.0)">o</text><text xml:space="preserve" font-family="KontrapunktBob-Light,Kontrapunkt Bob" font-size="20.6" fill="#FEFFFE" transform="matrix(1.00, 0.00, -0.00, -1.00, 467.0, 307.0)">d</text><text xml:space="preserve" font-family="KontrapunktBob-Light,Kontrapunkt Bob" font-size="20.6" fill="#FEFFFE" transform="matrix(1.00, 0.00, -0.00, -1.00, 481.1, 307.0)">y</text><text xml:space="preserve" font-family="KontrapunktBob-Light,Kontrapunkt Bob" font-size="20.6" fill="#FEFFFE" transform="matrix(1.00, 0.00, -0.00, -1.00, 494.0, 307.0)"> </text><text xml:space="preserve" font-family="KontrapunktBob-Light,Kontrapunkt Bob" font-size="20.6" fill="#FEFFFE" transform="matrix(1.00, 0.00, -0.00, -1.00, 499.3, 307.0)">L</text><text xml:space="preserve" font-family="KontrapunktBob-Light,Kontrapunkt Bob" font-size="20.6" fill="#FEFFFE" transform="matrix(1.00, 0.00, -0.00, -1.00, 512.1, 307.0)">e</text><text xml:space="preserve" font-family="KontrapunktBob-Light,Kontrapunkt Bob" font-size="20.6" fill="#FEFFFE" transform="matrix(1.00, 0.00, -0.00, -1.00, 524.1, 307.0)">v</text><text xml:space="preserve" font-family="KontrapunktBob-Light,Kontrapunkt Bob" font-size="20.6" fill="#FEFFFE" transform="matrix(1.00, 0.00, -0.00, -1.00, 536.8, 307.0)">e</text><text xml:space="preserve" font-family="KontrapunktBob-Light,Kontrapunkt Bob" font-size="20.6" fill="#FEFFFE" transform="matrix(1.00, 0.00, -0.00, -1.00, 549.1, 307.0)">l</text><text xml:space="preserve" font-family="KontrapunktBob-Light,Kontrapunkt Bob" font-size="20.6" fill="#FEFFFE" transform="matrix(1.00, 0.00, -0.00, -1.00, 555.8, 307.0)"> </text><text xml:space="preserve" font-family="KontrapunktBob-Light,Kontrapunkt Bob" font-size="20.6" fill="#FEFFFE" transform="matrix(1.00, 0.00, -0.00, -1.00, 561.2, 307.0)">T</text><text xml:space="preserve" font-family="KontrapunktBob-Light,Kontrapunkt Bob" font-size="20.6" fill="#FEFFFE" transform="matrix(1.00, 0.00, -0.00, -1.00, 573.9, 307.0)">h</text><text xml:space="preserve" font-family="KontrapunktBob-Light,Kontrapunkt Bob" font-size="20.6" fill="#FEFFFE" transform="matrix(1.00, 0.00, -0.00, -1.00, 588.1, 307.0)">r</text><text xml:space="preserve" font-family="KontrapunktBob-Light,Kontrapunkt Bob" font-size="20.6" fill="#FEFFFE" transform="matrix(1.00, 0.00, -0.00, -1.00, 597.3, 307.0)">e</text><text xml:space="preserve" font-family="KontrapunktBob-Light,Kontrapunkt Bob" font-size="20.6" fill="#FEFFFE" transform="matrix(1.00, 0.00, -0.00, -1.00, 609.6, 307.0)">e</text><text xml:space="preserve" font-family="KontrapunktBob-Light,Kontrapunkt Bob" font-size="20.6" fill="#FEFFFE" transform="matrix(1.00, 0.00, -0.00, -1.00, 621.9, 307.0)"> </text><text xml:space="preserve" font-family="KontrapunktBob-Light,Kontrapunkt Bob" font-size="20.6" fill="#FEFFFE" transform="matrix(1.00, 0.00, -0.00, -1.00, 452.5, 283.0)">B</text><text xml:space="preserve" font-family="KontrapunktBob-Light,Kontrapunkt Bob" font-size="20.6" fill="#FEFFFE" transform="matrix(1.00, 0.00, -0.00, -1.00, 468.1, 283.0)">o</text><text xml:space="preserve" font-family="KontrapunktBob-Light,Kontrapunkt Bob" font-size="20.6" fill="#FEFFFE" transform="matrix(1.00, 0.00, -0.00, -1.00, 481.4, 283.0)">d</text><text xml:space="preserve" font-family="KontrapunktBob-Light,Kontrapunkt Bob" font-size="20.6" fill="#FEFFFE" transform="matrix(1.00, 0.00, -0.00, -1.00, 495.4, 283.0)">y</text><text xml:space="preserve" font-family="KontrapunktBob-Light,Kontrapunkt Bob" font-size="20.6" fill="#FEFFFE" transform="matrix(1.00, 0.00, -0.00, -1.00, 508.3, 283.0)"> </text><text xml:space="preserve" font-family="KontrapunktBob-Light,Kontrapunkt Bob" font-size="20.6" fill="#FEFFFE" transform="matrix(1.00, 0.00, -0.00, -1.00, 513.7, 283.0)">L</text><text xml:space="preserve" font-family="KontrapunktBob-Light,Kontrapunkt Bob" font-size="20.6" fill="#FEFFFE" transform="matrix(1.00, 0.00, -0.00, -1.00, 526.5, 283.0)">e</text><text xml:space="preserve" font-family="KontrapunktBob-Light,Kontrapunkt Bob" font-size="20.6" fill="#FEFFFE" transform="matrix(1.00, 0.00, -0.00, -1.00, 538.4, 283.0)">v</text><text xml:space="preserve" font-family="KontrapunktBob-Light,Kontrapunkt Bob" font-size="20.6" fill="#FEFFFE" transform="matrix(1.00, 0.00, -0.00, -1.00, 551.1, 283.0)">e</text><text xml:space="preserve" font-family="KontrapunktBob-Light,Kontrapunkt Bob" font-size="20.6" fill="#FEFFFE" transform="matrix(1.00, 0.00, -0.00, -1.00, 563.4, 283.0)">l</text><text xml:space="preserve" font-family="KontrapunktBob-Light,Kontrapunkt Bob" font-size="20.6" fill="#FEFFFE" transform="matrix(1.00, 0.00, -0.00, -1.00, 570.1, 283.0)"> </text><text xml:space="preserve" font-family="KontrapunktBob-Light,Kontrapunkt Bob" font-size="20.6" fill="#FEFFFE" transform="matrix(1.00, 0.00, -0.00, -1.00, 575.5, 283.0)">F</text><text xml:space="preserve" font-family="KontrapunktBob-Light,Kontrapunkt Bob" font-size="20.6" fill="#FEFFFE" transform="matrix(1.00, 0.00, -0.00, -1.00, 588.9, 283.0)">o</text><text xml:space="preserve" font-family="KontrapunktBob-Light,Kontrapunkt Bob" font-size="20.6" fill="#FEFFFE" transform="matrix(1.00, 0.00, -0.00, -1.00, 602.2, 283.0)">u</text><text xml:space="preserve" font-family="KontrapunktBob-Light,Kontrapunkt Bob" font-size="20.6" fill="#FEFFFE" transform="matrix(1.00, 0.00, -0.00, -1.00, 616.1, 283.0)">r</text><text xml:space="preserve" font-family="KontrapunktBob-Light,Kontrapunkt Bob" font-size="20.6" fill="#FEFFFE" transform="matrix(1.00, 0.00, -0.00, -1.00, 625.5, 283.0)"> </text><text xml:space="preserve" font-family="KontrapunktBob-Light,Kontrapunkt Bob" font-size="20.6" fill="#FEFFFE" transform="matrix(1.00, 0.00, -0.00, -1.00, 463.9, 259.0)">B</text><text xml:space="preserve" font-family="KontrapunktBob-Light,Kontrapunkt Bob" font-size="20.6" fill="#FEFFFE" transform="matrix(1.00, 0.00, -0.00, -1.00, 479.5, 259.0)">o</text><text xml:space="preserve" font-family="KontrapunktBob-Light,Kontrapunkt Bob" font-size="20.6" fill="#FEFFFE" transform="matrix(1.00, 0.00, -0.00, -1.00, 492.8, 259.0)">d</text><text xml:space="preserve" font-family="KontrapunktBob-Light,Kontrapunkt Bob" font-size="20.6" fill="#FEFFFE" transform="matrix(1.00, 0.00, -0.00, -1.00, 506.8, 259.0)">y</text><text xml:space="preserve" font-family="KontrapunktBob-Light,Kontrapunkt Bob" font-size="20.6" fill="#FEFFFE" transform="matrix(1.00, 0.00, -0.00, -1.00, 519.7, 259.0)"> </text><text xml:space="preserve" font-family="KontrapunktBob-Light,Kontrapunkt Bob" font-size="20.6" fill="#FEFFFE" transform="matrix(1.00, 0.00, -0.00, -1.00, 525.1, 259.0)">L</text><text xml:space="preserve" font-family="KontrapunktBob-Light,Kontrapunkt Bob" font-size="20.6" fill="#FEFFFE" transform="matrix(1.00, 0.00, -0.00, -1.00, 537.9, 259.0)">e</text><text xml:space="preserve" font-family="KontrapunktBob-Light,Kontrapunkt Bob" font-size="20.6" fill="#FEFFFE" transform="matrix(1.00, 0.00, -0.00, -1.00, 549.8, 259.0)">v</text><text xml:space="preserve" font-family="KontrapunktBob-Light,Kontrapunkt Bob" font-size="20.6" fill="#FEFFFE" transform="matrix(1.00, 0.00, -0.00, -1.00, 562.6, 259.0)">e</text><text xml:space="preserve" font-family="KontrapunktBob-Light,Kontrapunkt Bob" font-size="20.6" fill="#FEFFFE" transform="matrix(1.00, 0.00, -0.00, -1.00, 574.8, 259.0)">l</text><text xml:space="preserve" font-family="KontrapunktBob-Light,Kontrapunkt Bob" font-size="20.6" fill="#FEFFFE" transform="matrix(1.00, 0.00, -0.00, -1.00, 581.6, 259.0)"> </text><text xml:space="preserve" font-family="KontrapunktBob-Light,Kontrapunkt Bob" font-size="20.6" fill="#FEFFFE" transform="matrix(1.00, 0.00, -0.00, -1.00, 586.9, 259.0)">F</text><text xml:space="preserve" font-family="KontrapunktBob-Light,Kontrapunkt Bob" font-size="20.6" fill="#FEFFFE" transform="matrix(1.00, 0.00, -0.00, -1.00, 600.7, 259.0)">i</text><text xml:space="preserve" font-family="KontrapunktBob-Light,Kontrapunkt Bob" font-size="20.6" fill="#FEFFFE" transform="matrix(1.00, 0.00, -0.00, -1.00, 607.1, 259.0)">v</text><text xml:space="preserve" font-family="KontrapunktBob-Light,Kontrapunkt Bob" font-size="20.6" fill="#FEFFFE" transform="matrix(1.00, 0.00, -0.00, -1.00, 619.8, 259.0)">e</text><path d="M -2.0 645.0 L 1026.0 645.0 L 1026.0 -2.0 L -2.0 -2.0 Z M -2.1 645.5 " fill="#F1F1F1"></path><g><clipPath id="clip0x6100008a9960"><path d="M 353.0 -92.6 L 662.6 -92.6 L 662.6 50.7 L 353.0 50.7 Z M 353.0 -92.6 "></path></clipPath><g clip-path="url(#clip0x6100008a9960)"><path d="M 656.6 -73.6 C 656.6 -73.6 639.9 -59.2 630.5 -49.8 C 621.1 -40.4 618.2 -29.6 618.2 -29.6 C 611.0 49.7 611.0 49.7 611.0 49.7 C 404.5 49.7 404.5 49.7 404.5 49.7 C 397.3 -29.6 397.3 -29.6 397.3 -29.6 C 397.3 -29.6 394.4 -41.2 385.7 -50.5 C 376.3 -59.9 358.9 -74.3 358.9 -74.3 C 358.9 -74.3 343.7 -85.1 366.8 -88.0 C 379.9 -90.2 438.6 -91.6 485.6 -91.6 C 529.8 -91.6 529.8 -91.6 529.8 -91.6 C 578.4 -91.6 635.6 -90.2 649.4 -88.0 C 671.8 -84.4 656.6 -73.6 656.6 -73.6 Z M 656.6 -73.6 " fill="#7FC7EA"></path></g></g><g><clipPath id="clip0x6100008a9720"><path d="M 15.0 43.6 L 998.4 43.6 L 998.4 645.3 L 15.0 645.3 Z M 15.0 43.6 "></path></clipPath><g clip-path="url(#clip0x6100008a9720)"><path d="M 973.5 644.3 C 41.4 644.3 41.4 644.3 41.4 644.3 C 27.6 644.3 16.0 632.0 16.0 618.3 C 16.0 70.7 16.0 70.7 16.0 70.7 C 16.0 56.9 27.6 44.6 41.4 44.6 C 386.6 44.6 386.6 44.6 386.6 44.6 C 406.1 44.6 406.1 44.6 406.1 44.6 C 609.5 44.6 609.5 44.6 609.5 44.6 C 630.5 44.6 630.5 44.6 630.5 44.6 C 973.5 44.6 973.5 44.6 973.5 44.6 C 987.2 44.6 997.4 56.9 997.4 70.7 C 997.4 618.3 997.4 618.3 997.4 618.3 C 997.4 632.0 987.2 644.3 973.5 644.3 Z M 957.0 88.1 C 53.7 88.1 53.7 88.1 53.7 88.1 C 53.7 600.9 53.7 600.9 53.7 600.9 C 956.8 600.9 957.0 600.9 957.0 600.9 L 957.0 88.1 Z M 956.8 88.1 " fill="#7FC7EA"></path></g></g><g><clipPath id="clip0x6100008a93c0"><path d="M 54.0 606.0 L 960.0 606.0 L 960.0 88.0 L 54.0 88.0 Z M 53.7 605.6 "></path></clipPath><g clip-path="url(#clip0x6100008a93c0)"><g><clipPath id="clip0x6100008a9360"><path d="M 54.0 87.8 L 959.7 87.8 L 959.7 605.6 L 54.0 605.6 Z M 54.0 87.8 "></path></clipPath><g clip-path="url(#clip0x6100008a9360)"><path d="M 54.0 654.0 L 960.0 654.0 L 960.0 39.0 L 54.0 39.0 Z M 54.0 654.0 " fill="#FEFFFF" fill-opacity="0.00"></path><image xlink:href="../../E6BF3077-3990-4939-AFAA-BDA72BF5233A/assets/9C61468C6A189E5B110B8038916639A9.png" width="1061.00" height="720.00" transform="matrix(0.85, 0.00, -0.00, -0.85, 54.0, 654.0)"></image></g></g></g></g></g></svg>