<?xml version="1.0" encoding="UTF-8" standalone="no"?><svg xmlns="http://www.w3.org/2000/svg" xmlns:xlink="http://www.w3.org/1999/xlink" clip-rule="evenodd" stroke-miterlimit="10" viewBox="0 0 201 71"><desc>SVG generated by Keynote</desc><defs></defs><g transform="matrix(1.00, 0.00, -0.00, -1.00, 0.0, 71.0)"><g><clipPath id="clip0x6180012bc260"><path d="M 18.0 52.7 L 200.3 52.7 L 200.3 70.7 L 18.0 70.7 Z M 18.0 52.7 "></path></clipPath><g clip-path="url(#clip0x6180012bc260)"><text xml:space="preserve" font-family="Aller-Light,Aller Light" font-size="10.0" fill="#52575F" transform="matrix(1.00, 0.00, -0.00, -1.00, 21.0, 58.5)">G</text><text xml:space="preserve" font-family="Aller-Light,Aller Light" font-size="10.0" fill="#52575F" transform="matrix(1.00, 0.00, -0.00, -1.00, 27.9, 58.5)">r</text><text xml:space="preserve" font-family="Aller-Light,Aller Light" font-size="10.0" fill="#52575F" transform="matrix(1.00, 0.00, -0.00, -1.00, 31.3, 58.5)">a</text><text xml:space="preserve" font-family="Aller-Light,Aller Light" font-size="10.0" fill="#52575F" transform="matrix(1.00, 0.00, -0.00, -1.00, 36.4, 58.5)">n</text><text xml:space="preserve" font-family="Aller-Light,Aller Light" font-size="10.0" fill="#52575F" transform="matrix(1.00, 0.00, -0.00, -1.00, 42.1, 58.5)"> </text><text xml:space="preserve" font-family="Aller-Light,Aller Light" font-size="10.0" fill="#52575F" transform="matrix(1.00, 0.00, -0.00, -1.00, 44.6, 58.5)">c</text><text xml:space="preserve" font-family="Aller-Light,Aller Light" font-size="10.0" fill="#52575F" transform="matrix(1.00, 0.00, -0.00, -1.00, 49.3, 58.5)">o</text><text xml:space="preserve" font-family="Aller-Light,Aller Light" font-size="10.0" fill="#52575F" transform="matrix(1.00, 0.00, -0.00, -1.00, 55.0, 58.5)">m</text><text xml:space="preserve" font-family="Aller-Light,Aller Light" font-size="10.0" fill="#52575F" transform="matrix(1.00, 0.00, -0.00, -1.00, 63.4, 58.5)">p</text><text xml:space="preserve" font-family="Aller-Light,Aller Light" font-size="10.0" fill="#52575F" transform="matrix(1.00, 0.00, -0.00, -1.00, 69.3, 58.5)">e</text><text xml:space="preserve" font-family="Aller-Light,Aller Light" font-size="10.0" fill="#52575F" transform="matrix(1.00, 0.00, -0.00, -1.00, 74.8, 58.5)">t</text><text xml:space="preserve" font-family="Aller-Light,Aller Light" font-size="10.0" fill="#52575F" transform="matrix(1.00, 0.00, -0.00, -1.00, 78.2, 58.5)">e</text><text xml:space="preserve" font-family="Aller-Light,Aller Light" font-size="10.0" fill="#52575F" transform="matrix(1.00, 0.00, -0.00, -1.00, 83.7, 58.5)">n</text><text xml:space="preserve" font-family="Aller-Light,Aller Light" font-size="10.0" fill="#52575F" transform="matrix(1.00, 0.00, -0.00, -1.00, 89.4, 58.5)">c</text><text xml:space="preserve" font-family="Aller-Light,Aller Light" font-size="10.0" fill="#52575F" transform="matrix(1.00, 0.00, -0.00, -1.00, 94.2, 58.5)">i</text><text xml:space="preserve" font-family="Aller-Light,Aller Light" font-size="10.0" fill="#52575F" transform="matrix(1.00, 0.00, -0.00, -1.00, 97.0, 58.5)">a</text></g></g><g><clipPath id="clip0x6180012be480"><path d="M 0.5 55.5 L 13.5 55.5 L 13.5 66.8 L 0.5 66.8 Z M 0.5 55.5 "></path></clipPath><g clip-path="url(#clip0x6180012be480)"><path d="M 1.0 59.6 L 4.2 56.5 L 12.0 65.3 L 12.0 65.8 L 4.5 59.6 L 1.0 62.2 L 1.0 59.6 Z M 1.5 59.6 " fill="#7FC7EA"></path></g></g><g><clipPath id="clip0x6180012be240"><path d="M 18.0 35.4 L 200.3 35.4 L 200.3 53.4 L 18.0 53.4 Z M 18.0 35.4 "></path></clipPath><g clip-path="url(#clip0x6180012be240)"><text xml:space="preserve" font-family="Aller-Light,Aller Light" font-size="10.0" fill="#52575F" transform="matrix(1.00, 0.00, -0.00, -1.00, 21.0, 41.1)">C</text><text xml:space="preserve" font-family="Aller-Light,Aller Light" font-size="10.0" fill="#52575F" transform="matrix(1.00, 0.00, -0.00, -1.00, 26.9, 41.1)">o</text><text xml:space="preserve" font-family="Aller-Light,Aller Light" font-size="10.0" fill="#52575F" transform="matrix(1.00, 0.00, -0.00, -1.00, 32.7, 41.1)">n</text><text xml:space="preserve" font-family="Aller-Light,Aller Light" font-size="10.0" fill="#52575F" transform="matrix(1.00, 0.00, -0.00, -1.00, 38.4, 41.1)">t</text><text xml:space="preserve" font-family="Aller-Light,Aller Light" font-size="10.0" fill="#52575F" transform="matrix(1.00, 0.00, -0.00, -1.00, 41.8, 41.1)">i</text><text xml:space="preserve" font-family="Aller-Light,Aller Light" font-size="10.0" fill="#52575F" transform="matrix(1.00, 0.00, -0.00, -1.00, 44.5, 41.1)">n</text><text xml:space="preserve" font-family="Aller-Light,Aller Light" font-size="10.0" fill="#52575F" transform="matrix(1.00, 0.00, -0.00, -1.00, 50.2, 41.1)">u</text><text xml:space="preserve" font-family="Aller-Light,Aller Light" font-size="10.0" fill="#52575F" transform="matrix(1.00, 0.00, -0.00, -1.00, 56.0, 41.1)">o</text><text xml:space="preserve" font-family="Aller-Light,Aller Light" font-size="10.0" fill="#52575F" transform="matrix(1.00, 0.00, -0.00, -1.00, 61.7, 41.1)">s</text><text xml:space="preserve" font-family="Aller-Light,Aller Light" font-size="10.0" fill="#52575F" transform="matrix(1.00, 0.00, -0.00, -1.00, 66.3, 41.1)"> </text><text xml:space="preserve" font-family="Aller-Light,Aller Light" font-size="10.0" fill="#52575F" transform="matrix(1.00, 0.00, -0.00, -1.00, 68.8, 41.1)">a</text><text xml:space="preserve" font-family="Aller-Light,Aller Light" font-size="10.0" fill="#52575F" transform="matrix(1.00, 0.00, -0.00, -1.00, 73.8, 41.1)">v</text><text xml:space="preserve" font-family="Aller-Light,Aller Light" font-size="10.0" fill="#52575F" transform="matrix(1.00, 0.00, -0.00, -1.00, 79.0, 41.1)">a</text><text xml:space="preserve" font-family="Aller-Light,Aller Light" font-size="10.0" fill="#52575F" transform="matrix(1.00, 0.00, -0.00, -1.00, 84.1, 41.1)">n</text><text xml:space="preserve" font-family="Aller-Light,Aller Light" font-size="10.0" fill="#52575F" transform="matrix(1.00, 0.00, -0.00, -1.00, 89.8, 41.1)">c</text><text xml:space="preserve" font-family="Aller-Light,Aller Light" font-size="10.0" fill="#52575F" transform="matrix(1.00, 0.00, -0.00, -1.00, 94.5, 41.1)">e</text><text xml:space="preserve" font-family="Aller-Light,Aller Light" font-size="10.0" fill="#52575F" transform="matrix(1.00, 0.00, -0.00, -1.00, 100.0, 41.1)">s</text><text xml:space="preserve" font-family="Aller-Light,Aller Light" font-size="10.0" fill="#52575F" transform="matrix(1.00, 0.00, -0.00, -1.00, 104.5, 41.1)"> </text><text xml:space="preserve" font-family="Aller-Light,Aller Light" font-size="10.0" fill="#52575F" transform="matrix(1.00, 0.00, -0.00, -1.00, 107.0, 41.1)">t</text><text xml:space="preserve" font-family="Aller-Light,Aller Light" font-size="10.0" fill="#52575F" transform="matrix(1.00, 0.00, -0.00, -1.00, 110.4, 41.1)">e</text><text xml:space="preserve" font-family="Aller-Light,Aller Light" font-size="10.0" fill="#52575F" transform="matrix(1.00, 0.00, -0.00, -1.00, 116.0, 41.1)">c</text><text xml:space="preserve" font-family="Aller-Light,Aller Light" font-size="10.0" fill="#52575F" transform="matrix(1.00, 0.00, -0.00, -1.00, 120.8, 41.1)">n</text><text xml:space="preserve" font-family="Aller-Light,Aller Light" font-size="10.0" fill="#52575F" transform="matrix(1.00, 0.00, -0.00, -1.00, 126.5, 41.1)">o</text><text xml:space="preserve" font-family="Aller-Light,Aller Light" font-size="10.0" fill="#52575F" transform="matrix(1.00, 0.00, -0.00, -1.00, 132.2, 41.1)">l</text><text xml:space="preserve" font-family="Aller-Light,Aller Light" font-size="10.0" fill="#52575F" transform="matrix(1.00, 0.00, -0.00, -1.00, 135.0, 41.1)">รณ</text><text xml:space="preserve" font-family="Aller-Light,Aller Light" font-size="10.0" fill="#52575F" transform="matrix(1.00, 0.00, -0.00, -1.00, 140.7, 41.1)">g</text><text xml:space="preserve" font-family="Aller-Light,Aller Light" font-size="10.0" fill="#52575F" transform="matrix(1.00, 0.00, -0.00, -1.00, 146.0, 41.1)">i</text><text xml:space="preserve" font-family="Aller-Light,Aller Light" font-size="10.0" fill="#52575F" transform="matrix(1.00, 0.00, -0.00, -1.00, 148.7, 41.1)">c</text><text xml:space="preserve" font-family="Aller-Light,Aller Light" font-size="10.0" fill="#52575F" transform="matrix(1.00, 0.00, -0.00, -1.00, 153.4, 41.1)">o</text><text xml:space="preserve" font-family="Aller-Light,Aller Light" font-size="10.0" fill="#52575F" transform="matrix(1.00, 0.00, -0.00, -1.00, 159.1, 41.1)">s</text></g></g><g><clipPath id="clip0x6180012bddc0"><path d="M 0.5 38.2 L 13.5 38.2 L 13.5 49.5 L 0.5 49.5 Z M 0.5 38.2 "></path></clipPath><g clip-path="url(#clip0x6180012bddc0)"><path d="M 1.0 42.3 L 4.2 39.2 L 12.0 48.0 L 12.0 48.5 L 4.5 42.3 L 1.0 44.9 L 1.0 42.3 Z M 1.5 42.3 " fill="#7FC7EA"></path></g></g><g><clipPath id="clip0x6180012bf6e0"><path d="M 18.0 18.1 L 200.3 18.1 L 200.3 36.0 L 18.0 36.0 Z M 18.0 18.1 "></path></clipPath><g clip-path="url(#clip0x6180012bf6e0)"><text xml:space="preserve" font-family="Aller-Light,Aller Light" font-size="10.0" fill="#52575F" transform="matrix(1.00, 0.00, -0.00, -1.00, 21.0, 23.8)">L</text><text xml:space="preserve" font-family="Aller-Light,Aller Light" font-size="10.0" fill="#52575F" transform="matrix(1.00, 0.00, -0.00, -1.00, 25.9, 23.8)">a</text><text xml:space="preserve" font-family="Aller-Light,Aller Light" font-size="10.0" fill="#52575F" transform="matrix(1.00, 0.00, -0.00, -1.00, 31.1, 23.8)"> </text><text xml:space="preserve" font-family="Aller-Light,Aller Light" font-size="10.0" fill="#52575F" transform="matrix(1.00, 0.00, -0.00, -1.00, 33.6, 23.8)">c</text><text xml:space="preserve" font-family="Aller-Light,Aller Light" font-size="10.0" fill="#52575F" transform="matrix(1.00, 0.00, -0.00, -1.00, 38.4, 23.8)">r</text><text xml:space="preserve" font-family="Aller-Light,Aller Light" font-size="10.0" fill="#52575F" transform="matrix(1.00, 0.00, -0.00, -1.00, 41.9, 23.8)">i</text><text xml:space="preserve" font-family="Aller-Light,Aller Light" font-size="10.0" fill="#52575F" transform="matrix(1.00, 0.00, -0.00, -1.00, 44.6, 23.8)">s</text><text xml:space="preserve" font-family="Aller-Light,Aller Light" font-size="10.0" fill="#52575F" transform="matrix(1.00, 0.00, -0.00, -1.00, 49.1, 23.8)">i</text><text xml:space="preserve" font-family="Aller-Light,Aller Light" font-size="10.0" fill="#52575F" transform="matrix(1.00, 0.00, -0.00, -1.00, 51.8, 23.8)">s</text><text xml:space="preserve" font-family="Aller-Light,Aller Light" font-size="10.0" fill="#52575F" transform="matrix(1.00, 0.00, -0.00, -1.00, 56.4, 23.8)"> </text><text xml:space="preserve" font-family="Aller-Light,Aller Light" font-size="10.0" fill="#52575F" transform="matrix(1.00, 0.00, -0.00, -1.00, 58.9, 23.8)">e</text><text xml:space="preserve" font-family="Aller-Light,Aller Light" font-size="10.0" fill="#52575F" transform="matrix(1.00, 0.00, -0.00, -1.00, 64.4, 23.8)">c</text><text xml:space="preserve" font-family="Aller-Light,Aller Light" font-size="10.0" fill="#52575F" transform="matrix(1.00, 0.00, -0.00, -1.00, 69.0, 23.8)">o</text><text xml:space="preserve" font-family="Aller-Light,Aller Light" font-size="10.0" fill="#52575F" transform="matrix(1.00, 0.00, -0.00, -1.00, 74.8, 23.8)">n</text><text xml:space="preserve" font-family="Aller-Light,Aller Light" font-size="10.0" fill="#52575F" transform="matrix(1.00, 0.00, -0.00, -1.00, 80.5, 23.8)">รณ</text><text xml:space="preserve" font-family="Aller-Light,Aller Light" font-size="10.0" fill="#52575F" transform="matrix(1.00, 0.00, -0.00, -1.00, 86.2, 23.8)">m</text><text xml:space="preserve" font-family="Aller-Light,Aller Light" font-size="10.0" fill="#52575F" transform="matrix(1.00, 0.00, -0.00, -1.00, 94.6, 23.8)">i</text><text xml:space="preserve" font-family="Aller-Light,Aller Light" font-size="10.0" fill="#52575F" transform="matrix(1.00, 0.00, -0.00, -1.00, 97.3, 23.8)">c</text><text xml:space="preserve" font-family="Aller-Light,Aller Light" font-size="10.0" fill="#52575F" transform="matrix(1.00, 0.00, -0.00, -1.00, 102.1, 23.8)">a</text></g></g><g><clipPath id="clip0x6180014a1b00"><path d="M 0.5 21.6 L 13.5 21.6 L 13.5 32.9 L 0.5 32.9 Z M 0.5 21.6 "></path></clipPath><g clip-path="url(#clip0x6180014a1b00)"><path d="M 1.0 25.7 L 4.2 22.6 L 12.0 31.4 L 12.0 31.9 L 4.5 25.7 L 1.0 28.3 L 1.0 25.7 Z M 1.5 25.7 " fill="#7FC7EA"></path></g></g><g><clipPath id="clip0x6180014a18c0"><path d="M 18.0 0.8 L 200.3 0.8 L 200.3 18.7 L 18.0 18.7 Z M 18.0 0.8 "></path></clipPath><g clip-path="url(#clip0x6180014a18c0)"><text xml:space="preserve" font-family="Aller-Light,Aller Light" font-size="10.0" fill="#52575F" transform="matrix(1.00, 0.00, -0.00, -1.00, 21.0, 6.5)">L</text><text xml:space="preserve" font-family="Aller-Light,Aller Light" font-size="10.0" fill="#52575F" transform="matrix(1.00, 0.00, -0.00, -1.00, 25.9, 6.5)">e</text><text xml:space="preserve" font-family="Aller-Light,Aller Light" font-size="10.0" fill="#52575F" transform="matrix(1.00, 0.00, -0.00, -1.00, 31.4, 6.5)">g</text><text xml:space="preserve" font-family="Aller-Light,Aller Light" font-size="10.0" fill="#52575F" transform="matrix(1.00, 0.00, -0.00, -1.00, 36.7, 6.5)">i</text><text xml:space="preserve" font-family="Aller-Light,Aller Light" font-size="10.0" fill="#52575F" transform="matrix(1.00, 0.00, -0.00, -1.00, 39.5, 6.5)">s</text><text xml:space="preserve" font-family="Aller-Light,Aller Light" font-size="10.0" fill="#52575F" transform="matrix(1.00, 0.00, -0.00, -1.00, 44.0, 6.5)">l</text><text xml:space="preserve" font-family="Aller-Light,Aller Light" font-size="10.0" fill="#52575F" transform="matrix(1.00, 0.00, -0.00, -1.00, 46.8, 6.5)">a</text><text xml:space="preserve" font-family="Aller-Light,Aller Light" font-size="10.0" fill="#52575F" transform="matrix(1.00, 0.00, -0.00, -1.00, 51.9, 6.5)">c</text><text xml:space="preserve" font-family="Aller-Light,Aller Light" font-size="10.0" fill="#52575F" transform="matrix(1.00, 0.00, -0.00, -1.00, 56.7, 6.5)">i</text><text xml:space="preserve" font-family="Aller-Light,Aller Light" font-size="10.0" fill="#52575F" transform="matrix(1.00, 0.00, -0.00, -1.00, 59.4, 6.5)">รณ</text><text xml:space="preserve" font-family="Aller-Light,Aller Light" font-size="10.0" fill="#52575F" transform="matrix(1.00, 0.00, -0.00, -1.00, 65.2, 6.5)">n</text></g></g><g><clipPath id="clip0x6180014a12c0"><path d="M 0.5 2.6 L 13.5 2.6 L 13.5 14.0 L 0.5 14.0 Z M 0.5 2.6 "></path></clipPath><g clip-path="url(#clip0x6180014a12c0)"><path d="M 1.0 6.7 L 4.2 3.6 L 12.0 12.4 L 12.0 13.0 L 4.5 6.7 L 1.0 9.3 L 1.0 6.7 Z M 1.5 6.7 " fill="#7FC7EA"></path></g></g></g></svg>