<?xml version="1.0" encoding="UTF-8" standalone="no"?><svg xmlns="http://www.w3.org/2000/svg" xmlns:xlink="http://www.w3.org/1999/xlink" clip-rule="evenodd" stroke-miterlimit="10" viewBox="0 0 201 36"><desc>SVG generated by Keynote</desc><defs></defs><g transform="matrix(1.00, 0.00, -0.00, -1.00, 0.0, 36.0)"><g><clipPath id="clip0x600001eb2ba0"><path d="M 18.2 17.4 L 200.5 17.4 L 200.5 35.3 L 18.2 35.3 Z M 18.2 17.4 "></path></clipPath><g clip-path="url(#clip0x600001eb2ba0)"><text xml:space="preserve" font-family="Aller-Light,Aller Light" font-size="10.0" fill="#52575F" transform="matrix(1.00, 0.00, -0.00, -1.00, 21.2, 23.1)">P</text><text xml:space="preserve" font-family="Aller-Light,Aller Light" font-size="10.0" fill="#52575F" transform="matrix(1.00, 0.00, -0.00, -1.00, 26.7, 23.1)">r</text><text xml:space="preserve" font-family="Aller-Light,Aller Light" font-size="10.0" fill="#52575F" transform="matrix(1.00, 0.00, -0.00, -1.00, 30.0, 23.1)">o</text><text xml:space="preserve" font-family="Aller-Light,Aller Light" font-size="10.0" fill="#52575F" transform="matrix(1.00, 0.00, -0.00, -1.00, 35.7, 23.1)">y</text><text xml:space="preserve" font-family="Aller-Light,Aller Light" font-size="10.0" fill="#52575F" transform="matrix(1.00, 0.00, -0.00, -1.00, 40.7, 23.1)">e</text><text xml:space="preserve" font-family="Aller-Light,Aller Light" font-size="10.0" fill="#52575F" transform="matrix(1.00, 0.00, -0.00, -1.00, 46.2, 23.1)">c</text><text xml:space="preserve" font-family="Aller-Light,Aller Light" font-size="10.0" fill="#52575F" transform="matrix(1.00, 0.00, -0.00, -1.00, 51.0, 23.1)">t</text><text xml:space="preserve" font-family="Aller-Light,Aller Light" font-size="10.0" fill="#52575F" transform="matrix(1.00, 0.00, -0.00, -1.00, 54.4, 23.1)">o</text><text xml:space="preserve" font-family="Aller-Light,Aller Light" font-size="10.0" fill="#52575F" transform="matrix(1.00, 0.00, -0.00, -1.00, 60.1, 23.1)"> </text><text xml:space="preserve" font-family="Aller-Light,Aller Light" font-size="10.0" fill="#52575F" transform="matrix(1.00, 0.00, -0.00, -1.00, 62.6, 23.1)">c</text><text xml:space="preserve" font-family="Aller-Light,Aller Light" font-size="10.0" fill="#52575F" transform="matrix(1.00, 0.00, -0.00, -1.00, 67.3, 23.1)">o</text><text xml:space="preserve" font-family="Aller-Light,Aller Light" font-size="10.0" fill="#52575F" transform="matrix(1.00, 0.00, -0.00, -1.00, 73.0, 23.1)">n</text><text xml:space="preserve" font-family="Aller-Light,Aller Light" font-size="10.0" fill="#52575F" transform="matrix(1.00, 0.00, -0.00, -1.00, 78.8, 23.1)"> </text><text xml:space="preserve" font-family="Aller-Light,Aller Light" font-size="10.0" fill="#52575F" transform="matrix(1.00, 0.00, -0.00, -1.00, 81.3, 23.1)">t</text><text xml:space="preserve" font-family="Aller-Light,Aller Light" font-size="10.0" fill="#52575F" transform="matrix(1.00, 0.00, -0.00, -1.00, 84.6, 23.1)">e</text><text xml:space="preserve" font-family="Aller-Light,Aller Light" font-size="10.0" fill="#52575F" transform="matrix(1.00, 0.00, -0.00, -1.00, 90.2, 23.1)">c</text><text xml:space="preserve" font-family="Aller-Light,Aller Light" font-size="10.0" fill="#52575F" transform="matrix(1.00, 0.00, -0.00, -1.00, 95.0, 23.1)">n</text><text xml:space="preserve" font-family="Aller-Light,Aller Light" font-size="10.0" fill="#52575F" transform="matrix(1.00, 0.00, -0.00, -1.00, 100.7, 23.1)">o</text><text xml:space="preserve" font-family="Aller-Light,Aller Light" font-size="10.0" fill="#52575F" transform="matrix(1.00, 0.00, -0.00, -1.00, 106.4, 23.1)">l</text><text xml:space="preserve" font-family="Aller-Light,Aller Light" font-size="10.0" fill="#52575F" transform="matrix(1.00, 0.00, -0.00, -1.00, 109.2, 23.1)">o</text><text xml:space="preserve" font-family="Aller-Light,Aller Light" font-size="10.0" fill="#52575F" transform="matrix(1.00, 0.00, -0.00, -1.00, 114.9, 23.1)">g</text><text xml:space="preserve" font-family="Aller-Light,Aller Light" font-size="10.0" fill="#52575F" transform="matrix(1.00, 0.00, -0.00, -1.00, 120.2, 23.1)">í</text><text xml:space="preserve" font-family="Aller-Light,Aller Light" font-size="10.0" fill="#52575F" transform="matrix(1.00, 0.00, -0.00, -1.00, 123.0, 23.1)">a</text><text xml:space="preserve" font-family="Aller-Light,Aller Light" font-size="10.0" fill="#52575F" transform="matrix(1.00, 0.00, -0.00, -1.00, 128.1, 23.1)"> </text><text xml:space="preserve" font-family="Aller-Light,Aller Light" font-size="10.0" fill="#52575F" transform="matrix(1.00, 0.00, -0.00, -1.00, 130.6, 23.1)">i</text><text xml:space="preserve" font-family="Aller-Light,Aller Light" font-size="10.0" fill="#52575F" transform="matrix(1.00, 0.00, -0.00, -1.00, 133.3, 23.1)">n</text><text xml:space="preserve" font-family="Aller-Light,Aller Light" font-size="10.0" fill="#52575F" transform="matrix(1.00, 0.00, -0.00, -1.00, 139.0, 23.1)">n</text><text xml:space="preserve" font-family="Aller-Light,Aller Light" font-size="10.0" fill="#52575F" transform="matrix(1.00, 0.00, -0.00, -1.00, 144.8, 23.1)">o</text><text xml:space="preserve" font-family="Aller-Light,Aller Light" font-size="10.0" fill="#52575F" transform="matrix(1.00, 0.00, -0.00, -1.00, 150.3, 23.1)">v</text><text xml:space="preserve" font-family="Aller-Light,Aller Light" font-size="10.0" fill="#52575F" transform="matrix(1.00, 0.00, -0.00, -1.00, 155.5, 23.1)">a</text><text xml:space="preserve" font-family="Aller-Light,Aller Light" font-size="10.0" fill="#52575F" transform="matrix(1.00, 0.00, -0.00, -1.00, 160.6, 23.1)">d</text><text xml:space="preserve" font-family="Aller-Light,Aller Light" font-size="10.0" fill="#52575F" transform="matrix(1.00, 0.00, -0.00, -1.00, 166.5, 23.1)">o</text><text xml:space="preserve" font-family="Aller-Light,Aller Light" font-size="10.0" fill="#52575F" transform="matrix(1.00, 0.00, -0.00, -1.00, 172.2, 23.1)">r</text><text xml:space="preserve" font-family="Aller-Light,Aller Light" font-size="10.0" fill="#52575F" transform="matrix(1.00, 0.00, -0.00, -1.00, 175.6, 23.1)">a</text></g></g><g><clipPath id="clip0x600001eb1580"><path d="M 0.7 20.2 L 13.7 20.2 L 13.7 31.5 L 0.7 31.5 Z M 0.7 20.2 "></path></clipPath><g clip-path="url(#clip0x600001eb1580)"><path d="M 2.0 24.3 L 4.4 21.2 L 13.0 30.0 L 13.0 30.5 L 4.7 24.3 L 2.0 26.9 L 2.0 24.3 Z M 1.7 24.3 " fill="#7FC7EA"></path></g></g><g><clipPath id="clip0x600001eb1340"><path d="M 18.2 0.1 L 200.5 0.1 L 200.5 18.0 L 18.2 18.0 Z M 18.2 0.1 "></path></clipPath><g clip-path="url(#clip0x600001eb1340)"><text xml:space="preserve" font-family="Aller-Light,Aller Light" font-size="10.0" fill="#52575F" transform="matrix(1.00, 0.00, -0.00, -1.00, 21.2, 5.8)">C</text><text xml:space="preserve" font-family="Aller-Light,Aller Light" font-size="10.0" fill="#52575F" transform="matrix(1.00, 0.00, -0.00, -1.00, 27.2, 5.8)">a</text><text xml:space="preserve" font-family="Aller-Light,Aller Light" font-size="10.0" fill="#52575F" transform="matrix(1.00, 0.00, -0.00, -1.00, 32.4, 5.8)">p</text><text xml:space="preserve" font-family="Aller-Light,Aller Light" font-size="10.0" fill="#52575F" transform="matrix(1.00, 0.00, -0.00, -1.00, 38.3, 5.8)">a</text><text xml:space="preserve" font-family="Aller-Light,Aller Light" font-size="10.0" fill="#52575F" transform="matrix(1.00, 0.00, -0.00, -1.00, 43.4, 5.8)">c</text><text xml:space="preserve" font-family="Aller-Light,Aller Light" font-size="10.0" fill="#52575F" transform="matrix(1.00, 0.00, -0.00, -1.00, 48.2, 5.8)">i</text><text xml:space="preserve" font-family="Aller-Light,Aller Light" font-size="10.0" fill="#52575F" transform="matrix(1.00, 0.00, -0.00, -1.00, 50.9, 5.8)">d</text><text xml:space="preserve" font-family="Aller-Light,Aller Light" font-size="10.0" fill="#52575F" transform="matrix(1.00, 0.00, -0.00, -1.00, 56.8, 5.8)">a</text><text xml:space="preserve" font-family="Aller-Light,Aller Light" font-size="10.0" fill="#52575F" transform="matrix(1.00, 0.00, -0.00, -1.00, 61.9, 5.8)">d</text><text xml:space="preserve" font-family="Aller-Light,Aller Light" font-size="10.0" fill="#52575F" transform="matrix(1.00, 0.00, -0.00, -1.00, 67.7, 5.8)"> </text><text xml:space="preserve" font-family="Aller-Light,Aller Light" font-size="10.0" fill="#52575F" transform="matrix(1.00, 0.00, -0.00, -1.00, 70.2, 5.8)">d</text><text xml:space="preserve" font-family="Aller-Light,Aller Light" font-size="10.0" fill="#52575F" transform="matrix(1.00, 0.00, -0.00, -1.00, 76.1, 5.8)">e</text><text xml:space="preserve" font-family="Aller-Light,Aller Light" font-size="10.0" fill="#52575F" transform="matrix(1.00, 0.00, -0.00, -1.00, 81.6, 5.8)"> </text><text xml:space="preserve" font-family="Aller-Light,Aller Light" font-size="10.0" fill="#52575F" transform="matrix(1.00, 0.00, -0.00, -1.00, 84.1, 5.8)">c</text><text xml:space="preserve" font-family="Aller-Light,Aller Light" font-size="10.0" fill="#52575F" transform="matrix(1.00, 0.00, -0.00, -1.00, 88.9, 5.8)">r</text><text xml:space="preserve" font-family="Aller-Light,Aller Light" font-size="10.0" fill="#52575F" transform="matrix(1.00, 0.00, -0.00, -1.00, 92.3, 5.8)">e</text><text xml:space="preserve" font-family="Aller-Light,Aller Light" font-size="10.0" fill="#52575F" transform="matrix(1.00, 0.00, -0.00, -1.00, 97.8, 5.8)">c</text><text xml:space="preserve" font-family="Aller-Light,Aller Light" font-size="10.0" fill="#52575F" transform="matrix(1.00, 0.00, -0.00, -1.00, 102.6, 5.8)">i</text><text xml:space="preserve" font-family="Aller-Light,Aller Light" font-size="10.0" fill="#52575F" transform="matrix(1.00, 0.00, -0.00, -1.00, 105.3, 5.8)">m</text><text xml:space="preserve" font-family="Aller-Light,Aller Light" font-size="10.0" fill="#52575F" transform="matrix(1.00, 0.00, -0.00, -1.00, 113.7, 5.8)">i</text><text xml:space="preserve" font-family="Aller-Light,Aller Light" font-size="10.0" fill="#52575F" transform="matrix(1.00, 0.00, -0.00, -1.00, 116.4, 5.8)">e</text><text xml:space="preserve" font-family="Aller-Light,Aller Light" font-size="10.0" fill="#52575F" transform="matrix(1.00, 0.00, -0.00, -1.00, 122.0, 5.8)">n</text><text xml:space="preserve" font-family="Aller-Light,Aller Light" font-size="10.0" fill="#52575F" transform="matrix(1.00, 0.00, -0.00, -1.00, 127.7, 5.8)">t</text><text xml:space="preserve" font-family="Aller-Light,Aller Light" font-size="10.0" fill="#52575F" transform="matrix(1.00, 0.00, -0.00, -1.00, 131.1, 5.8)">o</text></g></g><g><clipPath id="clip0x600001eb03e0"><path d="M 0.7 2.9 L 13.7 2.9 L 13.7 14.2 L 0.7 14.2 Z M 0.7 2.9 "></path></clipPath><g clip-path="url(#clip0x600001eb03e0)"><path d="M 2.0 7.0 L 4.4 3.9 L 13.0 12.6 L 13.0 13.2 L 4.7 7.0 L 2.0 9.5 L 2.0 7.0 Z M 1.7 7.0 " fill="#7FC7EA"></path></g></g></g></svg>