<?xml version="1.0" encoding="UTF-8" standalone="no"?><svg xmlns="http://www.w3.org/2000/svg" xmlns:xlink="http://www.w3.org/1999/xlink" clip-rule="evenodd" stroke-miterlimit="10" viewBox="0 0 201 54"><desc>SVG generated by Keynote</desc><defs></defs><g transform="matrix(1.00, 0.00, -0.00, -1.00, 0.0, 54.0)"><g><clipPath id="clip0x6100012b8d80"><path d="M 18.0 35.4 L 200.3 35.4 L 200.3 53.3 L 18.0 53.3 Z M 18.0 35.4 "></path></clipPath><g clip-path="url(#clip0x6100012b8d80)"><text xml:space="preserve" font-family="Aller-Light,Aller Light" font-size="10.0" fill="#52575F" transform="matrix(1.00, 0.00, -0.00, -1.00, 21.0, 41.1)">E</text><text xml:space="preserve" font-family="Aller-Light,Aller Light" font-size="10.0" fill="#52575F" transform="matrix(1.00, 0.00, -0.00, -1.00, 26.4, 41.1)">s</text><text xml:space="preserve" font-family="Aller-Light,Aller Light" font-size="10.0" fill="#52575F" transform="matrix(1.00, 0.00, -0.00, -1.00, 30.9, 41.1)">c</text><text xml:space="preserve" font-family="Aller-Light,Aller Light" font-size="10.0" fill="#52575F" transform="matrix(1.00, 0.00, -0.00, -1.00, 35.7, 41.1)">a</text><text xml:space="preserve" font-family="Aller-Light,Aller Light" font-size="10.0" fill="#52575F" transform="matrix(1.00, 0.00, -0.00, -1.00, 40.8, 41.1)">s</text><text xml:space="preserve" font-family="Aller-Light,Aller Light" font-size="10.0" fill="#52575F" transform="matrix(1.00, 0.00, -0.00, -1.00, 45.3, 41.1)">o</text><text xml:space="preserve" font-family="Aller-Light,Aller Light" font-size="10.0" fill="#52575F" transform="matrix(1.00, 0.00, -0.00, -1.00, 51.1, 41.1)">s</text><text xml:space="preserve" font-family="Aller-Light,Aller Light" font-size="10.0" fill="#52575F" transform="matrix(1.00, 0.00, -0.00, -1.00, 55.6, 41.1)"> </text><text xml:space="preserve" font-family="Aller-Light,Aller Light" font-size="10.0" fill="#52575F" transform="matrix(1.00, 0.00, -0.00, -1.00, 58.1, 41.1)">m</text><text xml:space="preserve" font-family="Aller-Light,Aller Light" font-size="10.0" fill="#52575F" transform="matrix(1.00, 0.00, -0.00, -1.00, 66.5, 41.1)">e</text><text xml:space="preserve" font-family="Aller-Light,Aller Light" font-size="10.0" fill="#52575F" transform="matrix(1.00, 0.00, -0.00, -1.00, 72.0, 41.1)">d</text><text xml:space="preserve" font-family="Aller-Light,Aller Light" font-size="10.0" fill="#52575F" transform="matrix(1.00, 0.00, -0.00, -1.00, 77.8, 41.1)">i</text><text xml:space="preserve" font-family="Aller-Light,Aller Light" font-size="10.0" fill="#52575F" transform="matrix(1.00, 0.00, -0.00, -1.00, 80.6, 41.1)">o</text><text xml:space="preserve" font-family="Aller-Light,Aller Light" font-size="10.0" fill="#52575F" transform="matrix(1.00, 0.00, -0.00, -1.00, 86.3, 41.1)">s</text><text xml:space="preserve" font-family="Aller-Light,Aller Light" font-size="10.0" fill="#52575F" transform="matrix(1.00, 0.00, -0.00, -1.00, 90.8, 41.1)"> </text><text xml:space="preserve" font-family="Aller-Light,Aller Light" font-size="10.0" fill="#52575F" transform="matrix(1.00, 0.00, -0.00, -1.00, 93.3, 41.1)">e</text><text xml:space="preserve" font-family="Aller-Light,Aller Light" font-size="10.0" fill="#52575F" transform="matrix(1.00, 0.00, -0.00, -1.00, 98.9, 41.1)">c</text><text xml:space="preserve" font-family="Aller-Light,Aller Light" font-size="10.0" fill="#52575F" transform="matrix(1.00, 0.00, -0.00, -1.00, 103.5, 41.1)">o</text><text xml:space="preserve" font-family="Aller-Light,Aller Light" font-size="10.0" fill="#52575F" transform="matrix(1.00, 0.00, -0.00, -1.00, 109.2, 41.1)">n</text><text xml:space="preserve" font-family="Aller-Light,Aller Light" font-size="10.0" fill="#52575F" transform="matrix(1.00, 0.00, -0.00, -1.00, 115.0, 41.1)">ó</text><text xml:space="preserve" font-family="Aller-Light,Aller Light" font-size="10.0" fill="#52575F" transform="matrix(1.00, 0.00, -0.00, -1.00, 120.7, 41.1)">m</text><text xml:space="preserve" font-family="Aller-Light,Aller Light" font-size="10.0" fill="#52575F" transform="matrix(1.00, 0.00, -0.00, -1.00, 129.1, 41.1)">i</text><text xml:space="preserve" font-family="Aller-Light,Aller Light" font-size="10.0" fill="#52575F" transform="matrix(1.00, 0.00, -0.00, -1.00, 131.8, 41.1)">c</text><text xml:space="preserve" font-family="Aller-Light,Aller Light" font-size="10.0" fill="#52575F" transform="matrix(1.00, 0.00, -0.00, -1.00, 136.4, 41.1)">o</text><text xml:space="preserve" font-family="Aller-Light,Aller Light" font-size="10.0" fill="#52575F" transform="matrix(1.00, 0.00, -0.00, -1.00, 142.2, 41.1)">s</text></g></g><g><clipPath id="clip0x6100012ba040"><path d="M 0.5 38.2 L 13.5 38.2 L 13.5 49.5 L 0.5 49.5 Z M 0.5 38.2 "></path></clipPath><g clip-path="url(#clip0x6100012ba040)"><path d="M 1.0 42.3 L 4.2 39.2 L 12.0 48.0 L 12.0 48.5 L 4.5 42.3 L 1.0 44.9 L 1.0 42.3 Z M 1.5 42.3 " fill="#7FC7EA"></path></g></g><g><clipPath id="clip0x6100012ba520"><path d="M 18.0 18.1 L 200.3 18.1 L 200.3 36.0 L 18.0 36.0 Z M 18.0 18.1 "></path></clipPath><g clip-path="url(#clip0x6100012ba520)"><text xml:space="preserve" font-family="Aller-Light,Aller Light" font-size="10.0" fill="#52575F" transform="matrix(1.00, 0.00, -0.00, -1.00, 21.0, 23.8)">D</text><text xml:space="preserve" font-family="Aller-Light,Aller Light" font-size="10.0" fill="#52575F" transform="matrix(1.00, 0.00, -0.00, -1.00, 28.0, 23.8)">i</text><text xml:space="preserve" font-family="Aller-Light,Aller Light" font-size="10.0" fill="#52575F" transform="matrix(1.00, 0.00, -0.00, -1.00, 30.7, 23.8)">s</text><text xml:space="preserve" font-family="Aller-Light,Aller Light" font-size="10.0" fill="#52575F" transform="matrix(1.00, 0.00, -0.00, -1.00, 35.2, 23.8)">e</text><text xml:space="preserve" font-family="Aller-Light,Aller Light" font-size="10.0" fill="#52575F" transform="matrix(1.00, 0.00, -0.00, -1.00, 40.7, 23.8)">ñ</text><text xml:space="preserve" font-family="Aller-Light,Aller Light" font-size="10.0" fill="#52575F" transform="matrix(1.00, 0.00, -0.00, -1.00, 46.5, 23.8)">o</text><text xml:space="preserve" font-family="Aller-Light,Aller Light" font-size="10.0" fill="#52575F" transform="matrix(1.00, 0.00, -0.00, -1.00, 52.2, 23.8)"> </text><text xml:space="preserve" font-family="Aller-Light,Aller Light" font-size="10.0" fill="#52575F" transform="matrix(1.00, 0.00, -0.00, -1.00, 54.7, 23.8)">d</text><text xml:space="preserve" font-family="Aller-Light,Aller Light" font-size="10.0" fill="#52575F" transform="matrix(1.00, 0.00, -0.00, -1.00, 60.5, 23.8)">e</text><text xml:space="preserve" font-family="Aller-Light,Aller Light" font-size="10.0" fill="#52575F" transform="matrix(1.00, 0.00, -0.00, -1.00, 66.1, 23.8)">l</text><text xml:space="preserve" font-family="Aller-Light,Aller Light" font-size="10.0" fill="#52575F" transform="matrix(1.00, 0.00, -0.00, -1.00, 68.9, 23.8)"> </text><text xml:space="preserve" font-family="Aller-Light,Aller Light" font-size="10.0" fill="#52575F" transform="matrix(1.00, 0.00, -0.00, -1.00, 71.4, 23.8)">s</text><text xml:space="preserve" font-family="Aller-Light,Aller Light" font-size="10.0" fill="#52575F" transform="matrix(1.00, 0.00, -0.00, -1.00, 75.9, 23.8)">o</text><text xml:space="preserve" font-family="Aller-Light,Aller Light" font-size="10.0" fill="#52575F" transform="matrix(1.00, 0.00, -0.00, -1.00, 81.5, 23.8)">f</text><text xml:space="preserve" font-family="Aller-Light,Aller Light" font-size="10.0" fill="#52575F" transform="matrix(1.00, 0.00, -0.00, -1.00, 85.0, 23.8)">t</text><text xml:space="preserve" font-family="Aller-Light,Aller Light" font-size="10.0" fill="#52575F" transform="matrix(1.00, 0.00, -0.00, -1.00, 88.4, 23.8)">w</text><text xml:space="preserve" font-family="Aller-Light,Aller Light" font-size="10.0" fill="#52575F" transform="matrix(1.00, 0.00, -0.00, -1.00, 95.9, 23.8)">a</text><text xml:space="preserve" font-family="Aller-Light,Aller Light" font-size="10.0" fill="#52575F" transform="matrix(1.00, 0.00, -0.00, -1.00, 101.1, 23.8)">r</text><text xml:space="preserve" font-family="Aller-Light,Aller Light" font-size="10.0" fill="#52575F" transform="matrix(1.00, 0.00, -0.00, -1.00, 104.4, 23.8)">e</text></g></g><g><clipPath id="clip0x6100012bac40"><path d="M 0.5 20.9 L 13.5 20.9 L 13.5 32.2 L 0.5 32.2 Z M 0.5 20.9 "></path></clipPath><g clip-path="url(#clip0x6100012bac40)"><path d="M 1.0 25.0 L 4.2 21.9 L 12.0 30.6 L 12.0 31.2 L 4.5 25.0 L 1.0 27.5 L 1.0 25.0 Z M 1.5 25.0 " fill="#7FC7EA"></path></g></g><g><clipPath id="clip0x6100012bab80"><path d="M 18.0 0.8 L 200.3 0.8 L 200.3 18.7 L 18.0 18.7 Z M 18.0 0.8 "></path></clipPath><g clip-path="url(#clip0x6100012bab80)"><text xml:space="preserve" font-family="Aller-Light,Aller Light" font-size="10.0" fill="#52575F" transform="matrix(1.00, 0.00, -0.00, -1.00, 21.0, 6.5)">F</text><text xml:space="preserve" font-family="Aller-Light,Aller Light" font-size="10.0" fill="#52575F" transform="matrix(1.00, 0.00, -0.00, -1.00, 25.6, 6.5)">a</text><text xml:space="preserve" font-family="Aller-Light,Aller Light" font-size="10.0" fill="#52575F" transform="matrix(1.00, 0.00, -0.00, -1.00, 30.7, 6.5)">l</text><text xml:space="preserve" font-family="Aller-Light,Aller Light" font-size="10.0" fill="#52575F" transform="matrix(1.00, 0.00, -0.00, -1.00, 33.5, 6.5)">t</text><text xml:space="preserve" font-family="Aller-Light,Aller Light" font-size="10.0" fill="#52575F" transform="matrix(1.00, 0.00, -0.00, -1.00, 36.9, 6.5)">a</text><text xml:space="preserve" font-family="Aller-Light,Aller Light" font-size="10.0" fill="#52575F" transform="matrix(1.00, 0.00, -0.00, -1.00, 42.0, 6.5)"> </text><text xml:space="preserve" font-family="Aller-Light,Aller Light" font-size="10.0" fill="#52575F" transform="matrix(1.00, 0.00, -0.00, -1.00, 44.5, 6.5)">d</text><text xml:space="preserve" font-family="Aller-Light,Aller Light" font-size="10.0" fill="#52575F" transform="matrix(1.00, 0.00, -0.00, -1.00, 50.4, 6.5)">e</text><text xml:space="preserve" font-family="Aller-Light,Aller Light" font-size="10.0" fill="#52575F" transform="matrix(1.00, 0.00, -0.00, -1.00, 55.9, 6.5)"> </text><text xml:space="preserve" font-family="Aller-Light,Aller Light" font-size="10.0" fill="#52575F" transform="matrix(1.00, 0.00, -0.00, -1.00, 58.4, 6.5)">e</text><text xml:space="preserve" font-family="Aller-Light,Aller Light" font-size="10.0" fill="#52575F" transform="matrix(1.00, 0.00, -0.00, -1.00, 63.8, 6.5)">x</text><text xml:space="preserve" font-family="Aller-Light,Aller Light" font-size="10.0" fill="#52575F" transform="matrix(1.00, 0.00, -0.00, -1.00, 68.7, 6.5)">p</text><text xml:space="preserve" font-family="Aller-Light,Aller Light" font-size="10.0" fill="#52575F" transform="matrix(1.00, 0.00, -0.00, -1.00, 74.6, 6.5)">e</text><text xml:space="preserve" font-family="Aller-Light,Aller Light" font-size="10.0" fill="#52575F" transform="matrix(1.00, 0.00, -0.00, -1.00, 80.2, 6.5)">r</text><text xml:space="preserve" font-family="Aller-Light,Aller Light" font-size="10.0" fill="#52575F" transform="matrix(1.00, 0.00, -0.00, -1.00, 83.7, 6.5)">i</text><text xml:space="preserve" font-family="Aller-Light,Aller Light" font-size="10.0" fill="#52575F" transform="matrix(1.00, 0.00, -0.00, -1.00, 86.4, 6.5)">e</text><text xml:space="preserve" font-family="Aller-Light,Aller Light" font-size="10.0" fill="#52575F" transform="matrix(1.00, 0.00, -0.00, -1.00, 91.9, 6.5)">n</text><text xml:space="preserve" font-family="Aller-Light,Aller Light" font-size="10.0" fill="#52575F" transform="matrix(1.00, 0.00, -0.00, -1.00, 97.6, 6.5)">c</text><text xml:space="preserve" font-family="Aller-Light,Aller Light" font-size="10.0" fill="#52575F" transform="matrix(1.00, 0.00, -0.00, -1.00, 102.4, 6.5)">i</text><text xml:space="preserve" font-family="Aller-Light,Aller Light" font-size="10.0" fill="#52575F" transform="matrix(1.00, 0.00, -0.00, -1.00, 105.2, 6.5)">a</text><text xml:space="preserve" font-family="Aller-Light,Aller Light" font-size="10.0" fill="#52575F" transform="matrix(1.00, 0.00, -0.00, -1.00, 110.3, 6.5)"> </text><text xml:space="preserve" font-family="Aller-Light,Aller Light" font-size="10.0" fill="#52575F" transform="matrix(1.00, 0.00, -0.00, -1.00, 112.8, 6.5)">e</text><text xml:space="preserve" font-family="Aller-Light,Aller Light" font-size="10.0" fill="#52575F" transform="matrix(1.00, 0.00, -0.00, -1.00, 118.3, 6.5)">n</text><text xml:space="preserve" font-family="Aller-Light,Aller Light" font-size="10.0" fill="#52575F" transform="matrix(1.00, 0.00, -0.00, -1.00, 124.0, 6.5)"> </text><text xml:space="preserve" font-family="Aller-Light,Aller Light" font-size="10.0" fill="#52575F" transform="matrix(1.00, 0.00, -0.00, -1.00, 126.5, 6.5)">e</text><text xml:space="preserve" font-family="Aller-Light,Aller Light" font-size="10.0" fill="#52575F" transform="matrix(1.00, 0.00, -0.00, -1.00, 132.1, 6.5)">l</text><text xml:space="preserve" font-family="Aller-Light,Aller Light" font-size="10.0" fill="#52575F" transform="matrix(1.00, 0.00, -0.00, -1.00, 134.9, 6.5)"> </text><text xml:space="preserve" font-family="Aller-Light,Aller Light" font-size="10.0" fill="#52575F" transform="matrix(1.00, 0.00, -0.00, -1.00, 137.4, 6.5)">s</text><text xml:space="preserve" font-family="Aller-Light,Aller Light" font-size="10.0" fill="#52575F" transform="matrix(1.00, 0.00, -0.00, -1.00, 141.9, 6.5)">e</text><text xml:space="preserve" font-family="Aller-Light,Aller Light" font-size="10.0" fill="#52575F" transform="matrix(1.00, 0.00, -0.00, -1.00, 147.4, 6.5)">c</text><text xml:space="preserve" font-family="Aller-Light,Aller Light" font-size="10.0" fill="#52575F" transform="matrix(1.00, 0.00, -0.00, -1.00, 152.2, 6.5)">t</text><text xml:space="preserve" font-family="Aller-Light,Aller Light" font-size="10.0" fill="#52575F" transform="matrix(1.00, 0.00, -0.00, -1.00, 155.6, 6.5)">o</text><text xml:space="preserve" font-family="Aller-Light,Aller Light" font-size="10.0" fill="#52575F" transform="matrix(1.00, 0.00, -0.00, -1.00, 161.3, 6.5)">r</text></g></g><g><clipPath id="clip0x6100012bbf60"><path d="M 0.5 4.3 L 13.5 4.3 L 13.5 15.6 L 0.5 15.6 Z M 0.5 4.3 "></path></clipPath><g clip-path="url(#clip0x6100012bbf60)"><path d="M 1.0 8.4 L 4.2 5.3 L 12.0 14.0 L 12.0 14.6 L 4.5 8.4 L 1.0 11.0 L 1.0 8.4 Z M 1.5 8.4 " fill="#7FC7EA"></path></g></g></g></svg>