<?xml version="1.0" encoding="UTF-8" standalone="no"?><svg xmlns="http://www.w3.org/2000/svg" xmlns:xlink="http://www.w3.org/1999/xlink" clip-rule="evenodd" stroke-miterlimit="10" viewBox="0 0 36 32"><desc>SVG generated by Keynote</desc><defs></defs><g transform="matrix(1.00, 0.00, -0.00, -1.00, 0.0, 32.0)"><path d="M 14.0 12.4 L 19.0 14.1 L 24.1 8.2 L 24.1 8.2 L 28.0 9.9 L 28.0 5.7 L 28.0 2.0 L 24.1 2.0 L 19.9 3.0 L 23.2 6.6 L 18.2 11.6 L 13.2 9.9 L 9.9 15.8 L 4.9 14.1 L 2.0 21.6 L 2.0 23.0 L 3.2 24.0 L 5.7 16.6 L 10.7 18.2 L 14.0 12.4 L 14.0 12.4 Z M 12.0 31.0 L 12.0 24.0 L 7.0 24.0 L 7.0 31.0 L 11.5 31.0 L 12.0 31.0 Z M 17.0 31.0 L 13.0 31.0 L 13.0 22.0 L 17.0 22.0 L 17.0 30.8 L 17.0 31.0 Z M 23.0 31.0 L 19.0 31.0 L 19.0 18.0 L 23.0 18.0 L 23.0 30.8 L 23.0 31.0 Z M 29.0 30.8 L 25.0 31.0 L 25.0 15.0 L 29.0 15.0 L 29.0 30.8 L 29.0 30.8 Z M 30.7 11.0 L 31.0 31.0 L 35.0 31.0 L 35.0 11.0 L 30.7 11.0 Z M 30.7 10.7 " fill="#FEFFFE"></path></g></svg>