<?xml version="1.0" encoding="UTF-8" standalone="no"?><svg xmlns="http://www.w3.org/2000/svg" xmlns:xlink="http://www.w3.org/1999/xlink" clip-rule="evenodd" stroke-miterlimit="10" viewBox="0 0 69 69"><desc>SVG generated by Keynote</desc><defs></defs><g transform="matrix(1.00, 0.00, -0.00, -1.00, 0.0, 69.0)"><g><clipPath id="clip0x6100012b8420"><path d="M 0.8 0.5 L 68.7 0.5 L 68.7 68.4 L 0.8 68.4 Z M 0.8 0.5 "></path></clipPath><g clip-path="url(#clip0x6100012b8420)"><path d="M 58.0 57.7 C 70.9 44.9 70.9 24.0 58.0 11.1 C 45.2 -1.7 24.3 -1.7 11.4 11.1 C -1.4 24.0 -1.4 44.9 11.4 57.7 C 24.3 70.6 45.2 70.6 58.0 57.7 Z M 58.0 57.7 " fill="#7FC7EA"></path></g></g><g><clipPath id="clip0x6100012b89c0"><path d="M 7.9 -3.9 L 61.6 -3.9 L 61.6 71.7 L 7.9 71.7 Z M 7.9 -3.9 "></path></clipPath><g clip-path="url(#clip0x6100012b89c0)"><text xml:space="preserve" font-family="KontrapunktBob-Light,Kontrapunkt Bob" font-size="42.0" fill="#FEFFFE" transform="matrix(1.00, 0.00, -0.00, -1.00, 20.7, 19.9)">F</text></g></g></g></svg>