<?xml version="1.0" encoding="UTF-8" standalone="no"?><svg xmlns="http://www.w3.org/2000/svg" xmlns:xlink="http://www.w3.org/1999/xlink" clip-rule="evenodd" stroke-miterlimit="10" viewBox="0 0 36 32"><desc>SVG generated by Keynote</desc><defs></defs><g transform="matrix(1.00, 0.00, -0.00, -1.00, 0.0, 32.0)"><path d="M 14.0 19.7 L 19.0 18.0 L 24.0 23.9 L 24.0 23.9 L 28.0 22.2 L 28.0 26.4 L 28.0 31.0 L 24.0 30.0 L 19.8 29.0 L 23.2 25.5 L 18.2 20.5 L 13.2 22.2 L 9.9 16.3 L 4.8 18.0 L 2.0 10.5 L 2.0 9.0 L 3.1 8.0 L 5.7 15.5 L 10.6 13.9 L 14.0 19.7 L 14.0 19.7 Z M 12.0 1.0 L 12.0 8.0 L 7.0 8.0 L 7.0 1.0 L 11.5 1.0 L 12.0 1.0 Z M 17.0 1.0 L 13.0 1.0 L 13.0 10.0 L 17.0 10.0 L 17.0 1.3 L 17.0 1.0 Z M 23.0 1.0 L 19.0 1.0 L 19.0 14.0 L 23.0 14.0 L 23.0 1.3 L 23.0 1.0 Z M 29.0 1.0 L 25.0 1.0 L 25.0 17.0 L 29.0 17.0 L 29.0 1.3 L 29.0 1.0 Z M 30.7 21.0 L 31.0 1.0 L 35.0 1.0 L 35.0 21.0 L 30.7 21.0 Z M 30.7 21.4 " fill="#FEFFFE"></path></g></svg>