<?xml version="1.0" encoding="UTF-8" standalone="no"?><svg xmlns="http://www.w3.org/2000/svg" xmlns:xlink="http://www.w3.org/1999/xlink" clip-rule="evenodd" stroke-miterlimit="10" viewBox="0 0 26 32"><desc>SVG generated by Keynote</desc><defs></defs><g transform="matrix(1.00, 0.00, -0.00, -1.00, 0.0, 32.0)"><path d="M 20.9 21.7 C 19.7 19.9 18.5 21.1 16.9 22.4 C 15.2 23.6 13.7 24.3 14.8 26.1 C 16.0 27.8 18.3 28.3 20.0 27.0 C 21.7 25.8 22.1 23.4 20.9 21.7 Z M 24.7 23.9 C 23.9 28.4 19.9 31.4 15.6 30.6 C 11.3 29.8 7.8 26.4 8.5 21.9 C 8.7 21.0 9.1 19.5 9.6 18.4 L 1.9 6.8 C 1.6 6.4 1.9 5.6 2.0 5.1 L 2.0 2.2 C 2.1 1.7 2.6 0.9 3.1 1.0 L 5.4 2.0 C 5.8 2.1 6.5 2.4 6.7 2.8 L 9.8 7.7 L 9.8 8.0 L 11.9 8.0 L 15.5 14.0 C 16.6 13.7 18.3 13.8 19.3 14.0 C 23.6 14.8 25.4 19.5 24.7 23.9 Z M 24.7 23.9 " fill="#FEFFFE"></path></g></svg>