<?xml version="1.0" encoding="UTF-8" standalone="no"?><svg xmlns="http://www.w3.org/2000/svg" xmlns:xlink="http://www.w3.org/1999/xlink" clip-rule="evenodd" stroke-miterlimit="10" viewBox="0 0 170 170"><desc>SVG generated by Keynote</desc><defs></defs><g transform="matrix(1.00, 0.00, -0.00, -1.00, 0.0, 170.0)"><g><clipPath id="clip0x6000010b5720"><path d="M 144.1 144.4 C 176.7 111.8 176.7 58.9 144.1 26.3 C 111.5 -6.4 58.6 -6.4 26.0 26.3 C -6.6 58.9 -6.6 111.8 26.0 144.4 C 58.6 177.0 111.5 177.0 144.1 144.4 Z M 144.1 144.4 "></path></clipPath><g clip-path="url(#clip0x6000010b5720)"><g><clipPath id="clip0x6000010b53c0"><path d="M 17.3 177.0 L 17.0 169.6 L 18.0 161.9 L 18.0 168.6 C 18.2 174.5 18.1 175.3 19.4 176.3 L 20.8 177.0 L 19.0 177.0 L 17.3 177.0 Z M 151.8 177.0 C 151.3 177.4 151.0 177.2 151.1 176.9 C 151.2 176.6 150.9 176.4 150.6 176.4 C 150.3 176.4 150.0 176.6 150.1 176.9 C 150.2 177.0 141.8 177.2 128.9 177.2 C 118.7 177.2 112.8 177.0 115.0 176.7 C 116.1 176.6 118.7 176.5 121.9 176.4 C 122.2 176.4 122.6 176.4 122.9 176.4 C 126.2 176.3 130.1 176.2 134.0 176.2 C 140.2 176.2 143.8 176.1 146.1 176.0 C 147.2 176.2 148.5 175.9 149.1 175.5 C 149.4 175.4 149.8 175.3 150.0 175.1 C 150.1 175.1 150.3 175.0 150.4 175.0 C 150.4 175.0 150.4 174.9 150.4 174.9 L 152.0 173.8 L 152.0 131.8 C 152.0 130.5 151.8 128.2 151.8 126.8 C 151.8 117.0 151.8 106.2 151.8 92.5 C 151.8 42.9 151.8 38.0 150.8 36.5 C 150.5 35.0 149.9 34.9 149.2 34.9 C 149.1 34.9 148.8 35.0 148.7 35.0 C 147.9 35.0 146.7 35.5 144.3 36.6 C 142.2 37.4 137.5 39.2 133.9 40.5 C 130.3 41.8 126.9 43.0 126.4 43.3 C 126.4 43.3 126.4 43.4 126.4 43.4 C 126.4 43.4 126.3 43.4 126.3 43.4 C 126.0 43.6 124.9 45.6 123.8 47.9 C 123.5 48.5 123.2 49.0 122.9 49.6 C 122.7 50.0 122.5 50.3 122.3 50.6 C 121.5 52.3 120.6 54.0 119.8 55.2 C 119.5 55.7 119.2 56.1 119.0 56.4 C 118.7 56.7 118.4 57.1 118.2 57.3 C 116.5 59.0 116.3 59.6 116.3 63.1 C 116.3 63.5 116.3 63.8 116.3 64.1 C 116.2 66.2 116.4 67.1 117.2 68.1 C 117.6 68.9 118.2 69.7 119.0 71.0 C 122.2 75.6 123.2 78.4 123.3 83.4 C 123.3 83.4 123.3 83.5 123.3 83.6 C 123.3 84.0 123.4 84.3 123.3 84.7 C 123.3 88.2 123.6 89.7 124.3 90.6 C 125.0 91.4 125.6 92.5 126.1 94.0 C 126.2 94.5 126.3 95.2 126.6 95.9 C 126.6 95.9 126.6 95.9 126.6 95.9 C 127.1 98.0 127.4 100.6 127.6 104.2 C 127.9 108.6 128.4 113.9 128.7 116.1 C 129.0 118.7 129.1 119.9 128.5 120.5 C 128.0 120.7 127.5 120.9 126.9 120.9 C 126.8 120.9 126.8 121.0 126.6 121.0 C 126.4 121.0 126.3 121.0 126.1 121.1 C 126.1 121.1 126.0 121.1 126.0 121.1 C 125.8 121.3 125.7 121.5 125.5 121.7 C 125.5 121.8 125.4 121.8 125.4 121.9 C 125.4 121.9 125.4 121.9 125.4 121.9 C 125.0 122.7 124.6 124.1 124.0 126.3 C 123.8 127.0 123.8 127.0 123.7 127.6 C 122.9 130.5 122.0 132.9 121.2 133.6 C 120.1 134.8 120.0 135.3 120.6 136.0 C 121.3 136.8 121.1 137.5 119.9 139.8 C 119.4 140.6 118.9 141.6 118.6 142.6 C 118.5 142.9 118.4 143.2 118.3 143.5 C 118.2 143.9 118.0 144.4 117.9 144.7 C 117.7 145.9 116.8 147.8 115.9 149.0 C 115.9 149.1 115.8 149.2 115.8 149.3 C 115.6 149.5 115.5 149.7 115.4 149.9 C 115.0 150.6 114.7 151.2 114.6 151.8 C 114.6 151.8 114.5 151.9 114.5 151.9 C 114.5 152.1 114.4 152.4 114.4 152.5 C 114.4 153.3 113.4 154.6 112.0 155.7 C 110.8 156.7 108.6 158.5 107.3 159.7 C 106.4 160.6 105.4 161.6 104.4 162.5 C 104.0 162.8 103.0 163.6 102.8 163.8 C 102.3 164.3 101.7 164.7 101.1 165.1 C 100.9 165.2 100.7 165.4 100.6 165.4 C 100.4 165.4 99.4 166.0 98.3 166.9 C 97.4 167.5 96.3 168.3 95.2 169.1 C 94.7 169.5 94.4 169.7 93.9 170.0 C 91.2 171.6 88.3 172.2 83.5 172.6 C 83.0 172.6 82.6 172.6 82.1 172.7 C 78.9 172.8 77.3 172.8 76.0 172.5 L 71.3 170.1 C 70.1 169.5 68.9 169.0 67.7 168.6 C 67.4 168.4 67.1 168.3 66.9 168.2 C 66.6 168.1 66.4 168.0 66.2 167.9 C 65.0 167.5 64.1 167.2 63.3 167.0 C 63.2 167.0 63.1 166.9 63.0 166.9 C 60.1 166.6 56.9 164.6 53.6 161.2 C 53.5 161.1 53.4 161.0 53.3 160.9 C 51.5 158.9 49.6 156.4 47.7 153.5 C 46.1 151.1 44.8 148.5 43.7 145.7 C 43.6 145.4 43.5 145.2 43.5 144.8 C 43.2 143.5 42.8 142.1 42.5 141.7 C 42.3 141.5 42.2 141.2 42.1 140.9 C 41.8 139.8 41.5 138.6 41.2 137.4 C 40.5 133.4 40.1 127.4 40.4 122.8 C 40.6 119.0 40.8 115.8 40.9 115.6 C 40.9 115.4 40.1 115.2 39.2 115.1 C 39.1 115.1 39.1 115.1 39.0 115.1 C 38.3 115.0 37.8 114.9 37.4 114.7 C 36.2 114.2 36.0 113.2 36.1 110.3 C 36.1 108.3 36.3 106.9 37.1 105.3 C 37.3 104.7 37.6 104.1 38.0 103.5 C 38.5 102.6 39.1 101.3 39.7 99.9 C 39.7 99.9 39.7 99.9 39.7 99.8 C 39.8 99.7 39.8 99.5 39.9 99.4 C 40.4 98.3 40.8 97.1 41.1 96.3 C 42.6 91.7 45.3 87.0 47.2 85.2 C 47.2 85.1 47.3 85.1 47.4 85.0 C 47.6 84.8 47.8 84.7 48.0 84.6 C 48.2 84.4 48.4 84.2 48.6 84.1 C 49.3 83.6 49.8 83.2 49.8 83.0 C 49.8 82.7 50.1 82.0 50.3 81.4 C 50.5 81.0 50.7 80.5 50.8 79.9 C 51.2 78.8 51.7 77.4 52.3 75.6 C 52.8 74.0 53.2 72.8 53.5 71.5 C 53.8 70.8 54.0 70.3 54.3 69.7 C 54.8 68.2 55.0 67.3 54.6 67.0 C 55.0 66.4 55.3 65.7 55.5 65.0 C 55.7 63.9 56.1 62.7 56.4 62.3 C 57.2 61.3 53.0 52.9 50.2 49.8 C 48.4 47.8 47.4 47.2 45.7 47.1 C 44.2 47.0 43.1 46.4 42.4 45.5 C 41.5 44.3 41.2 44.2 40.5 44.8 C 40.0 45.3 39.5 45.4 39.0 44.9 C 38.6 44.6 35.3 44.2 31.7 44.0 C 19.9 43.4 19.2 44.2 18.2 57.5 C 17.6 65.7 17.1 62.5 17.0 30.0 L 17.0 -7.0 L 85.1 -7.0 L 153.0 -7.0 L 153.0 85.3 C 153.0 166.7 152.7 177.0 151.9 177.0 L 151.8 177.0 Z M 151.8 177.4 "></path></clipPath><g clip-path="url(#clip0x6000010b53c0)"><image xlink:href="4E55D40DF1DE12F82B8DF56C614F6E6F.jpeg" width="371.00" height="504.00" transform="matrix(0.37, 0.00, -0.00, -0.37, 17.0, 177.0)"></image></g></g></g></g></g></svg>