<?xml version="1.0" encoding="UTF-8" standalone="no"?><svg xmlns="http://www.w3.org/2000/svg" xmlns:xlink="http://www.w3.org/1999/xlink" clip-rule="evenodd" stroke-miterlimit="10" viewBox="0 0 47 47"><desc>SVG generated by Keynote</desc><defs></defs><g transform="matrix(1.00, 0.00, -0.00, -1.00, 0.0, 47.0)"><g><clipPath id="clip0x6000010bfec0"><path d="M 0.7 0.3 L 46.5 0.3 L 46.5 46.1 L 0.7 46.1 Z M 0.7 0.3 "></path></clipPath><g clip-path="url(#clip0x6000010bfec0)"><path d="M 39.1 38.7 C 47.6 30.1 47.6 16.3 39.1 7.7 C 30.5 -0.8 16.7 -0.8 8.1 7.7 C -0.4 16.3 -0.4 30.1 8.1 38.7 C 16.7 47.2 30.5 47.2 39.1 38.7 Z M 39.1 38.7 " fill="#7FC7EA"></path></g></g><g><clipPath id="clip0x6000010bfce0"><path d="M 11.4 12.2 L 35.8 12.2 L 35.8 34.2 L 11.4 34.2 Z M 11.4 12.2 "></path></clipPath><g clip-path="url(#clip0x6000010bfce0)"><path d="M 34.5 22.8 L 24.5 32.8 C 24.0 33.3 23.2 33.3 22.7 32.8 L 12.7 22.8 C 12.2 22.3 12.4 22.0 13.1 22.0 L 15.0 22.0 L 15.0 14.2 C 15.0 13.6 15.2 13.0 16.2 13.0 L 21.0 13.0 L 21.0 21.0 L 26.0 21.0 L 26.0 13.0 L 31.2 13.0 C 32.0 13.0 32.0 13.6 32.0 14.2 L 32.0 22.0 L 34.1 22.0 C 34.8 22.0 35.0 22.3 34.5 22.8 Z M 34.5 22.8 " fill="#FEFFFE"></path></g></g></g></svg>