<?xml version="1.0" encoding="UTF-8" standalone="no"?><svg xmlns="http://www.w3.org/2000/svg" xmlns:xlink="http://www.w3.org/1999/xlink" clip-rule="evenodd" stroke-miterlimit="10" viewBox="0 0 171 170"><desc>SVG generated by Keynote</desc><defs></defs><g transform="matrix(1.00, 0.00, -0.00, -1.00, 0.0, 170.0)"><g><clipPath id="clip0x6000010b61a0"><path d="M 144.6 144.1 C 177.2 111.4 177.2 58.5 144.6 25.9 C 112.0 -6.7 59.1 -6.7 26.5 25.9 C -6.2 58.5 -6.2 111.4 26.5 144.1 C 59.1 176.7 112.0 176.7 144.6 144.1 Z M 144.6 144.1 "></path></clipPath><g clip-path="url(#clip0x6000010b61a0)"><g><clipPath id="clip0x6000010b5de0"><path d="M 11.0 18.0 L 11.0 34.6 L 15.0 36.9 C 17.0 38.1 19.8 39.6 21.4 40.1 C 26.4 41.7 37.1 47.1 41.6 50.2 C 44.8 52.6 46.3 54.2 47.3 56.4 C 48.0 58.0 50.6 61.7 53.1 64.6 C 58.4 70.8 58.5 71.6 56.7 80.4 C 55.9 84.1 55.7 84.5 53.6 85.0 C 50.8 85.7 48.1 90.8 47.5 96.5 C 47.3 98.6 46.6 102.0 46.1 104.0 C 44.9 108.3 45.3 110.2 47.7 111.1 C 49.2 111.7 49.3 112.0 48.9 114.9 C 48.3 119.5 49.9 137.7 51.4 142.6 C 53.3 148.8 55.0 151.8 59.3 156.5 C 64.3 161.9 68.4 164.5 74.9 166.6 C 88.6 170.9 103.4 167.9 112.8 158.9 C 122.3 149.9 125.6 142.1 126.0 124.9 L 126.0 114.0 L 127.6 114.0 C 128.6 113.9 129.4 113.3 129.4 112.6 C 129.7 106.8 128.1 96.0 126.1 90.8 C 125.1 88.2 124.4 87.2 123.1 86.9 C 120.9 86.4 120.2 82.6 120.6 74.3 C 121.0 68.2 121.0 68.2 124.5 63.6 C 127.3 60.0 128.7 58.9 130.8 58.2 C 132.3 57.8 136.3 55.9 139.6 54.0 C 142.8 52.1 148.7 49.4 152.6 48.0 L 160.0 45.3 L 160.0 23.4 L 160.0 1.0 L 85.5 1.0 L 11.0 1.0 L 11.0 18.0 "></path></clipPath><g clip-path="url(#clip0x6000010b5de0)"><image xlink:href="83E719AC1BA387D30046F320A4E36BF5.jpeg" width="532.00" height="680.00" transform="matrix(0.28, 0.00, -0.00, -0.28, 11.0, 191.0)"></image></g></g></g></g></g></svg>