<?xml version="1.0" encoding="UTF-8" standalone="no"?><svg xmlns="http://www.w3.org/2000/svg" xmlns:xlink="http://www.w3.org/1999/xlink" clip-rule="evenodd" stroke-miterlimit="10" viewBox="0 0 46 47"><desc>SVG generated by Keynote</desc><defs></defs><g transform="matrix(1.00, 0.00, -0.00, -1.00, 0.0, 47.0)"><g><clipPath id="clip0x618000aa1da0"><path d="M 0.2 0.3 L 45.9 0.3 L 45.9 46.1 L 0.2 46.1 Z M 0.2 0.3 "></path></clipPath><g clip-path="url(#clip0x618000aa1da0)"><path d="M 38.5 38.7 C 47.1 30.1 47.1 16.3 38.5 7.7 C 30.0 -0.8 16.1 -0.8 7.6 7.7 C -1.0 16.3 -1.0 30.1 7.6 38.7 C 16.1 47.2 30.0 47.2 38.5 38.7 Z M 38.5 38.7 " fill="#7FC7EA"></path></g></g><g><clipPath id="clip0x618000aa29a0"><path d="M 10.6 10.7 L 35.5 10.7 L 35.5 35.7 L 10.6 35.7 Z M 10.6 10.7 "></path></clipPath><g clip-path="url(#clip0x618000aa29a0)"><path d="M 24.0 13.9 L 24.0 19.0 L 22.0 19.0 L 22.0 13.9 C 17.6 14.4 14.2 17.6 13.8 22.0 L 19.0 22.0 L 19.0 24.0 L 13.8 24.0 C 14.2 28.4 17.6 32.1 22.0 32.5 L 22.0 27.0 L 24.0 27.0 L 24.0 32.5 C 28.4 32.1 31.9 28.4 32.3 24.0 L 27.0 24.0 L 27.0 22.0 L 32.3 22.0 C 31.9 17.6 28.4 14.4 24.0 13.9 Z M 23.1 34.7 C 16.7 34.7 11.6 29.5 11.6 23.2 C 11.6 16.9 16.7 11.7 23.1 11.7 C 29.4 11.7 34.5 16.9 34.5 23.2 C 34.5 29.5 29.4 34.7 23.1 34.7 Z M 23.1 34.7 " fill="#FEFFFE"></path></g></g></g></svg>