<?xml version="1.0" encoding="UTF-8" standalone="no"?><svg xmlns="http://www.w3.org/2000/svg" xmlns:xlink="http://www.w3.org/1999/xlink" clip-rule="evenodd" stroke-miterlimit="10" viewBox="0 0 257 35"><desc>SVG generated by Keynote</desc><defs></defs><g transform="matrix(1.00, 0.00, -0.00, -1.00, 0.0, 35.0)"><text xml:space="preserve" font-family="KontrapunktBob-Light,Kontrapunkt Bob" font-size="42.0" fill="#FEFFFE" transform="matrix(1.00, 0.00, -0.00, -1.00, -1.7, 3.2)">P</text><text xml:space="preserve" font-family="KontrapunktBob-Light,Kontrapunkt Bob" font-size="42.0" fill="#FEFFFE" transform="matrix(1.00, 0.00, -0.00, -1.00, 27.9, 3.2)">O</text><text xml:space="preserve" font-family="KontrapunktBob-Light,Kontrapunkt Bob" font-size="42.0" fill="#FEFFFE" transform="matrix(1.00, 0.00, -0.00, -1.00, 62.5, 3.2)">R</text><text xml:space="preserve" font-family="KontrapunktBob-Light,Kontrapunkt Bob" font-size="42.0" fill="#FEFFFE" transform="matrix(1.00, 0.00, -0.00, -1.00, 93.4, 3.2)">T</text><text xml:space="preserve" font-family="KontrapunktBob-Light,Kontrapunkt Bob" font-size="42.0" fill="#FEFFFE" transform="matrix(1.00, 0.00, -0.00, -1.00, 119.4, 3.2)">F</text><text xml:space="preserve" font-family="KontrapunktBob-Light,Kontrapunkt Bob" font-size="42.0" fill="#FEFFFE" transform="matrix(1.00, 0.00, -0.00, -1.00, 147.5, 3.2)">O</text><text xml:space="preserve" font-family="KontrapunktBob-Light,Kontrapunkt Bob" font-size="42.0" fill="#FEFFFE" transform="matrix(1.00, 0.00, -0.00, -1.00, 182.1, 3.2)">L</text><text xml:space="preserve" font-family="KontrapunktBob-Light,Kontrapunkt Bob" font-size="42.0" fill="#FEFFFE" transform="matrix(1.00, 0.00, -0.00, -1.00, 208.7, 3.2)">I</text><text xml:space="preserve" font-family="KontrapunktBob-Light,Kontrapunkt Bob" font-size="42.0" fill="#FEFFFE" transform="matrix(1.00, 0.00, -0.00, -1.00, 223.0, 3.2)">O</text></g></svg>