<?xml version="1.0" encoding="UTF-8" standalone="no"?><svg xmlns="http://www.w3.org/2000/svg" xmlns:xlink="http://www.w3.org/1999/xlink" clip-rule="evenodd" stroke-miterlimit="10" viewBox="0 0 138 138"><desc>SVG generated by Keynote</desc><defs></defs><g transform="matrix(1.00, 0.00, -0.00, -1.00, 0.0, 138.0)"><g><clipPath id="clip0x6180012a18c0"><path d="M 0.0 0.1 L 137.4 0.1 L 137.4 137.4 L 0.0 137.4 Z M 0.0 0.1 "></path></clipPath><g clip-path="url(#clip0x6180012a18c0)"><path d="M 116.5 116.6 C 143.0 90.2 143.0 47.3 116.5 20.9 C 90.1 -5.5 47.3 -5.5 20.9 20.9 C -5.6 47.3 -5.6 90.2 20.9 116.6 C 47.3 143.0 90.1 143.0 116.5 116.6 Z M 116.5 116.6 " fill="#7FC7EA"></path></g></g><g><clipPath id="clip0x6180012a0f00"><path d="M 33.0 51.4 L 106.2 51.4 L 106.2 93.2 L 33.0 93.2 Z M 33.0 51.4 "></path></clipPath><g clip-path="url(#clip0x6180012a0f00)"><text xml:space="preserve" font-family="KontrapunktBob-Light,Kontrapunkt Bob" font-size="42.0" fill="#FEFFFE" transform="matrix(1.00, 0.00, -0.00, -1.00, 60.3, 53.7)">1</text></g></g></g></svg>