<?xml version="1.0" encoding="UTF-8" standalone="no"?><svg xmlns="http://www.w3.org/2000/svg" xmlns:xlink="http://www.w3.org/1999/xlink" clip-rule="evenodd" stroke-miterlimit="10" viewBox="0 0 138 138"><desc>SVG generated by Keynote</desc><defs></defs><g transform="matrix(1.00, 0.00, -0.00, -1.00, 0.0, 138.0)"><g><clipPath id="clip0x6100012a3300"><path d="M 0.0 0.5 L 137.4 0.5 L 137.4 137.8 L 0.0 137.8 Z M 0.0 0.5 "></path></clipPath><g clip-path="url(#clip0x6100012a3300)"><path d="M 116.5 117.0 C 143.0 90.6 143.0 47.7 116.5 21.3 C 90.1 -5.1 47.3 -5.1 20.9 21.3 C -5.6 47.7 -5.6 90.6 20.9 117.0 C 47.3 143.4 90.1 143.4 116.5 117.0 Z M 116.5 117.0 " fill="#7FC7EA"></path></g></g><g><clipPath id="clip0x6100012a3000"><path d="M 32.1 48.1 L 105.3 48.1 L 105.3 89.8 L 32.1 89.8 Z M 32.1 48.1 "></path></clipPath><g clip-path="url(#clip0x6100012a3000)"><text xml:space="preserve" font-family="KontrapunktBob-Light,Kontrapunkt Bob" font-size="42.0" fill="#FEFFFE" transform="matrix(1.00, 0.00, -0.00, -1.00, 56.8, 50.3)">3</text></g></g></g></svg>