<?xml version="1.0" encoding="UTF-8" standalone="no"?><svg xmlns="http://www.w3.org/2000/svg" xmlns:xlink="http://www.w3.org/1999/xlink" clip-rule="evenodd" stroke-miterlimit="10" viewBox="0 0 139 139"><desc>SVG generated by Keynote</desc><defs></defs><g transform="matrix(1.00, 0.00, -0.00, -1.00, 0.0, 139.0)"><g><clipPath id="clip0x6080010b95c0"><path d="M 0.8 0.8 L 138.1 0.8 L 138.1 138.1 L 0.8 138.1 Z M 0.8 0.8 "></path></clipPath><g clip-path="url(#clip0x6080010b95c0)"><path d="M 117.3 117.3 C 143.7 90.9 143.7 48.0 117.3 21.6 C 90.8 -4.8 48.0 -4.8 21.6 21.6 C -4.8 48.0 -4.8 90.9 21.6 117.3 C 48.0 143.7 90.8 143.7 117.3 117.3 Z M 117.3 117.3 " fill="#7FC7EA"></path></g></g><g><clipPath id="clip0x6080010b9080"><path d="M 32.8 48.4 L 106.0 48.4 L 106.0 90.1 L 32.8 90.1 Z M 32.8 48.4 "></path></clipPath><g clip-path="url(#clip0x6080010b9080)"><text xml:space="preserve" font-family="KontrapunktBob-Light,Kontrapunkt Bob" font-size="42.0" fill="#FEFFFE" transform="matrix(1.00, 0.00, -0.00, -1.00, 56.2, 50.6)">4</text></g></g></g></svg>