<?xml version="1.0" encoding="UTF-8" standalone="no"?><svg xmlns="http://www.w3.org/2000/svg" xmlns:xlink="http://www.w3.org/1999/xlink" clip-rule="evenodd" stroke-miterlimit="10" viewBox="0 0 206 13"><desc>SVG generated by Keynote</desc><defs></defs><g transform="matrix(1.00, 0.00, -0.00, -1.00, 0.0, 13.0)"><text xml:space="preserve" font-family="KontrapunktBob-Bold,Kontrapunkt Bob" font-weight="bold" font-size="12.0" fill="#52575F" transform="matrix(1.00, 0.00, -0.00, -1.00, 1.3, 3.0)">P</text><text xml:space="preserve" font-family="KontrapunktBob-Bold,Kontrapunkt Bob" font-weight="bold" font-size="12.0" fill="#52575F" transform="matrix(1.00, 0.00, -0.00, -1.00, 9.4, 3.0)">L</text><text xml:space="preserve" font-family="KontrapunktBob-Bold,Kontrapunkt Bob" font-weight="bold" font-size="12.0" fill="#52575F" transform="matrix(1.00, 0.00, -0.00, -1.00, 17.0, 3.0)">A</text><text xml:space="preserve" font-family="KontrapunktBob-Bold,Kontrapunkt Bob" font-weight="bold" font-size="12.0" fill="#52575F" transform="matrix(1.00, 0.00, -0.00, -1.00, 26.5, 3.0)">N</text><text xml:space="preserve" font-family="KontrapunktBob-Bold,Kontrapunkt Bob" font-weight="bold" font-size="12.0" fill="#52575F" transform="matrix(1.00, 0.00, -0.00, -1.00, 36.8, 3.0)"> </text><text xml:space="preserve" font-family="KontrapunktBob-Bold,Kontrapunkt Bob" font-weight="bold" font-size="12.0" fill="#52575F" transform="matrix(1.00, 0.00, -0.00, -1.00, 39.9, 3.0)">D</text><text xml:space="preserve" font-family="KontrapunktBob-Bold,Kontrapunkt Bob" font-weight="bold" font-size="12.0" fill="#52575F" transform="matrix(1.00, 0.00, -0.00, -1.00, 49.5, 3.0)">E</text><text xml:space="preserve" font-family="KontrapunktBob-Bold,Kontrapunkt Bob" font-weight="bold" font-size="12.0" fill="#52575F" transform="matrix(1.00, 0.00, -0.00, -1.00, 57.8, 3.0)"> </text><text xml:space="preserve" font-family="KontrapunktBob-Bold,Kontrapunkt Bob" font-weight="bold" font-size="12.0" fill="#52575F" transform="matrix(1.00, 0.00, -0.00, -1.00, 60.9, 3.0)">N</text><text xml:space="preserve" font-family="KontrapunktBob-Bold,Kontrapunkt Bob" font-weight="bold" font-size="12.0" fill="#52575F" transform="matrix(1.00, 0.00, -0.00, -1.00, 71.2, 3.0)">E</text><text xml:space="preserve" font-family="KontrapunktBob-Bold,Kontrapunkt Bob" font-weight="bold" font-size="12.0" fill="#52575F" transform="matrix(1.00, 0.00, -0.00, -1.00, 79.5, 3.0)">G</text><text xml:space="preserve" font-family="KontrapunktBob-Bold,Kontrapunkt Bob" font-weight="bold" font-size="12.0" fill="#52575F" transform="matrix(1.00, 0.00, -0.00, -1.00, 88.8, 3.0)">O</text><text xml:space="preserve" font-family="KontrapunktBob-Bold,Kontrapunkt Bob" font-weight="bold" font-size="12.0" fill="#52575F" transform="matrix(1.00, 0.00, -0.00, -1.00, 98.5, 3.0)">C</text><text xml:space="preserve" font-family="KontrapunktBob-Bold,Kontrapunkt Bob" font-weight="bold" font-size="12.0" fill="#52575F" transform="matrix(1.00, 0.00, -0.00, -1.00, 106.9, 3.0)">I</text><text xml:space="preserve" font-family="KontrapunktBob-Bold,Kontrapunkt Bob" font-weight="bold" font-size="12.0" fill="#52575F" transform="matrix(1.00, 0.00, -0.00, -1.00, 111.4, 3.0)">O</text><text xml:space="preserve" font-family="KontrapunktBob-Bold,Kontrapunkt Bob" font-weight="bold" font-size="12.0" fill="#52575F" transform="matrix(1.00, 0.00, -0.00, -1.00, 121.0, 3.0)"> </text><text xml:space="preserve" font-family="KontrapunktBob-Bold,Kontrapunkt Bob" font-weight="bold" font-size="12.0" fill="#52575F" transform="matrix(1.00, 0.00, -0.00, -1.00, 124.2, 3.0)">D</text><text xml:space="preserve" font-family="KontrapunktBob-Bold,Kontrapunkt Bob" font-weight="bold" font-size="12.0" fill="#52575F" transform="matrix(1.00, 0.00, -0.00, -1.00, 133.8, 3.0)">R</text><text xml:space="preserve" font-family="KontrapunktBob-Bold,Kontrapunkt Bob" font-weight="bold" font-size="12.0" fill="#52575F" transform="matrix(1.00, 0.00, -0.00, -1.00, 142.9, 3.0)">O</text><text xml:space="preserve" font-family="KontrapunktBob-Bold,Kontrapunkt Bob" font-weight="bold" font-size="12.0" fill="#52575F" transform="matrix(1.00, 0.00, -0.00, -1.00, 152.5, 3.0)">N</text><text xml:space="preserve" font-family="KontrapunktBob-Bold,Kontrapunkt Bob" font-weight="bold" font-size="12.0" fill="#52575F" transform="matrix(1.00, 0.00, -0.00, -1.00, 162.9, 3.0)">E</text><text xml:space="preserve" font-family="KontrapunktBob-Bold,Kontrapunkt Bob" font-weight="bold" font-size="12.0" fill="#52575F" transform="matrix(1.00, 0.00, -0.00, -1.00, 171.1, 3.0)">M</text><text xml:space="preserve" font-family="KontrapunktBob-Bold,Kontrapunkt Bob" font-weight="bold" font-size="12.0" fill="#52575F" transform="matrix(1.00, 0.00, -0.00, -1.00, 182.5, 3.0)">A</text><text xml:space="preserve" font-family="KontrapunktBob-Bold,Kontrapunkt Bob" font-weight="bold" font-size="12.0" fill="#52575F" transform="matrix(1.00, 0.00, -0.00, -1.00, 192.0, 3.0)">I</text><text xml:space="preserve" font-family="KontrapunktBob-Bold,Kontrapunkt Bob" font-weight="bold" font-size="12.0" fill="#52575F" transform="matrix(1.00, 0.00, -0.00, -1.00, 196.5, 3.0)">L</text></g></svg>