<?xml version="1.0" encoding="UTF-8" standalone="no"?><svg xmlns="http://www.w3.org/2000/svg" xmlns:xlink="http://www.w3.org/1999/xlink" clip-rule="evenodd" stroke-miterlimit="10" viewBox="0 0 248 45"><desc>SVG generated by Keynote</desc><defs></defs><g transform="matrix(1.00, 0.00, -0.00, -1.00, 0.0, 45.0)"><g><clipPath id="clip0x6000014a5700"><path d="M 101.5 1.5 L 247.0 1.5 L 247.0 28.3 L 101.5 28.3 Z M 101.5 1.5 "></path></clipPath><g clip-path="url(#clip0x6000014a5700)"><text xml:space="preserve" font-family="KontrapunktBob-Bold,Kontrapunkt Bob" font-weight="bold" font-size="10.0" fill="#FEFFFE" transform="matrix(1.00, 0.00, -0.00, -1.00, 118.5, 11.9)">R</text><text xml:space="preserve" font-family="KontrapunktBob-Bold,Kontrapunkt Bob" font-weight="bold" font-size="10.0" fill="#FEFFFE" transform="matrix(1.00, 0.00, -0.00, -1.00, 126.1, 11.9)">e</text><text xml:space="preserve" font-family="KontrapunktBob-Bold,Kontrapunkt Bob" font-weight="bold" font-size="10.0" fill="#FEFFFE" transform="matrix(1.00, 0.00, -0.00, -1.00, 132.1, 11.9)">u</text><text xml:space="preserve" font-family="KontrapunktBob-Bold,Kontrapunkt Bob" font-weight="bold" font-size="10.0" fill="#FEFFFE" transform="matrix(1.00, 0.00, -0.00, -1.00, 138.9, 11.9)">n</text><text xml:space="preserve" font-family="KontrapunktBob-Bold,Kontrapunkt Bob" font-weight="bold" font-size="10.0" fill="#FEFFFE" transform="matrix(1.00, 0.00, -0.00, -1.00, 145.8, 11.9)">i</text><text xml:space="preserve" font-family="KontrapunktBob-Bold,Kontrapunkt Bob" font-weight="bold" font-size="10.0" fill="#FEFFFE" transform="matrix(1.00, 0.00, -0.00, -1.00, 149.2, 11.9)">o</text><text xml:space="preserve" font-family="KontrapunktBob-Bold,Kontrapunkt Bob" font-weight="bold" font-size="10.0" fill="#FEFFFE" transform="matrix(1.00, 0.00, -0.00, -1.00, 155.7, 11.9)">n</text><text xml:space="preserve" font-family="KontrapunktBob-Bold,Kontrapunkt Bob" font-weight="bold" font-size="10.0" fill="#FEFFFE" transform="matrix(1.00, 0.00, -0.00, -1.00, 162.7, 11.9)">e</text><text xml:space="preserve" font-family="KontrapunktBob-Bold,Kontrapunkt Bob" font-weight="bold" font-size="10.0" fill="#FEFFFE" transform="matrix(1.00, 0.00, -0.00, -1.00, 168.6, 11.9)">s</text><text xml:space="preserve" font-family="KontrapunktBob-Bold,Kontrapunkt Bob" font-weight="bold" font-size="10.0" fill="#FEFFFE" transform="matrix(1.00, 0.00, -0.00, -1.00, 173.4, 11.9)"> </text><text xml:space="preserve" font-family="KontrapunktBob-Bold,Kontrapunkt Bob" font-weight="bold" font-size="10.0" fill="#FEFFFE" transform="matrix(1.00, 0.00, -0.00, -1.00, 176.0, 11.9)">s</text><text xml:space="preserve" font-family="KontrapunktBob-Bold,Kontrapunkt Bob" font-weight="bold" font-size="10.0" fill="#FEFFFE" transform="matrix(1.00, 0.00, -0.00, -1.00, 180.8, 11.9)">e</text><text xml:space="preserve" font-family="KontrapunktBob-Bold,Kontrapunkt Bob" font-weight="bold" font-size="10.0" fill="#FEFFFE" transform="matrix(1.00, 0.00, -0.00, -1.00, 186.8, 11.9)">m</text><text xml:space="preserve" font-family="KontrapunktBob-Bold,Kontrapunkt Bob" font-weight="bold" font-size="10.0" fill="#FEFFFE" transform="matrix(1.00, 0.00, -0.00, -1.00, 197.1, 11.9)">a</text><text xml:space="preserve" font-family="KontrapunktBob-Bold,Kontrapunkt Bob" font-weight="bold" font-size="10.0" fill="#FEFFFE" transform="matrix(1.00, 0.00, -0.00, -1.00, 203.0, 11.9)">n</text><text xml:space="preserve" font-family="KontrapunktBob-Bold,Kontrapunkt Bob" font-weight="bold" font-size="10.0" fill="#FEFFFE" transform="matrix(1.00, 0.00, -0.00, -1.00, 210.0, 11.9)">a</text><text xml:space="preserve" font-family="KontrapunktBob-Bold,Kontrapunkt Bob" font-weight="bold" font-size="10.0" fill="#FEFFFE" transform="matrix(1.00, 0.00, -0.00, -1.00, 215.9, 11.9)">l</text><text xml:space="preserve" font-family="KontrapunktBob-Bold,Kontrapunkt Bob" font-weight="bold" font-size="10.0" fill="#FEFFFE" transform="matrix(1.00, 0.00, -0.00, -1.00, 219.2, 11.9)">e</text><text xml:space="preserve" font-family="KontrapunktBob-Bold,Kontrapunkt Bob" font-weight="bold" font-size="10.0" fill="#FEFFFE" transform="matrix(1.00, 0.00, -0.00, -1.00, 225.2, 11.9)">s</text></g></g><g><clipPath id="clip0x6000014a60c0"><path d="M 0.0 19.7 L 27.1 19.7 L 27.1 44.2 L 0.0 44.2 Z M 0.0 19.7 "></path></clipPath><g clip-path="url(#clip0x6000014a60c0)"><path d="M 25.8 31.5 L 14.6 42.7 C 14.0 43.3 13.1 43.3 12.5 42.7 L 1.3 31.5 C 0.8 30.9 1.0 30.0 1.8 30.0 L 4.0 30.0 L 4.0 21.9 C 4.0 21.3 4.2 21.0 5.3 21.0 L 11.0 21.0 L 11.0 29.0 L 16.0 29.0 L 16.0 21.0 L 22.1 21.0 C 22.9 21.0 23.0 21.3 23.0 21.9 L 23.0 30.0 L 25.3 30.0 C 26.1 30.0 26.3 30.9 25.8 31.5 Z M 25.8 31.5 " fill="#FEFFFE"></path></g></g></g></svg>