<?xml version="1.0" encoding="UTF-8" standalone="no"?><svg xmlns="http://www.w3.org/2000/svg" xmlns:xlink="http://www.w3.org/1999/xlink" clip-rule="evenodd" stroke-miterlimit="10" viewBox="0 0 730 95"><desc>SVG generated by Keynote</desc><defs></defs><g transform="matrix(1.00, 0.00, -0.00, -1.00, 0.0, 95.0)"><g><clipPath id="clip0x6000012bbf00"><path d="M 216.0 8.9 L 730.0 8.9 L 730.0 69.9 L 216.0 69.9 Z M 216.0 8.9 "></path></clipPath><g clip-path="url(#clip0x6000012bbf00)"><path d="M 217.0 69.0 L 729.0 69.0 L 729.0 10.0 L 217.0 10.0 Z M 217.0 68.9 " fill="#F1F1F1"></path></g></g><g><clipPath id="clip0x6000012bbd20"><path d="M 0.3 0.6 L 343.6 0.6 L 343.6 94.5 L 0.3 94.5 Z M 0.3 0.6 "></path></clipPath><g clip-path="url(#clip0x6000012bbd20)"><path d="M 1.6 93.4 C 2.7 88.1 7.4 84.0 13.1 84.0 L 48.3 84.0 L 57.7 84.0 L 122.3 84.0 L 152.4 84.0 C 155.7 84.0 158.6 82.3 160.3 79.7 L 161.7 76.1 L 162.8 73.2 C 165.0 71.0 167.9 70.0 171.2 70.0 L 206.4 70.0 L 215.8 70.0 L 280.4 70.0 L 310.5 70.0 C 313.8 70.0 316.7 68.0 318.4 65.4 L 319.8 61.7 L 342.6 2.0 L 342.4 2.0 C 341.3 7.3 336.5 11.0 330.9 11.0 L 295.6 11.0 L 286.2 11.0 L 221.7 11.0 L 191.5 11.0 C 188.2 11.0 185.3 12.6 183.6 15.2 L 182.3 18.9 L 181.1 22.0 C 179.0 24.1 176.0 26.0 172.8 26.0 L 137.5 26.0 L 128.1 26.0 L 63.6 26.0 L 33.4 26.0 C 30.1 26.0 27.2 27.2 25.5 29.8 L 24.2 33.4 L 1.3 93.5 C 1.3 93.5 1.6 93.4 1.6 93.4 Z M 1.6 93.4 " fill="#7FC7EA"></path></g></g><g><clipPath id="clip0x6000012bbae0"><path d="M 346.0 17.6 L 378.4 17.6 L 378.4 62.1 L 346.0 62.1 Z M 346.0 17.6 "></path></clipPath><g clip-path="url(#clip0x6000012bbae0)"><path d="M 347.0 61.0 L 362.7 19.0 L 377.4 19.0 L 361.7 61.0 L 347.0 61.0 Z M 347.0 61.0 " fill="#FEFFFE"></path></g></g><g><clipPath id="clip0x6000012bb8a0"><path d="M 367.6 17.6 L 399.9 17.6 L 399.9 62.1 L 367.6 62.1 Z M 367.6 17.6 "></path></clipPath><g clip-path="url(#clip0x6000012bb8a0)"><path d="M 368.6 61.0 L 384.2 19.0 L 398.9 19.0 L 383.3 61.0 L 368.6 61.0 Z M 368.6 61.0 " fill="#FEFFFE"></path></g></g><g><clipPath id="clip0x6000012bb660"><path d="M 388.9 17.6 L 421.3 17.6 L 421.3 62.1 L 388.9 62.1 Z M 388.9 17.6 "></path></clipPath><g clip-path="url(#clip0x6000012bb660)"><path d="M 389.9 61.0 L 405.6 19.0 L 420.3 19.0 L 404.6 61.0 L 389.9 61.0 Z M 389.9 61.0 " fill="#FEFFFE"></path></g></g><g><clipPath id="clip0x6000012bb420"><path d="M 410.4 17.6 L 442.8 17.6 L 442.8 62.1 L 410.4 62.1 Z M 410.4 17.6 "></path></clipPath><g clip-path="url(#clip0x6000012bb420)"><path d="M 411.4 61.0 L 427.1 19.0 L 441.8 19.0 L 426.1 61.0 L 411.4 61.0 Z M 411.4 61.0 " fill="#FEFFFE"></path></g></g><g><clipPath id="clip0x6000012bb1e0"><path d="M 431.7 17.6 L 464.1 17.6 L 464.1 62.1 L 431.7 62.1 Z M 431.7 17.6 "></path></clipPath><g clip-path="url(#clip0x6000012bb1e0)"><path d="M 432.7 61.0 L 448.4 19.0 L 463.1 19.0 L 447.4 61.0 L 432.7 61.0 Z M 432.7 61.0 " fill="#FEFFFE"></path></g></g><g><clipPath id="clip0x6000012bafa0"><path d="M 453.3 17.6 L 485.7 17.6 L 485.7 62.1 L 453.3 62.1 Z M 453.3 17.6 "></path></clipPath><g clip-path="url(#clip0x6000012bafa0)"><path d="M 454.3 61.0 L 470.0 19.0 L 484.7 19.0 L 469.0 61.0 L 454.3 61.0 Z M 454.3 61.0 " fill="#FEFFFE"></path></g></g><g><clipPath id="clip0x6000012bad60"><path d="M 474.6 17.6 L 507.0 17.6 L 507.0 62.1 L 474.6 62.1 Z M 474.6 17.6 "></path></clipPath><g clip-path="url(#clip0x6000012bad60)"><path d="M 475.6 61.0 L 491.3 19.0 L 506.0 19.0 L 490.3 61.0 L 475.6 61.0 Z M 475.6 61.0 " fill="#FEFFFE"></path></g></g><g><clipPath id="clip0x6000012bab20"><path d="M 496.1 17.6 L 528.5 17.6 L 528.5 62.1 L 496.1 62.1 Z M 496.1 17.6 "></path></clipPath><g clip-path="url(#clip0x6000012bab20)"><path d="M 497.1 61.0 L 512.8 19.0 L 527.5 19.0 L 511.8 61.0 L 497.1 61.0 Z M 497.1 61.0 " fill="#FEFFFE"></path></g></g><g><clipPath id="clip0x6000012ba7c0"><path d="M 517.5 17.6 L 549.8 17.6 L 549.8 62.1 L 517.5 62.1 Z M 517.5 17.6 "></path></clipPath><g clip-path="url(#clip0x6000012ba7c0)"><path d="M 518.5 61.0 L 534.1 19.0 L 548.8 19.0 L 533.2 61.0 L 518.5 61.0 Z M 518.5 61.0 " fill="#FEFFFE"></path></g></g><g><clipPath id="clip0x6000012bc5c0"><path d="M 539.0 17.6 L 571.4 17.6 L 571.4 62.1 L 539.0 62.1 Z M 539.0 17.6 "></path></clipPath><g clip-path="url(#clip0x6000012bc5c0)"><path d="M 540.0 61.0 L 555.7 19.0 L 570.4 19.0 L 554.7 61.0 L 540.0 61.0 Z M 540.0 61.0 " fill="#FEFFFE"></path></g></g></g></svg>