<?xml version="1.0" encoding="UTF-8" standalone="no"?><svg xmlns="http://www.w3.org/2000/svg" xmlns:xlink="http://www.w3.org/1999/xlink" clip-rule="evenodd" stroke-miterlimit="10" viewBox="0 0 147 29"><desc>SVG generated by Keynote</desc><defs></defs><g transform="matrix(1.00, 0.00, -0.00, -1.00, 0.0, 29.0)"><g><clipPath id="clip0x6000014a3ae0"><path d="M 0.7 1.1 L 146.2 1.1 L 146.2 27.9 L 0.7 27.9 Z M 0.7 1.1 "></path></clipPath><g clip-path="url(#clip0x6000014a3ae0)"><text xml:space="preserve" font-family="KontrapunktBob-Bold,Kontrapunkt Bob" font-weight="bold" font-size="10.0" fill="#FEFFFE" transform="matrix(1.00, 0.00, -0.00, -1.00, 27.4, 11.5)">V</text><text xml:space="preserve" font-family="KontrapunktBob-Bold,Kontrapunkt Bob" font-weight="bold" font-size="10.0" fill="#FEFFFE" transform="matrix(1.00, 0.00, -0.00, -1.00, 35.1, 11.5)">i</text><text xml:space="preserve" font-family="KontrapunktBob-Bold,Kontrapunkt Bob" font-weight="bold" font-size="10.0" fill="#FEFFFE" transform="matrix(1.00, 0.00, -0.00, -1.00, 38.5, 11.5)">d</text><text xml:space="preserve" font-family="KontrapunktBob-Bold,Kontrapunkt Bob" font-weight="bold" font-size="10.0" fill="#FEFFFE" transform="matrix(1.00, 0.00, -0.00, -1.00, 45.5, 11.5)">e</text><text xml:space="preserve" font-family="KontrapunktBob-Bold,Kontrapunkt Bob" font-weight="bold" font-size="10.0" fill="#FEFFFE" transform="matrix(1.00, 0.00, -0.00, -1.00, 51.5, 11.5)">o</text><text xml:space="preserve" font-family="KontrapunktBob-Bold,Kontrapunkt Bob" font-weight="bold" font-size="10.0" fill="#FEFFFE" transform="matrix(1.00, 0.00, -0.00, -1.00, 58.0, 11.5)">c</text><text xml:space="preserve" font-family="KontrapunktBob-Bold,Kontrapunkt Bob" font-weight="bold" font-size="10.0" fill="#FEFFFE" transform="matrix(1.00, 0.00, -0.00, -1.00, 63.4, 11.5)">o</text><text xml:space="preserve" font-family="KontrapunktBob-Bold,Kontrapunkt Bob" font-weight="bold" font-size="10.0" fill="#FEFFFE" transform="matrix(1.00, 0.00, -0.00, -1.00, 69.9, 11.5)">n</text><text xml:space="preserve" font-family="KontrapunktBob-Bold,Kontrapunkt Bob" font-weight="bold" font-size="10.0" fill="#FEFFFE" transform="matrix(1.00, 0.00, -0.00, -1.00, 76.8, 11.5)">f</text><text xml:space="preserve" font-family="KontrapunktBob-Bold,Kontrapunkt Bob" font-weight="bold" font-size="10.0" fill="#FEFFFE" transform="matrix(1.00, 0.00, -0.00, -1.00, 81.1, 11.5)">e</text><text xml:space="preserve" font-family="KontrapunktBob-Bold,Kontrapunkt Bob" font-weight="bold" font-size="10.0" fill="#FEFFFE" transform="matrix(1.00, 0.00, -0.00, -1.00, 87.0, 11.5)">r</text><text xml:space="preserve" font-family="KontrapunktBob-Bold,Kontrapunkt Bob" font-weight="bold" font-size="10.0" fill="#FEFFFE" transform="matrix(1.00, 0.00, -0.00, -1.00, 91.7, 11.5)">e</text><text xml:space="preserve" font-family="KontrapunktBob-Bold,Kontrapunkt Bob" font-weight="bold" font-size="10.0" fill="#FEFFFE" transform="matrix(1.00, 0.00, -0.00, -1.00, 97.6, 11.5)">n</text><text xml:space="preserve" font-family="KontrapunktBob-Bold,Kontrapunkt Bob" font-weight="bold" font-size="10.0" fill="#FEFFFE" transform="matrix(1.00, 0.00, -0.00, -1.00, 104.6, 11.5)">c</text><text xml:space="preserve" font-family="KontrapunktBob-Bold,Kontrapunkt Bob" font-weight="bold" font-size="10.0" fill="#FEFFFE" transform="matrix(1.00, 0.00, -0.00, -1.00, 110.1, 11.5)">i</text><text xml:space="preserve" font-family="KontrapunktBob-Bold,Kontrapunkt Bob" font-weight="bold" font-size="10.0" fill="#FEFFFE" transform="matrix(1.00, 0.00, -0.00, -1.00, 113.6, 11.5)">a</text></g></g></g></svg>