<?xml version="1.0" encoding="UTF-8" standalone="no"?><svg xmlns="http://www.w3.org/2000/svg" xmlns:xlink="http://www.w3.org/1999/xlink" clip-rule="evenodd" stroke-miterlimit="10" viewBox="0 0 226 45"><desc>SVG generated by Keynote</desc><defs></defs><g transform="matrix(1.00, 0.00, -0.00, -1.00, 0.0, 45.0)"><g><clipPath id="clip0x6000014ad080"><path d="M 0.4 0.2 L 32.7 0.2 L 32.7 44.7 L 0.4 44.7 Z M 0.4 0.2 "></path></clipPath><g clip-path="url(#clip0x6000014ad080)"><path d="M 1.4 44.0 L 17.1 1.0 L 31.7 1.0 L 16.1 44.0 L 1.4 44.0 Z M 1.4 43.6 " fill="#7FC7EA"></path></g></g><g><clipPath id="clip0x6000014aeee0"><path d="M 21.9 0.2 L 54.3 0.2 L 54.3 44.7 L 21.9 44.7 Z M 21.9 0.2 "></path></clipPath><g clip-path="url(#clip0x6000014aeee0)"><path d="M 22.9 44.0 L 38.6 1.0 L 53.3 1.0 L 37.6 44.0 L 22.9 44.0 Z M 22.9 43.6 " fill="#7FC7EA"></path></g></g><g><clipPath id="clip0x6000014aed60"><path d="M 43.2 0.2 L 75.6 0.2 L 75.6 44.7 L 43.2 44.7 Z M 43.2 0.2 "></path></clipPath><g clip-path="url(#clip0x6000014aed60)"><path d="M 44.2 44.0 L 59.9 1.0 L 74.6 1.0 L 58.9 44.0 L 44.2 44.0 Z M 44.2 43.6 " fill="#7FC7EA"></path></g></g><g><clipPath id="clip0x6000014af660"><path d="M 64.8 0.2 L 97.2 0.2 L 97.2 44.7 L 64.8 44.7 Z M 64.8 0.2 "></path></clipPath><g clip-path="url(#clip0x6000014af660)"><path d="M 65.8 44.0 L 81.5 1.0 L 96.2 1.0 L 80.5 44.0 L 65.8 44.0 Z M 65.8 43.6 " fill="#7FC7EA"></path></g></g><g><clipPath id="clip0x6000014af540"><path d="M 86.1 0.2 L 118.5 0.2 L 118.5 44.7 L 86.1 44.7 Z M 86.1 0.2 "></path></clipPath><g clip-path="url(#clip0x6000014af540)"><path d="M 87.1 44.0 L 102.8 1.0 L 117.5 1.0 L 101.8 44.0 L 87.1 44.0 Z M 87.1 43.6 " fill="#7FC7EA"></path></g></g><g><clipPath id="clip0x6000014aefa0"><path d="M 107.6 0.2 L 140.0 0.2 L 140.0 44.7 L 107.6 44.7 Z M 107.6 0.2 "></path></clipPath><g clip-path="url(#clip0x6000014aefa0)"><path d="M 108.6 44.0 L 124.3 1.0 L 139.0 1.0 L 123.3 44.0 L 108.6 44.0 Z M 108.6 43.6 " fill="#7FC7EA"></path></g></g><g><clipPath id="clip0x6000014af420"><path d="M 128.9 0.2 L 161.3 0.2 L 161.3 44.7 L 128.9 44.7 Z M 128.9 0.2 "></path></clipPath><g clip-path="url(#clip0x6000014af420)"><path d="M 129.9 44.0 L 145.6 1.0 L 160.3 1.0 L 144.6 44.0 L 129.9 44.0 Z M 129.9 43.6 " fill="#7FC7EA"></path></g></g><g><clipPath id="clip0x6000014afd80"><path d="M 150.5 0.2 L 182.9 0.2 L 182.9 44.7 L 150.5 44.7 Z M 150.5 0.2 "></path></clipPath><g clip-path="url(#clip0x6000014afd80)"><path d="M 151.5 44.0 L 167.2 1.0 L 181.9 1.0 L 166.2 44.0 L 151.5 44.0 Z M 151.5 43.6 " fill="#7FC7EA"></path></g></g><g><clipPath id="clip0x6000014affc0"><path d="M 171.8 0.2 L 204.2 0.2 L 204.2 44.7 L 171.8 44.7 Z M 171.8 0.2 "></path></clipPath><g clip-path="url(#clip0x6000014affc0)"><path d="M 172.8 44.0 L 188.5 1.0 L 203.2 1.0 L 187.5 44.0 L 172.8 44.0 Z M 172.8 43.6 " fill="#7FC7EA"></path></g></g><g><clipPath id="clip0x6000014b0200"><path d="M 193.4 0.2 L 225.7 0.2 L 225.7 44.7 L 193.4 44.7 Z M 193.4 0.2 "></path></clipPath><g clip-path="url(#clip0x6000014b0200)"><path d="M 194.4 44.0 L 210.0 1.0 L 224.7 1.0 L 209.1 44.0 L 194.4 44.0 Z M 194.4 43.6 " fill="#FEFFFE"></path></g></g></g></svg>