<?xml version="1.0" encoding="UTF-8" standalone="no"?><svg xmlns="http://www.w3.org/2000/svg" xmlns:xlink="http://www.w3.org/1999/xlink" clip-rule="evenodd" stroke-miterlimit="10" viewBox="0 0 294 182"><desc>SVG generated by Keynote</desc><defs></defs><g transform="matrix(1.00, 0.00, -0.00, -1.00, 0.0, 182.0)"><g><clipPath id="clip0x6000014a5100"><path d="M 148.1 1.5 L 293.6 1.5 L 293.6 28.3 L 148.1 28.3 Z M 148.1 1.5 "></path></clipPath><g clip-path="url(#clip0x6000014a5100)"><text xml:space="preserve" font-family="KontrapunktBob-Bold,Kontrapunkt Bob" font-weight="bold" font-size="10.0" fill="#FEFFFE" transform="matrix(1.00, 0.00, -0.00, -1.00, 205.9, 11.9)">E</text><text xml:space="preserve" font-family="KontrapunktBob-Bold,Kontrapunkt Bob" font-weight="bold" font-size="10.0" fill="#FEFFFE" transform="matrix(1.00, 0.00, -0.00, -1.00, 212.8, 11.9)">m</text><text xml:space="preserve" font-family="KontrapunktBob-Bold,Kontrapunkt Bob" font-weight="bold" font-size="10.0" fill="#FEFFFE" transform="matrix(1.00, 0.00, -0.00, -1.00, 223.1, 11.9)">a</text><text xml:space="preserve" font-family="KontrapunktBob-Bold,Kontrapunkt Bob" font-weight="bold" font-size="10.0" fill="#FEFFFE" transform="matrix(1.00, 0.00, -0.00, -1.00, 229.0, 11.9)">i</text><text xml:space="preserve" font-family="KontrapunktBob-Bold,Kontrapunkt Bob" font-weight="bold" font-size="10.0" fill="#FEFFFE" transform="matrix(1.00, 0.00, -0.00, -1.00, 232.5, 11.9)">l</text></g></g><g><clipPath id="clip0x6100008b8540"><path d="M 0.8 152.9 L 29.7 152.9 L 29.7 181.8 L 0.8 181.8 Z M 0.8 152.9 "></path></clipPath><g clip-path="url(#clip0x6100008b8540)"><path d="M 20.3 161.4 C 16.9 159.8 14.0 157.3 12.0 154.3 C 13.0 154.0 14.1 153.9 15.2 153.9 C 17.3 153.9 19.2 154.3 20.9 155.1 C 21.2 156.5 21.3 157.9 21.3 159.3 C 21.3 159.9 21.3 160.4 21.3 160.9 C 20.9 161.0 20.6 161.2 20.3 161.4 Z M 24.3 177.3 C 22.1 177.1 20.0 176.5 18.1 175.7 C 18.1 175.6 18.1 175.5 18.1 175.4 C 18.1 175.0 18.0 174.6 17.9 174.2 C 19.8 171.9 21.3 169.3 22.2 166.5 C 23.4 166.4 24.3 165.7 24.8 164.7 C 26.1 164.8 27.3 165.1 28.5 165.4 C 28.6 166.1 28.7 166.7 28.7 167.3 C 28.7 171.3 27.0 174.8 24.3 177.3 Z M 18.9 162.9 C 15.6 163.5 12.5 164.7 9.8 166.5 C 9.4 166.3 8.9 166.1 8.3 166.1 C 8.1 166.1 7.9 166.1 7.7 166.2 C 6.5 163.7 5.6 161.0 5.4 158.2 C 6.7 156.8 8.3 155.7 10.0 154.9 C 12.2 158.3 15.2 161.1 18.9 162.9 Z M 23.3 161.0 C 23.3 160.4 23.3 159.9 23.3 159.3 C 23.3 158.4 23.3 157.4 23.2 156.5 C 25.4 158.1 27.2 160.5 28.0 163.2 C 27.0 163.0 25.9 162.8 24.9 162.7 C 24.6 161.9 24.0 161.3 23.3 161.0 Z M 19.6 164.8 C 19.7 165.2 20.0 165.5 20.3 165.8 C 19.5 168.4 18.1 170.8 16.4 172.8 C 16.1 172.7 15.7 172.6 15.3 172.6 C 14.7 172.6 14.1 172.8 13.6 173.1 C 12.6 172.3 11.6 171.4 10.8 170.5 C 11.0 170.0 11.2 169.5 11.2 169.0 C 11.2 168.7 11.1 168.4 11.1 168.1 C 13.6 166.4 16.5 165.3 19.6 164.8 Z M 15.3 178.3 C 16.0 178.3 16.7 178.0 17.2 177.5 C 18.7 178.2 20.3 178.7 21.9 179.0 C 20.0 180.1 17.7 180.8 15.2 180.8 C 13.6 180.8 12.0 180.5 10.5 179.9 C 11.7 179.3 12.8 178.7 13.8 177.9 C 14.3 178.2 14.8 178.3 15.3 178.3 Z M 5.5 169.0 C 5.5 169.4 5.6 169.8 5.7 170.1 C 4.8 171.1 4.0 172.2 3.2 173.4 C 2.3 171.5 1.8 169.5 1.8 167.3 C 1.8 164.8 2.5 162.5 3.7 160.5 C 4.1 162.9 4.9 165.2 6.1 167.3 C 5.7 167.7 5.5 168.3 5.5 169.0 Z M 8.3 171.8 C 8.6 171.8 8.9 171.8 9.2 171.7 C 10.2 172.8 11.3 173.9 12.5 174.8 C 12.5 175.0 12.4 175.2 12.4 175.4 C 12.4 175.8 12.5 176.1 12.6 176.3 C 11.2 177.3 9.8 178.1 8.2 178.8 C 6.7 177.9 5.4 176.7 4.4 175.3 C 5.2 173.9 6.1 172.7 7.1 171.6 C 7.5 171.7 7.9 171.8 8.3 171.8 Z M 8.3 171.8 " fill="#FEFFFE"></path></g></g></g></svg>