<?xml version="1.0" encoding="UTF-8" standalone="no"?><svg xmlns="http://www.w3.org/2000/svg" xmlns:xlink="http://www.w3.org/1999/xlink" clip-rule="evenodd" stroke-miterlimit="10" viewBox="0 0 67 66"><desc>SVG generated by Keynote</desc><defs></defs><g transform="matrix(1.00, 0.00, -0.00, -1.00, 0.0, 66.0)"><g><clipPath id="clip0x6080004b8a80"><path d="M 1.5 0.6 L 66.0 0.6 L 66.0 65.1 L 1.5 65.1 Z M 1.5 0.6 "></path></clipPath><g clip-path="url(#clip0x6080004b8a80)"><path d="M 55.1 54.2 C 66.9 42.4 66.9 23.2 55.1 11.4 C 43.3 -0.4 24.2 -0.4 12.4 11.4 C 0.6 23.2 0.6 42.4 12.4 54.2 C 24.2 66.0 43.3 66.0 55.1 54.2 Z M 55.1 54.2 " fill="#7FC7EA"></path><path d="M 51.6 8.9 C 63.4 20.7 63.4 39.8 51.6 51.6 C 39.8 63.4 20.7 63.4 8.9 51.6 C -3.0 39.8 -3.0 20.7 8.9 8.9 C 20.7 -3.0 39.8 -3.0 51.6 8.9 Z M 51.6 8.9 " fill="none" stroke="#FEFFFE" stroke-width="2.00" transform="matrix(1.00, 0.00, 0.00, -1.00, 3.5, 63.1)"></path></g></g><g><clipPath id="clip0x6080006b24e0"><path d="M -1.1 16.0 L 68.6 16.0 L 68.6 49.6 L -1.1 49.6 Z M -1.1 16.0 "></path></clipPath><g clip-path="url(#clip0x6080006b24e0)"><text xml:space="preserve" font-family="KontrapunktBob-Bold,Kontrapunkt Bob" font-weight="bold" font-size="18.0" fill="#FEFFFE" transform="matrix(1.00, 0.00, -0.00, -1.00, 28.6, 26.4)">3</text></g></g></g></svg>