<?xml version="1.0" encoding="UTF-8" standalone="no"?><svg xmlns="http://www.w3.org/2000/svg" xmlns:xlink="http://www.w3.org/1999/xlink" clip-rule="evenodd" stroke-miterlimit="10" viewBox="0 0 66 66"><desc>SVG generated by Keynote</desc><defs></defs><g transform="matrix(1.00, 0.00, -0.00, -1.00, 0.0, 66.0)"><g><clipPath id="clip0x6080006a1680"><path d="M 0.6 0.6 L 65.1 0.6 L 65.1 65.1 L 0.6 65.1 Z M 0.6 0.6 "></path></clipPath><g clip-path="url(#clip0x6080006a1680)"><path d="M 54.2 54.2 C 66.0 42.4 66.0 23.2 54.2 11.4 C 42.4 -0.4 23.3 -0.4 11.5 11.4 C -0.3 23.2 -0.3 42.4 11.5 54.2 C 23.3 66.0 42.4 66.0 54.2 54.2 Z M 54.2 54.2 " fill="#7FC7EA"></path><path d="M 51.6 8.9 C 63.4 20.7 63.4 39.8 51.6 51.6 C 39.8 63.4 20.7 63.4 8.9 51.6 C -3.0 39.8 -3.0 20.7 8.9 8.9 C 20.7 -3.0 39.8 -3.0 51.6 8.9 Z M 51.6 8.9 " fill="none" stroke="#FEFFFE" stroke-width="2.00" transform="matrix(1.00, 0.00, 0.00, -1.00, 2.6, 63.1)"></path></g></g><g><clipPath id="clip0x6080006b5d80"><path d="M -2.0 16.0 L 67.7 16.0 L 67.7 49.6 L -2.0 49.6 Z M -2.0 16.0 "></path></clipPath><g clip-path="url(#clip0x6080006b5d80)"><text xml:space="preserve" font-family="KontrapunktBob-Bold,Kontrapunkt Bob" font-weight="bold" font-size="18.0" fill="#FEFFFE" transform="matrix(1.00, 0.00, -0.00, -1.00, 27.3, 26.4)">2</text></g></g></g></svg>