<?xml version="1.0" encoding="UTF-8" standalone="no"?><svg xmlns="http://www.w3.org/2000/svg" xmlns:xlink="http://www.w3.org/1999/xlink" clip-rule="evenodd" stroke-miterlimit="10" viewBox="0 0 202 16"><desc>SVG generated by Keynote</desc><defs></defs><g transform="matrix(1.00, 0.00, -0.00, -1.00, 0.0, 16.0)"><text xml:space="preserve" font-family="KontrapunktBob-Bold,Kontrapunkt Bob" font-weight="bold" font-size="12.0" fill="#52575F" transform="matrix(1.00, 0.00, -0.00, -1.00, 1.5, 4.8)">…</text><text xml:space="preserve" font-family="KontrapunktBob-Bold,Kontrapunkt Bob" font-weight="bold" font-size="12.0" fill="#52575F" transform="matrix(1.00, 0.00, -0.00, -1.00, 10.2, 4.8)"> </text><text xml:space="preserve" font-family="KontrapunktBob-Bold,Kontrapunkt Bob" font-weight="bold" font-size="12.0" fill="#52575F" transform="matrix(1.00, 0.00, -0.00, -1.00, 13.4, 4.8)">d</text><text xml:space="preserve" font-family="KontrapunktBob-Bold,Kontrapunkt Bob" font-weight="bold" font-size="12.0" fill="#52575F" transform="matrix(1.00, 0.00, -0.00, -1.00, 21.8, 4.8)">u</text><text xml:space="preserve" font-family="KontrapunktBob-Bold,Kontrapunkt Bob" font-weight="bold" font-size="12.0" fill="#52575F" transform="matrix(1.00, 0.00, -0.00, -1.00, 29.9, 4.8)">r</text><text xml:space="preserve" font-family="KontrapunktBob-Bold,Kontrapunkt Bob" font-weight="bold" font-size="12.0" fill="#52575F" transform="matrix(1.00, 0.00, -0.00, -1.00, 35.6, 4.8)">a</text><text xml:space="preserve" font-family="KontrapunktBob-Bold,Kontrapunkt Bob" font-weight="bold" font-size="12.0" fill="#52575F" transform="matrix(1.00, 0.00, -0.00, -1.00, 42.7, 4.8)">n</text><text xml:space="preserve" font-family="KontrapunktBob-Bold,Kontrapunkt Bob" font-weight="bold" font-size="12.0" fill="#52575F" transform="matrix(1.00, 0.00, -0.00, -1.00, 51.1, 4.8)">t</text><text xml:space="preserve" font-family="KontrapunktBob-Bold,Kontrapunkt Bob" font-weight="bold" font-size="12.0" fill="#52575F" transform="matrix(1.00, 0.00, -0.00, -1.00, 56.2, 4.8)">e</text><text xml:space="preserve" font-family="KontrapunktBob-Bold,Kontrapunkt Bob" font-weight="bold" font-size="12.0" fill="#52575F" transform="matrix(1.00, 0.00, -0.00, -1.00, 63.3, 4.8)"> </text><text xml:space="preserve" font-family="KontrapunktBob-Bold,Kontrapunkt Bob" font-weight="bold" font-size="12.0" fill="#52575F" transform="matrix(1.00, 0.00, -0.00, -1.00, 66.4, 4.8)">l</text><text xml:space="preserve" font-family="KontrapunktBob-Bold,Kontrapunkt Bob" font-weight="bold" font-size="12.0" fill="#52575F" transform="matrix(1.00, 0.00, -0.00, -1.00, 70.3, 4.8)">o</text><text xml:space="preserve" font-family="KontrapunktBob-Bold,Kontrapunkt Bob" font-weight="bold" font-size="12.0" fill="#52575F" transform="matrix(1.00, 0.00, -0.00, -1.00, 78.1, 4.8)">s</text><text xml:space="preserve" font-family="KontrapunktBob-Bold,Kontrapunkt Bob" font-weight="bold" font-size="12.0" fill="#52575F" transform="matrix(1.00, 0.00, -0.00, -1.00, 83.9, 4.8)"> </text><text xml:space="preserve" font-family="KontrapunktBob-Bold,Kontrapunkt Bob" font-weight="bold" font-size="12.0" fill="#52575F" transform="matrix(1.00, 0.00, -0.00, -1.00, 87.0, 4.8)">p</text><text xml:space="preserve" font-family="KontrapunktBob-Bold,Kontrapunkt Bob" font-weight="bold" font-size="12.0" fill="#52575F" transform="matrix(1.00, 0.00, -0.00, -1.00, 95.5, 4.8)">r</text><text xml:space="preserve" font-family="KontrapunktBob-Bold,Kontrapunkt Bob" font-weight="bold" font-size="12.0" fill="#52575F" transform="matrix(1.00, 0.00, -0.00, -1.00, 101.0, 4.8)">ó</text><text xml:space="preserve" font-family="KontrapunktBob-Bold,Kontrapunkt Bob" font-weight="bold" font-size="12.0" fill="#52575F" transform="matrix(1.00, 0.00, -0.00, -1.00, 108.7, 4.8)">x</text><text xml:space="preserve" font-family="KontrapunktBob-Bold,Kontrapunkt Bob" font-weight="bold" font-size="12.0" fill="#52575F" transform="matrix(1.00, 0.00, -0.00, -1.00, 116.1, 4.8)">i</text><text xml:space="preserve" font-family="KontrapunktBob-Bold,Kontrapunkt Bob" font-weight="bold" font-size="12.0" fill="#52575F" transform="matrix(1.00, 0.00, -0.00, -1.00, 120.2, 4.8)">m</text><text xml:space="preserve" font-family="KontrapunktBob-Bold,Kontrapunkt Bob" font-weight="bold" font-size="12.0" fill="#52575F" transform="matrix(1.00, 0.00, -0.00, -1.00, 132.6, 4.8)">o</text><text xml:space="preserve" font-family="KontrapunktBob-Bold,Kontrapunkt Bob" font-weight="bold" font-size="12.0" fill="#52575F" transform="matrix(1.00, 0.00, -0.00, -1.00, 140.4, 4.8)">s</text><text xml:space="preserve" font-family="KontrapunktBob-Bold,Kontrapunkt Bob" font-weight="bold" font-size="12.0" fill="#52575F" transform="matrix(1.00, 0.00, -0.00, -1.00, 146.1, 4.8)"> </text><text xml:space="preserve" font-family="KontrapunktBob-Bold,Kontrapunkt Bob" font-weight="bold" font-size="12.0" fill="#52575F" transform="matrix(1.00, 0.00, -0.00, -1.00, 149.2, 4.8)">m</text><text xml:space="preserve" font-family="KontrapunktBob-Bold,Kontrapunkt Bob" font-weight="bold" font-size="12.0" fill="#52575F" transform="matrix(1.00, 0.00, -0.00, -1.00, 161.5, 4.8)">i</text><text xml:space="preserve" font-family="KontrapunktBob-Bold,Kontrapunkt Bob" font-weight="bold" font-size="12.0" fill="#52575F" transform="matrix(1.00, 0.00, -0.00, -1.00, 165.7, 4.8)">n</text><text xml:space="preserve" font-family="KontrapunktBob-Bold,Kontrapunkt Bob" font-weight="bold" font-size="12.0" fill="#52575F" transform="matrix(1.00, 0.00, -0.00, -1.00, 173.8, 4.8)">u</text><text xml:space="preserve" font-family="KontrapunktBob-Bold,Kontrapunkt Bob" font-weight="bold" font-size="12.0" fill="#52575F" transform="matrix(1.00, 0.00, -0.00, -1.00, 181.9, 4.8)">t</text><text xml:space="preserve" font-family="KontrapunktBob-Bold,Kontrapunkt Bob" font-weight="bold" font-size="12.0" fill="#52575F" transform="matrix(1.00, 0.00, -0.00, -1.00, 187.0, 4.8)">o</text><text xml:space="preserve" font-family="KontrapunktBob-Bold,Kontrapunkt Bob" font-weight="bold" font-size="12.0" fill="#52575F" transform="matrix(1.00, 0.00, -0.00, -1.00, 194.8, 4.8)">s</text></g></svg>